<svg width="350" height="100" viewBox="0 0 350 100" fill="none" xmlns="http://www.w3.org/2000/svg">
<rect width="350" height="100" fill="white"/>
<rect x="24.5" y="19.5" width="299" height="49" fill="#F1FAEE" stroke="black"/>
<path d="M135.34 85.23C135.617 85.23 135.855 85.1983 136.055 85.135C136.255 85.0717 136.418 84.9833 136.545 84.87C136.675 84.7533 136.77 84.6167 136.83 84.46C136.89 84.3 136.92 84.125 136.92 83.935C136.92 83.565 136.788 83.2733 136.525 83.06C136.262 82.8433 135.867 82.735 135.34 82.735H133.79V85.23H135.34ZM133.79 79.6V82.045H135.07C135.343 82.045 135.58 82.015 135.78 81.955C135.983 81.895 136.15 81.8117 136.28 81.705C136.413 81.5983 136.512 81.47 136.575 81.32C136.638 81.1667 136.67 81 136.67 80.82C136.67 80.3967 136.543 80.0883 136.29 79.895C136.037 79.6983 135.643 79.6 135.11 79.6H133.79ZM135.11 78.835C135.55 78.835 135.928 78.8783 136.245 78.965C136.565 79.0517 136.827 79.175 137.03 79.335C137.237 79.495 137.388 79.6917 137.485 79.925C137.582 80.155 137.63 80.415 137.63 80.705C137.63 80.8817 137.602 81.0517 137.545 81.215C137.492 81.375 137.41 81.525 137.3 81.665C137.19 81.805 137.05 81.9317 136.88 82.045C136.713 82.155 136.517 82.245 136.29 82.315C136.817 82.415 137.212 82.6033 137.475 82.88C137.742 83.1533 137.875 83.5133 137.875 83.96C137.875 84.2633 137.818 84.54 137.705 84.79C137.595 85.04 137.432 85.255 137.215 85.435C137.002 85.615 136.738 85.755 136.425 85.855C136.112 85.9517 135.755 86 135.355 86H132.825V78.835H135.11ZM143.138 80.935V86H142.608C142.481 86 142.401 85.9383 142.368 85.815L142.298 85.27C142.078 85.5133 141.831 85.71 141.558 85.86C141.284 86.0067 140.971 86.08 140.618 86.08C140.341 86.08 140.096 86.035 139.883 85.945C139.673 85.8517 139.496 85.7217 139.353 85.555C139.209 85.3883 139.101 85.1867 139.028 84.95C138.958 84.7133 138.923 84.4517 138.923 84.165V80.935H139.813V84.165C139.813 84.5483 139.899 84.845 140.073 85.055C140.249 85.265 140.518 85.37 140.878 85.37C141.141 85.37 141.386 85.3083 141.613 85.185C141.843 85.0583 142.054 84.885 142.248 84.665V80.935H143.138ZM144.879 86V81.695L144.319 81.63C144.249 81.6133 144.19 81.5883 144.144 81.555C144.1 81.5183 144.079 81.4667 144.079 81.4V81.035H144.879V80.62C144.879 80.33 144.919 80.0733 144.999 79.85C145.082 79.6233 145.199 79.4333 145.349 79.28C145.502 79.1233 145.685 79.005 145.899 78.925C146.112 78.845 146.352 78.805 146.619 78.805C146.845 78.805 147.054 78.8383 147.244 78.905L147.224 79.355C147.217 79.435 147.172 79.4783 147.089 79.485C147.009 79.4917 146.9 79.495 146.764 79.495C146.61 79.495 146.47 79.515 146.344 79.555C146.22 79.5917 146.114 79.655 146.024 79.745C145.934 79.835 145.864 79.955 145.814 80.105C145.767 80.2517 145.744 80.4333 145.744 80.65V81.035H148.029V80.49C148.029 80.2 148.069 79.9433 148.149 79.72C148.232 79.4933 148.349 79.3033 148.499 79.15C148.652 78.9933 148.835 78.875 149.049 78.795C149.262 78.715 149.502 78.675 149.769 78.675C149.992 78.675 150.2 78.7083 150.394 78.775L150.374 79.22C150.367 79.3 150.322 79.3433 150.239 79.35C150.159 79.3567 150.05 79.36 149.914 79.36C149.76 79.36 149.62 79.38 149.494 79.42C149.37 79.46 149.264 79.525 149.174 79.615C149.084 79.705 149.014 79.8233 148.964 79.97C148.917 80.1167 148.894 80.2983 148.894 80.515V81.035H150.354V81.68H148.924V86H148.029V81.68H145.774V86H144.879ZM154.423 82.915C154.423 82.7083 154.393 82.52 154.333 82.35C154.276 82.1767 154.191 82.0283 154.078 81.905C153.968 81.7783 153.833 81.6817 153.673 81.615C153.513 81.545 153.331 81.51 153.128 81.51C152.701 81.51 152.363 81.635 152.113 81.885C151.866 82.1317 151.713 82.475 151.653 82.915H154.423ZM155.143 85.29C155.033 85.4233 154.901 85.54 154.748 85.64C154.595 85.7367 154.43 85.8167 154.253 85.88C154.08 85.9433 153.9 85.99 153.713 86.02C153.526 86.0533 153.341 86.07 153.158 86.07C152.808 86.07 152.485 86.0117 152.188 85.895C151.895 85.775 151.64 85.6017 151.423 85.375C151.21 85.145 151.043 84.8617 150.923 84.525C150.803 84.1883 150.743 83.8017 150.743 83.365C150.743 83.0117 150.796 82.6817 150.903 82.375C151.013 82.0683 151.17 81.8033 151.373 81.58C151.576 81.3533 151.825 81.1767 152.118 81.05C152.411 80.92 152.741 80.855 153.108 80.855C153.411 80.855 153.691 80.9067 153.948 81.01C154.208 81.11 154.431 81.2567 154.618 81.45C154.808 81.64 154.956 81.8767 155.063 82.16C155.17 82.44 155.223 82.76 155.223 83.12C155.223 83.26 155.208 83.3533 155.178 83.4C155.148 83.4467 155.091 83.47 155.008 83.47H151.623C151.633 83.79 151.676 84.0683 151.753 84.305C151.833 84.5417 151.943 84.74 152.083 84.9C152.223 85.0567 152.39 85.175 152.583 85.255C152.776 85.3317 152.993 85.37 153.233 85.37C153.456 85.37 153.648 85.345 153.808 85.295C153.971 85.2417 154.111 85.185 154.228 85.125C154.345 85.065 154.441 85.01 154.518 84.96C154.598 84.9067 154.666 84.88 154.723 84.88C154.796 84.88 154.853 84.9083 154.893 84.965L155.143 85.29ZM157.161 81.95C157.321 81.6033 157.518 81.3333 157.751 81.14C157.985 80.9433 158.27 80.845 158.606 80.845C158.713 80.845 158.815 80.8567 158.911 80.88C159.011 80.9033 159.1 80.94 159.176 80.99L159.111 81.655C159.091 81.7383 159.041 81.78 158.961 81.78C158.915 81.78 158.846 81.77 158.756 81.75C158.666 81.73 158.565 81.72 158.451 81.72C158.291 81.72 158.148 81.7433 158.021 81.79C157.898 81.8367 157.786 81.9067 157.686 82C157.59 82.09 157.501 82.2033 157.421 82.34C157.345 82.4733 157.275 82.6267 157.211 82.8V86H156.316V80.935H156.826C156.923 80.935 156.99 80.9533 157.026 80.99C157.063 81.0267 157.088 81.09 157.101 81.18L157.161 81.95ZM162.823 82.855C162.823 83.5683 162.913 84.2617 163.093 84.935C163.276 85.6083 163.543 86.2483 163.893 86.855C163.946 86.9583 163.959 87.0367 163.933 87.09C163.906 87.1467 163.868 87.1917 163.818 87.225L163.423 87.465C163.173 87.0817 162.959 86.7017 162.783 86.325C162.609 85.9483 162.468 85.57 162.358 85.19C162.251 84.81 162.173 84.4283 162.123 84.045C162.073 83.6583 162.048 83.2617 162.048 82.855C162.048 82.4517 162.073 82.0567 162.123 81.67C162.173 81.2833 162.251 80.9017 162.358 80.525C162.468 80.145 162.609 79.7667 162.783 79.39C162.959 79.0133 163.173 78.6317 163.423 78.245L163.818 78.49C163.868 78.5233 163.906 78.5683 163.933 78.625C163.959 78.6783 163.946 78.755 163.893 78.855C163.543 79.4617 163.276 80.1017 163.093 80.775C162.913 81.4483 162.823 82.1417 162.823 82.855ZM168.844 79.955C168.814 80.005 168.78 80.0433 168.744 80.07C168.71 80.0933 168.669 80.105 168.619 80.105C168.562 80.105 168.495 80.0767 168.419 80.02C168.342 79.9633 168.245 79.9017 168.129 79.835C168.015 79.765 167.877 79.7017 167.714 79.645C167.554 79.5883 167.359 79.56 167.129 79.56C166.912 79.56 166.72 79.59 166.554 79.65C166.39 79.7067 166.252 79.785 166.139 79.885C166.029 79.985 165.945 80.1033 165.889 80.24C165.832 80.3733 165.804 80.5183 165.804 80.675C165.804 80.875 165.852 81.0417 165.949 81.175C166.049 81.305 166.179 81.4167 166.339 81.51C166.502 81.6033 166.685 81.685 166.889 81.755C167.095 81.8217 167.305 81.8917 167.519 81.965C167.735 82.0383 167.945 82.1217 168.149 82.215C168.355 82.305 168.539 82.42 168.699 82.56C168.862 82.7 168.992 82.8717 169.089 83.075C169.189 83.2783 169.239 83.5283 169.239 83.825C169.239 84.1383 169.185 84.4333 169.079 84.71C168.972 84.9833 168.815 85.2217 168.609 85.425C168.405 85.6283 168.154 85.7883 167.854 85.905C167.557 86.0217 167.219 86.08 166.839 86.08C166.372 86.08 165.949 85.9967 165.569 85.83C165.189 85.66 164.864 85.4317 164.594 85.145L164.874 84.685C164.9 84.6483 164.932 84.6183 164.969 84.595C165.009 84.5683 165.052 84.555 165.099 84.555C165.142 84.555 165.19 84.5733 165.244 84.61C165.3 84.6433 165.364 84.6867 165.434 84.74C165.504 84.7933 165.584 84.8517 165.674 84.915C165.764 84.9783 165.865 85.0367 165.979 85.09C166.095 85.1433 166.227 85.1883 166.374 85.225C166.52 85.2583 166.685 85.275 166.869 85.275C167.099 85.275 167.304 85.2433 167.484 85.18C167.664 85.1167 167.815 85.0283 167.939 84.915C168.065 84.7983 168.162 84.66 168.229 84.5C168.295 84.34 168.329 84.1617 168.329 83.965C168.329 83.7483 168.279 83.5717 168.179 83.435C168.082 83.295 167.954 83.1783 167.794 83.085C167.634 82.9917 167.45 82.9133 167.244 82.85C167.037 82.7833 166.827 82.7167 166.614 82.65C166.4 82.58 166.19 82.5 165.984 82.41C165.777 82.32 165.594 82.2033 165.434 82.06C165.274 81.9167 165.144 81.7383 165.044 81.525C164.947 81.3083 164.899 81.0417 164.899 80.725C164.899 80.4717 164.947 80.2267 165.044 79.99C165.144 79.7533 165.287 79.5433 165.474 79.36C165.664 79.1767 165.895 79.03 166.169 78.92C166.445 78.81 166.762 78.755 167.119 78.755C167.519 78.755 167.882 78.8183 168.209 78.945C168.539 79.0717 168.829 79.255 169.079 79.495L168.844 79.955ZM171.729 86.08C171.329 86.08 171.02 85.9683 170.804 85.745C170.59 85.5217 170.484 85.2 170.484 84.78V81.68H169.874C169.82 81.68 169.775 81.665 169.739 81.635C169.702 81.6017 169.684 81.5517 169.684 81.485V81.13L170.514 81.025L170.719 79.46C170.729 79.41 170.75 79.37 170.784 79.34C170.82 79.3067 170.867 79.29 170.924 79.29H171.374V81.035H172.839V81.68H171.374V84.72C171.374 84.9333 171.425 85.0917 171.529 85.195C171.632 85.2983 171.765 85.35 171.929 85.35C172.022 85.35 172.102 85.3383 172.169 85.315C172.239 85.2883 172.299 85.26 172.349 85.23C172.399 85.2 172.44 85.1733 172.474 85.15C172.51 85.1233 172.542 85.11 172.569 85.11C172.615 85.11 172.657 85.1383 172.694 85.195L172.954 85.62C172.8 85.7633 172.615 85.8767 172.399 85.96C172.182 86.04 171.959 86.08 171.729 86.08ZM176.503 83.72C176.093 83.7333 175.743 83.7667 175.453 83.82C175.166 83.87 174.931 83.9367 174.748 84.02C174.568 84.1033 174.436 84.2017 174.353 84.315C174.273 84.4283 174.233 84.555 174.233 84.695C174.233 84.8283 174.254 84.9433 174.298 85.04C174.341 85.1367 174.399 85.2167 174.473 85.28C174.549 85.34 174.638 85.385 174.738 85.415C174.841 85.4417 174.951 85.455 175.068 85.455C175.224 85.455 175.368 85.44 175.498 85.41C175.628 85.3767 175.749 85.33 175.863 85.27C175.979 85.21 176.089 85.1383 176.193 85.055C176.299 84.9717 176.403 84.8767 176.503 84.77V83.72ZM173.628 81.65C173.908 81.38 174.209 81.1783 174.533 81.045C174.856 80.9117 175.214 80.845 175.608 80.845C175.891 80.845 176.143 80.8917 176.363 80.985C176.583 81.0783 176.768 81.2083 176.918 81.375C177.068 81.5417 177.181 81.7433 177.258 81.98C177.334 82.2167 177.373 82.4767 177.373 82.76V86H176.978C176.891 86 176.824 85.9867 176.778 85.96C176.731 85.93 176.694 85.8733 176.668 85.79L176.568 85.31C176.434 85.4333 176.304 85.5433 176.178 85.64C176.051 85.7333 175.918 85.8133 175.778 85.88C175.638 85.9433 175.488 85.9917 175.328 86.025C175.171 86.0617 174.996 86.08 174.803 86.08C174.606 86.08 174.421 86.0533 174.248 86C174.074 85.9433 173.923 85.86 173.793 85.75C173.666 85.64 173.564 85.5017 173.488 85.335C173.414 85.165 173.378 84.965 173.378 84.735C173.378 84.535 173.433 84.3433 173.543 84.16C173.653 83.9733 173.831 83.8083 174.078 83.665C174.324 83.5217 174.646 83.405 175.043 83.315C175.439 83.2217 175.926 83.1683 176.503 83.155V82.76C176.503 82.3667 176.418 82.07 176.248 81.87C176.078 81.6667 175.829 81.565 175.503 81.565C175.283 81.565 175.098 81.5933 174.948 81.65C174.801 81.7033 174.673 81.765 174.563 81.835C174.456 81.9017 174.363 81.9633 174.283 82.02C174.206 82.0733 174.129 82.1 174.053 82.1C173.993 82.1 173.941 82.085 173.898 82.055C173.854 82.0217 173.818 81.9817 173.788 81.935L173.628 81.65ZM183.36 86H182.47V81.68H179.86V84.72C179.86 84.9333 179.912 85.0917 180.015 85.195C180.118 85.2983 180.252 85.35 180.415 85.35C180.508 85.35 180.588 85.3383 180.655 85.315C180.725 85.2883 180.785 85.26 180.835 85.23C180.885 85.2 180.927 85.1733 180.96 85.15C180.997 85.1233 181.028 85.11 181.055 85.11C181.102 85.11 181.143 85.1383 181.18 85.195L181.44 85.62C181.287 85.7633 181.102 85.8767 180.885 85.96C180.668 86.04 180.445 86.08 180.215 86.08C179.815 86.08 179.507 85.9683 179.29 85.745C179.077 85.5217 178.97 85.2 178.97 84.78V81.68H178.36C178.307 81.68 178.262 81.665 178.225 81.635C178.188 81.6017 178.17 81.5517 178.17 81.485V81.13L179 81.02L179.205 79.46C179.215 79.41 179.237 79.37 179.27 79.34C179.307 79.3067 179.353 79.29 179.41 79.29H179.86V81.035H183.36V86ZM183.58 79.31C183.58 79.3967 183.562 79.4783 183.525 79.555C183.492 79.6283 183.445 79.6933 183.385 79.75C183.328 79.8067 183.262 79.8517 183.185 79.885C183.108 79.9183 183.027 79.935 182.94 79.935C182.853 79.935 182.772 79.9183 182.695 79.885C182.622 79.8517 182.557 79.8067 182.5 79.75C182.443 79.6933 182.398 79.6283 182.365 79.555C182.332 79.4783 182.315 79.3967 182.315 79.31C182.315 79.2233 182.332 79.1417 182.365 79.065C182.398 78.985 182.443 78.9167 182.5 78.86C182.557 78.8 182.622 78.7533 182.695 78.72C182.772 78.6867 182.853 78.67 182.94 78.67C183.027 78.67 183.108 78.6867 183.185 78.72C183.262 78.7533 183.328 78.8 183.385 78.86C183.445 78.9167 183.492 78.985 183.525 79.065C183.562 79.1417 183.58 79.2233 183.58 79.31ZM188.347 81.835C188.321 81.8717 188.294 81.9 188.267 81.92C188.241 81.94 188.204 81.95 188.157 81.95C188.107 81.95 188.052 81.93 187.992 81.89C187.932 81.8467 187.857 81.8 187.767 81.75C187.681 81.7 187.572 81.655 187.442 81.615C187.316 81.5717 187.159 81.55 186.972 81.55C186.722 81.55 186.502 81.595 186.312 81.685C186.122 81.7717 185.962 81.8983 185.832 82.065C185.706 82.2317 185.609 82.4333 185.542 82.67C185.479 82.9067 185.447 83.1717 185.447 83.465C185.447 83.7717 185.482 84.045 185.552 84.285C185.622 84.5217 185.721 84.7217 185.847 84.885C185.977 85.045 186.132 85.1683 186.312 85.255C186.496 85.3383 186.701 85.38 186.927 85.38C187.144 85.38 187.322 85.355 187.462 85.305C187.602 85.2517 187.717 85.1933 187.807 85.13C187.901 85.0667 187.977 85.01 188.037 84.96C188.101 84.9067 188.162 84.88 188.222 84.88C188.296 84.88 188.352 84.9083 188.392 84.965L188.642 85.29C188.532 85.4267 188.407 85.5433 188.267 85.64C188.127 85.7367 187.976 85.8183 187.812 85.885C187.652 85.9483 187.484 85.995 187.307 86.025C187.131 86.055 186.951 86.07 186.767 86.07C186.451 86.07 186.156 86.0117 185.882 85.895C185.612 85.7783 185.377 85.61 185.177 85.39C184.977 85.1667 184.821 84.8933 184.707 84.57C184.594 84.2467 184.537 83.8783 184.537 83.465C184.537 83.0883 184.589 82.74 184.692 82.42C184.799 82.1 184.952 81.825 185.152 81.595C185.356 81.3617 185.604 81.18 185.897 81.05C186.194 80.92 186.534 80.855 186.917 80.855C187.274 80.855 187.587 80.9133 187.857 81.03C188.131 81.1433 188.372 81.305 188.582 81.515L188.347 81.835ZM194.901 83.72C194.491 83.7333 194.141 83.7667 193.851 83.82C193.565 83.87 193.33 83.9367 193.146 84.02C192.966 84.1033 192.835 84.2017 192.751 84.315C192.671 84.4283 192.631 84.555 192.631 84.695C192.631 84.8283 192.653 84.9433 192.696 85.04C192.74 85.1367 192.798 85.2167 192.871 85.28C192.948 85.34 193.036 85.385 193.136 85.415C193.24 85.4417 193.35 85.455 193.466 85.455C193.623 85.455 193.766 85.44 193.896 85.41C194.026 85.3767 194.148 85.33 194.261 85.27C194.378 85.21 194.488 85.1383 194.591 85.055C194.698 84.9717 194.801 84.8767 194.901 84.77V83.72ZM192.026 81.65C192.306 81.38 192.608 81.1783 192.931 81.045C193.255 80.9117 193.613 80.845 194.006 80.845C194.29 80.845 194.541 80.8917 194.761 80.985C194.981 81.0783 195.166 81.2083 195.316 81.375C195.466 81.5417 195.58 81.7433 195.656 81.98C195.733 82.2167 195.771 82.4767 195.771 82.76V86H195.376C195.29 86 195.223 85.9867 195.176 85.96C195.13 85.93 195.093 85.8733 195.066 85.79L194.966 85.31C194.833 85.4333 194.703 85.5433 194.576 85.64C194.45 85.7333 194.316 85.8133 194.176 85.88C194.036 85.9433 193.886 85.9917 193.726 86.025C193.57 86.0617 193.395 86.08 193.201 86.08C193.005 86.08 192.82 86.0533 192.646 86C192.473 85.9433 192.321 85.86 192.191 85.75C192.065 85.64 191.963 85.5017 191.886 85.335C191.813 85.165 191.776 84.965 191.776 84.735C191.776 84.535 191.831 84.3433 191.941 84.16C192.051 83.9733 192.23 83.8083 192.476 83.665C192.723 83.5217 193.045 83.405 193.441 83.315C193.838 83.2217 194.325 83.1683 194.901 83.155V82.76C194.901 82.3667 194.816 82.07 194.646 81.87C194.476 81.6667 194.228 81.565 193.901 81.565C193.681 81.565 193.496 81.5933 193.346 81.65C193.2 81.7033 193.071 81.765 192.961 81.835C192.855 81.9017 192.761 81.9633 192.681 82.02C192.605 82.0733 192.528 82.1 192.451 82.1C192.391 82.1 192.34 82.085 192.296 82.055C192.253 82.0217 192.216 81.9817 192.186 81.935L192.026 81.65ZM197.972 81.95C198.132 81.6033 198.329 81.3333 198.562 81.14C198.795 80.9433 199.08 80.845 199.417 80.845C199.524 80.845 199.625 80.8567 199.722 80.88C199.822 80.9033 199.91 80.94 199.987 80.99L199.922 81.655C199.902 81.7383 199.852 81.78 199.772 81.78C199.725 81.78 199.657 81.77 199.567 81.75C199.477 81.73 199.375 81.72 199.262 81.72C199.102 81.72 198.959 81.7433 198.832 81.79C198.709 81.8367 198.597 81.9067 198.497 82C198.4 82.09 198.312 82.2033 198.232 82.34C198.155 82.4733 198.085 82.6267 198.022 82.8V86H197.127V80.935H197.637C197.734 80.935 197.8 80.9533 197.837 80.99C197.874 81.0267 197.899 81.09 197.912 81.18L197.972 81.95ZM201.614 81.95C201.774 81.6033 201.971 81.3333 202.204 81.14C202.438 80.9433 202.723 80.845 203.059 80.845C203.166 80.845 203.268 80.8567 203.364 80.88C203.464 80.9033 203.553 80.94 203.629 80.99L203.564 81.655C203.544 81.7383 203.494 81.78 203.414 81.78C203.368 81.78 203.299 81.77 203.209 81.75C203.119 81.73 203.018 81.72 202.904 81.72C202.744 81.72 202.601 81.7433 202.474 81.79C202.351 81.8367 202.239 81.9067 202.139 82C202.043 82.09 201.954 82.2033 201.874 82.34C201.798 82.4733 201.728 82.6267 201.664 82.8V86H200.769V80.935H201.279C201.376 80.935 201.443 80.9533 201.479 80.99C201.516 81.0267 201.541 81.09 201.554 81.18L201.614 81.95ZM207.079 83.72C206.669 83.7333 206.319 83.7667 206.029 83.82C205.742 83.87 205.507 83.9367 205.324 84.02C205.144 84.1033 205.012 84.2017 204.929 84.315C204.849 84.4283 204.809 84.555 204.809 84.695C204.809 84.8283 204.831 84.9433 204.874 85.04C204.917 85.1367 204.976 85.2167 205.049 85.28C205.126 85.34 205.214 85.385 205.314 85.415C205.417 85.4417 205.527 85.455 205.644 85.455C205.801 85.455 205.944 85.44 206.074 85.41C206.204 85.3767 206.326 85.33 206.439 85.27C206.556 85.21 206.666 85.1383 206.769 85.055C206.876 84.9717 206.979 84.8767 207.079 84.77V83.72ZM204.204 81.65C204.484 81.38 204.786 81.1783 205.109 81.045C205.432 80.9117 205.791 80.845 206.184 80.845C206.467 80.845 206.719 80.8917 206.939 80.985C207.159 81.0783 207.344 81.2083 207.494 81.375C207.644 81.5417 207.757 81.7433 207.834 81.98C207.911 82.2167 207.949 82.4767 207.949 82.76V86H207.554C207.467 86 207.401 85.9867 207.354 85.96C207.307 85.93 207.271 85.8733 207.244 85.79L207.144 85.31C207.011 85.4333 206.881 85.5433 206.754 85.64C206.627 85.7333 206.494 85.8133 206.354 85.88C206.214 85.9433 206.064 85.9917 205.904 86.025C205.747 86.0617 205.572 86.08 205.379 86.08C205.182 86.08 204.997 86.0533 204.824 86C204.651 85.9433 204.499 85.86 204.369 85.75C204.242 85.64 204.141 85.5017 204.064 85.335C203.991 85.165 203.954 84.965 203.954 84.735C203.954 84.535 204.009 84.3433 204.119 84.16C204.229 83.9733 204.407 83.8083 204.654 83.665C204.901 83.5217 205.222 83.405 205.619 83.315C206.016 83.2217 206.502 83.1683 207.079 83.155V82.76C207.079 82.3667 206.994 82.07 206.824 81.87C206.654 81.6667 206.406 81.565 206.079 81.565C205.859 81.565 205.674 81.5933 205.524 81.65C205.377 81.7033 205.249 81.765 205.139 81.835C205.032 81.9017 204.939 81.9633 204.859 82.02C204.782 82.0733 204.706 82.1 204.629 82.1C204.569 82.1 204.517 82.085 204.474 82.055C204.431 82.0217 204.394 81.9817 204.364 81.935L204.204 81.65ZM213.557 80.935L210.732 87.495C210.702 87.5617 210.664 87.615 210.617 87.655C210.574 87.695 210.506 87.715 210.412 87.715H209.752L210.677 85.705L208.587 80.935H209.357C209.434 80.935 209.494 80.955 209.537 80.995C209.584 81.0317 209.616 81.0733 209.632 81.12L210.987 84.31C211.041 84.45 211.086 84.5967 211.122 84.75C211.169 84.5933 211.219 84.445 211.272 84.305L212.587 81.12C212.607 81.0667 212.641 81.0233 212.687 80.99C212.737 80.9533 212.792 80.935 212.852 80.935H213.557ZM214.869 82.855C214.869 82.1417 214.777 81.4483 214.594 80.775C214.414 80.1017 214.149 79.4617 213.799 78.855C213.772 78.805 213.755 78.7617 213.749 78.725C213.742 78.685 213.744 78.6517 213.754 78.625C213.764 78.595 213.779 78.57 213.799 78.55C213.822 78.5267 213.847 78.5067 213.874 78.49L214.269 78.245C214.519 78.6317 214.73 79.0133 214.904 79.39C215.08 79.7667 215.222 80.145 215.329 80.525C215.439 80.9017 215.519 81.2833 215.569 81.67C215.619 82.0567 215.644 82.4517 215.644 82.855C215.644 83.2617 215.619 83.6583 215.569 84.045C215.519 84.4283 215.439 84.81 215.329 85.19C215.222 85.57 215.08 85.9483 214.904 86.325C214.73 86.7017 214.519 87.0817 214.269 87.465L213.874 87.225C213.847 87.2083 213.822 87.1883 213.799 87.165C213.779 87.145 213.764 87.12 213.754 87.09C213.744 87.0633 213.742 87.03 213.749 86.99C213.755 86.95 213.772 86.905 213.799 86.855C214.149 86.2483 214.414 85.6083 214.594 84.935C214.777 84.2617 214.869 83.5683 214.869 82.855Z" fill="black"/>
</svg>
