<svg width="350" height="100" viewBox="0 0 350 100" fill="none" xmlns="http://www.w3.org/2000/svg">
<rect width="350" height="100" fill="white"/>
<rect x="24.5" y="21.5" width="299" height="49" fill="#F1FAEE" stroke="black"/>
<rect x="24.5" y="21.5" width="92" height="49" fill="#F2CC8F" stroke="black"/>
<path d="M41.5677 47.34L40.4427 44.425C40.4093 44.3383 40.3743 44.2383 40.3377 44.125C40.301 44.0083 40.266 43.885 40.2327 43.755C40.1627 44.025 40.091 44.25 40.0177 44.43L38.8927 47.34H41.5677ZM43.5877 50H42.8377C42.751 50 42.681 49.9783 42.6277 49.935C42.5743 49.8917 42.5343 49.8367 42.5077 49.77L41.8377 48.04H38.6227L37.9527 49.77C37.9327 49.83 37.8943 49.8833 37.8377 49.93C37.781 49.9767 37.711 50 37.6277 50H36.8777L39.7427 42.835H40.7227L43.5877 50ZM45.2207 42.635V50H44.3307V42.635H45.2207ZM47.584 42.635V50H46.694V42.635H47.584ZM51.1623 44.855C51.5323 44.855 51.8656 44.9167 52.1623 45.04C52.4589 45.1633 52.7123 45.3383 52.9223 45.565C53.1323 45.7917 53.2923 46.0667 53.4023 46.39C53.5156 46.71 53.5723 47.0683 53.5723 47.465C53.5723 47.865 53.5156 48.225 53.4023 48.545C53.2923 48.865 53.1323 49.1383 52.9223 49.365C52.7123 49.5917 52.4589 49.7667 52.1623 49.89C51.8656 50.01 51.5323 50.07 51.1623 50.07C50.7889 50.07 50.4523 50.01 50.1523 49.89C49.8556 49.7667 49.6023 49.5917 49.3923 49.365C49.1823 49.1383 49.0206 48.865 48.9073 48.545C48.7973 48.225 48.7423 47.865 48.7423 47.465C48.7423 47.0683 48.7973 46.71 48.9073 46.39C49.0206 46.0667 49.1823 45.7917 49.3923 45.565C49.6023 45.3383 49.8556 45.1633 50.1523 45.04C50.4523 44.9167 50.7889 44.855 51.1623 44.855ZM51.1623 49.375C51.6623 49.375 52.0356 49.2083 52.2823 48.875C52.5289 48.5383 52.6523 48.07 52.6523 47.47C52.6523 46.8667 52.5289 46.3967 52.2823 46.06C52.0356 45.7233 51.6623 45.555 51.1623 45.555C50.9089 45.555 50.6873 45.5983 50.4973 45.685C50.3106 45.7717 50.1539 45.8967 50.0273 46.06C49.9039 46.2233 49.8106 46.425 49.7473 46.665C49.6873 46.9017 49.6573 47.17 49.6573 47.47C49.6573 48.07 49.7806 48.5383 50.0273 48.875C50.2773 49.2083 50.6556 49.375 51.1623 49.375ZM58.2261 45.835C58.1994 45.8717 58.1728 45.9 58.1461 45.92C58.1194 45.94 58.0828 45.95 58.0361 45.95C57.9861 45.95 57.9311 45.93 57.8711 45.89C57.8111 45.8467 57.7361 45.8 57.6461 45.75C57.5594 45.7 57.4511 45.655 57.3211 45.615C57.1944 45.5717 57.0378 45.55 56.8511 45.55C56.6011 45.55 56.3811 45.595 56.1911 45.685C56.0011 45.7717 55.8411 45.8983 55.7111 46.065C55.5844 46.2317 55.4878 46.4333 55.4211 46.67C55.3578 46.9067 55.3261 47.1717 55.3261 47.465C55.3261 47.7717 55.3611 48.045 55.4311 48.285C55.5011 48.5217 55.5994 48.7217 55.7261 48.885C55.8561 49.045 56.0111 49.1683 56.1911 49.255C56.3744 49.3383 56.5794 49.38 56.8061 49.38C57.0228 49.38 57.2011 49.355 57.3411 49.305C57.4811 49.2517 57.5961 49.1933 57.6861 49.13C57.7794 49.0667 57.8561 49.01 57.9161 48.96C57.9794 48.9067 58.0411 48.88 58.1011 48.88C58.1744 48.88 58.2311 48.9083 58.2711 48.965L58.5211 49.29C58.4111 49.4267 58.2861 49.5433 58.1461 49.64C58.0061 49.7367 57.8544 49.8183 57.6911 49.885C57.5311 49.9483 57.3628 49.995 57.1861 50.025C57.0094 50.055 56.8294 50.07 56.6461 50.07C56.3294 50.07 56.0344 50.0117 55.7611 49.895C55.4911 49.7783 55.2561 49.61 55.0561 49.39C54.8561 49.1667 54.6994 48.8933 54.5861 48.57C54.4728 48.2467 54.4161 47.8783 54.4161 47.465C54.4161 47.0883 54.4678 46.74 54.5711 46.42C54.6778 46.1 54.8311 45.825 55.0311 45.595C55.2344 45.3617 55.4828 45.18 55.7761 45.05C56.0728 44.92 56.4128 44.855 56.7961 44.855C57.1528 44.855 57.4661 44.9133 57.7361 45.03C58.0094 45.1433 58.2511 45.305 58.4611 45.515L58.2261 45.835ZM62.2215 47.72C61.8115 47.7333 61.4615 47.7667 61.1715 47.82C60.8848 47.87 60.6498 47.9367 60.4665 48.02C60.2865 48.1033 60.1548 48.2017 60.0715 48.315C59.9915 48.4283 59.9515 48.555 59.9515 48.695C59.9515 48.8283 59.9732 48.9433 60.0165 49.04C60.0598 49.1367 60.1182 49.2167 60.1915 49.28C60.2682 49.34 60.3565 49.385 60.4565 49.415C60.5598 49.4417 60.6698 49.455 60.7865 49.455C60.9432 49.455 61.0865 49.44 61.2165 49.41C61.3465 49.3767 61.4682 49.33 61.5815 49.27C61.6982 49.21 61.8082 49.1383 61.9115 49.055C62.0182 48.9717 62.1215 48.8767 62.2215 48.77V47.72ZM59.3465 45.65C59.6265 45.38 59.9282 45.1783 60.2515 45.045C60.5748 44.9117 60.9332 44.845 61.3265 44.845C61.6098 44.845 61.8615 44.8917 62.0815 44.985C62.3015 45.0783 62.4865 45.2083 62.6365 45.375C62.7865 45.5417 62.8998 45.7433 62.9765 45.98C63.0532 46.2167 63.0915 46.4767 63.0915 46.76V50H62.6965C62.6098 50 62.5432 49.9867 62.4965 49.96C62.4498 49.93 62.4132 49.8733 62.3865 49.79L62.2865 49.31C62.1532 49.4333 62.0232 49.5433 61.8965 49.64C61.7698 49.7333 61.6365 49.8133 61.4965 49.88C61.3565 49.9433 61.2065 49.9917 61.0465 50.025C60.8898 50.0617 60.7148 50.08 60.5215 50.08C60.3248 50.08 60.1398 50.0533 59.9665 50C59.7932 49.9433 59.6415 49.86 59.5115 49.75C59.3848 49.64 59.2832 49.5017 59.2065 49.335C59.1332 49.165 59.0965 48.965 59.0965 48.735C59.0965 48.535 59.1515 48.3433 59.2615 48.16C59.3715 47.9733 59.5498 47.8083 59.7965 47.665C60.0432 47.5217 60.3648 47.405 60.7615 47.315C61.1582 47.2217 61.6448 47.1683 62.2215 47.155V46.76C62.2215 46.3667 62.1365 46.07 61.9665 45.87C61.7965 45.6667 61.5482 45.565 61.2215 45.565C61.0015 45.565 60.8165 45.5933 60.6665 45.65C60.5198 45.7033 60.3915 45.765 60.2815 45.835C60.1748 45.9017 60.0815 45.9633 60.0015 46.02C59.9248 46.0733 59.8482 46.1 59.7715 46.1C59.7115 46.1 59.6598 46.085 59.6165 46.055C59.5732 46.0217 59.5365 45.9817 59.5065 45.935L59.3465 45.65ZM65.9338 50.08C65.5338 50.08 65.2255 49.9683 65.0088 49.745C64.7955 49.5217 64.6888 49.2 64.6888 48.78V45.68H64.0788C64.0255 45.68 63.9805 45.665 63.9438 45.635C63.9072 45.6017 63.8888 45.5517 63.8888 45.485V45.13L64.7188 45.025L64.9238 43.46C64.9338 43.41 64.9555 43.37 64.9888 43.34C65.0255 43.3067 65.0722 43.29 65.1288 43.29H65.5788V45.035H67.0438V45.68H65.5788V48.72C65.5788 48.9333 65.6305 49.0917 65.7338 49.195C65.8372 49.2983 65.9705 49.35 66.1338 49.35C66.2272 49.35 66.3072 49.3383 66.3738 49.315C66.4438 49.2883 66.5038 49.26 66.5538 49.23C66.6038 49.2 66.6455 49.1733 66.6788 49.15C66.7155 49.1233 66.7472 49.11 66.7738 49.11C66.8205 49.11 66.8622 49.1383 66.8988 49.195L67.1588 49.62C67.0055 49.7633 66.8205 49.8767 66.6038 49.96C66.3872 50.04 66.1638 50.08 65.9338 50.08ZM71.3235 46.915C71.3235 46.7083 71.2935 46.52 71.2335 46.35C71.1768 46.1767 71.0918 46.0283 70.9785 45.905C70.8685 45.7783 70.7335 45.6817 70.5735 45.615C70.4135 45.545 70.2318 45.51 70.0285 45.51C69.6018 45.51 69.2635 45.635 69.0135 45.885C68.7668 46.1317 68.6135 46.475 68.5535 46.915H71.3235ZM72.0435 49.29C71.9335 49.4233 71.8018 49.54 71.6485 49.64C71.4952 49.7367 71.3302 49.8167 71.1535 49.88C70.9802 49.9433 70.8002 49.99 70.6135 50.02C70.4268 50.0533 70.2418 50.07 70.0585 50.07C69.7085 50.07 69.3852 50.0117 69.0885 49.895C68.7952 49.775 68.5402 49.6017 68.3235 49.375C68.1102 49.145 67.9435 48.8617 67.8235 48.525C67.7035 48.1883 67.6435 47.8017 67.6435 47.365C67.6435 47.0117 67.6968 46.6817 67.8035 46.375C67.9135 46.0683 68.0702 45.8033 68.2735 45.58C68.4768 45.3533 68.7252 45.1767 69.0185 45.05C69.3118 44.92 69.6418 44.855 70.0085 44.855C70.3118 44.855 70.5918 44.9067 70.8485 45.01C71.1085 45.11 71.3318 45.2567 71.5185 45.45C71.7085 45.64 71.8568 45.8767 71.9635 46.16C72.0702 46.44 72.1235 46.76 72.1235 47.12C72.1235 47.26 72.1085 47.3533 72.0785 47.4C72.0485 47.4467 71.9918 47.47 71.9085 47.47H68.5235C68.5335 47.79 68.5768 48.0683 68.6535 48.305C68.7335 48.5417 68.8435 48.74 68.9835 48.9C69.1235 49.0567 69.2902 49.175 69.4835 49.255C69.6768 49.3317 69.8935 49.37 70.1335 49.37C70.3568 49.37 70.5485 49.345 70.7085 49.295C70.8718 49.2417 71.0118 49.185 71.1285 49.125C71.2452 49.065 71.3418 49.01 71.4185 48.96C71.4985 48.9067 71.5668 48.88 71.6235 48.88C71.6968 48.88 71.7535 48.9083 71.7935 48.965L72.0435 49.29ZM76.5167 46.14C76.3501 45.9167 76.1701 45.7617 75.9767 45.675C75.7834 45.585 75.5667 45.54 75.3267 45.54C74.8567 45.54 74.4951 45.7083 74.2417 46.045C73.9884 46.3817 73.8617 46.8617 73.8617 47.485C73.8617 47.815 73.8901 48.0983 73.9467 48.335C74.0034 48.5683 74.0867 48.7617 74.1967 48.915C74.3067 49.065 74.4417 49.175 74.6017 49.245C74.7617 49.315 74.9434 49.35 75.1467 49.35C75.4401 49.35 75.6951 49.2833 75.9117 49.15C76.1317 49.0167 76.3334 48.8283 76.5167 48.585V46.14ZM77.4067 42.635V50H76.8767C76.7501 50 76.6701 49.9383 76.6367 49.815L76.5567 49.2C76.3401 49.46 76.0934 49.67 75.8167 49.83C75.5401 49.99 75.2201 50.07 74.8567 50.07C74.5667 50.07 74.3034 50.015 74.0667 49.905C73.8301 49.7917 73.6284 49.6267 73.4617 49.41C73.2951 49.1933 73.1667 48.9233 73.0767 48.6C72.9867 48.2767 72.9417 47.905 72.9417 47.485C72.9417 47.1117 72.9917 46.765 73.0917 46.445C73.1917 46.1217 73.3351 45.8417 73.5217 45.605C73.7084 45.3683 73.9367 45.1833 74.2067 45.05C74.4801 44.9133 74.7867 44.845 75.1267 44.845C75.4367 44.845 75.7017 44.8983 75.9217 45.005C76.1451 45.1083 76.3434 45.2533 76.5167 45.44V42.635H77.4067ZM82.266 48.78C82.4293 49 82.6077 49.155 82.801 49.245C82.9977 49.335 83.2127 49.38 83.446 49.38C83.9227 49.38 84.2877 49.2117 84.541 48.875C84.7943 48.5383 84.921 48.0367 84.921 47.37C84.921 46.75 84.8077 46.295 84.581 46.005C84.3577 45.7117 84.0377 45.565 83.621 45.565C83.331 45.565 83.0777 45.6317 82.861 45.765C82.6477 45.8983 82.4493 46.0867 82.266 46.33V48.78ZM82.266 45.665C82.4793 45.4183 82.7193 45.2217 82.986 45.075C83.256 44.9283 83.566 44.855 83.916 44.855C84.2127 44.855 84.4793 44.9117 84.716 45.025C84.956 45.1383 85.1593 45.3033 85.326 45.52C85.4927 45.7333 85.6193 45.9933 85.706 46.3C85.796 46.6067 85.841 46.9517 85.841 47.335C85.841 47.745 85.791 48.1183 85.691 48.455C85.591 48.7917 85.446 49.08 85.256 49.32C85.0693 49.5567 84.841 49.7417 84.571 49.875C84.301 50.005 83.9977 50.07 83.661 50.07C83.3277 50.07 83.046 50.0083 82.816 49.885C82.5893 49.7583 82.391 49.58 82.221 49.35L82.176 49.81C82.1493 49.9367 82.0727 50 81.946 50H81.371V42.635H82.266V45.665ZM87.8867 42.635V50H86.9967V42.635H87.8867ZM91.465 44.855C91.835 44.855 92.1683 44.9167 92.465 45.04C92.7617 45.1633 93.015 45.3383 93.225 45.565C93.435 45.7917 93.595 46.0667 93.705 46.39C93.8183 46.71 93.875 47.0683 93.875 47.465C93.875 47.865 93.8183 48.225 93.705 48.545C93.595 48.865 93.435 49.1383 93.225 49.365C93.015 49.5917 92.7617 49.7667 92.465 49.89C92.1683 50.01 91.835 50.07 91.465 50.07C91.0917 50.07 90.755 50.01 90.455 49.89C90.1583 49.7667 89.905 49.5917 89.695 49.365C89.485 49.1383 89.3233 48.865 89.21 48.545C89.1 48.225 89.045 47.865 89.045 47.465C89.045 47.0683 89.1 46.71 89.21 46.39C89.3233 46.0667 89.485 45.7917 89.695 45.565C89.905 45.3383 90.1583 45.1633 90.455 45.04C90.755 44.9167 91.0917 44.855 91.465 44.855ZM91.465 49.375C91.965 49.375 92.3383 49.2083 92.585 48.875C92.8317 48.5383 92.955 48.07 92.955 47.47C92.955 46.8667 92.8317 46.3967 92.585 46.06C92.3383 45.7233 91.965 45.555 91.465 45.555C91.2117 45.555 90.99 45.5983 90.8 45.685C90.6133 45.7717 90.4567 45.8967 90.33 46.06C90.2067 46.2233 90.1133 46.425 90.05 46.665C89.99 46.9017 89.96 47.17 89.96 47.47C89.96 48.07 90.0833 48.5383 90.33 48.875C90.58 49.2083 90.9583 49.375 91.465 49.375ZM98.5288 45.835C98.5022 45.8717 98.4755 45.9 98.4488 45.92C98.4222 45.94 98.3855 45.95 98.3388 45.95C98.2888 45.95 98.2338 45.93 98.1738 45.89C98.1138 45.8467 98.0388 45.8 97.9488 45.75C97.8622 45.7 97.7538 45.655 97.6238 45.615C97.4972 45.5717 97.3405 45.55 97.1538 45.55C96.9038 45.55 96.6838 45.595 96.4938 45.685C96.3038 45.7717 96.1438 45.8983 96.0138 46.065C95.8872 46.2317 95.7905 46.4333 95.7238 46.67C95.6605 46.9067 95.6288 47.1717 95.6288 47.465C95.6288 47.7717 95.6638 48.045 95.7338 48.285C95.8038 48.5217 95.9022 48.7217 96.0288 48.885C96.1588 49.045 96.3138 49.1683 96.4938 49.255C96.6772 49.3383 96.8822 49.38 97.1088 49.38C97.3255 49.38 97.5038 49.355 97.6438 49.305C97.7838 49.2517 97.8988 49.1933 97.9888 49.13C98.0822 49.0667 98.1588 49.01 98.2188 48.96C98.2822 48.9067 98.3438 48.88 98.4038 48.88C98.4772 48.88 98.5338 48.9083 98.5738 48.965L98.8238 49.29C98.7138 49.4267 98.5888 49.5433 98.4488 49.64C98.3088 49.7367 98.1572 49.8183 97.9938 49.885C97.8338 49.9483 97.6655 49.995 97.4888 50.025C97.3122 50.055 97.1322 50.07 96.9488 50.07C96.6322 50.07 96.3372 50.0117 96.0638 49.895C95.7938 49.7783 95.5588 49.61 95.3588 49.39C95.1588 49.1667 95.0022 48.8933 94.8888 48.57C94.7755 48.2467 94.7188 47.8783 94.7188 47.465C94.7188 47.0883 94.7705 46.74 94.8738 46.42C94.9805 46.1 95.1338 45.825 95.3338 45.595C95.5372 45.3617 95.7855 45.18 96.0788 45.05C96.3755 44.92 96.7155 44.855 97.0988 44.855C97.4555 44.855 97.7688 44.9133 98.0388 45.03C98.3122 45.1433 98.5538 45.305 98.7638 45.515L98.5288 45.835ZM100.674 42.635V46.97H100.904C100.971 46.97 101.026 46.9617 101.069 46.945C101.116 46.925 101.164 46.8867 101.214 46.83L102.814 45.115C102.861 45.0583 102.909 45.015 102.959 44.985C103.013 44.9517 103.083 44.935 103.169 44.935H103.974L102.109 46.92C102.019 47.0333 101.923 47.1217 101.819 47.185C101.879 47.225 101.933 47.2717 101.979 47.325C102.029 47.375 102.076 47.4333 102.119 47.5L104.099 50H103.304C103.228 50 103.161 49.9883 103.104 49.965C103.051 49.9383 103.004 49.8917 102.964 49.825L101.299 47.75C101.249 47.68 101.199 47.635 101.149 47.615C101.103 47.5917 101.029 47.58 100.929 47.58H100.674V50H99.7792V42.635H100.674Z" fill="black"/>
<path d="M191.748 43.625V46.13H194.693V46.92H191.748V50H190.778V42.835H195.193V43.625H191.748ZM196.638 45.95C196.798 45.6033 196.995 45.3333 197.228 45.14C197.461 44.9433 197.746 44.845 198.083 44.845C198.19 44.845 198.291 44.8567 198.388 44.88C198.488 44.9033 198.576 44.94 198.653 44.99L198.588 45.655C198.568 45.7383 198.518 45.78 198.438 45.78C198.391 45.78 198.323 45.77 198.233 45.75C198.143 45.73 198.041 45.72 197.928 45.72C197.768 45.72 197.625 45.7433 197.498 45.79C197.375 45.8367 197.263 45.9067 197.163 46C197.066 46.09 196.978 46.2033 196.898 46.34C196.821 46.4733 196.751 46.6267 196.688 46.8V50H195.793V44.935H196.303C196.4 44.935 196.466 44.9533 196.503 44.99C196.54 45.0267 196.565 45.09 196.578 45.18L196.638 45.95ZM202.62 46.915C202.62 46.7083 202.59 46.52 202.53 46.35C202.474 46.1767 202.389 46.0283 202.275 45.905C202.165 45.7783 202.03 45.6817 201.87 45.615C201.71 45.545 201.529 45.51 201.325 45.51C200.899 45.51 200.56 45.635 200.31 45.885C200.064 46.1317 199.91 46.475 199.85 46.915H202.62ZM203.34 49.29C203.23 49.4233 203.099 49.54 202.945 49.64C202.792 49.7367 202.627 49.8167 202.45 49.88C202.277 49.9433 202.097 49.99 201.91 50.02C201.724 50.0533 201.539 50.07 201.355 50.07C201.005 50.07 200.682 50.0117 200.385 49.895C200.092 49.775 199.837 49.6017 199.62 49.375C199.407 49.145 199.24 48.8617 199.12 48.525C199 48.1883 198.94 47.8017 198.94 47.365C198.94 47.0117 198.994 46.6817 199.1 46.375C199.21 46.0683 199.367 45.8033 199.57 45.58C199.774 45.3533 200.022 45.1767 200.315 45.05C200.609 44.92 200.939 44.855 201.305 44.855C201.609 44.855 201.889 44.9067 202.145 45.01C202.405 45.11 202.629 45.2567 202.815 45.45C203.005 45.64 203.154 45.8767 203.26 46.16C203.367 46.44 203.42 46.76 203.42 47.12C203.42 47.26 203.405 47.3533 203.375 47.4C203.345 47.4467 203.289 47.47 203.205 47.47H199.82C199.83 47.79 199.874 48.0683 199.95 48.305C200.03 48.5417 200.14 48.74 200.28 48.9C200.42 49.0567 200.587 49.175 200.78 49.255C200.974 49.3317 201.19 49.37 201.43 49.37C201.654 49.37 201.845 49.345 202.005 49.295C202.169 49.2417 202.309 49.185 202.425 49.125C202.542 49.065 202.639 49.01 202.715 48.96C202.795 48.9067 202.864 48.88 202.92 48.88C202.994 48.88 203.05 48.9083 203.09 48.965L203.34 49.29ZM207.904 46.915C207.904 46.7083 207.874 46.52 207.814 46.35C207.757 46.1767 207.672 46.0283 207.559 45.905C207.449 45.7783 207.314 45.6817 207.154 45.615C206.994 45.545 206.812 45.51 206.609 45.51C206.182 45.51 205.844 45.635 205.594 45.885C205.347 46.1317 205.194 46.475 205.134 46.915H207.904ZM208.624 49.29C208.514 49.4233 208.382 49.54 208.229 49.64C208.075 49.7367 207.91 49.8167 207.734 49.88C207.56 49.9433 207.38 49.99 207.194 50.02C207.007 50.0533 206.822 50.07 206.639 50.07C206.289 50.07 205.965 50.0117 205.669 49.895C205.375 49.775 205.12 49.6017 204.904 49.375C204.69 49.145 204.524 48.8617 204.404 48.525C204.284 48.1883 204.224 47.8017 204.224 47.365C204.224 47.0117 204.277 46.6817 204.384 46.375C204.494 46.0683 204.65 45.8033 204.854 45.58C205.057 45.3533 205.305 45.1767 205.599 45.05C205.892 44.92 206.222 44.855 206.589 44.855C206.892 44.855 207.172 44.9067 207.429 45.01C207.689 45.11 207.912 45.2567 208.099 45.45C208.289 45.64 208.437 45.8767 208.544 46.16C208.65 46.44 208.704 46.76 208.704 47.12C208.704 47.26 208.689 47.3533 208.659 47.4C208.629 47.4467 208.572 47.47 208.489 47.47H205.104C205.114 47.79 205.157 48.0683 205.234 48.305C205.314 48.5417 205.424 48.74 205.564 48.9C205.704 49.0567 205.87 49.175 206.064 49.255C206.257 49.3317 206.474 49.37 206.714 49.37C206.937 49.37 207.129 49.345 207.289 49.295C207.452 49.2417 207.592 49.185 207.709 49.125C207.825 49.065 207.922 49.01 207.999 48.96C208.079 48.9067 208.147 48.88 208.204 48.88C208.277 48.88 208.334 48.9083 208.374 48.965L208.624 49.29ZM213.25 48.78C213.414 49 213.592 49.155 213.785 49.245C213.982 49.335 214.197 49.38 214.43 49.38C214.907 49.38 215.272 49.2117 215.525 48.875C215.779 48.5383 215.905 48.0367 215.905 47.37C215.905 46.75 215.792 46.295 215.565 46.005C215.342 45.7117 215.022 45.565 214.605 45.565C214.315 45.565 214.062 45.6317 213.845 45.765C213.632 45.8983 213.434 46.0867 213.25 46.33V48.78ZM213.25 45.665C213.464 45.4183 213.704 45.2217 213.97 45.075C214.24 44.9283 214.55 44.855 214.9 44.855C215.197 44.855 215.464 44.9117 215.7 45.025C215.94 45.1383 216.144 45.3033 216.31 45.52C216.477 45.7333 216.604 45.9933 216.69 46.3C216.78 46.6067 216.825 46.9517 216.825 47.335C216.825 47.745 216.775 48.1183 216.675 48.455C216.575 48.7917 216.43 49.08 216.24 49.32C216.054 49.5567 215.825 49.7417 215.555 49.875C215.285 50.005 214.982 50.07 214.645 50.07C214.312 50.07 214.03 50.0083 213.8 49.885C213.574 49.7583 213.375 49.58 213.205 49.35L213.16 49.81C213.134 49.9367 213.057 50 212.93 50H212.355V42.635H213.25V45.665ZM218.871 42.635V50H217.981V42.635H218.871ZM222.449 44.855C222.819 44.855 223.153 44.9167 223.449 45.04C223.746 45.1633 223.999 45.3383 224.209 45.565C224.419 45.7917 224.579 46.0667 224.689 46.39C224.803 46.71 224.859 47.0683 224.859 47.465C224.859 47.865 224.803 48.225 224.689 48.545C224.579 48.865 224.419 49.1383 224.209 49.365C223.999 49.5917 223.746 49.7667 223.449 49.89C223.153 50.01 222.819 50.07 222.449 50.07C222.076 50.07 221.739 50.01 221.439 49.89C221.143 49.7667 220.889 49.5917 220.679 49.365C220.469 49.1383 220.308 48.865 220.194 48.545C220.084 48.225 220.029 47.865 220.029 47.465C220.029 47.0683 220.084 46.71 220.194 46.39C220.308 46.0667 220.469 45.7917 220.679 45.565C220.889 45.3383 221.143 45.1633 221.439 45.04C221.739 44.9167 222.076 44.855 222.449 44.855ZM222.449 49.375C222.949 49.375 223.323 49.2083 223.569 48.875C223.816 48.5383 223.939 48.07 223.939 47.47C223.939 46.8667 223.816 46.3967 223.569 46.06C223.323 45.7233 222.949 45.555 222.449 45.555C222.196 45.555 221.974 45.5983 221.784 45.685C221.598 45.7717 221.441 45.8967 221.314 46.06C221.191 46.2233 221.098 46.425 221.034 46.665C220.974 46.9017 220.944 47.17 220.944 47.47C220.944 48.07 221.068 48.5383 221.314 48.875C221.564 49.2083 221.943 49.375 222.449 49.375ZM229.513 45.835C229.487 45.8717 229.46 45.9 229.433 45.92C229.407 45.94 229.37 45.95 229.323 45.95C229.273 45.95 229.218 45.93 229.158 45.89C229.098 45.8467 229.023 45.8 228.933 45.75C228.847 45.7 228.738 45.655 228.608 45.615C228.482 45.5717 228.325 45.55 228.138 45.55C227.888 45.55 227.668 45.595 227.478 45.685C227.288 45.7717 227.128 45.8983 226.998 46.065C226.872 46.2317 226.775 46.4333 226.708 46.67C226.645 46.9067 226.613 47.1717 226.613 47.465C226.613 47.7717 226.648 48.045 226.718 48.285C226.788 48.5217 226.887 48.7217 227.013 48.885C227.143 49.045 227.298 49.1683 227.478 49.255C227.662 49.3383 227.867 49.38 228.093 49.38C228.31 49.38 228.488 49.355 228.628 49.305C228.768 49.2517 228.883 49.1933 228.973 49.13C229.067 49.0667 229.143 49.01 229.203 48.96C229.267 48.9067 229.328 48.88 229.388 48.88C229.462 48.88 229.518 48.9083 229.558 48.965L229.808 49.29C229.698 49.4267 229.573 49.5433 229.433 49.64C229.293 49.7367 229.142 49.8183 228.978 49.885C228.818 49.9483 228.65 49.995 228.473 50.025C228.297 50.055 228.117 50.07 227.933 50.07C227.617 50.07 227.322 50.0117 227.048 49.895C226.778 49.7783 226.543 49.61 226.343 49.39C226.143 49.1667 225.987 48.8933 225.873 48.57C225.76 48.2467 225.703 47.8783 225.703 47.465C225.703 47.0883 225.755 46.74 225.858 46.42C225.965 46.1 226.118 45.825 226.318 45.595C226.522 45.3617 226.77 45.18 227.063 45.05C227.36 44.92 227.7 44.855 228.083 44.855C228.44 44.855 228.753 44.9133 229.023 45.03C229.297 45.1433 229.538 45.305 229.748 45.515L229.513 45.835ZM231.659 42.635V46.97H231.889C231.955 46.97 232.01 46.9617 232.054 46.945C232.1 46.925 232.149 46.8867 232.199 46.83L233.799 45.115C233.845 45.0583 233.894 45.015 233.944 44.985C233.997 44.9517 234.067 44.935 234.154 44.935H234.959L233.094 46.92C233.004 47.0333 232.907 47.1217 232.804 47.185C232.864 47.225 232.917 47.2717 232.964 47.325C233.014 47.375 233.06 47.4333 233.104 47.5L235.084 50H234.289C234.212 50 234.145 49.9883 234.089 49.965C234.035 49.9383 233.989 49.8917 233.949 49.825L232.284 47.75C232.234 47.68 232.184 47.635 232.134 47.615C232.087 47.5917 232.014 47.58 231.914 47.58H231.659V50H230.764V42.635H231.659Z" fill="black"/>
<path d="M161.872 79.835V87H160.902V83.74H157.037V87H156.067V79.835H157.037V83.03H160.902V79.835H161.872ZM166.728 83.915C166.728 83.7083 166.698 83.52 166.638 83.35C166.581 83.1767 166.496 83.0283 166.383 82.905C166.273 82.7783 166.138 82.6817 165.978 82.615C165.818 82.545 165.636 82.51 165.433 82.51C165.006 82.51 164.668 82.635 164.418 82.885C164.171 83.1317 164.018 83.475 163.958 83.915H166.728ZM167.448 86.29C167.338 86.4233 167.206 86.54 167.053 86.64C166.899 86.7367 166.734 86.8167 166.558 86.88C166.384 86.9433 166.204 86.99 166.018 87.02C165.831 87.0533 165.646 87.07 165.463 87.07C165.113 87.07 164.789 87.0117 164.493 86.895C164.199 86.775 163.944 86.6017 163.728 86.375C163.514 86.145 163.348 85.8617 163.228 85.525C163.108 85.1883 163.048 84.8017 163.048 84.365C163.048 84.0117 163.101 83.6817 163.208 83.375C163.318 83.0683 163.474 82.8033 163.678 82.58C163.881 82.3533 164.129 82.1767 164.423 82.05C164.716 81.92 165.046 81.855 165.413 81.855C165.716 81.855 165.996 81.9067 166.253 82.01C166.513 82.11 166.736 82.2567 166.923 82.45C167.113 82.64 167.261 82.8767 167.368 83.16C167.474 83.44 167.528 83.76 167.528 84.12C167.528 84.26 167.513 84.3533 167.483 84.4C167.453 84.4467 167.396 84.47 167.313 84.47H163.928C163.938 84.79 163.981 85.0683 164.058 85.305C164.138 85.5417 164.248 85.74 164.388 85.9C164.528 86.0567 164.694 86.175 164.888 86.255C165.081 86.3317 165.298 86.37 165.538 86.37C165.761 86.37 165.953 86.345 166.113 86.295C166.276 86.2417 166.416 86.185 166.533 86.125C166.649 86.065 166.746 86.01 166.823 85.96C166.903 85.9067 166.971 85.88 167.028 85.88C167.101 85.88 167.158 85.9083 167.198 85.965L167.448 86.29ZM171.366 84.72C170.956 84.7333 170.606 84.7667 170.316 84.82C170.029 84.87 169.794 84.9367 169.611 85.02C169.431 85.1033 169.299 85.2017 169.216 85.315C169.136 85.4283 169.096 85.555 169.096 85.695C169.096 85.8283 169.118 85.9433 169.161 86.04C169.204 86.1367 169.263 86.2167 169.336 86.28C169.413 86.34 169.501 86.385 169.601 86.415C169.704 86.4417 169.814 86.455 169.931 86.455C170.088 86.455 170.231 86.44 170.361 86.41C170.491 86.3767 170.613 86.33 170.726 86.27C170.843 86.21 170.953 86.1383 171.056 86.055C171.163 85.9717 171.266 85.8767 171.366 85.77V84.72ZM168.491 82.65C168.771 82.38 169.073 82.1783 169.396 82.045C169.719 81.9117 170.078 81.845 170.471 81.845C170.754 81.845 171.006 81.8917 171.226 81.985C171.446 82.0783 171.631 82.2083 171.781 82.375C171.931 82.5417 172.044 82.7433 172.121 82.98C172.198 83.2167 172.236 83.4767 172.236 83.76V87H171.841C171.754 87 171.688 86.9867 171.641 86.96C171.594 86.93 171.558 86.8733 171.531 86.79L171.431 86.31C171.298 86.4333 171.168 86.5433 171.041 86.64C170.914 86.7333 170.781 86.8133 170.641 86.88C170.501 86.9433 170.351 86.9917 170.191 87.025C170.034 87.0617 169.859 87.08 169.666 87.08C169.469 87.08 169.284 87.0533 169.111 87C168.938 86.9433 168.786 86.86 168.656 86.75C168.529 86.64 168.428 86.5017 168.351 86.335C168.278 86.165 168.241 85.965 168.241 85.735C168.241 85.535 168.296 85.3433 168.406 85.16C168.516 84.9733 168.694 84.8083 168.941 84.665C169.188 84.5217 169.509 84.405 169.906 84.315C170.303 84.2217 170.789 84.1683 171.366 84.155V83.76C171.366 83.3667 171.281 83.07 171.111 82.87C170.941 82.6667 170.693 82.565 170.366 82.565C170.146 82.565 169.961 82.5933 169.811 82.65C169.664 82.7033 169.536 82.765 169.426 82.835C169.319 82.9017 169.226 82.9633 169.146 83.02C169.069 83.0733 168.993 83.1 168.916 83.1C168.856 83.1 168.804 83.085 168.761 83.055C168.718 83.0217 168.681 82.9817 168.651 82.935L168.491 82.65ZM174.487 85.78C174.65 86 174.828 86.155 175.022 86.245C175.215 86.335 175.432 86.38 175.672 86.38C176.145 86.38 176.508 86.2117 176.762 85.875C177.015 85.5383 177.142 85.0583 177.142 84.435C177.142 84.105 177.112 83.8217 177.052 83.585C176.995 83.3483 176.912 83.155 176.802 83.005C176.692 82.8517 176.557 82.74 176.397 82.67C176.237 82.6 176.055 82.565 175.852 82.565C175.562 82.565 175.307 82.6317 175.087 82.765C174.87 82.8983 174.67 83.0867 174.487 83.33V85.78ZM174.442 82.72C174.655 82.4567 174.902 82.245 175.182 82.085C175.462 81.925 175.782 81.845 176.142 81.845C176.435 81.845 176.7 81.9017 176.937 82.015C177.173 82.125 177.375 82.29 177.542 82.51C177.708 82.7267 177.837 82.9967 177.927 83.32C178.017 83.6433 178.062 84.015 178.062 84.435C178.062 84.8083 178.012 85.1567 177.912 85.48C177.812 85.8 177.667 86.0783 177.477 86.315C177.29 86.5483 177.06 86.7333 176.787 86.87C176.517 87.0033 176.212 87.07 175.872 87.07C175.562 87.07 175.295 87.0183 175.072 86.915C174.852 86.8083 174.657 86.6617 174.487 86.475V88.715H173.592V81.935H174.127C174.253 81.935 174.332 81.9967 174.362 82.12L174.442 82.72ZM184.706 82.77C184.666 82.8433 184.604 82.88 184.521 82.88C184.471 82.88 184.414 82.8617 184.351 82.825C184.287 82.7883 184.209 82.7483 184.116 82.705C184.026 82.6583 183.917 82.6167 183.791 82.58C183.664 82.54 183.514 82.52 183.341 82.52C183.191 82.52 183.056 82.54 182.936 82.58C182.816 82.6167 182.712 82.6683 182.626 82.735C182.542 82.8017 182.477 82.88 182.431 82.97C182.387 83.0567 182.366 83.1517 182.366 83.255C182.366 83.385 182.402 83.4933 182.476 83.58C182.552 83.6667 182.652 83.7417 182.776 83.805C182.899 83.8683 183.039 83.925 183.196 83.975C183.352 84.0217 183.512 84.0733 183.676 84.13C183.842 84.1833 184.004 84.2433 184.161 84.31C184.317 84.3767 184.457 84.46 184.581 84.56C184.704 84.66 184.802 84.7833 184.876 84.93C184.952 85.0733 184.991 85.2467 184.991 85.45C184.991 85.6833 184.949 85.9 184.866 86.1C184.782 86.2967 184.659 86.4683 184.496 86.615C184.332 86.7583 184.132 86.8717 183.896 86.955C183.659 87.0383 183.386 87.08 183.076 87.08C182.722 87.08 182.402 87.0233 182.116 86.91C181.829 86.7933 181.586 86.645 181.386 86.465L181.596 86.125C181.622 86.0817 181.654 86.0483 181.691 86.025C181.727 86.0017 181.774 85.99 181.831 85.99C181.891 85.99 181.954 86.0133 182.021 86.06C182.087 86.1067 182.167 86.1583 182.261 86.215C182.357 86.2717 182.474 86.3233 182.611 86.37C182.747 86.4167 182.917 86.44 183.121 86.44C183.294 86.44 183.446 86.4183 183.576 86.375C183.706 86.3283 183.814 86.2667 183.901 86.19C183.987 86.1133 184.051 86.025 184.091 85.925C184.134 85.825 184.156 85.7183 184.156 85.605C184.156 85.465 184.117 85.35 184.041 85.26C183.967 85.1667 183.869 85.0883 183.746 85.025C183.622 84.9583 183.481 84.9017 183.321 84.855C183.164 84.805 183.002 84.7533 182.836 84.7C182.672 84.6467 182.511 84.5867 182.351 84.52C182.194 84.45 182.054 84.3633 181.931 84.26C181.807 84.1567 181.707 84.03 181.631 83.88C181.557 83.7267 181.521 83.5417 181.521 83.325C181.521 83.1317 181.561 82.9467 181.641 82.77C181.721 82.59 181.837 82.4333 181.991 82.3C182.144 82.1633 182.332 82.055 182.556 81.975C182.779 81.895 183.034 81.855 183.321 81.855C183.654 81.855 183.952 81.9083 184.216 82.015C184.482 82.1183 184.712 82.2617 184.906 82.445L184.706 82.77ZM189.472 83.915C189.472 83.7083 189.442 83.52 189.382 83.35C189.325 83.1767 189.24 83.0283 189.127 82.905C189.017 82.7783 188.882 82.6817 188.722 82.615C188.562 82.545 188.38 82.51 188.177 82.51C187.75 82.51 187.412 82.635 187.162 82.885C186.915 83.1317 186.762 83.475 186.702 83.915H189.472ZM190.192 86.29C190.082 86.4233 189.95 86.54 189.797 86.64C189.644 86.7367 189.479 86.8167 189.302 86.88C189.129 86.9433 188.949 86.99 188.762 87.02C188.575 87.0533 188.39 87.07 188.207 87.07C187.857 87.07 187.534 87.0117 187.237 86.895C186.944 86.775 186.689 86.6017 186.472 86.375C186.259 86.145 186.092 85.8617 185.972 85.525C185.852 85.1883 185.792 84.8017 185.792 84.365C185.792 84.0117 185.845 83.6817 185.952 83.375C186.062 83.0683 186.219 82.8033 186.422 82.58C186.625 82.3533 186.874 82.1767 187.167 82.05C187.46 81.92 187.79 81.855 188.157 81.855C188.46 81.855 188.74 81.9067 188.997 82.01C189.257 82.11 189.48 82.2567 189.667 82.45C189.857 82.64 190.005 82.8767 190.112 83.16C190.219 83.44 190.272 83.76 190.272 84.12C190.272 84.26 190.257 84.3533 190.227 84.4C190.197 84.4467 190.14 84.47 190.057 84.47H186.672C186.682 84.79 186.725 85.0683 186.802 85.305C186.882 85.5417 186.992 85.74 187.132 85.9C187.272 86.0567 187.439 86.175 187.632 86.255C187.825 86.3317 188.042 86.37 188.282 86.37C188.505 86.37 188.697 86.345 188.857 86.295C189.02 86.2417 189.16 86.185 189.277 86.125C189.394 86.065 189.49 86.01 189.567 85.96C189.647 85.9067 189.715 85.88 189.772 85.88C189.845 85.88 189.902 85.9083 189.942 85.965L190.192 86.29ZM194.89 82.835C194.863 82.8717 194.837 82.9 194.81 82.92C194.783 82.94 194.747 82.95 194.7 82.95C194.65 82.95 194.595 82.93 194.535 82.89C194.475 82.8467 194.4 82.8 194.31 82.75C194.223 82.7 194.115 82.655 193.985 82.615C193.858 82.5717 193.702 82.55 193.515 82.55C193.265 82.55 193.045 82.595 192.855 82.685C192.665 82.7717 192.505 82.8983 192.375 83.065C192.248 83.2317 192.152 83.4333 192.085 83.67C192.022 83.9067 191.99 84.1717 191.99 84.465C191.99 84.7717 192.025 85.045 192.095 85.285C192.165 85.5217 192.263 85.7217 192.39 85.885C192.52 86.045 192.675 86.1683 192.855 86.255C193.038 86.3383 193.243 86.38 193.47 86.38C193.687 86.38 193.865 86.355 194.005 86.305C194.145 86.2517 194.26 86.1933 194.35 86.13C194.443 86.0667 194.52 86.01 194.58 85.96C194.643 85.9067 194.705 85.88 194.765 85.88C194.838 85.88 194.895 85.9083 194.935 85.965L195.185 86.29C195.075 86.4267 194.95 86.5433 194.81 86.64C194.67 86.7367 194.518 86.8183 194.355 86.885C194.195 86.9483 194.027 86.995 193.85 87.025C193.673 87.055 193.493 87.07 193.31 87.07C192.993 87.07 192.698 87.0117 192.425 86.895C192.155 86.7783 191.92 86.61 191.72 86.39C191.52 86.1667 191.363 85.8933 191.25 85.57C191.137 85.2467 191.08 84.8783 191.08 84.465C191.08 84.0883 191.132 83.74 191.235 83.42C191.342 83.1 191.495 82.825 191.695 82.595C191.898 82.3617 192.147 82.18 192.44 82.05C192.737 81.92 193.077 81.855 193.46 81.855C193.817 81.855 194.13 81.9133 194.4 82.03C194.673 82.1433 194.915 82.305 195.125 82.515L194.89 82.835ZM200.841 87H199.951V82.68H197.341V85.72C197.341 85.9333 197.392 86.0917 197.496 86.195C197.599 86.2983 197.732 86.35 197.896 86.35C197.989 86.35 198.069 86.3383 198.136 86.315C198.206 86.2883 198.266 86.26 198.316 86.23C198.366 86.2 198.407 86.1733 198.441 86.15C198.477 86.1233 198.509 86.11 198.536 86.11C198.582 86.11 198.624 86.1383 198.661 86.195L198.921 86.62C198.767 86.7633 198.582 86.8767 198.366 86.96C198.149 87.04 197.926 87.08 197.696 87.08C197.296 87.08 196.987 86.9683 196.771 86.745C196.557 86.5217 196.451 86.2 196.451 85.78V82.68H195.841C195.787 82.68 195.742 82.665 195.706 82.635C195.669 82.6017 195.651 82.5517 195.651 82.485V82.13L196.481 82.02L196.686 80.46C196.696 80.41 196.717 80.37 196.751 80.34C196.787 80.3067 196.834 80.29 196.891 80.29H197.341V82.035H200.841V87ZM201.061 80.31C201.061 80.3967 201.042 80.4783 201.006 80.555C200.972 80.6283 200.926 80.6933 200.866 80.75C200.809 80.8067 200.742 80.8517 200.666 80.885C200.589 80.9183 200.507 80.935 200.421 80.935C200.334 80.935 200.252 80.9183 200.176 80.885C200.102 80.8517 200.037 80.8067 199.981 80.75C199.924 80.6933 199.879 80.6283 199.846 80.555C199.812 80.4783 199.796 80.3967 199.796 80.31C199.796 80.2233 199.812 80.1417 199.846 80.065C199.879 79.985 199.924 79.9167 199.981 79.86C200.037 79.8 200.102 79.7533 200.176 79.72C200.252 79.6867 200.334 79.67 200.421 79.67C200.507 79.67 200.589 79.6867 200.666 79.72C200.742 79.7533 200.809 79.8 200.866 79.86C200.926 79.9167 200.972 79.985 201.006 80.065C201.042 80.1417 201.061 80.2233 201.061 80.31ZM204.438 81.855C204.808 81.855 205.141 81.9167 205.438 82.04C205.734 82.1633 205.988 82.3383 206.198 82.565C206.408 82.7917 206.568 83.0667 206.678 83.39C206.791 83.71 206.848 84.0683 206.848 84.465C206.848 84.865 206.791 85.225 206.678 85.545C206.568 85.865 206.408 86.1383 206.198 86.365C205.988 86.5917 205.734 86.7667 205.438 86.89C205.141 87.01 204.808 87.07 204.438 87.07C204.064 87.07 203.728 87.01 203.428 86.89C203.131 86.7667 202.878 86.5917 202.668 86.365C202.458 86.1383 202.296 85.865 202.183 85.545C202.073 85.225 202.018 84.865 202.018 84.465C202.018 84.0683 202.073 83.71 202.183 83.39C202.296 83.0667 202.458 82.7917 202.668 82.565C202.878 82.3383 203.131 82.1633 203.428 82.04C203.728 81.9167 204.064 81.855 204.438 81.855ZM204.438 86.375C204.938 86.375 205.311 86.2083 205.558 85.875C205.804 85.5383 205.928 85.07 205.928 84.47C205.928 83.8667 205.804 83.3967 205.558 83.06C205.311 82.7233 204.938 82.555 204.438 82.555C204.184 82.555 203.963 82.5983 203.773 82.685C203.586 82.7717 203.429 82.8967 203.303 83.06C203.179 83.2233 203.086 83.425 203.023 83.665C202.963 83.9017 202.933 84.17 202.933 84.47C202.933 85.07 203.056 85.5383 203.303 85.875C203.553 86.2083 203.931 86.375 204.438 86.375ZM208.816 82.67C208.926 82.5467 209.043 82.435 209.166 82.335C209.29 82.235 209.42 82.15 209.556 82.08C209.696 82.0067 209.843 81.9517 209.996 81.915C210.153 81.875 210.321 81.855 210.501 81.855C210.778 81.855 211.021 81.9017 211.231 81.995C211.445 82.085 211.621 82.215 211.761 82.385C211.905 82.5517 212.013 82.7533 212.086 82.99C212.16 83.2267 212.196 83.4883 212.196 83.775V87H211.301V83.775C211.301 83.3917 211.213 83.095 211.036 82.885C210.863 82.6717 210.598 82.565 210.241 82.565C209.978 82.565 209.731 82.6283 209.501 82.755C209.275 82.8817 209.065 83.0533 208.871 83.27V87H207.976V81.935H208.511C208.638 81.935 208.716 81.9967 208.746 82.12L208.816 82.67Z" fill="black"/>
</svg>
