<svg width="320" height="130" viewBox="0 0 320 130" fill="none" xmlns="http://www.w3.org/2000/svg">
<rect width="320" height="130" fill="white"/>
<rect x="98.5" y="19.5" width="119" height="79" rx="4.5" fill="#F1FAEE" stroke="black"/>
<path d="M135.372 105.835V113H134.402V109.74H130.537V113H129.567V105.835H130.537V109.03H134.402V105.835H135.372ZM140.228 109.915C140.228 109.708 140.198 109.52 140.138 109.35C140.081 109.177 139.996 109.028 139.883 108.905C139.773 108.778 139.638 108.682 139.478 108.615C139.318 108.545 139.136 108.51 138.933 108.51C138.506 108.51 138.168 108.635 137.918 108.885C137.671 109.132 137.518 109.475 137.458 109.915H140.228ZM140.948 112.29C140.838 112.423 140.706 112.54 140.553 112.64C140.399 112.737 140.234 112.817 140.058 112.88C139.884 112.943 139.704 112.99 139.518 113.02C139.331 113.053 139.146 113.07 138.963 113.07C138.613 113.07 138.289 113.012 137.993 112.895C137.699 112.775 137.444 112.602 137.228 112.375C137.014 112.145 136.848 111.862 136.728 111.525C136.608 111.188 136.548 110.802 136.548 110.365C136.548 110.012 136.601 109.682 136.708 109.375C136.818 109.068 136.974 108.803 137.178 108.58C137.381 108.353 137.629 108.177 137.923 108.05C138.216 107.92 138.546 107.855 138.913 107.855C139.216 107.855 139.496 107.907 139.753 108.01C140.013 108.11 140.236 108.257 140.423 108.45C140.613 108.64 140.761 108.877 140.868 109.16C140.974 109.44 141.028 109.76 141.028 110.12C141.028 110.26 141.013 110.353 140.983 110.4C140.953 110.447 140.896 110.47 140.813 110.47H137.428C137.438 110.79 137.481 111.068 137.558 111.305C137.638 111.542 137.748 111.74 137.888 111.9C138.028 112.057 138.194 112.175 138.388 112.255C138.581 112.332 138.798 112.37 139.038 112.37C139.261 112.37 139.453 112.345 139.613 112.295C139.776 112.242 139.916 112.185 140.033 112.125C140.149 112.065 140.246 112.01 140.323 111.96C140.403 111.907 140.471 111.88 140.528 111.88C140.601 111.88 140.658 111.908 140.698 111.965L140.948 112.29ZM144.866 110.72C144.456 110.733 144.106 110.767 143.816 110.82C143.529 110.87 143.294 110.937 143.111 111.02C142.931 111.103 142.799 111.202 142.716 111.315C142.636 111.428 142.596 111.555 142.596 111.695C142.596 111.828 142.618 111.943 142.661 112.04C142.704 112.137 142.763 112.217 142.836 112.28C142.913 112.34 143.001 112.385 143.101 112.415C143.204 112.442 143.314 112.455 143.431 112.455C143.588 112.455 143.731 112.44 143.861 112.41C143.991 112.377 144.113 112.33 144.226 112.27C144.343 112.21 144.453 112.138 144.556 112.055C144.663 111.972 144.766 111.877 144.866 111.77V110.72ZM141.991 108.65C142.271 108.38 142.573 108.178 142.896 108.045C143.219 107.912 143.578 107.845 143.971 107.845C144.254 107.845 144.506 107.892 144.726 107.985C144.946 108.078 145.131 108.208 145.281 108.375C145.431 108.542 145.544 108.743 145.621 108.98C145.698 109.217 145.736 109.477 145.736 109.76V113H145.341C145.254 113 145.188 112.987 145.141 112.96C145.094 112.93 145.058 112.873 145.031 112.79L144.931 112.31C144.798 112.433 144.668 112.543 144.541 112.64C144.414 112.733 144.281 112.813 144.141 112.88C144.001 112.943 143.851 112.992 143.691 113.025C143.534 113.062 143.359 113.08 143.166 113.08C142.969 113.08 142.784 113.053 142.611 113C142.438 112.943 142.286 112.86 142.156 112.75C142.029 112.64 141.928 112.502 141.851 112.335C141.778 112.165 141.741 111.965 141.741 111.735C141.741 111.535 141.796 111.343 141.906 111.16C142.016 110.973 142.194 110.808 142.441 110.665C142.688 110.522 143.009 110.405 143.406 110.315C143.803 110.222 144.289 110.168 144.866 110.155V109.76C144.866 109.367 144.781 109.07 144.611 108.87C144.441 108.667 144.193 108.565 143.866 108.565C143.646 108.565 143.461 108.593 143.311 108.65C143.164 108.703 143.036 108.765 142.926 108.835C142.819 108.902 142.726 108.963 142.646 109.02C142.569 109.073 142.493 109.1 142.416 109.1C142.356 109.1 142.304 109.085 142.261 109.055C142.218 109.022 142.181 108.982 142.151 108.935L141.991 108.65ZM147.987 111.78C148.15 112 148.328 112.155 148.522 112.245C148.715 112.335 148.932 112.38 149.172 112.38C149.645 112.38 150.008 112.212 150.262 111.875C150.515 111.538 150.642 111.058 150.642 110.435C150.642 110.105 150.612 109.822 150.552 109.585C150.495 109.348 150.412 109.155 150.302 109.005C150.192 108.852 150.057 108.74 149.897 108.67C149.737 108.6 149.555 108.565 149.352 108.565C149.062 108.565 148.807 108.632 148.587 108.765C148.37 108.898 148.17 109.087 147.987 109.33V111.78ZM147.942 108.72C148.155 108.457 148.402 108.245 148.682 108.085C148.962 107.925 149.282 107.845 149.642 107.845C149.935 107.845 150.2 107.902 150.437 108.015C150.673 108.125 150.875 108.29 151.042 108.51C151.208 108.727 151.337 108.997 151.427 109.32C151.517 109.643 151.562 110.015 151.562 110.435C151.562 110.808 151.512 111.157 151.412 111.48C151.312 111.8 151.167 112.078 150.977 112.315C150.79 112.548 150.56 112.733 150.287 112.87C150.017 113.003 149.712 113.07 149.372 113.07C149.062 113.07 148.795 113.018 148.572 112.915C148.352 112.808 148.157 112.662 147.987 112.475V114.715H147.092V107.935H147.627C147.753 107.935 147.832 107.997 147.862 108.12L147.942 108.72ZM158.206 108.77C158.166 108.843 158.104 108.88 158.021 108.88C157.971 108.88 157.914 108.862 157.851 108.825C157.787 108.788 157.709 108.748 157.616 108.705C157.526 108.658 157.417 108.617 157.291 108.58C157.164 108.54 157.014 108.52 156.841 108.52C156.691 108.52 156.556 108.54 156.436 108.58C156.316 108.617 156.212 108.668 156.126 108.735C156.042 108.802 155.977 108.88 155.931 108.97C155.887 109.057 155.866 109.152 155.866 109.255C155.866 109.385 155.902 109.493 155.976 109.58C156.052 109.667 156.152 109.742 156.276 109.805C156.399 109.868 156.539 109.925 156.696 109.975C156.852 110.022 157.012 110.073 157.176 110.13C157.342 110.183 157.504 110.243 157.661 110.31C157.817 110.377 157.957 110.46 158.081 110.56C158.204 110.66 158.302 110.783 158.376 110.93C158.452 111.073 158.491 111.247 158.491 111.45C158.491 111.683 158.449 111.9 158.366 112.1C158.282 112.297 158.159 112.468 157.996 112.615C157.832 112.758 157.632 112.872 157.396 112.955C157.159 113.038 156.886 113.08 156.576 113.08C156.222 113.08 155.902 113.023 155.616 112.91C155.329 112.793 155.086 112.645 154.886 112.465L155.096 112.125C155.122 112.082 155.154 112.048 155.191 112.025C155.227 112.002 155.274 111.99 155.331 111.99C155.391 111.99 155.454 112.013 155.521 112.06C155.587 112.107 155.667 112.158 155.761 112.215C155.857 112.272 155.974 112.323 156.111 112.37C156.247 112.417 156.417 112.44 156.621 112.44C156.794 112.44 156.946 112.418 157.076 112.375C157.206 112.328 157.314 112.267 157.401 112.19C157.487 112.113 157.551 112.025 157.591 111.925C157.634 111.825 157.656 111.718 157.656 111.605C157.656 111.465 157.617 111.35 157.541 111.26C157.467 111.167 157.369 111.088 157.246 111.025C157.122 110.958 156.981 110.902 156.821 110.855C156.664 110.805 156.502 110.753 156.336 110.7C156.172 110.647 156.011 110.587 155.851 110.52C155.694 110.45 155.554 110.363 155.431 110.26C155.307 110.157 155.207 110.03 155.131 109.88C155.057 109.727 155.021 109.542 155.021 109.325C155.021 109.132 155.061 108.947 155.141 108.77C155.221 108.59 155.337 108.433 155.491 108.3C155.644 108.163 155.832 108.055 156.056 107.975C156.279 107.895 156.534 107.855 156.821 107.855C157.154 107.855 157.452 107.908 157.716 108.015C157.982 108.118 158.212 108.262 158.406 108.445L158.206 108.77ZM162.972 109.915C162.972 109.708 162.942 109.52 162.882 109.35C162.825 109.177 162.74 109.028 162.627 108.905C162.517 108.778 162.382 108.682 162.222 108.615C162.062 108.545 161.88 108.51 161.677 108.51C161.25 108.51 160.912 108.635 160.662 108.885C160.415 109.132 160.262 109.475 160.202 109.915H162.972ZM163.692 112.29C163.582 112.423 163.45 112.54 163.297 112.64C163.144 112.737 162.979 112.817 162.802 112.88C162.629 112.943 162.449 112.99 162.262 113.02C162.075 113.053 161.89 113.07 161.707 113.07C161.357 113.07 161.034 113.012 160.737 112.895C160.444 112.775 160.189 112.602 159.972 112.375C159.759 112.145 159.592 111.862 159.472 111.525C159.352 111.188 159.292 110.802 159.292 110.365C159.292 110.012 159.345 109.682 159.452 109.375C159.562 109.068 159.719 108.803 159.922 108.58C160.125 108.353 160.374 108.177 160.667 108.05C160.96 107.92 161.29 107.855 161.657 107.855C161.96 107.855 162.24 107.907 162.497 108.01C162.757 108.11 162.98 108.257 163.167 108.45C163.357 108.64 163.505 108.877 163.612 109.16C163.719 109.44 163.772 109.76 163.772 110.12C163.772 110.26 163.757 110.353 163.727 110.4C163.697 110.447 163.64 110.47 163.557 110.47H160.172C160.182 110.79 160.225 111.068 160.302 111.305C160.382 111.542 160.492 111.74 160.632 111.9C160.772 112.057 160.939 112.175 161.132 112.255C161.325 112.332 161.542 112.37 161.782 112.37C162.005 112.37 162.197 112.345 162.357 112.295C162.52 112.242 162.66 112.185 162.777 112.125C162.894 112.065 162.99 112.01 163.067 111.96C163.147 111.907 163.215 111.88 163.272 111.88C163.345 111.88 163.402 111.908 163.442 111.965L163.692 112.29ZM168.39 108.835C168.363 108.872 168.337 108.9 168.31 108.92C168.283 108.94 168.247 108.95 168.2 108.95C168.15 108.95 168.095 108.93 168.035 108.89C167.975 108.847 167.9 108.8 167.81 108.75C167.723 108.7 167.615 108.655 167.485 108.615C167.358 108.572 167.202 108.55 167.015 108.55C166.765 108.55 166.545 108.595 166.355 108.685C166.165 108.772 166.005 108.898 165.875 109.065C165.748 109.232 165.652 109.433 165.585 109.67C165.522 109.907 165.49 110.172 165.49 110.465C165.49 110.772 165.525 111.045 165.595 111.285C165.665 111.522 165.763 111.722 165.89 111.885C166.02 112.045 166.175 112.168 166.355 112.255C166.538 112.338 166.743 112.38 166.97 112.38C167.187 112.38 167.365 112.355 167.505 112.305C167.645 112.252 167.76 112.193 167.85 112.13C167.943 112.067 168.02 112.01 168.08 111.96C168.143 111.907 168.205 111.88 168.265 111.88C168.338 111.88 168.395 111.908 168.435 111.965L168.685 112.29C168.575 112.427 168.45 112.543 168.31 112.64C168.17 112.737 168.018 112.818 167.855 112.885C167.695 112.948 167.527 112.995 167.35 113.025C167.173 113.055 166.993 113.07 166.81 113.07C166.493 113.07 166.198 113.012 165.925 112.895C165.655 112.778 165.42 112.61 165.22 112.39C165.02 112.167 164.863 111.893 164.75 111.57C164.637 111.247 164.58 110.878 164.58 110.465C164.58 110.088 164.632 109.74 164.735 109.42C164.842 109.1 164.995 108.825 165.195 108.595C165.398 108.362 165.647 108.18 165.94 108.05C166.237 107.92 166.577 107.855 166.96 107.855C167.317 107.855 167.63 107.913 167.9 108.03C168.173 108.143 168.415 108.305 168.625 108.515L168.39 108.835ZM174.341 113H173.451V108.68H170.841V111.72C170.841 111.933 170.892 112.092 170.996 112.195C171.099 112.298 171.232 112.35 171.396 112.35C171.489 112.35 171.569 112.338 171.636 112.315C171.706 112.288 171.766 112.26 171.816 112.23C171.866 112.2 171.907 112.173 171.941 112.15C171.977 112.123 172.009 112.11 172.036 112.11C172.082 112.11 172.124 112.138 172.161 112.195L172.421 112.62C172.267 112.763 172.082 112.877 171.866 112.96C171.649 113.04 171.426 113.08 171.196 113.08C170.796 113.08 170.487 112.968 170.271 112.745C170.057 112.522 169.951 112.2 169.951 111.78V108.68H169.341C169.287 108.68 169.242 108.665 169.206 108.635C169.169 108.602 169.151 108.552 169.151 108.485V108.13L169.981 108.02L170.186 106.46C170.196 106.41 170.217 106.37 170.251 106.34C170.287 106.307 170.334 106.29 170.391 106.29H170.841V108.035H174.341V113ZM174.561 106.31C174.561 106.397 174.542 106.478 174.506 106.555C174.472 106.628 174.426 106.693 174.366 106.75C174.309 106.807 174.242 106.852 174.166 106.885C174.089 106.918 174.007 106.935 173.921 106.935C173.834 106.935 173.752 106.918 173.676 106.885C173.602 106.852 173.537 106.807 173.481 106.75C173.424 106.693 173.379 106.628 173.346 106.555C173.312 106.478 173.296 106.397 173.296 106.31C173.296 106.223 173.312 106.142 173.346 106.065C173.379 105.985 173.424 105.917 173.481 105.86C173.537 105.8 173.602 105.753 173.676 105.72C173.752 105.687 173.834 105.67 173.921 105.67C174.007 105.67 174.089 105.687 174.166 105.72C174.242 105.753 174.309 105.8 174.366 105.86C174.426 105.917 174.472 105.985 174.506 106.065C174.542 106.142 174.561 106.223 174.561 106.31ZM177.938 107.855C178.308 107.855 178.641 107.917 178.938 108.04C179.234 108.163 179.488 108.338 179.698 108.565C179.908 108.792 180.068 109.067 180.178 109.39C180.291 109.71 180.348 110.068 180.348 110.465C180.348 110.865 180.291 111.225 180.178 111.545C180.068 111.865 179.908 112.138 179.698 112.365C179.488 112.592 179.234 112.767 178.938 112.89C178.641 113.01 178.308 113.07 177.938 113.07C177.564 113.07 177.228 113.01 176.928 112.89C176.631 112.767 176.378 112.592 176.168 112.365C175.958 112.138 175.796 111.865 175.683 111.545C175.573 111.225 175.518 110.865 175.518 110.465C175.518 110.068 175.573 109.71 175.683 109.39C175.796 109.067 175.958 108.792 176.168 108.565C176.378 108.338 176.631 108.163 176.928 108.04C177.228 107.917 177.564 107.855 177.938 107.855ZM177.938 112.375C178.438 112.375 178.811 112.208 179.058 111.875C179.304 111.538 179.428 111.07 179.428 110.47C179.428 109.867 179.304 109.397 179.058 109.06C178.811 108.723 178.438 108.555 177.938 108.555C177.684 108.555 177.463 108.598 177.273 108.685C177.086 108.772 176.929 108.897 176.803 109.06C176.679 109.223 176.586 109.425 176.523 109.665C176.463 109.902 176.433 110.17 176.433 110.47C176.433 111.07 176.556 111.538 176.803 111.875C177.053 112.208 177.431 112.375 177.938 112.375ZM182.316 108.67C182.426 108.547 182.543 108.435 182.666 108.335C182.79 108.235 182.92 108.15 183.056 108.08C183.196 108.007 183.343 107.952 183.496 107.915C183.653 107.875 183.821 107.855 184.001 107.855C184.278 107.855 184.521 107.902 184.731 107.995C184.945 108.085 185.121 108.215 185.261 108.385C185.405 108.552 185.513 108.753 185.586 108.99C185.66 109.227 185.696 109.488 185.696 109.775V113H184.801V109.775C184.801 109.392 184.713 109.095 184.536 108.885C184.363 108.672 184.098 108.565 183.741 108.565C183.478 108.565 183.231 108.628 183.001 108.755C182.775 108.882 182.565 109.053 182.371 109.27V113H181.476V107.935H182.011C182.138 107.935 182.216 107.997 182.246 108.12L182.316 108.67Z" fill="black"/>
<path d="M36.6278 49.055C36.8911 48.6617 37.1828 48.365 37.5028 48.165C37.8261 47.9617 38.1544 47.86 38.4878 47.86C38.7044 47.86 38.8944 47.9033 39.0578 47.99C39.2211 48.0733 39.3528 48.1967 39.4528 48.36C39.5561 48.5233 39.6261 48.725 39.6628 48.965C39.6994 49.2017 39.6994 49.4717 39.6628 49.775L39.2828 53H38.3928L38.7728 49.775C38.8228 49.375 38.7994 49.0783 38.7028 48.885C38.6061 48.6917 38.4261 48.595 38.1628 48.595C38.0128 48.595 37.8578 48.6367 37.6978 48.72C37.5378 48.8 37.3828 48.915 37.2328 49.065C37.0861 49.215 36.9461 49.3967 36.8128 49.61C36.6828 49.8233 36.5694 50.0617 36.4728 50.325L36.1478 53H35.2628L36.1528 45.635H37.0428L36.6278 49.055ZM43.1307 48.505C42.9207 48.505 42.7274 48.5483 42.5507 48.635C42.3741 48.7217 42.2174 48.8417 42.0807 48.995C41.9441 49.145 41.8274 49.3233 41.7307 49.53C41.6341 49.7333 41.5591 49.9533 41.5057 50.19C42.0191 50.1267 42.4307 50.055 42.7407 49.975C43.0507 49.8917 43.2891 49.8033 43.4557 49.71C43.6224 49.6133 43.7324 49.51 43.7857 49.4C43.8391 49.29 43.8657 49.175 43.8657 49.055C43.8657 48.995 43.8524 48.9333 43.8257 48.87C43.7991 48.8033 43.7557 48.7433 43.6957 48.69C43.6391 48.6367 43.5641 48.5933 43.4707 48.56C43.3774 48.5233 43.2641 48.505 43.1307 48.505ZM44.5407 52.065C44.3707 52.2417 44.2041 52.3933 44.0407 52.52C43.8774 52.6433 43.7107 52.7467 43.5407 52.83C43.3741 52.9133 43.1974 52.9733 43.0107 53.01C42.8274 53.05 42.6291 53.07 42.4157 53.07C42.1257 53.07 41.8657 53.0217 41.6357 52.925C41.4057 52.8283 41.2107 52.6917 41.0507 52.515C40.8907 52.335 40.7674 52.1183 40.6807 51.865C40.5941 51.6117 40.5507 51.3283 40.5507 51.015C40.5507 50.755 40.5774 50.4967 40.6307 50.24C40.6874 49.98 40.7674 49.7333 40.8707 49.5C40.9774 49.2667 41.1057 49.05 41.2557 48.85C41.4091 48.65 41.5824 48.4783 41.7757 48.335C41.9724 48.1883 42.1874 48.0733 42.4207 47.99C42.6574 47.9067 42.9107 47.865 43.1807 47.865C43.4374 47.865 43.6591 47.9017 43.8457 47.975C44.0324 48.0483 44.1857 48.1417 44.3057 48.255C44.4257 48.3683 44.5141 48.4933 44.5707 48.63C44.6307 48.7667 44.6607 48.8967 44.6607 49.02C44.6607 49.24 44.6157 49.4433 44.5257 49.63C44.4357 49.8133 44.2707 49.98 44.0307 50.13C43.7907 50.2767 43.4607 50.405 43.0407 50.515C42.6207 50.625 42.0807 50.7133 41.4207 50.78C41.4207 50.8167 41.4191 50.8533 41.4157 50.89C41.4157 50.9233 41.4157 50.9583 41.4157 50.995C41.4157 51.4417 41.5124 51.7833 41.7057 52.02C41.9024 52.2533 42.1974 52.37 42.5907 52.37C42.7507 52.37 42.8924 52.3533 43.0157 52.32C43.1424 52.2867 43.2541 52.2467 43.3507 52.2C43.4507 52.15 43.5374 52.0967 43.6107 52.04C43.6874 51.98 43.7557 51.9267 43.8157 51.88C43.8791 51.83 43.9374 51.7883 43.9907 51.755C44.0441 51.7217 44.0974 51.705 44.1507 51.705C44.2141 51.705 44.2707 51.7333 44.3207 51.79L44.5407 52.065ZM48.8109 48.555C48.7376 48.5383 48.6642 48.5283 48.5909 48.525C48.5209 48.5183 48.4509 48.515 48.3809 48.515C48.1809 48.515 47.9876 48.5483 47.8009 48.615C47.6142 48.6783 47.4392 48.7683 47.2759 48.885C47.1126 49.0017 46.9642 49.1417 46.8309 49.305C46.6976 49.465 46.5826 49.6417 46.4859 49.835C46.3926 50.0283 46.3192 50.235 46.2659 50.455C46.2126 50.6717 46.1859 50.895 46.1859 51.125C46.1859 51.9283 46.4426 52.33 46.9559 52.33C47.1192 52.33 47.2792 52.28 47.4359 52.18C47.5926 52.0767 47.7409 51.935 47.8809 51.755C48.0242 51.5717 48.1559 51.3567 48.2759 51.11C48.3959 50.86 48.5026 50.5867 48.5959 50.29L48.8109 48.555ZM48.4709 51.665C48.3509 51.8783 48.2209 52.0717 48.0809 52.245C47.9442 52.4183 47.7976 52.5667 47.6409 52.69C47.4876 52.81 47.3242 52.9033 47.1509 52.97C46.9809 53.0367 46.8042 53.07 46.6209 53.07C46.4209 53.07 46.2392 53.0317 46.0759 52.955C45.9126 52.875 45.7726 52.76 45.6559 52.61C45.5426 52.4567 45.4542 52.27 45.3909 52.05C45.3276 51.8267 45.2959 51.5717 45.2959 51.285C45.2959 50.985 45.3326 50.6933 45.4059 50.41C45.4826 50.1233 45.5892 49.8533 45.7259 49.6C45.8659 49.3467 46.0326 49.115 46.2259 48.905C46.4192 48.6917 46.6342 48.5083 46.8709 48.355C47.1109 48.1983 47.3676 48.0783 47.6409 47.995C47.9142 47.9083 48.2009 47.865 48.5009 47.865C48.7176 47.865 48.9276 47.8833 49.1309 47.92C49.3376 47.9533 49.5409 48.0133 49.7409 48.1L49.1359 53H48.6759C48.5592 53 48.4792 52.97 48.4359 52.91C48.3959 52.85 48.3759 52.7767 48.3759 52.69L48.4709 51.665ZM51.4483 51.89C51.575 52.0667 51.7267 52.1933 51.9033 52.27C52.08 52.3433 52.26 52.38 52.4433 52.38C52.6167 52.38 52.78 52.3433 52.9333 52.27C53.0867 52.1967 53.2267 52.0983 53.3533 51.975C53.48 51.8483 53.5933 51.7017 53.6933 51.535C53.7933 51.365 53.8767 51.185 53.9433 50.995C54.0133 50.8017 54.0667 50.6033 54.1033 50.4C54.14 50.1933 54.1583 49.99 54.1583 49.79C54.1583 49.3933 54.0867 49.0917 53.9433 48.885C53.8 48.6783 53.5983 48.575 53.3383 48.575C53.1783 48.575 53.0167 48.625 52.8533 48.725C52.69 48.8217 52.5317 48.9583 52.3783 49.135C52.2283 49.3117 52.0867 49.5217 51.9533 49.765C51.8233 50.0083 51.71 50.275 51.6133 50.565L51.4483 51.89ZM51.7183 49.31C51.845 49.09 51.9833 48.8917 52.1333 48.715C52.2833 48.535 52.4417 48.3817 52.6083 48.255C52.775 48.1283 52.9467 48.0317 53.1233 47.965C53.3033 47.895 53.4867 47.86 53.6733 47.86C54.1067 47.86 54.4417 48.0167 54.6783 48.33C54.9183 48.6433 55.0383 49.1017 55.0383 49.705C55.0383 49.9783 55.01 50.2517 54.9533 50.525C54.8967 50.7983 54.815 51.06 54.7083 51.31C54.605 51.5567 54.4783 51.7883 54.3283 52.005C54.1817 52.2183 54.0167 52.405 53.8333 52.565C53.6533 52.7217 53.4567 52.845 53.2433 52.935C53.03 53.025 52.8067 53.07 52.5733 53.07C52.3233 53.07 52.0967 53.0217 51.8933 52.925C51.69 52.825 51.5167 52.685 51.3733 52.505L51.1033 54.715H50.2383L51.0633 47.93H51.5033C51.7033 47.93 51.8033 48.03 51.8033 48.23L51.7183 49.31ZM59.0015 53.84L58.9265 54.42H55.3015L55.3715 53.84H59.0015ZM61.8549 48.675L61.3499 52.835L61.1149 53.87C61.0782 53.99 61.0232 54.0817 60.9499 54.145C60.8799 54.2117 60.7815 54.245 60.6549 54.245H60.3099L60.9799 48.69L60.4799 48.625C60.4199 48.6083 60.3715 48.5833 60.3349 48.55C60.3015 48.5167 60.2882 48.465 60.2949 48.395L60.3399 48.035H61.0599L61.1199 47.545C61.1565 47.255 61.2282 46.9983 61.3349 46.775C61.4449 46.5483 61.5815 46.3583 61.7449 46.205C61.9115 46.0483 62.0999 45.93 62.3099 45.85C62.5232 45.77 62.7532 45.73 62.9999 45.73C63.2032 45.73 63.3915 45.7633 63.5649 45.83L63.4799 46.29C63.4665 46.3567 63.4215 46.39 63.3449 46.39C63.2682 46.39 63.1715 46.39 63.0549 46.39C62.9115 46.39 62.7782 46.4117 62.6549 46.455C62.5349 46.495 62.4282 46.5617 62.3349 46.655C62.2415 46.7483 62.1615 46.87 62.0949 47.02C62.0315 47.17 61.9865 47.3533 61.9599 47.57L61.9049 48.035H63.1699L63.0849 48.675H61.8549ZM64.648 49.345C64.7813 49.0617 64.9247 48.8167 65.078 48.61C65.2347 48.4 65.398 48.2367 65.568 48.12C65.738 48 65.913 47.9283 66.093 47.905C66.273 47.8783 66.4563 47.905 66.643 47.985L66.483 48.84C66.0497 48.6667 65.6663 48.73 65.333 49.03C65.003 49.33 64.7347 49.8717 64.528 50.655L64.248 53H63.378L63.988 47.93H64.428C64.6313 47.93 64.733 48.03 64.733 48.23L64.648 49.345ZM69.1854 48.505C68.9754 48.505 68.7821 48.5483 68.6054 48.635C68.4288 48.7217 68.2721 48.8417 68.1354 48.995C67.9988 49.145 67.8821 49.3233 67.7854 49.53C67.6888 49.7333 67.6138 49.9533 67.5604 50.19C68.0738 50.1267 68.4854 50.055 68.7954 49.975C69.1054 49.8917 69.3438 49.8033 69.5104 49.71C69.6771 49.6133 69.7871 49.51 69.8404 49.4C69.8938 49.29 69.9204 49.175 69.9204 49.055C69.9204 48.995 69.9071 48.9333 69.8804 48.87C69.8538 48.8033 69.8104 48.7433 69.7504 48.69C69.6938 48.6367 69.6188 48.5933 69.5254 48.56C69.4321 48.5233 69.3188 48.505 69.1854 48.505ZM70.5954 52.065C70.4254 52.2417 70.2588 52.3933 70.0954 52.52C69.9321 52.6433 69.7654 52.7467 69.5954 52.83C69.4288 52.9133 69.2521 52.9733 69.0654 53.01C68.8821 53.05 68.6838 53.07 68.4704 53.07C68.1804 53.07 67.9204 53.0217 67.6904 52.925C67.4604 52.8283 67.2654 52.6917 67.1054 52.515C66.9454 52.335 66.8221 52.1183 66.7354 51.865C66.6488 51.6117 66.6054 51.3283 66.6054 51.015C66.6054 50.755 66.6321 50.4967 66.6854 50.24C66.7421 49.98 66.8221 49.7333 66.9254 49.5C67.0321 49.2667 67.1604 49.05 67.3104 48.85C67.4638 48.65 67.6371 48.4783 67.8304 48.335C68.0271 48.1883 68.2421 48.0733 68.4754 47.99C68.7121 47.9067 68.9654 47.865 69.2354 47.865C69.4921 47.865 69.7138 47.9017 69.9004 47.975C70.0871 48.0483 70.2404 48.1417 70.3604 48.255C70.4804 48.3683 70.5688 48.4933 70.6254 48.63C70.6854 48.7667 70.7154 48.8967 70.7154 49.02C70.7154 49.24 70.6704 49.4433 70.5804 49.63C70.4904 49.8133 70.3254 49.98 70.0854 50.13C69.8454 50.2767 69.5154 50.405 69.0954 50.515C68.6754 50.625 68.1354 50.7133 67.4754 50.78C67.4754 50.8167 67.4738 50.8533 67.4704 50.89C67.4704 50.9233 67.4704 50.9583 67.4704 50.995C67.4704 51.4417 67.5671 51.7833 67.7604 52.02C67.9571 52.2533 68.2521 52.37 68.6454 52.37C68.8054 52.37 68.9471 52.3533 69.0704 52.32C69.1971 52.2867 69.3088 52.2467 69.4054 52.2C69.5054 52.15 69.5921 52.0967 69.6654 52.04C69.7421 51.98 69.8104 51.9267 69.8704 51.88C69.9338 51.83 69.9921 51.7883 70.0454 51.755C70.0988 51.7217 70.1521 51.705 70.2054 51.705C70.2688 51.705 70.3254 51.7333 70.3754 51.79L70.5954 52.065ZM73.9511 48.505C73.7411 48.505 73.5477 48.5483 73.3711 48.635C73.1944 48.7217 73.0377 48.8417 72.9011 48.995C72.7644 49.145 72.6477 49.3233 72.5511 49.53C72.4544 49.7333 72.3794 49.9533 72.3261 50.19C72.8394 50.1267 73.2511 50.055 73.5611 49.975C73.8711 49.8917 74.1094 49.8033 74.2761 49.71C74.4427 49.6133 74.5527 49.51 74.6061 49.4C74.6594 49.29 74.6861 49.175 74.6861 49.055C74.6861 48.995 74.6727 48.9333 74.6461 48.87C74.6194 48.8033 74.5761 48.7433 74.5161 48.69C74.4594 48.6367 74.3844 48.5933 74.2911 48.56C74.1977 48.5233 74.0844 48.505 73.9511 48.505ZM75.3611 52.065C75.1911 52.2417 75.0244 52.3933 74.8611 52.52C74.6977 52.6433 74.5311 52.7467 74.3611 52.83C74.1944 52.9133 74.0177 52.9733 73.8311 53.01C73.6477 53.05 73.4494 53.07 73.2361 53.07C72.9461 53.07 72.6861 53.0217 72.4561 52.925C72.2261 52.8283 72.0311 52.6917 71.8711 52.515C71.7111 52.335 71.5877 52.1183 71.5011 51.865C71.4144 51.6117 71.3711 51.3283 71.3711 51.015C71.3711 50.755 71.3977 50.4967 71.4511 50.24C71.5077 49.98 71.5877 49.7333 71.6911 49.5C71.7977 49.2667 71.9261 49.05 72.0761 48.85C72.2294 48.65 72.4027 48.4783 72.5961 48.335C72.7927 48.1883 73.0077 48.0733 73.2411 47.99C73.4777 47.9067 73.7311 47.865 74.0011 47.865C74.2577 47.865 74.4794 47.9017 74.6661 47.975C74.8527 48.0483 75.0061 48.1417 75.1261 48.255C75.2461 48.3683 75.3344 48.4933 75.3911 48.63C75.4511 48.7667 75.4811 48.8967 75.4811 49.02C75.4811 49.24 75.4361 49.4433 75.3461 49.63C75.2561 49.8133 75.0911 49.98 74.8511 50.13C74.6111 50.2767 74.2811 50.405 73.8611 50.515C73.4411 50.625 72.9011 50.7133 72.2411 50.78C72.2411 50.8167 72.2394 50.8533 72.2361 50.89C72.2361 50.9233 72.2361 50.9583 72.2361 50.995C72.2361 51.4417 72.3327 51.7833 72.5261 52.02C72.7227 52.2533 73.0177 52.37 73.4111 52.37C73.5711 52.37 73.7127 52.3533 73.8361 52.32C73.9627 52.2867 74.0744 52.2467 74.1711 52.2C74.2711 52.15 74.3577 52.0967 74.4311 52.04C74.5077 51.98 74.5761 51.9267 74.6361 51.88C74.6994 51.83 74.7577 51.7883 74.8111 51.755C74.8644 51.7217 74.9177 51.705 74.9711 51.705C75.0344 51.705 75.0911 51.7333 75.1411 51.79L75.3611 52.065ZM77.0512 50.795C77.0512 51.0417 77.0629 51.2983 77.0862 51.565C77.1095 51.8283 77.1429 52.0933 77.1862 52.36C77.2329 52.6267 77.2912 52.8883 77.3612 53.145C77.4312 53.4017 77.5112 53.6417 77.6012 53.865C77.6379 53.965 77.6395 54.0417 77.6062 54.095C77.5762 54.1483 77.5345 54.1917 77.4812 54.225L77.0762 54.455C76.9362 54.1683 76.8162 53.8717 76.7162 53.565C76.6195 53.2617 76.5395 52.9567 76.4762 52.65C76.4129 52.3433 76.3662 52.04 76.3362 51.74C76.3062 51.44 76.2912 51.1517 76.2912 50.875C76.2912 50.4083 76.3179 49.955 76.3712 49.515C76.4245 49.0717 76.5212 48.625 76.6612 48.175C76.8045 47.725 76.9995 47.2617 77.2462 46.785C77.4929 46.305 77.8112 45.795 78.2012 45.255L78.5562 45.49C78.5995 45.5233 78.6312 45.5667 78.6512 45.62C78.6712 45.6733 78.6495 45.7483 78.5862 45.845C78.3395 46.225 78.1212 46.605 77.9312 46.985C77.7412 47.3617 77.5812 47.75 77.4512 48.15C77.3212 48.55 77.2212 48.9683 77.1512 49.405C77.0845 49.8383 77.0512 50.3017 77.0512 50.795ZM79.8841 48.915C79.8841 48.6717 79.8724 48.4167 79.8491 48.15C79.8258 47.8833 79.7891 47.6167 79.7391 47.35C79.6924 47.0833 79.6341 46.8217 79.5641 46.565C79.4974 46.3083 79.4191 46.0683 79.3291 45.845C79.2924 45.7483 79.2891 45.6733 79.3191 45.62C79.3491 45.5667 79.3908 45.5233 79.4441 45.49L79.8591 45.255C79.9958 45.545 80.1124 45.8417 80.2091 46.145C80.3091 46.4483 80.3891 46.7533 80.4491 47.06C80.5124 47.3667 80.5591 47.67 80.5891 47.97C80.6191 48.27 80.6341 48.56 80.6341 48.84C80.6341 49.3067 80.6074 49.7617 80.5541 50.205C80.5008 50.645 80.4041 51.09 80.2641 51.54C80.1241 51.99 79.9308 52.4533 79.6841 52.93C79.4374 53.4067 79.1191 53.915 78.7291 54.455L78.3741 54.225C78.3508 54.2083 78.3308 54.19 78.3141 54.17C78.2974 54.15 78.2858 54.125 78.2791 54.095C78.2724 54.0683 78.2741 54.035 78.2841 53.995C78.2941 53.9583 78.3158 53.915 78.3491 53.865C78.5924 53.485 78.8091 53.1017 78.9991 52.715C79.1891 52.3283 79.3491 51.9317 79.4791 51.525C79.6124 51.115 79.7124 50.695 79.7791 50.265C79.8491 49.8317 79.8841 49.3817 79.8841 48.915Z" fill="black"/>
<path d="M98 59L93 56.1132V61.8868L98 59ZM18 59V59.5L93.5 59.5V59V58.5L18 58.5V59Z" fill="black"/>
<path d="M231.022 49.055C231.286 48.6617 231.577 48.365 231.897 48.165C232.221 47.9617 232.549 47.86 232.882 47.86C233.099 47.86 233.289 47.9033 233.452 47.99C233.616 48.0733 233.747 48.1967 233.847 48.36C233.951 48.5233 234.021 48.725 234.057 48.965C234.094 49.2017 234.094 49.4717 234.057 49.775L233.677 53H232.787L233.167 49.775C233.217 49.375 233.194 49.0783 233.097 48.885C233.001 48.6917 232.821 48.595 232.557 48.595C232.407 48.595 232.252 48.6367 232.092 48.72C231.932 48.8 231.777 48.915 231.627 49.065C231.481 49.215 231.341 49.3967 231.207 49.61C231.077 49.8233 230.964 50.0617 230.867 50.325L230.542 53H229.657L230.547 45.635H231.437L231.022 49.055ZM237.525 48.505C237.315 48.505 237.122 48.5483 236.945 48.635C236.769 48.7217 236.612 48.8417 236.475 48.995C236.339 49.145 236.222 49.3233 236.125 49.53C236.029 49.7333 235.954 49.9533 235.9 50.19C236.414 50.1267 236.825 50.055 237.135 49.975C237.445 49.8917 237.684 49.8033 237.85 49.71C238.017 49.6133 238.127 49.51 238.18 49.4C238.234 49.29 238.26 49.175 238.26 49.055C238.26 48.995 238.247 48.9333 238.22 48.87C238.194 48.8033 238.15 48.7433 238.09 48.69C238.034 48.6367 237.959 48.5933 237.865 48.56C237.772 48.5233 237.659 48.505 237.525 48.505ZM238.935 52.065C238.765 52.2417 238.599 52.3933 238.435 52.52C238.272 52.6433 238.105 52.7467 237.935 52.83C237.769 52.9133 237.592 52.9733 237.405 53.01C237.222 53.05 237.024 53.07 236.81 53.07C236.52 53.07 236.26 53.0217 236.03 52.925C235.8 52.8283 235.605 52.6917 235.445 52.515C235.285 52.335 235.162 52.1183 235.075 51.865C234.989 51.6117 234.945 51.3283 234.945 51.015C234.945 50.755 234.972 50.4967 235.025 50.24C235.082 49.98 235.162 49.7333 235.265 49.5C235.372 49.2667 235.5 49.05 235.65 48.85C235.804 48.65 235.977 48.4783 236.17 48.335C236.367 48.1883 236.582 48.0733 236.815 47.99C237.052 47.9067 237.305 47.865 237.575 47.865C237.832 47.865 238.054 47.9017 238.24 47.975C238.427 48.0483 238.58 48.1417 238.7 48.255C238.82 48.3683 238.909 48.4933 238.965 48.63C239.025 48.7667 239.055 48.8967 239.055 49.02C239.055 49.24 239.01 49.4433 238.92 49.63C238.83 49.8133 238.665 49.98 238.425 50.13C238.185 50.2767 237.855 50.405 237.435 50.515C237.015 50.625 236.475 50.7133 235.815 50.78C235.815 50.8167 235.814 50.8533 235.81 50.89C235.81 50.9233 235.81 50.9583 235.81 50.995C235.81 51.4417 235.907 51.7833 236.1 52.02C236.297 52.2533 236.592 52.37 236.985 52.37C237.145 52.37 237.287 52.3533 237.41 52.32C237.537 52.2867 237.649 52.2467 237.745 52.2C237.845 52.15 237.932 52.0967 238.005 52.04C238.082 51.98 238.15 51.9267 238.21 51.88C238.274 51.83 238.332 51.7883 238.385 51.755C238.439 51.7217 238.492 51.705 238.545 51.705C238.609 51.705 238.665 51.7333 238.715 51.79L238.935 52.065ZM243.205 48.555C243.132 48.5383 243.059 48.5283 242.985 48.525C242.915 48.5183 242.845 48.515 242.775 48.515C242.575 48.515 242.382 48.5483 242.195 48.615C242.009 48.6783 241.834 48.7683 241.67 48.885C241.507 49.0017 241.359 49.1417 241.225 49.305C241.092 49.465 240.977 49.6417 240.88 49.835C240.787 50.0283 240.714 50.235 240.66 50.455C240.607 50.6717 240.58 50.895 240.58 51.125C240.58 51.9283 240.837 52.33 241.35 52.33C241.514 52.33 241.674 52.28 241.83 52.18C241.987 52.0767 242.135 51.935 242.275 51.755C242.419 51.5717 242.55 51.3567 242.67 51.11C242.79 50.86 242.897 50.5867 242.99 50.29L243.205 48.555ZM242.865 51.665C242.745 51.8783 242.615 52.0717 242.475 52.245C242.339 52.4183 242.192 52.5667 242.035 52.69C241.882 52.81 241.719 52.9033 241.545 52.97C241.375 53.0367 241.199 53.07 241.015 53.07C240.815 53.07 240.634 53.0317 240.47 52.955C240.307 52.875 240.167 52.76 240.05 52.61C239.937 52.4567 239.849 52.27 239.785 52.05C239.722 51.8267 239.69 51.5717 239.69 51.285C239.69 50.985 239.727 50.6933 239.8 50.41C239.877 50.1233 239.984 49.8533 240.12 49.6C240.26 49.3467 240.427 49.115 240.62 48.905C240.814 48.6917 241.029 48.5083 241.265 48.355C241.505 48.1983 241.762 48.0783 242.035 47.995C242.309 47.9083 242.595 47.865 242.895 47.865C243.112 47.865 243.322 47.8833 243.525 47.92C243.732 47.9533 243.935 48.0133 244.135 48.1L243.53 53H243.07C242.954 53 242.874 52.97 242.83 52.91C242.79 52.85 242.77 52.7767 242.77 52.69L242.865 51.665ZM245.843 51.89C245.97 52.0667 246.121 52.1933 246.298 52.27C246.475 52.3433 246.655 52.38 246.838 52.38C247.011 52.38 247.175 52.3433 247.328 52.27C247.481 52.1967 247.621 52.0983 247.748 51.975C247.875 51.8483 247.988 51.7017 248.088 51.535C248.188 51.365 248.271 51.185 248.338 50.995C248.408 50.8017 248.461 50.6033 248.498 50.4C248.535 50.1933 248.553 49.99 248.553 49.79C248.553 49.3933 248.481 49.0917 248.338 48.885C248.195 48.6783 247.993 48.575 247.733 48.575C247.573 48.575 247.411 48.625 247.248 48.725C247.085 48.8217 246.926 48.9583 246.773 49.135C246.623 49.3117 246.481 49.5217 246.348 49.765C246.218 50.0083 246.105 50.275 246.008 50.565L245.843 51.89ZM246.113 49.31C246.24 49.09 246.378 48.8917 246.528 48.715C246.678 48.535 246.836 48.3817 247.003 48.255C247.17 48.1283 247.341 48.0317 247.518 47.965C247.698 47.895 247.881 47.86 248.068 47.86C248.501 47.86 248.836 48.0167 249.073 48.33C249.313 48.6433 249.433 49.1017 249.433 49.705C249.433 49.9783 249.405 50.2517 249.348 50.525C249.291 50.7983 249.21 51.06 249.103 51.31C249 51.5567 248.873 51.7883 248.723 52.005C248.576 52.2183 248.411 52.405 248.228 52.565C248.048 52.7217 247.851 52.845 247.638 52.935C247.425 53.025 247.201 53.07 246.968 53.07C246.718 53.07 246.491 53.0217 246.288 52.925C246.085 52.825 245.911 52.685 245.768 52.505L245.498 54.715H244.633L245.458 47.93H245.898C246.098 47.93 246.198 48.03 246.198 48.23L246.113 49.31ZM253.396 53.84L253.321 54.42H249.696L249.766 53.84H253.396ZM254.569 53L255.179 47.93H255.619C255.823 47.93 255.924 48.03 255.924 48.23L255.854 49.13C256.104 48.7133 256.378 48.3983 256.674 48.185C256.974 47.9683 257.288 47.86 257.614 47.86C257.958 47.86 258.211 47.9783 258.374 48.215C258.538 48.4483 258.619 48.7833 258.619 49.22C258.869 48.7567 259.151 48.415 259.464 48.195C259.781 47.9717 260.114 47.86 260.464 47.86C260.898 47.86 261.204 48.0267 261.384 48.36C261.564 48.6933 261.618 49.165 261.544 49.775L261.164 53H260.284L260.669 49.775C260.716 49.3783 260.703 49.0833 260.629 48.89C260.559 48.6967 260.399 48.6 260.149 48.6C260.006 48.6 259.863 48.6367 259.719 48.71C259.579 48.78 259.443 48.885 259.309 49.025C259.176 49.1617 259.051 49.3333 258.934 49.54C258.821 49.7433 258.719 49.9783 258.629 50.245V50.25L258.304 53H257.424L257.804 49.775C257.854 49.3783 257.848 49.0833 257.784 48.89C257.721 48.6967 257.564 48.6 257.314 48.6C257.154 48.6 256.999 48.64 256.849 48.72C256.703 48.8 256.563 48.9167 256.429 49.07C256.299 49.22 256.178 49.405 256.064 49.625C255.951 49.8417 255.848 50.0867 255.754 50.36L255.439 53H254.569ZM265.911 48.555C265.837 48.5383 265.764 48.5283 265.691 48.525C265.621 48.5183 265.551 48.515 265.481 48.515C265.281 48.515 265.087 48.5483 264.901 48.615C264.714 48.6783 264.539 48.7683 264.376 48.885C264.212 49.0017 264.064 49.1417 263.931 49.305C263.797 49.465 263.682 49.6417 263.586 49.835C263.492 50.0283 263.419 50.235 263.366 50.455C263.312 50.6717 263.286 50.895 263.286 51.125C263.286 51.9283 263.542 52.33 264.056 52.33C264.219 52.33 264.379 52.28 264.536 52.18C264.692 52.0767 264.841 51.935 264.981 51.755C265.124 51.5717 265.256 51.3567 265.376 51.11C265.496 50.86 265.602 50.5867 265.696 50.29L265.911 48.555ZM265.571 51.665C265.451 51.8783 265.321 52.0717 265.181 52.245C265.044 52.4183 264.897 52.5667 264.741 52.69C264.587 52.81 264.424 52.9033 264.251 52.97C264.081 53.0367 263.904 53.07 263.721 53.07C263.521 53.07 263.339 53.0317 263.176 52.955C263.012 52.875 262.872 52.76 262.756 52.61C262.642 52.4567 262.554 52.27 262.491 52.05C262.427 51.8267 262.396 51.5717 262.396 51.285C262.396 50.985 262.432 50.6933 262.506 50.41C262.582 50.1233 262.689 49.8533 262.826 49.6C262.966 49.3467 263.132 49.115 263.326 48.905C263.519 48.6917 263.734 48.5083 263.971 48.355C264.211 48.1983 264.467 48.0783 264.741 47.995C265.014 47.9083 265.301 47.865 265.601 47.865C265.817 47.865 266.027 47.8833 266.231 47.92C266.437 47.9533 266.641 48.0133 266.841 48.1L266.236 53H265.776C265.659 53 265.579 52.97 265.536 52.91C265.496 52.85 265.476 52.7767 265.476 52.69L265.571 51.665ZM267.573 53L268.468 45.635H269.343L268.448 53H267.573ZM269.819 53L270.714 45.635H271.589L270.694 53H269.819ZM274.01 52.375C274.253 52.375 274.473 52.3083 274.67 52.175C274.87 52.0417 275.04 51.865 275.18 51.645C275.323 51.4217 275.433 51.165 275.51 50.875C275.587 50.585 275.625 50.2817 275.625 49.965C275.625 49.4983 275.532 49.1483 275.345 48.915C275.162 48.6783 274.897 48.56 274.55 48.56C274.303 48.56 274.08 48.6267 273.88 48.76C273.683 48.89 273.515 49.065 273.375 49.285C273.235 49.505 273.127 49.76 273.05 50.05C272.973 50.34 272.935 50.6433 272.935 50.96C272.935 51.4267 273.027 51.78 273.21 52.02C273.393 52.2567 273.66 52.375 274.01 52.375ZM273.925 53.07C273.648 53.07 273.395 53.0233 273.165 52.93C272.935 52.8333 272.737 52.695 272.57 52.515C272.403 52.335 272.273 52.115 272.18 51.855C272.087 51.595 272.04 51.2983 272.04 50.965C272.04 50.5383 272.107 50.1367 272.24 49.76C272.373 49.3833 272.557 49.055 272.79 48.775C273.023 48.4917 273.297 48.2683 273.61 48.105C273.927 47.9417 274.267 47.86 274.63 47.86C274.907 47.86 275.16 47.9083 275.39 48.005C275.62 48.0983 275.818 48.235 275.985 48.415C276.152 48.595 276.282 48.815 276.375 49.075C276.468 49.335 276.515 49.63 276.515 49.96C276.515 50.3833 276.448 50.7833 276.315 51.16C276.182 51.5367 275.998 51.8667 275.765 52.15C275.535 52.4333 275.262 52.6583 274.945 52.825C274.628 52.9883 274.288 53.07 273.925 53.07ZM281.021 52.09C280.847 52.28 280.682 52.4383 280.526 52.565C280.369 52.6917 280.212 52.7933 280.056 52.87C279.899 52.9433 279.736 52.995 279.566 53.025C279.399 53.055 279.219 53.07 279.026 53.07C278.732 53.07 278.472 53.02 278.246 52.92C278.022 52.82 277.834 52.68 277.681 52.5C277.531 52.3167 277.416 52.0983 277.336 51.845C277.259 51.5883 277.221 51.3067 277.221 51C277.221 50.59 277.284 50.1967 277.411 49.82C277.541 49.4433 277.721 49.11 277.951 48.82C278.181 48.53 278.454 48.2983 278.771 48.125C279.091 47.9517 279.439 47.865 279.816 47.865C280.152 47.865 280.434 47.925 280.661 48.045C280.887 48.1617 281.086 48.3333 281.256 48.56L280.976 48.895C280.952 48.9217 280.926 48.9433 280.896 48.96C280.869 48.9767 280.837 48.985 280.801 48.985C280.754 48.985 280.707 48.965 280.661 48.925C280.617 48.8817 280.559 48.835 280.486 48.785C280.412 48.7317 280.321 48.685 280.211 48.645C280.104 48.6017 279.966 48.58 279.796 48.58C279.566 48.58 279.349 48.6433 279.146 48.77C278.942 48.8933 278.764 49.0633 278.611 49.28C278.457 49.4967 278.336 49.7533 278.246 50.05C278.159 50.3467 278.116 50.665 278.116 51.005C278.116 51.2117 278.139 51.4 278.186 51.57C278.232 51.7367 278.302 51.88 278.396 52C278.489 52.1167 278.602 52.2083 278.736 52.275C278.872 52.3383 279.031 52.37 279.211 52.37C279.434 52.37 279.621 52.3367 279.771 52.27C279.924 52.2033 280.052 52.1317 280.156 52.055C280.259 51.975 280.346 51.9017 280.416 51.835C280.489 51.7683 280.561 51.735 280.631 51.735C280.694 51.735 280.751 51.7633 280.801 51.82L281.021 52.09ZM282.657 50.795C282.657 51.0417 282.668 51.2983 282.692 51.565C282.715 51.8283 282.748 52.0933 282.792 52.36C282.838 52.6267 282.897 52.8883 282.967 53.145C283.037 53.4017 283.117 53.6417 283.207 53.865C283.243 53.965 283.245 54.0417 283.212 54.095C283.182 54.1483 283.14 54.1917 283.087 54.225L282.682 54.455C282.542 54.1683 282.422 53.8717 282.322 53.565C282.225 53.2617 282.145 52.9567 282.082 52.65C282.018 52.3433 281.972 52.04 281.942 51.74C281.912 51.44 281.897 51.1517 281.897 50.875C281.897 50.4083 281.923 49.955 281.977 49.515C282.03 49.0717 282.127 48.625 282.267 48.175C282.41 47.725 282.605 47.2617 282.852 46.785C283.098 46.305 283.417 45.795 283.807 45.255L284.162 45.49C284.205 45.5233 284.237 45.5667 284.257 45.62C284.277 45.6733 284.255 45.7483 284.192 45.845C283.945 46.225 283.727 46.605 283.537 46.985C283.347 47.3617 283.187 47.75 283.057 48.15C282.927 48.55 282.827 48.9683 282.757 49.405C282.69 49.8383 282.657 50.3017 282.657 50.795ZM285.49 48.915C285.49 48.6717 285.478 48.4167 285.455 48.15C285.431 47.8833 285.395 47.6167 285.345 47.35C285.298 47.0833 285.24 46.8217 285.17 46.565C285.103 46.3083 285.025 46.0683 284.935 45.845C284.898 45.7483 284.895 45.6733 284.925 45.62C284.955 45.5667 284.996 45.5233 285.05 45.49L285.465 45.255C285.601 45.545 285.718 45.8417 285.815 46.145C285.915 46.4483 285.995 46.7533 286.055 47.06C286.118 47.3667 286.165 47.67 286.195 47.97C286.225 48.27 286.24 48.56 286.24 48.84C286.24 49.3067 286.213 49.7617 286.16 50.205C286.106 50.645 286.01 51.09 285.87 51.54C285.73 51.99 285.536 52.4533 285.29 52.93C285.043 53.4067 284.725 53.915 284.335 54.455L283.98 54.225C283.956 54.2083 283.936 54.19 283.92 54.17C283.903 54.15 283.891 54.125 283.885 54.095C283.878 54.0683 283.88 54.035 283.89 53.995C283.9 53.9583 283.921 53.915 283.955 53.865C284.198 53.485 284.415 53.1017 284.605 52.715C284.795 52.3283 284.955 51.9317 285.085 51.525C285.218 51.115 285.318 50.695 285.385 50.265C285.455 49.8317 285.49 49.3817 285.49 48.915Z" fill="black"/>
<path d="M298 59L293 56.1132V61.8868L298 59ZM218 59V59.5L293.5 59.5V59V58.5L218 58.5V59Z" fill="black"/>
</svg>
