<svg width="280" height="280" viewBox="0 0 280 280" fill="none" xmlns="http://www.w3.org/2000/svg">
<rect width="280" height="280" fill="white"/>
<circle cx="61" cy="125" r="34.6" fill="white" stroke="black" stroke-width="0.8" stroke-dasharray="2 2"/>
<circle cx="61" cy="125" r="34.6" fill="white" stroke="black" stroke-width="0.8" stroke-dasharray="2 2"/>
<circle cx="61" cy="125" r="24.5" fill="#F1FAEE" stroke="black"/>
<circle cx="61" cy="125" r="24.5" fill="#F1FAEE" stroke="black"/>
<path d="M57.1897 121.65H54.8697V128H53.9047V121.65H51.5797V120.835H57.1897V121.65ZM59.6453 125.72C59.2353 125.733 58.8853 125.767 58.5953 125.82C58.3086 125.87 58.0736 125.937 57.8903 126.02C57.7103 126.103 57.5786 126.202 57.4953 126.315C57.4153 126.428 57.3753 126.555 57.3753 126.695C57.3753 126.828 57.397 126.943 57.4403 127.04C57.4836 127.137 57.542 127.217 57.6153 127.28C57.692 127.34 57.7803 127.385 57.8803 127.415C57.9836 127.442 58.0936 127.455 58.2103 127.455C58.367 127.455 58.5103 127.44 58.6403 127.41C58.7703 127.377 58.892 127.33 59.0053 127.27C59.122 127.21 59.232 127.138 59.3353 127.055C59.442 126.972 59.5453 126.877 59.6453 126.77V125.72ZM56.7703 123.65C57.0503 123.38 57.352 123.178 57.6753 123.045C57.9986 122.912 58.357 122.845 58.7503 122.845C59.0336 122.845 59.2853 122.892 59.5053 122.985C59.7253 123.078 59.9103 123.208 60.0603 123.375C60.2103 123.542 60.3236 123.743 60.4003 123.98C60.477 124.217 60.5153 124.477 60.5153 124.76V128H60.1203C60.0336 128 59.967 127.987 59.9203 127.96C59.8736 127.93 59.837 127.873 59.8103 127.79L59.7103 127.31C59.577 127.433 59.447 127.543 59.3203 127.64C59.1936 127.733 59.0603 127.813 58.9203 127.88C58.7803 127.943 58.6303 127.992 58.4703 128.025C58.3136 128.062 58.1386 128.08 57.9453 128.08C57.7486 128.08 57.5636 128.053 57.3903 128C57.217 127.943 57.0653 127.86 56.9353 127.75C56.8086 127.64 56.707 127.502 56.6303 127.335C56.557 127.165 56.5203 126.965 56.5203 126.735C56.5203 126.535 56.5753 126.343 56.6853 126.16C56.7953 125.973 56.9736 125.808 57.2203 125.665C57.467 125.522 57.7886 125.405 58.1853 125.315C58.582 125.222 59.0686 125.168 59.6453 125.155V124.76C59.6453 124.367 59.5603 124.07 59.3903 123.87C59.2203 123.667 58.972 123.565 58.6453 123.565C58.4253 123.565 58.2403 123.593 58.0903 123.65C57.9436 123.703 57.8153 123.765 57.7053 123.835C57.5986 123.902 57.5053 123.963 57.4253 124.02C57.3486 124.073 57.272 124.1 57.1953 124.1C57.1353 124.1 57.0836 124.085 57.0403 124.055C56.997 124.022 56.9603 123.982 56.9303 123.935L56.7703 123.65ZM64.821 123.77C64.781 123.843 64.7193 123.88 64.636 123.88C64.586 123.88 64.5293 123.862 64.466 123.825C64.4027 123.788 64.3243 123.748 64.231 123.705C64.141 123.658 64.0327 123.617 63.906 123.58C63.7793 123.54 63.6293 123.52 63.456 123.52C63.306 123.52 63.171 123.54 63.051 123.58C62.931 123.617 62.8277 123.668 62.741 123.735C62.6577 123.802 62.5927 123.88 62.546 123.97C62.5027 124.057 62.481 124.152 62.481 124.255C62.481 124.385 62.5177 124.493 62.591 124.58C62.6677 124.667 62.7677 124.742 62.891 124.805C63.0143 124.868 63.1543 124.925 63.311 124.975C63.4677 125.022 63.6277 125.073 63.791 125.13C63.9577 125.183 64.1193 125.243 64.276 125.31C64.4327 125.377 64.5727 125.46 64.696 125.56C64.8193 125.66 64.9177 125.783 64.991 125.93C65.0677 126.073 65.106 126.247 65.106 126.45C65.106 126.683 65.0643 126.9 64.981 127.1C64.8977 127.297 64.7743 127.468 64.611 127.615C64.4477 127.758 64.2477 127.872 64.011 127.955C63.7743 128.038 63.501 128.08 63.191 128.08C62.8377 128.08 62.5177 128.023 62.231 127.91C61.9443 127.793 61.701 127.645 61.501 127.465L61.711 127.125C61.7377 127.082 61.7693 127.048 61.806 127.025C61.8427 127.002 61.8893 126.99 61.946 126.99C62.006 126.99 62.0693 127.013 62.136 127.06C62.2027 127.107 62.2827 127.158 62.376 127.215C62.4727 127.272 62.5893 127.323 62.726 127.37C62.8627 127.417 63.0327 127.44 63.236 127.44C63.4093 127.44 63.561 127.418 63.691 127.375C63.821 127.328 63.9293 127.267 64.016 127.19C64.1027 127.113 64.166 127.025 64.206 126.925C64.2493 126.825 64.271 126.718 64.271 126.605C64.271 126.465 64.2327 126.35 64.156 126.26C64.0827 126.167 63.9843 126.088 63.861 126.025C63.7377 125.958 63.596 125.902 63.436 125.855C63.2793 125.805 63.1177 125.753 62.951 125.7C62.7877 125.647 62.626 125.587 62.466 125.52C62.3093 125.45 62.1693 125.363 62.046 125.26C61.9227 125.157 61.8227 125.03 61.746 124.88C61.6727 124.727 61.636 124.542 61.636 124.325C61.636 124.132 61.676 123.947 61.756 123.77C61.836 123.59 61.9527 123.433 62.106 123.3C62.2593 123.163 62.4477 123.055 62.671 122.975C62.8943 122.895 63.1493 122.855 63.436 122.855C63.7693 122.855 64.0677 122.908 64.331 123.015C64.5977 123.118 64.8277 123.262 65.021 123.445L64.821 123.77ZM67.0922 120.635V124.97H67.3222C67.3889 124.97 67.4439 124.962 67.4872 124.945C67.5339 124.925 67.5822 124.887 67.6322 124.83L69.2322 123.115C69.2789 123.058 69.3272 123.015 69.3772 122.985C69.4305 122.952 69.5005 122.935 69.5872 122.935H70.3922L68.5272 124.92C68.4372 125.033 68.3405 125.122 68.2372 125.185C68.2972 125.225 68.3505 125.272 68.3972 125.325C68.4472 125.375 68.4939 125.433 68.5372 125.5L70.5172 128H69.7222C69.6455 128 69.5789 127.988 69.5222 127.965C69.4689 127.938 69.4222 127.892 69.3822 127.825L67.7172 125.75C67.6672 125.68 67.6172 125.635 67.5672 125.615C67.5205 125.592 67.4472 125.58 67.3472 125.58H67.0922V128H66.1972V120.635H67.0922Z" fill="black"/>
<rect x="164.5" y="40.5" width="79" height="169" fill="white" stroke="black"/>
<path d="M86 125L91 127.887V122.113L86 125ZM90.5 125V125.5H164V125V124.5H90.5V125Z" fill="black"/>
<path d="M194.419 219.835V227H193.569V221.735C193.569 221.665 193.57 221.59 193.574 221.51C193.58 221.43 193.587 221.348 193.594 221.265L191.134 225.745C191.057 225.895 190.94 225.97 190.784 225.97H190.644C190.487 225.97 190.37 225.895 190.294 225.745L187.784 221.245C187.804 221.422 187.814 221.585 187.814 221.735V227H186.964V219.835H187.679C187.765 219.835 187.832 219.843 187.879 219.86C187.925 219.877 187.97 219.923 188.014 220L190.489 224.41C190.529 224.49 190.567 224.573 190.604 224.66C190.644 224.747 190.68 224.835 190.714 224.925C190.747 224.835 190.782 224.747 190.819 224.66C190.855 224.57 190.895 224.485 190.939 224.405L193.369 220C193.409 219.923 193.452 219.877 193.499 219.86C193.549 219.843 193.617 219.835 193.704 219.835H194.419ZM198.639 224.72C198.229 224.733 197.879 224.767 197.589 224.82C197.303 224.87 197.068 224.937 196.884 225.02C196.704 225.103 196.573 225.202 196.489 225.315C196.409 225.428 196.369 225.555 196.369 225.695C196.369 225.828 196.391 225.943 196.434 226.04C196.478 226.137 196.536 226.217 196.609 226.28C196.686 226.34 196.774 226.385 196.874 226.415C196.978 226.442 197.088 226.455 197.204 226.455C197.361 226.455 197.504 226.44 197.634 226.41C197.764 226.377 197.886 226.33 197.999 226.27C198.116 226.21 198.226 226.138 198.329 226.055C198.436 225.972 198.539 225.877 198.639 225.77V224.72ZM195.764 222.65C196.044 222.38 196.346 222.178 196.669 222.045C196.993 221.912 197.351 221.845 197.744 221.845C198.028 221.845 198.279 221.892 198.499 221.985C198.719 222.078 198.904 222.208 199.054 222.375C199.204 222.542 199.318 222.743 199.394 222.98C199.471 223.217 199.509 223.477 199.509 223.76V227H199.114C199.028 227 198.961 226.987 198.914 226.96C198.868 226.93 198.831 226.873 198.804 226.79L198.704 226.31C198.571 226.433 198.441 226.543 198.314 226.64C198.188 226.733 198.054 226.813 197.914 226.88C197.774 226.943 197.624 226.992 197.464 227.025C197.308 227.062 197.133 227.08 196.939 227.08C196.743 227.08 196.558 227.053 196.384 227C196.211 226.943 196.059 226.86 195.929 226.75C195.803 226.64 195.701 226.502 195.624 226.335C195.551 226.165 195.514 225.965 195.514 225.735C195.514 225.535 195.569 225.343 195.679 225.16C195.789 224.973 195.968 224.808 196.214 224.665C196.461 224.522 196.783 224.405 197.179 224.315C197.576 224.222 198.063 224.168 198.639 224.155V223.76C198.639 223.367 198.554 223.07 198.384 222.87C198.214 222.667 197.966 222.565 197.639 222.565C197.419 222.565 197.234 222.593 197.084 222.65C196.938 222.703 196.809 222.765 196.699 222.835C196.593 222.902 196.499 222.963 196.419 223.02C196.343 223.073 196.266 223.1 196.189 223.1C196.129 223.1 196.078 223.085 196.034 223.055C195.991 223.022 195.954 222.982 195.924 222.935L195.764 222.65ZM201.805 221.935V227H200.915V221.935H201.805ZM201.995 220.345C201.995 220.432 201.977 220.513 201.94 220.59C201.907 220.663 201.86 220.73 201.8 220.79C201.743 220.847 201.675 220.892 201.595 220.925C201.518 220.958 201.437 220.975 201.35 220.975C201.263 220.975 201.182 220.958 201.105 220.925C201.032 220.892 200.967 220.847 200.91 220.79C200.853 220.73 200.808 220.663 200.775 220.59C200.742 220.513 200.725 220.432 200.725 220.345C200.725 220.258 200.742 220.177 200.775 220.1C200.808 220.02 200.853 219.952 200.91 219.895C200.967 219.835 201.032 219.788 201.105 219.755C201.182 219.722 201.263 219.705 201.35 219.705C201.437 219.705 201.518 219.722 201.595 219.755C201.675 219.788 201.743 219.835 201.8 219.895C201.86 219.952 201.907 220.02 201.94 220.1C201.977 220.177 201.995 220.258 201.995 220.345ZM204.188 219.635V227H203.297V219.635H204.188ZM206.526 225.78C206.689 226 206.867 226.155 207.061 226.245C207.257 226.335 207.472 226.38 207.706 226.38C208.182 226.38 208.547 226.212 208.801 225.875C209.054 225.538 209.181 225.037 209.181 224.37C209.181 223.75 209.067 223.295 208.841 223.005C208.617 222.712 208.297 222.565 207.881 222.565C207.591 222.565 207.337 222.632 207.121 222.765C206.907 222.898 206.709 223.087 206.526 223.33V225.78ZM206.526 222.665C206.739 222.418 206.979 222.222 207.246 222.075C207.516 221.928 207.826 221.855 208.176 221.855C208.472 221.855 208.739 221.912 208.976 222.025C209.216 222.138 209.419 222.303 209.586 222.52C209.752 222.733 209.879 222.993 209.966 223.3C210.056 223.607 210.101 223.952 210.101 224.335C210.101 224.745 210.051 225.118 209.951 225.455C209.851 225.792 209.706 226.08 209.516 226.32C209.329 226.557 209.101 226.742 208.831 226.875C208.561 227.005 208.257 227.07 207.921 227.07C207.587 227.07 207.306 227.008 207.076 226.885C206.849 226.758 206.651 226.58 206.481 226.35L206.436 226.81C206.409 226.937 206.332 227 206.206 227H205.631V219.635H206.526V222.665ZM213.361 221.855C213.731 221.855 214.065 221.917 214.361 222.04C214.658 222.163 214.911 222.338 215.121 222.565C215.331 222.792 215.491 223.067 215.601 223.39C215.715 223.71 215.771 224.068 215.771 224.465C215.771 224.865 215.715 225.225 215.601 225.545C215.491 225.865 215.331 226.138 215.121 226.365C214.911 226.592 214.658 226.767 214.361 226.89C214.065 227.01 213.731 227.07 213.361 227.07C212.988 227.07 212.651 227.01 212.351 226.89C212.055 226.767 211.801 226.592 211.591 226.365C211.381 226.138 211.22 225.865 211.106 225.545C210.996 225.225 210.941 224.865 210.941 224.465C210.941 224.068 210.996 223.71 211.106 223.39C211.22 223.067 211.381 222.792 211.591 222.565C211.801 222.338 212.055 222.163 212.351 222.04C212.651 221.917 212.988 221.855 213.361 221.855ZM213.361 226.375C213.861 226.375 214.235 226.208 214.481 225.875C214.728 225.538 214.851 225.07 214.851 224.47C214.851 223.867 214.728 223.397 214.481 223.06C214.235 222.723 213.861 222.555 213.361 222.555C213.108 222.555 212.886 222.598 212.696 222.685C212.51 222.772 212.353 222.897 212.226 223.06C212.103 223.223 212.01 223.425 211.946 223.665C211.886 223.902 211.856 224.17 211.856 224.47C211.856 225.07 211.98 225.538 212.226 225.875C212.476 226.208 212.855 226.375 213.361 226.375ZM220.836 227H219.981C219.907 227 219.849 226.982 219.806 226.945C219.766 226.905 219.732 226.862 219.706 226.815L218.431 224.83C218.417 224.877 218.402 224.923 218.386 224.97C218.372 225.013 218.352 225.053 218.326 225.09L217.146 226.815C217.112 226.862 217.076 226.905 217.036 226.945C216.999 226.982 216.947 227 216.881 227H216.086L217.861 224.4L216.156 221.935H217.011C217.084 221.935 217.137 221.947 217.171 221.97C217.204 221.993 217.234 222.027 217.261 222.07L218.506 223.97C218.532 223.873 218.574 223.78 218.631 223.69L219.721 222.09C219.751 222.043 219.782 222.007 219.816 221.98C219.852 221.95 219.896 221.935 219.946 221.935H220.766L219.061 224.355L220.836 227Z" fill="black"/>
<path d="M103.616 256.74C103.916 256.74 104.168 256.704 104.372 256.632C104.576 256.56 104.738 256.464 104.858 256.344C104.982 256.224 105.07 256.084 105.122 255.924C105.178 255.764 105.206 255.594 105.206 255.414C105.206 255.226 105.176 255.058 105.116 254.91C105.056 254.758 104.962 254.63 104.834 254.526C104.706 254.418 104.54 254.336 104.336 254.28C104.136 254.224 103.894 254.196 103.61 254.196H101.984V256.74H103.616ZM101.984 250.572V253.08H103.268C103.82 253.08 104.236 252.98 104.516 252.78C104.8 252.58 104.942 252.262 104.942 251.826C104.942 251.374 104.814 251.052 104.558 250.86C104.302 250.668 103.902 250.572 103.358 250.572H101.984ZM103.358 249.324C103.926 249.324 104.412 249.378 104.816 249.486C105.22 249.594 105.55 249.748 105.806 249.948C106.066 250.148 106.256 250.39 106.376 250.674C106.496 250.958 106.556 251.278 106.556 251.634C106.556 251.838 106.526 252.034 106.466 252.222C106.406 252.406 106.312 252.58 106.184 252.744C106.06 252.904 105.9 253.05 105.704 253.182C105.512 253.314 105.282 253.426 105.014 253.518C106.206 253.786 106.802 254.43 106.802 255.45C106.802 255.818 106.732 256.158 106.592 256.47C106.452 256.782 106.248 257.052 105.98 257.28C105.712 257.504 105.382 257.68 104.99 257.808C104.598 257.936 104.15 258 103.646 258H100.37V249.324H103.358ZM109.429 249.084V258H107.947V249.084H109.429ZM113.63 251.748C114.086 251.748 114.5 251.822 114.872 251.97C115.248 252.118 115.568 252.328 115.832 252.6C116.1 252.872 116.306 253.204 116.45 253.596C116.594 253.988 116.666 254.426 116.666 254.91C116.666 255.398 116.594 255.838 116.45 256.23C116.306 256.622 116.1 256.956 115.832 257.232C115.568 257.508 115.248 257.72 114.872 257.868C114.5 258.016 114.086 258.09 113.63 258.09C113.17 258.09 112.752 258.016 112.376 257.868C112 257.72 111.678 257.508 111.41 257.232C111.146 256.956 110.94 256.622 110.792 256.23C110.648 255.838 110.576 255.398 110.576 254.91C110.576 254.426 110.648 253.988 110.792 253.596C110.94 253.204 111.146 252.872 111.41 252.6C111.678 252.328 112 252.118 112.376 251.97C112.752 251.822 113.17 251.748 113.63 251.748ZM113.63 256.95C114.142 256.95 114.52 256.778 114.764 256.434C115.012 256.09 115.136 255.586 115.136 254.922C115.136 254.258 115.012 253.752 114.764 253.404C114.52 253.056 114.142 252.882 113.63 252.882C113.11 252.882 112.724 253.058 112.472 253.41C112.224 253.758 112.1 254.262 112.1 254.922C112.1 255.582 112.224 256.086 112.472 256.434C112.724 256.778 113.11 256.95 113.63 256.95ZM122.206 253.146C122.162 253.202 122.118 253.246 122.074 253.278C122.034 253.31 121.974 253.326 121.894 253.326C121.818 253.326 121.744 253.304 121.672 253.26C121.6 253.212 121.514 253.16 121.414 253.104C121.314 253.044 121.194 252.992 121.054 252.948C120.918 252.9 120.748 252.876 120.544 252.876C120.284 252.876 120.056 252.924 119.86 253.02C119.664 253.112 119.5 253.246 119.368 253.422C119.24 253.598 119.144 253.812 119.08 254.064C119.016 254.312 118.984 254.594 118.984 254.91C118.984 255.238 119.018 255.53 119.086 255.786C119.158 256.042 119.26 256.258 119.392 256.434C119.524 256.606 119.684 256.738 119.872 256.83C120.06 256.918 120.272 256.962 120.508 256.962C120.744 256.962 120.934 256.934 121.078 256.878C121.226 256.818 121.35 256.754 121.45 256.686C121.55 256.614 121.636 256.55 121.708 256.494C121.784 256.434 121.868 256.404 121.96 256.404C122.08 256.404 122.17 256.45 122.23 256.542L122.656 257.082C122.492 257.274 122.314 257.436 122.122 257.568C121.93 257.696 121.73 257.8 121.522 257.88C121.318 257.956 121.106 258.01 120.886 258.042C120.67 258.074 120.454 258.09 120.238 258.09C119.858 258.09 119.5 258.02 119.164 257.88C118.828 257.736 118.534 257.528 118.282 257.256C118.03 256.984 117.83 256.652 117.682 256.26C117.538 255.864 117.466 255.414 117.466 254.91C117.466 254.458 117.53 254.04 117.658 253.656C117.79 253.268 117.982 252.934 118.234 252.654C118.486 252.37 118.798 252.148 119.17 251.988C119.542 251.828 119.97 251.748 120.454 251.748C120.914 251.748 121.316 251.822 121.66 251.97C122.008 252.118 122.32 252.33 122.596 252.606L122.206 253.146ZM125.068 249.084V254.19H125.344C125.444 254.19 125.522 254.178 125.578 254.154C125.638 254.126 125.698 254.072 125.758 253.992L127.288 252.102C127.352 252.018 127.422 251.954 127.498 251.91C127.578 251.866 127.68 251.844 127.804 251.844H129.16L127.246 254.13C127.11 254.31 126.962 254.448 126.802 254.544C126.886 254.604 126.96 254.674 127.024 254.754C127.092 254.834 127.156 254.92 127.216 255.012L129.268 258H127.93C127.814 258 127.714 257.982 127.63 257.946C127.546 257.906 127.476 257.836 127.42 257.736L125.848 255.402C125.792 255.31 125.734 255.25 125.674 255.222C125.614 255.194 125.524 255.18 125.404 255.18H125.068V258H123.586V249.084H125.068ZM131.532 251.844V258H130.044V251.844H131.532ZM131.736 250.05C131.736 250.178 131.71 250.298 131.658 250.41C131.606 250.522 131.536 250.62 131.448 250.704C131.364 250.788 131.264 250.856 131.148 250.908C131.032 250.956 130.908 250.98 130.776 250.98C130.648 250.98 130.526 250.956 130.41 250.908C130.298 250.856 130.2 250.788 130.116 250.704C130.032 250.62 129.964 250.522 129.912 250.41C129.864 250.298 129.84 250.178 129.84 250.05C129.84 249.918 129.864 249.794 129.912 249.678C129.964 249.562 130.032 249.462 130.116 249.378C130.2 249.294 130.298 249.228 130.41 249.18C130.526 249.128 130.648 249.102 130.776 249.102C130.908 249.102 131.032 249.128 131.148 249.18C131.264 249.228 131.364 249.294 131.448 249.378C131.536 249.462 131.606 249.562 131.658 249.678C131.71 249.794 131.736 249.918 131.736 250.05ZM134.429 252.6C134.553 252.476 134.683 252.362 134.819 252.258C134.959 252.15 135.105 252.06 135.257 251.988C135.413 251.912 135.579 251.854 135.755 251.814C135.931 251.77 136.123 251.748 136.331 251.748C136.667 251.748 136.965 251.806 137.225 251.922C137.485 252.034 137.701 252.194 137.873 252.402C138.049 252.606 138.181 252.852 138.269 253.14C138.361 253.424 138.407 253.738 138.407 254.082V258H136.925V254.082C136.925 253.706 136.839 253.416 136.667 253.212C136.495 253.004 136.233 252.9 135.881 252.9C135.625 252.9 135.385 252.958 135.161 253.074C134.937 253.19 134.725 253.348 134.525 253.548V258H133.043V251.844H133.949C134.141 251.844 134.267 251.934 134.327 252.114L134.429 252.6ZM142.066 254.772C142.25 254.772 142.41 254.748 142.546 254.7C142.682 254.648 142.794 254.578 142.882 254.49C142.974 254.402 143.042 254.296 143.086 254.172C143.134 254.048 143.158 253.912 143.158 253.764C143.158 253.46 143.066 253.22 142.882 253.044C142.702 252.864 142.43 252.774 142.066 252.774C141.702 252.774 141.428 252.864 141.244 253.044C141.064 253.22 140.974 253.46 140.974 253.764C140.974 253.908 140.996 254.042 141.04 254.166C141.088 254.29 141.156 254.398 141.244 254.49C141.336 254.578 141.45 254.648 141.586 254.7C141.726 254.748 141.886 254.772 142.066 254.772ZM143.74 258.276C143.74 258.156 143.704 258.058 143.632 257.982C143.56 257.906 143.462 257.848 143.338 257.808C143.214 257.764 143.068 257.732 142.9 257.712C142.736 257.692 142.56 257.678 142.372 257.67C142.188 257.658 141.996 257.648 141.796 257.64C141.6 257.632 141.408 257.616 141.22 257.592C141.056 257.684 140.922 257.792 140.818 257.916C140.718 258.04 140.668 258.184 140.668 258.348C140.668 258.456 140.694 258.556 140.746 258.648C140.802 258.744 140.888 258.826 141.004 258.894C141.124 258.962 141.278 259.014 141.466 259.05C141.654 259.09 141.884 259.11 142.156 259.11C142.432 259.11 142.67 259.088 142.87 259.044C143.07 259.004 143.234 258.946 143.362 258.87C143.494 258.798 143.59 258.71 143.65 258.606C143.71 258.506 143.74 258.396 143.74 258.276ZM145.216 252.054V252.606C145.216 252.782 145.11 252.89 144.898 252.93L144.346 253.032C144.43 253.244 144.472 253.476 144.472 253.728C144.472 254.032 144.41 254.308 144.286 254.556C144.166 254.8 143.998 255.008 143.782 255.18C143.566 255.352 143.31 255.486 143.014 255.582C142.722 255.674 142.406 255.72 142.066 255.72C141.946 255.72 141.83 255.714 141.718 255.702C141.606 255.69 141.496 255.674 141.388 255.654C141.196 255.77 141.1 255.9 141.1 256.044C141.1 256.168 141.156 256.26 141.268 256.32C141.384 256.376 141.536 256.416 141.724 256.44C141.912 256.464 142.126 256.48 142.366 256.488C142.606 256.492 142.852 256.504 143.104 256.524C143.356 256.544 143.602 256.58 143.842 256.632C144.082 256.68 144.296 256.758 144.484 256.866C144.672 256.974 144.822 257.122 144.934 257.31C145.05 257.494 145.108 257.732 145.108 258.024C145.108 258.296 145.04 258.56 144.904 258.816C144.772 259.072 144.578 259.3 144.322 259.5C144.07 259.7 143.758 259.86 143.386 259.98C143.018 260.104 142.598 260.166 142.126 260.166C141.662 260.166 141.258 260.12 140.914 260.028C140.57 259.94 140.284 259.82 140.056 259.668C139.828 259.52 139.658 259.348 139.546 259.152C139.434 258.956 139.378 258.752 139.378 258.54C139.378 258.252 139.464 258.012 139.636 257.82C139.812 257.624 140.052 257.468 140.356 257.352C140.192 257.268 140.062 257.156 139.966 257.016C139.87 256.876 139.822 256.692 139.822 256.464C139.822 256.372 139.838 256.278 139.87 256.182C139.906 256.082 139.956 255.984 140.02 255.888C140.088 255.792 140.172 255.702 140.272 255.618C140.372 255.53 140.49 255.452 140.626 255.384C140.314 255.216 140.068 254.992 139.888 254.712C139.712 254.432 139.624 254.104 139.624 253.728C139.624 253.424 139.684 253.15 139.804 252.906C139.928 252.658 140.098 252.448 140.314 252.276C140.534 252.1 140.792 251.966 141.088 251.874C141.388 251.782 141.714 251.736 142.066 251.736C142.33 251.736 142.578 251.764 142.81 251.82C143.042 251.872 143.254 251.95 143.446 252.054H145.216ZM152.326 255.372C151.898 255.392 151.538 255.43 151.246 255.486C150.954 255.538 150.72 255.606 150.544 255.69C150.368 255.774 150.242 255.872 150.166 255.984C150.09 256.096 150.052 256.218 150.052 256.35C150.052 256.61 150.128 256.796 150.28 256.908C150.436 257.02 150.638 257.076 150.886 257.076C151.19 257.076 151.452 257.022 151.672 256.914C151.896 256.802 152.114 256.634 152.326 256.41V255.372ZM148.93 252.702C149.638 252.054 150.49 251.73 151.486 251.73C151.846 251.73 152.168 251.79 152.452 251.91C152.736 252.026 152.976 252.19 153.172 252.402C153.368 252.61 153.516 252.86 153.616 253.152C153.72 253.444 153.772 253.764 153.772 254.112V258H153.1C152.96 258 152.852 257.98 152.776 257.94C152.7 257.896 152.64 257.81 152.596 257.682L152.464 257.238C152.308 257.378 152.156 257.502 152.008 257.61C151.86 257.714 151.706 257.802 151.546 257.874C151.386 257.946 151.214 258 151.03 258.036C150.85 258.076 150.65 258.096 150.43 258.096C150.17 258.096 149.93 258.062 149.71 257.994C149.49 257.922 149.3 257.816 149.14 257.676C148.98 257.536 148.856 257.362 148.768 257.154C148.68 256.946 148.636 256.704 148.636 256.428C148.636 256.272 148.662 256.118 148.714 255.966C148.766 255.81 148.85 255.662 148.966 255.522C149.086 255.382 149.24 255.25 149.428 255.126C149.616 255.002 149.846 254.894 150.118 254.802C150.394 254.71 150.714 254.636 151.078 254.58C151.442 254.52 151.858 254.484 152.326 254.472V254.112C152.326 253.7 152.238 253.396 152.062 253.2C151.886 253 151.632 252.9 151.3 252.9C151.06 252.9 150.86 252.928 150.7 252.984C150.544 253.04 150.406 253.104 150.286 253.176C150.166 253.244 150.056 253.306 149.956 253.362C149.86 253.418 149.752 253.446 149.632 253.446C149.528 253.446 149.44 253.42 149.368 253.368C149.296 253.312 149.238 253.248 149.194 253.176L148.93 252.702ZM160.138 258.096C159.602 258.096 159.19 257.946 158.902 257.646C158.618 257.342 158.476 256.924 158.476 256.392V252.954H157.846C157.766 252.954 157.698 252.928 157.642 252.876C157.586 252.824 157.558 252.746 157.558 252.642V252.054L158.548 251.892L158.86 250.212C158.88 250.132 158.918 250.07 158.974 250.026C159.03 249.982 159.102 249.96 159.19 249.96H159.958V251.898H161.602V252.954H159.958V256.29C159.958 256.482 160.004 256.632 160.096 256.74C160.192 256.848 160.322 256.902 160.486 256.902C160.578 256.902 160.654 256.892 160.714 256.872C160.778 256.848 160.832 256.824 160.876 256.8C160.924 256.776 160.966 256.754 161.002 256.734C161.038 256.71 161.074 256.698 161.11 256.698C161.154 256.698 161.19 256.71 161.218 256.734C161.246 256.754 161.276 256.786 161.308 256.83L161.752 257.55C161.536 257.73 161.288 257.866 161.008 257.958C160.728 258.05 160.438 258.096 160.138 258.096ZM165.802 255.372C165.374 255.392 165.014 255.43 164.722 255.486C164.43 255.538 164.196 255.606 164.02 255.69C163.844 255.774 163.718 255.872 163.642 255.984C163.566 256.096 163.528 256.218 163.528 256.35C163.528 256.61 163.604 256.796 163.756 256.908C163.912 257.02 164.114 257.076 164.362 257.076C164.666 257.076 164.928 257.022 165.148 256.914C165.372 256.802 165.59 256.634 165.802 256.41V255.372ZM162.406 252.702C163.114 252.054 163.966 251.73 164.962 251.73C165.322 251.73 165.644 251.79 165.928 251.91C166.212 252.026 166.452 252.19 166.648 252.402C166.844 252.61 166.992 252.86 167.092 253.152C167.196 253.444 167.248 253.764 167.248 254.112V258H166.576C166.436 258 166.328 257.98 166.252 257.94C166.176 257.896 166.116 257.81 166.072 257.682L165.94 257.238C165.784 257.378 165.632 257.502 165.484 257.61C165.336 257.714 165.182 257.802 165.022 257.874C164.862 257.946 164.69 258 164.506 258.036C164.326 258.076 164.126 258.096 163.906 258.096C163.646 258.096 163.406 258.062 163.186 257.994C162.966 257.922 162.776 257.816 162.616 257.676C162.456 257.536 162.332 257.362 162.244 257.154C162.156 256.946 162.112 256.704 162.112 256.428C162.112 256.272 162.138 256.118 162.19 255.966C162.242 255.81 162.326 255.662 162.442 255.522C162.562 255.382 162.716 255.25 162.904 255.126C163.092 255.002 163.322 254.894 163.594 254.802C163.87 254.71 164.19 254.636 164.554 254.58C164.918 254.52 165.334 254.484 165.802 254.472V254.112C165.802 253.7 165.714 253.396 165.538 253.2C165.362 253 165.108 252.9 164.776 252.9C164.536 252.9 164.336 252.928 164.176 252.984C164.02 253.04 163.882 253.104 163.762 253.176C163.642 253.244 163.532 253.306 163.432 253.362C163.336 253.418 163.228 253.446 163.108 253.446C163.004 253.446 162.916 253.42 162.844 253.368C162.772 253.312 162.714 253.248 162.67 253.176L162.406 252.702ZM172.4 253.044C172.36 253.108 172.318 253.154 172.274 253.182C172.23 253.206 172.174 253.218 172.106 253.218C172.034 253.218 171.956 253.198 171.872 253.158C171.792 253.118 171.698 253.074 171.59 253.026C171.482 252.974 171.358 252.928 171.218 252.888C171.082 252.848 170.92 252.828 170.732 252.828C170.44 252.828 170.21 252.89 170.042 253.014C169.878 253.138 169.796 253.3 169.796 253.5C169.796 253.632 169.838 253.744 169.922 253.836C170.01 253.924 170.124 254.002 170.264 254.07C170.408 254.138 170.57 254.2 170.75 254.256C170.93 254.308 171.112 254.366 171.296 254.43C171.484 254.494 171.668 254.568 171.848 254.652C172.028 254.732 172.188 254.836 172.328 254.964C172.472 255.088 172.586 255.238 172.67 255.414C172.758 255.59 172.802 255.802 172.802 256.05C172.802 256.346 172.748 256.62 172.64 256.872C172.536 257.12 172.38 257.336 172.172 257.52C171.964 257.7 171.706 257.842 171.398 257.946C171.094 258.046 170.742 258.096 170.342 258.096C170.13 258.096 169.922 258.076 169.718 258.036C169.518 258 169.324 257.948 169.136 257.88C168.952 257.812 168.78 257.732 168.62 257.64C168.464 257.548 168.326 257.448 168.206 257.34L168.548 256.776C168.592 256.708 168.644 256.656 168.704 256.62C168.764 256.584 168.84 256.566 168.932 256.566C169.024 256.566 169.11 256.592 169.19 256.644C169.274 256.696 169.37 256.752 169.478 256.812C169.586 256.872 169.712 256.928 169.856 256.98C170.004 257.032 170.19 257.058 170.414 257.058C170.59 257.058 170.74 257.038 170.864 256.998C170.992 256.954 171.096 256.898 171.176 256.83C171.26 256.762 171.32 256.684 171.356 256.596C171.396 256.504 171.416 256.41 171.416 256.314C171.416 256.17 171.372 256.052 171.284 255.96C171.2 255.868 171.086 255.788 170.942 255.72C170.802 255.652 170.64 255.592 170.456 255.54C170.276 255.484 170.09 255.424 169.898 255.36C169.71 255.296 169.524 255.222 169.34 255.138C169.16 255.05 168.998 254.94 168.854 254.808C168.714 254.676 168.6 254.514 168.512 254.322C168.428 254.13 168.386 253.898 168.386 253.626C168.386 253.374 168.436 253.134 168.536 252.906C168.636 252.678 168.782 252.48 168.974 252.312C169.17 252.14 169.412 252.004 169.7 251.904C169.992 251.8 170.328 251.748 170.708 251.748C171.132 251.748 171.518 251.818 171.866 251.958C172.214 252.098 172.504 252.282 172.736 252.51L172.4 253.044ZM175.4 249.084V254.19H175.676C175.776 254.19 175.854 254.178 175.91 254.154C175.97 254.126 176.03 254.072 176.09 253.992L177.62 252.102C177.684 252.018 177.754 251.954 177.83 251.91C177.91 251.866 178.012 251.844 178.136 251.844H179.492L177.578 254.13C177.442 254.31 177.294 254.448 177.134 254.544C177.218 254.604 177.292 254.674 177.356 254.754C177.424 254.834 177.488 254.92 177.548 255.012L179.6 258H178.262C178.146 258 178.046 257.982 177.962 257.946C177.878 257.906 177.808 257.836 177.752 257.736L176.18 255.402C176.124 255.31 176.066 255.25 176.006 255.222C175.946 255.194 175.856 255.18 175.736 255.18H175.4V258H173.918V249.084H175.4Z" fill="black"/>
<path d="M38.9598 168.835L36.0198 176H35.1748L34.2048 170.485C34.1981 170.432 34.1898 170.373 34.1798 170.31C34.1731 170.247 34.1665 170.182 34.1598 170.115C34.1365 170.182 34.1131 170.247 34.0898 170.31C34.0665 170.373 34.0448 170.432 34.0248 170.485L31.6948 176H30.8548L29.6748 168.835H30.4098C30.4931 168.835 30.5598 168.857 30.6098 168.9C30.6598 168.94 30.6881 168.993 30.6948 169.06L31.4698 174.13C31.4765 174.217 31.4831 174.312 31.4898 174.415C31.4965 174.515 31.5031 174.618 31.5098 174.725C31.5465 174.615 31.5815 174.51 31.6148 174.41C31.6515 174.31 31.6881 174.217 31.7248 174.13L33.8648 169.06C33.8915 169.003 33.9348 168.952 33.9948 168.905C34.0548 168.858 34.1248 168.835 34.2048 168.835H34.4198C34.5031 168.835 34.5681 168.857 34.6148 168.9C34.6648 168.94 34.6981 168.993 34.7148 169.06L35.6098 174.13C35.6265 174.217 35.6398 174.308 35.6498 174.405C35.6598 174.502 35.6698 174.603 35.6798 174.71C35.7098 174.603 35.7398 174.502 35.7698 174.405C35.7998 174.308 35.8298 174.217 35.8598 174.13L37.8748 169.06C37.8915 169.003 37.9331 168.952 37.9998 168.905C38.0698 168.858 38.1448 168.835 38.2248 168.835H38.9598ZM40.4306 170.935L39.8206 176H38.9456L39.5556 170.935H40.4306ZM40.7706 169.345C40.7706 169.432 40.7523 169.513 40.7156 169.59C40.6823 169.663 40.6356 169.73 40.5756 169.79C40.5189 169.847 40.4523 169.892 40.3756 169.925C40.3023 169.958 40.2256 169.975 40.1456 169.975C40.0689 169.975 39.9939 169.958 39.9206 169.925C39.8473 169.892 39.7823 169.847 39.7256 169.79C39.6723 169.73 39.6289 169.663 39.5956 169.59C39.5623 169.513 39.5456 169.432 39.5456 169.345C39.5456 169.258 39.5623 169.177 39.5956 169.1C39.6289 169.023 39.6739 168.957 39.7306 168.9C39.7873 168.84 39.8523 168.793 39.9256 168.76C39.9989 168.723 40.0739 168.705 40.1506 168.705C40.2306 168.705 40.3073 168.722 40.3806 168.755C40.4573 168.788 40.5239 168.835 40.5806 168.895C40.6373 168.952 40.6823 169.02 40.7156 169.1C40.7523 169.177 40.7706 169.258 40.7706 169.345ZM41.2253 176L42.1203 168.635H42.9953L42.1003 176H41.2253ZM43.4714 176L44.3664 168.635H45.2414L44.3464 176H43.4714ZM49.0362 174.89C49.1629 175.067 49.3145 175.193 49.4912 175.27C49.6712 175.343 49.8512 175.38 50.0312 175.38C50.2045 175.38 50.3679 175.343 50.5212 175.27C50.6745 175.197 50.8145 175.098 50.9412 174.975C51.0679 174.848 51.1795 174.702 51.2762 174.535C51.3762 174.365 51.4612 174.185 51.5312 173.995C51.6012 173.802 51.6529 173.603 51.6862 173.4C51.7229 173.193 51.7412 172.99 51.7412 172.79C51.7412 172.393 51.6695 172.092 51.5262 171.885C51.3862 171.678 51.1862 171.575 50.9262 171.575C50.7662 171.575 50.6045 171.625 50.4412 171.725C50.2779 171.825 50.1195 171.965 49.9662 172.145C49.8129 172.322 49.6695 172.533 49.5362 172.78C49.4062 173.023 49.2929 173.29 49.1962 173.58L49.0362 174.89ZM49.3612 172.22C49.4879 172.013 49.6229 171.827 49.7662 171.66C49.9129 171.493 50.0662 171.352 50.2262 171.235C50.3862 171.115 50.5529 171.023 50.7262 170.96C50.8995 170.893 51.0762 170.86 51.2562 170.86C51.6895 170.86 52.0262 171.017 52.2662 171.33C52.5062 171.643 52.6262 172.102 52.6262 172.705C52.6262 172.978 52.5979 173.252 52.5412 173.525C52.4845 173.798 52.4029 174.06 52.2962 174.31C52.1929 174.557 52.0662 174.788 51.9162 175.005C51.7695 175.218 51.6045 175.405 51.4212 175.565C51.2412 175.722 51.0445 175.845 50.8312 175.935C50.6179 176.025 50.3945 176.07 50.1612 176.07C49.8912 176.07 49.6479 176.013 49.4312 175.9C49.2145 175.787 49.0345 175.625 48.8912 175.415L48.8212 175.74C48.7945 175.827 48.7612 175.892 48.7212 175.935C48.6812 175.978 48.6095 176 48.5062 176H48.0362L48.9262 168.635H49.7962L49.3612 172.22ZM55.8944 171.505C55.6844 171.505 55.4911 171.548 55.3144 171.635C55.1377 171.722 54.9811 171.842 54.8444 171.995C54.7077 172.145 54.5911 172.323 54.4944 172.53C54.3977 172.733 54.3227 172.953 54.2694 173.19C54.7827 173.127 55.1944 173.055 55.5044 172.975C55.8144 172.892 56.0527 172.803 56.2194 172.71C56.3861 172.613 56.4961 172.51 56.5494 172.4C56.6027 172.29 56.6294 172.175 56.6294 172.055C56.6294 171.995 56.6161 171.933 56.5894 171.87C56.5627 171.803 56.5194 171.743 56.4594 171.69C56.4027 171.637 56.3277 171.593 56.2344 171.56C56.1411 171.523 56.0277 171.505 55.8944 171.505ZM57.3044 175.065C57.1344 175.242 56.9677 175.393 56.8044 175.52C56.6411 175.643 56.4744 175.747 56.3044 175.83C56.1377 175.913 55.9611 175.973 55.7744 176.01C55.5911 176.05 55.3927 176.07 55.1794 176.07C54.8894 176.07 54.6294 176.022 54.3994 175.925C54.1694 175.828 53.9744 175.692 53.8144 175.515C53.6544 175.335 53.5311 175.118 53.4444 174.865C53.3577 174.612 53.3144 174.328 53.3144 174.015C53.3144 173.755 53.3411 173.497 53.3944 173.24C53.4511 172.98 53.5311 172.733 53.6344 172.5C53.7411 172.267 53.8694 172.05 54.0194 171.85C54.1727 171.65 54.3461 171.478 54.5394 171.335C54.7361 171.188 54.9511 171.073 55.1844 170.99C55.4211 170.907 55.6744 170.865 55.9444 170.865C56.2011 170.865 56.4227 170.902 56.6094 170.975C56.7961 171.048 56.9494 171.142 57.0694 171.255C57.1894 171.368 57.2777 171.493 57.3344 171.63C57.3944 171.767 57.4244 171.897 57.4244 172.02C57.4244 172.24 57.3794 172.443 57.2894 172.63C57.1994 172.813 57.0344 172.98 56.7944 173.13C56.5544 173.277 56.2244 173.405 55.8044 173.515C55.3844 173.625 54.8444 173.713 54.1844 173.78C54.1844 173.817 54.1827 173.853 54.1794 173.89C54.1794 173.923 54.1794 173.958 54.1794 173.995C54.1794 174.442 54.2761 174.783 54.4694 175.02C54.6661 175.253 54.9611 175.37 55.3544 175.37C55.5144 175.37 55.6561 175.353 55.7794 175.32C55.9061 175.287 56.0177 175.247 56.1144 175.2C56.2144 175.15 56.3011 175.097 56.3744 175.04C56.4511 174.98 56.5194 174.927 56.5794 174.88C56.6427 174.83 56.7011 174.788 56.7544 174.755C56.8077 174.722 56.8611 174.705 56.9144 174.705C56.9777 174.705 57.0344 174.733 57.0844 174.79L57.3044 175.065ZM61.4483 174.89C61.575 175.067 61.7267 175.193 61.9033 175.27C62.0833 175.343 62.2633 175.38 62.4433 175.38C62.6167 175.38 62.78 175.343 62.9333 175.27C63.0867 175.197 63.2267 175.098 63.3533 174.975C63.48 174.848 63.5917 174.702 63.6883 174.535C63.7883 174.365 63.8733 174.185 63.9433 173.995C64.0133 173.802 64.065 173.603 64.0983 173.4C64.135 173.193 64.1533 172.99 64.1533 172.79C64.1533 172.393 64.0817 172.092 63.9383 171.885C63.7983 171.678 63.5983 171.575 63.3383 171.575C63.1783 171.575 63.0167 171.625 62.8533 171.725C62.69 171.825 62.5317 171.965 62.3783 172.145C62.225 172.322 62.0817 172.533 61.9483 172.78C61.8183 173.023 61.705 173.29 61.6083 173.58L61.4483 174.89ZM61.7733 172.22C61.9 172.013 62.035 171.827 62.1783 171.66C62.325 171.493 62.4783 171.352 62.6383 171.235C62.7983 171.115 62.965 171.023 63.1383 170.96C63.3117 170.893 63.4883 170.86 63.6683 170.86C64.1017 170.86 64.4383 171.017 64.6783 171.33C64.9183 171.643 65.0383 172.102 65.0383 172.705C65.0383 172.978 65.01 173.252 64.9533 173.525C64.8967 173.798 64.815 174.06 64.7083 174.31C64.605 174.557 64.4783 174.788 64.3283 175.005C64.1817 175.218 64.0167 175.405 63.8333 175.565C63.6533 175.722 63.4567 175.845 63.2433 175.935C63.03 176.025 62.8067 176.07 62.5733 176.07C62.3033 176.07 62.06 176.013 61.8433 175.9C61.6267 175.787 61.4467 175.625 61.3033 175.415L61.2333 175.74C61.2067 175.827 61.1733 175.892 61.1333 175.935C61.0933 175.978 61.0217 176 60.9183 176H60.4483L61.3383 168.635H62.2083L61.7733 172.22ZM65.7565 176L66.6515 168.635H67.5265L66.6315 176H65.7565ZM69.9476 175.375C70.191 175.375 70.411 175.308 70.6076 175.175C70.8076 175.042 70.9776 174.865 71.1176 174.645C71.261 174.422 71.371 174.165 71.4476 173.875C71.5243 173.585 71.5626 173.282 71.5626 172.965C71.5626 172.498 71.4693 172.148 71.2826 171.915C71.0993 171.678 70.8343 171.56 70.4876 171.56C70.241 171.56 70.0176 171.627 69.8176 171.76C69.621 171.89 69.4526 172.065 69.3126 172.285C69.1726 172.505 69.0643 172.76 68.9876 173.05C68.911 173.34 68.8726 173.643 68.8726 173.96C68.8726 174.427 68.9643 174.78 69.1476 175.02C69.331 175.257 69.5976 175.375 69.9476 175.375ZM69.8626 176.07C69.586 176.07 69.3326 176.023 69.1026 175.93C68.8726 175.833 68.6743 175.695 68.5076 175.515C68.341 175.335 68.211 175.115 68.1176 174.855C68.0243 174.595 67.9776 174.298 67.9776 173.965C67.9776 173.538 68.0443 173.137 68.1776 172.76C68.311 172.383 68.4943 172.055 68.7276 171.775C68.961 171.492 69.2343 171.268 69.5476 171.105C69.8643 170.942 70.2043 170.86 70.5676 170.86C70.8443 170.86 71.0976 170.908 71.3276 171.005C71.5576 171.098 71.756 171.235 71.9226 171.415C72.0893 171.595 72.2193 171.815 72.3126 172.075C72.406 172.335 72.4526 172.63 72.4526 172.96C72.4526 173.383 72.386 173.783 72.2526 174.16C72.1193 174.537 71.936 174.867 71.7026 175.15C71.4726 175.433 71.1993 175.658 70.8826 175.825C70.566 175.988 70.226 176.07 69.8626 176.07ZM76.9582 175.09C76.7848 175.28 76.6198 175.438 76.4632 175.565C76.3065 175.692 76.1498 175.793 75.9932 175.87C75.8365 175.943 75.6732 175.995 75.5032 176.025C75.3365 176.055 75.1565 176.07 74.9632 176.07C74.6698 176.07 74.4098 176.02 74.1832 175.92C73.9598 175.82 73.7715 175.68 73.6182 175.5C73.4682 175.317 73.3532 175.098 73.2732 174.845C73.1965 174.588 73.1582 174.307 73.1582 174C73.1582 173.59 73.2215 173.197 73.3482 172.82C73.4782 172.443 73.6582 172.11 73.8882 171.82C74.1182 171.53 74.3915 171.298 74.7082 171.125C75.0282 170.952 75.3765 170.865 75.7532 170.865C76.0898 170.865 76.3715 170.925 76.5982 171.045C76.8248 171.162 77.0232 171.333 77.1932 171.56L76.9132 171.895C76.8898 171.922 76.8632 171.943 76.8332 171.96C76.8065 171.977 76.7748 171.985 76.7382 171.985C76.6915 171.985 76.6448 171.965 76.5982 171.925C76.5548 171.882 76.4965 171.835 76.4232 171.785C76.3498 171.732 76.2582 171.685 76.1482 171.645C76.0415 171.602 75.9032 171.58 75.7332 171.58C75.5032 171.58 75.2865 171.643 75.0832 171.77C74.8798 171.893 74.7015 172.063 74.5482 172.28C74.3948 172.497 74.2732 172.753 74.1832 173.05C74.0965 173.347 74.0532 173.665 74.0532 174.005C74.0532 174.212 74.0765 174.4 74.1232 174.57C74.1698 174.737 74.2398 174.88 74.3332 175C74.4265 175.117 74.5398 175.208 74.6732 175.275C74.8098 175.338 74.9682 175.37 75.1482 175.37C75.3715 175.37 75.5582 175.337 75.7082 175.27C75.8615 175.203 75.9898 175.132 76.0932 175.055C76.1965 174.975 76.2832 174.902 76.3532 174.835C76.4265 174.768 76.4982 174.735 76.5682 174.735C76.6315 174.735 76.6882 174.763 76.7382 174.82L76.9582 175.09ZM79.4742 168.635L78.9442 172.97H79.0942C79.1642 172.97 79.2208 172.962 79.2642 172.945C79.3075 172.925 79.3542 172.887 79.4042 172.83L81.0842 171.115C81.1308 171.058 81.1808 171.015 81.2342 170.985C81.2875 170.952 81.3525 170.935 81.4292 170.935H82.2192L80.2642 172.92C80.1642 173.037 80.0625 173.125 79.9592 173.185C80.0125 173.225 80.0575 173.272 80.0942 173.325C80.1342 173.375 80.1708 173.433 80.2042 173.5L81.7242 176H80.9592C80.8858 176 80.8242 175.988 80.7742 175.965C80.7275 175.938 80.6892 175.892 80.6592 175.825L79.3692 173.75C79.3292 173.68 79.2875 173.635 79.2442 173.615C79.2008 173.592 79.1325 173.58 79.0392 173.58H78.8692L78.5742 176H77.6942L78.5992 168.635H79.4742ZM84.7421 171.505C84.5321 171.505 84.3387 171.548 84.1621 171.635C83.9854 171.722 83.8287 171.842 83.6921 171.995C83.5554 172.145 83.4387 172.323 83.3421 172.53C83.2454 172.733 83.1704 172.953 83.1171 173.19C83.6304 173.127 84.0421 173.055 84.3521 172.975C84.6621 172.892 84.9004 172.803 85.0671 172.71C85.2337 172.613 85.3437 172.51 85.3971 172.4C85.4504 172.29 85.4771 172.175 85.4771 172.055C85.4771 171.995 85.4637 171.933 85.4371 171.87C85.4104 171.803 85.3671 171.743 85.3071 171.69C85.2504 171.637 85.1754 171.593 85.0821 171.56C84.9887 171.523 84.8754 171.505 84.7421 171.505ZM86.1521 175.065C85.9821 175.242 85.8154 175.393 85.6521 175.52C85.4887 175.643 85.3221 175.747 85.1521 175.83C84.9854 175.913 84.8087 175.973 84.6221 176.01C84.4387 176.05 84.2404 176.07 84.0271 176.07C83.7371 176.07 83.4771 176.022 83.2471 175.925C83.0171 175.828 82.8221 175.692 82.6621 175.515C82.5021 175.335 82.3787 175.118 82.2921 174.865C82.2054 174.612 82.1621 174.328 82.1621 174.015C82.1621 173.755 82.1887 173.497 82.2421 173.24C82.2987 172.98 82.3787 172.733 82.4821 172.5C82.5887 172.267 82.7171 172.05 82.8671 171.85C83.0204 171.65 83.1937 171.478 83.3871 171.335C83.5837 171.188 83.7987 171.073 84.0321 170.99C84.2687 170.907 84.5221 170.865 84.7921 170.865C85.0487 170.865 85.2704 170.902 85.4571 170.975C85.6437 171.048 85.7971 171.142 85.9171 171.255C86.0371 171.368 86.1254 171.493 86.1821 171.63C86.2421 171.767 86.2721 171.897 86.2721 172.02C86.2721 172.24 86.2271 172.443 86.1371 172.63C86.0471 172.813 85.8821 172.98 85.6421 173.13C85.4021 173.277 85.0721 173.405 84.6521 173.515C84.2321 173.625 83.6921 173.713 83.0321 173.78C83.0321 173.817 83.0304 173.853 83.0271 173.89C83.0271 173.923 83.0271 173.958 83.0271 173.995C83.0271 174.442 83.1237 174.783 83.3171 175.02C83.5137 175.253 83.8087 175.37 84.2021 175.37C84.3621 175.37 84.5037 175.353 84.6271 175.32C84.7537 175.287 84.8654 175.247 84.9621 175.2C85.0621 175.15 85.1487 175.097 85.2221 175.04C85.2987 174.98 85.3671 174.927 85.4271 174.88C85.4904 174.83 85.5487 174.788 85.6021 174.755C85.6554 174.722 85.7087 174.705 85.7621 174.705C85.8254 174.705 85.8821 174.733 85.9321 174.79L86.1521 175.065ZM90.5272 172.04C90.4006 171.86 90.2472 171.735 90.0672 171.665C89.8906 171.592 89.7106 171.555 89.5272 171.555C89.2639 171.555 89.0272 171.633 88.8172 171.79C88.6072 171.947 88.4272 172.15 88.2772 172.4C88.1306 172.647 88.0172 172.923 87.9372 173.23C87.8572 173.537 87.8172 173.838 87.8172 174.135C87.8172 174.532 87.8872 174.835 88.0272 175.045C88.1706 175.252 88.3739 175.355 88.6372 175.355C88.7972 175.355 88.9589 175.305 89.1222 175.205C89.2856 175.105 89.4422 174.967 89.5922 174.79C89.7456 174.61 89.8872 174.398 90.0172 174.155C90.1506 173.912 90.2656 173.645 90.3622 173.355L90.5272 172.04ZM91.8172 168.635L90.9122 176H90.4472C90.3306 176 90.2522 175.97 90.2122 175.91C90.1722 175.85 90.1522 175.777 90.1522 175.69L90.2472 174.625C90.1206 174.845 89.9822 175.043 89.8322 175.22C89.6822 175.397 89.5239 175.548 89.3572 175.675C89.1939 175.802 89.0222 175.9 88.8422 175.97C88.6656 176.037 88.4856 176.07 88.3022 176.07C87.8689 176.07 87.5322 175.913 87.2922 175.6C87.0522 175.283 86.9322 174.825 86.9322 174.225C86.9322 173.952 86.9606 173.678 87.0172 173.405C87.0739 173.132 87.1539 172.87 87.2572 172.62C87.3639 172.37 87.4906 172.138 87.6372 171.925C87.7872 171.708 87.9539 171.522 88.1372 171.365C88.3206 171.208 88.5172 171.085 88.7272 170.995C88.9406 170.905 89.1639 170.86 89.3972 170.86C89.6472 170.86 89.8739 170.91 90.0772 171.01C90.2839 171.107 90.4589 171.245 90.6022 171.425L90.9472 168.635H91.8172Z" fill="black"/>
<path d="M155.873 29.795C155.873 30.0417 155.885 30.2983 155.908 30.565C155.932 30.8283 155.965 31.0933 156.008 31.36C156.055 31.6267 156.113 31.8883 156.183 32.145C156.253 32.4017 156.333 32.6417 156.423 32.865C156.46 32.965 156.462 33.0417 156.428 33.095C156.398 33.1483 156.357 33.1917 156.303 33.225L155.898 33.455C155.758 33.1683 155.638 32.8717 155.538 32.565C155.442 32.2617 155.362 31.9567 155.298 31.65C155.235 31.3433 155.188 31.04 155.158 30.74C155.128 30.44 155.113 30.1517 155.113 29.875C155.113 29.4083 155.14 28.955 155.193 28.515C155.247 28.0717 155.343 27.625 155.483 27.175C155.627 26.725 155.822 26.2617 156.068 25.785C156.315 25.305 156.633 24.795 157.023 24.255L157.378 24.49C157.422 24.5233 157.453 24.5667 157.473 24.62C157.493 24.6733 157.472 24.7483 157.408 24.845C157.162 25.225 156.943 25.605 156.753 25.985C156.563 26.3617 156.403 26.75 156.273 27.15C156.143 27.55 156.043 27.9683 155.973 28.405C155.907 28.8383 155.873 29.3017 155.873 29.795ZM160.216 25.955C160.156 25.9883 160.098 26.015 160.041 26.035C159.985 26.055 159.928 26.0683 159.871 26.075C159.928 26.0817 159.981 26.095 160.031 26.115C160.085 26.1317 160.136 26.1583 160.186 26.195L160.911 26.705L160.661 27.065L159.936 26.565C159.886 26.5317 159.841 26.4983 159.801 26.465C159.761 26.4317 159.728 26.3917 159.701 26.345C159.735 26.4417 159.743 26.5533 159.726 26.68L159.601 27.675H159.176L159.301 26.685C159.318 26.555 159.351 26.4433 159.401 26.35C159.365 26.3933 159.323 26.4317 159.276 26.465C159.23 26.4983 159.178 26.5317 159.121 26.565L158.276 27.065L158.116 26.7L158.956 26.195C159.02 26.1583 159.08 26.1317 159.136 26.115C159.196 26.095 159.26 26.0817 159.326 26.075C159.203 26.065 159.09 26.025 158.986 25.955L158.261 25.445L158.516 25.08L159.241 25.585C159.291 25.6183 159.336 25.655 159.376 25.695C159.416 25.7317 159.45 25.775 159.476 25.825C159.443 25.7117 159.433 25.5933 159.446 25.47L159.571 24.475H159.996L159.871 25.465C159.865 25.5317 159.853 25.5933 159.836 25.65C159.82 25.7033 159.795 25.7583 159.761 25.815C159.801 25.7683 159.846 25.7267 159.896 25.69C159.946 25.6533 160 25.6183 160.056 25.585L160.901 25.085L161.061 25.45L160.216 25.955ZM162.652 27.915C162.652 27.6717 162.64 27.4167 162.617 27.15C162.593 26.8833 162.557 26.6167 162.507 26.35C162.46 26.0833 162.402 25.8217 162.332 25.565C162.265 25.3083 162.187 25.0683 162.097 24.845C162.06 24.7483 162.057 24.6733 162.087 24.62C162.117 24.5667 162.158 24.5233 162.212 24.49L162.627 24.255C162.763 24.545 162.88 24.8417 162.977 25.145C163.077 25.4483 163.157 25.7533 163.217 26.06C163.28 26.3667 163.327 26.67 163.357 26.97C163.387 27.27 163.402 27.56 163.402 27.84C163.402 28.3067 163.375 28.7617 163.322 29.205C163.268 29.645 163.172 30.09 163.032 30.54C162.892 30.99 162.698 31.4533 162.452 31.93C162.205 32.4067 161.887 32.915 161.497 33.455L161.142 33.225C161.118 33.2083 161.098 33.19 161.082 33.17C161.065 33.15 161.053 33.125 161.047 33.095C161.04 33.0683 161.042 33.035 161.052 32.995C161.062 32.9583 161.083 32.915 161.117 32.865C161.36 32.485 161.577 32.1017 161.767 31.715C161.957 31.3283 162.117 30.9317 162.247 30.525C162.38 30.115 162.48 29.695 162.547 29.265C162.617 28.8317 162.652 28.3817 162.652 27.915ZM171.571 25.62H169.461L168.671 32H167.741L168.521 25.62H166.401L166.491 24.835H171.666L171.571 25.62ZM172.891 28.055C173.155 27.6617 173.446 27.365 173.766 27.165C174.09 26.9617 174.418 26.86 174.751 26.86C174.968 26.86 175.158 26.9033 175.321 26.99C175.485 27.0733 175.616 27.1967 175.716 27.36C175.82 27.5233 175.89 27.725 175.926 27.965C175.963 28.2017 175.963 28.4717 175.926 28.775L175.546 32H174.656L175.036 28.775C175.086 28.375 175.063 28.0783 174.966 27.885C174.87 27.6917 174.69 27.595 174.426 27.595C174.276 27.595 174.121 27.6367 173.961 27.72C173.801 27.8 173.646 27.915 173.496 28.065C173.35 28.215 173.21 28.3967 173.076 28.61C172.946 28.8233 172.833 29.0617 172.736 29.325L172.411 32H171.526L172.416 24.635H173.306L172.891 28.055ZM179.394 27.505C179.184 27.505 178.991 27.5483 178.814 27.635C178.638 27.7217 178.481 27.8417 178.344 27.995C178.208 28.145 178.091 28.3233 177.994 28.53C177.898 28.7333 177.823 28.9533 177.769 29.19C178.283 29.1267 178.694 29.055 179.004 28.975C179.314 28.8917 179.553 28.8033 179.719 28.71C179.886 28.6133 179.996 28.51 180.049 28.4C180.103 28.29 180.129 28.175 180.129 28.055C180.129 27.995 180.116 27.9333 180.089 27.87C180.063 27.8033 180.019 27.7433 179.959 27.69C179.903 27.6367 179.828 27.5933 179.734 27.56C179.641 27.5233 179.528 27.505 179.394 27.505ZM180.804 31.065C180.634 31.2417 180.468 31.3933 180.304 31.52C180.141 31.6433 179.974 31.7467 179.804 31.83C179.638 31.9133 179.461 31.9733 179.274 32.01C179.091 32.05 178.893 32.07 178.679 32.07C178.389 32.07 178.129 32.0217 177.899 31.925C177.669 31.8283 177.474 31.6917 177.314 31.515C177.154 31.335 177.031 31.1183 176.944 30.865C176.858 30.6117 176.814 30.3283 176.814 30.015C176.814 29.755 176.841 29.4967 176.894 29.24C176.951 28.98 177.031 28.7333 177.134 28.5C177.241 28.2667 177.369 28.05 177.519 27.85C177.673 27.65 177.846 27.4783 178.039 27.335C178.236 27.1883 178.451 27.0733 178.684 26.99C178.921 26.9067 179.174 26.865 179.444 26.865C179.701 26.865 179.923 26.9017 180.109 26.975C180.296 27.0483 180.449 27.1417 180.569 27.255C180.689 27.3683 180.778 27.4933 180.834 27.63C180.894 27.7667 180.924 27.8967 180.924 28.02C180.924 28.24 180.879 28.4433 180.789 28.63C180.699 28.8133 180.534 28.98 180.294 29.13C180.054 29.2767 179.724 29.405 179.304 29.515C178.884 29.625 178.344 29.7133 177.684 29.78C177.684 29.8167 177.683 29.8533 177.679 29.89C177.679 29.9233 177.679 29.9583 177.679 29.995C177.679 30.4417 177.776 30.7833 177.969 31.02C178.166 31.2533 178.461 31.37 178.854 31.37C179.014 31.37 179.156 31.3533 179.279 31.32C179.406 31.2867 179.518 31.2467 179.614 31.2C179.714 31.15 179.801 31.0967 179.874 31.04C179.951 30.98 180.019 30.9267 180.079 30.88C180.143 30.83 180.201 30.7883 180.254 30.755C180.308 30.7217 180.361 30.705 180.414 30.705C180.478 30.705 180.534 30.7333 180.584 30.79L180.804 31.065ZM183.948 32L184.558 26.93H184.998C185.202 26.93 185.303 27.03 185.303 27.23L185.233 28.13C185.483 27.7133 185.757 27.3983 186.053 27.185C186.353 26.9683 186.667 26.86 186.993 26.86C187.337 26.86 187.59 26.9783 187.753 27.215C187.917 27.4483 187.998 27.7833 187.998 28.22C188.248 27.7567 188.53 27.415 188.843 27.195C189.16 26.9717 189.493 26.86 189.843 26.86C190.277 26.86 190.583 27.0267 190.763 27.36C190.943 27.6933 190.997 28.165 190.923 28.775L190.543 32H189.663L190.048 28.775C190.095 28.3783 190.082 28.0833 190.008 27.89C189.938 27.6967 189.778 27.6 189.528 27.6C189.385 27.6 189.242 27.6367 189.098 27.71C188.958 27.78 188.822 27.885 188.688 28.025C188.555 28.1617 188.43 28.3333 188.313 28.54C188.2 28.7433 188.098 28.9783 188.008 29.245V29.25L187.683 32H186.803L187.183 28.775C187.233 28.3783 187.227 28.0833 187.163 27.89C187.1 27.6967 186.943 27.6 186.693 27.6C186.533 27.6 186.378 27.64 186.228 27.72C186.082 27.8 185.942 27.9167 185.808 28.07C185.678 28.22 185.557 28.405 185.443 28.625C185.33 28.8417 185.227 29.0867 185.133 29.36L184.818 32H183.948ZM195.289 27.555C195.216 27.5383 195.143 27.5283 195.069 27.525C194.999 27.5183 194.929 27.515 194.859 27.515C194.659 27.515 194.466 27.5483 194.279 27.615C194.093 27.6783 193.918 27.7683 193.754 27.885C193.591 28.0017 193.443 28.1417 193.309 28.305C193.176 28.465 193.061 28.6417 192.964 28.835C192.871 29.0283 192.798 29.235 192.744 29.455C192.691 29.6717 192.664 29.895 192.664 30.125C192.664 30.9283 192.921 31.33 193.434 31.33C193.598 31.33 193.758 31.28 193.914 31.18C194.071 31.0767 194.219 30.935 194.359 30.755C194.503 30.5717 194.634 30.3567 194.754 30.11C194.874 29.86 194.981 29.5867 195.074 29.29L195.289 27.555ZM194.949 30.665C194.829 30.8783 194.699 31.0717 194.559 31.245C194.423 31.4183 194.276 31.5667 194.119 31.69C193.966 31.81 193.803 31.9033 193.629 31.97C193.459 32.0367 193.283 32.07 193.099 32.07C192.899 32.07 192.718 32.0317 192.554 31.955C192.391 31.875 192.251 31.76 192.134 31.61C192.021 31.4567 191.933 31.27 191.869 31.05C191.806 30.8267 191.774 30.5717 191.774 30.285C191.774 29.985 191.811 29.6933 191.884 29.41C191.961 29.1233 192.068 28.8533 192.204 28.6C192.344 28.3467 192.511 28.115 192.704 27.905C192.898 27.6917 193.113 27.5083 193.349 27.355C193.589 27.1983 193.846 27.0783 194.119 26.995C194.393 26.9083 194.679 26.865 194.979 26.865C195.196 26.865 195.406 26.8833 195.609 26.92C195.816 26.9533 196.019 27.0133 196.219 27.1L195.614 32H195.154C195.038 32 194.958 31.97 194.914 31.91C194.874 31.85 194.854 31.7767 194.854 31.69L194.949 30.665ZM198.462 26.935L197.852 32H196.977L197.587 26.935H198.462ZM198.802 25.345C198.802 25.4317 198.784 25.5133 198.747 25.59C198.714 25.6633 198.667 25.73 198.607 25.79C198.55 25.8467 198.484 25.8917 198.407 25.925C198.334 25.9583 198.257 25.975 198.177 25.975C198.1 25.975 198.025 25.9583 197.952 25.925C197.879 25.8917 197.814 25.8467 197.757 25.79C197.704 25.73 197.66 25.6633 197.627 25.59C197.594 25.5133 197.577 25.4317 197.577 25.345C197.577 25.2583 197.594 25.1767 197.627 25.1C197.66 25.0233 197.705 24.9567 197.762 24.9C197.819 24.84 197.884 24.7933 197.957 24.76C198.03 24.7233 198.105 24.705 198.182 24.705C198.262 24.705 198.339 24.7217 198.412 24.755C198.489 24.7883 198.555 24.835 198.612 24.895C198.669 24.9517 198.714 25.02 198.747 25.1C198.784 25.1767 198.802 25.2583 198.802 25.345ZM199.257 32L200.152 24.635H201.027L200.132 32H199.257ZM202.478 30.89C202.604 31.0667 202.756 31.1933 202.933 31.27C203.113 31.3433 203.293 31.38 203.473 31.38C203.646 31.38 203.809 31.3433 203.963 31.27C204.116 31.1967 204.256 31.0983 204.383 30.975C204.509 30.8483 204.621 30.7017 204.718 30.535C204.818 30.365 204.903 30.185 204.973 29.995C205.043 29.8017 205.094 29.6033 205.128 29.4C205.164 29.1933 205.183 28.99 205.183 28.79C205.183 28.3933 205.111 28.0917 204.968 27.885C204.828 27.6783 204.628 27.575 204.368 27.575C204.208 27.575 204.046 27.625 203.883 27.725C203.719 27.825 203.561 27.965 203.408 28.145C203.254 28.3217 203.111 28.5333 202.978 28.78C202.848 29.0233 202.734 29.29 202.638 29.58L202.478 30.89ZM202.803 28.22C202.929 28.0133 203.064 27.8267 203.208 27.66C203.354 27.4933 203.508 27.3517 203.668 27.235C203.828 27.115 203.994 27.0233 204.168 26.96C204.341 26.8933 204.518 26.86 204.698 26.86C205.131 26.86 205.468 27.0167 205.708 27.33C205.948 27.6433 206.068 28.1017 206.068 28.705C206.068 28.9783 206.039 29.2517 205.983 29.525C205.926 29.7983 205.844 30.06 205.738 30.31C205.634 30.5567 205.508 30.7883 205.358 31.005C205.211 31.2183 205.046 31.405 204.863 31.565C204.683 31.7217 204.486 31.845 204.273 31.935C204.059 32.025 203.836 32.07 203.603 32.07C203.333 32.07 203.089 32.0133 202.873 31.9C202.656 31.7867 202.476 31.625 202.333 31.415L202.263 31.74C202.236 31.8267 202.203 31.8917 202.163 31.935C202.123 31.9783 202.051 32 201.948 32H201.478L202.368 24.635H203.238L202.803 28.22ZM208.731 31.375C208.974 31.375 209.194 31.3083 209.391 31.175C209.591 31.0417 209.761 30.865 209.901 30.645C210.044 30.4217 210.154 30.165 210.231 29.875C210.307 29.585 210.346 29.2817 210.346 28.965C210.346 28.4983 210.252 28.1483 210.066 27.915C209.882 27.6783 209.617 27.56 209.271 27.56C209.024 27.56 208.801 27.6267 208.601 27.76C208.404 27.89 208.236 28.065 208.096 28.285C207.956 28.505 207.847 28.76 207.771 29.05C207.694 29.34 207.656 29.6433 207.656 29.96C207.656 30.4267 207.747 30.78 207.931 31.02C208.114 31.2567 208.381 31.375 208.731 31.375ZM208.646 32.07C208.369 32.07 208.116 32.0233 207.886 31.93C207.656 31.8333 207.457 31.695 207.291 31.515C207.124 31.335 206.994 31.115 206.901 30.855C206.807 30.595 206.761 30.2983 206.761 29.965C206.761 29.5383 206.827 29.1367 206.961 28.76C207.094 28.3833 207.277 28.055 207.511 27.775C207.744 27.4917 208.017 27.2683 208.331 27.105C208.647 26.9417 208.987 26.86 209.351 26.86C209.627 26.86 209.881 26.9083 210.111 27.005C210.341 27.0983 210.539 27.235 210.706 27.415C210.872 27.595 211.002 27.815 211.096 28.075C211.189 28.335 211.236 28.63 211.236 28.96C211.236 29.3833 211.169 29.7833 211.036 30.16C210.902 30.5367 210.719 30.8667 210.486 31.15C210.256 31.4333 209.982 31.6583 209.666 31.825C209.349 31.9883 209.009 32.07 208.646 32.07ZM214.292 29.28L215.637 32H214.847C214.78 32 214.727 31.9833 214.687 31.95C214.65 31.9167 214.62 31.875 214.597 31.825L213.647 29.795C213.617 29.865 213.582 29.93 213.542 29.99L212.162 31.83C212.125 31.8767 212.087 31.9167 212.047 31.95C212.007 31.9833 211.957 32 211.897 32H211.122L213.167 29.275L211.952 26.935H212.747C212.813 26.935 212.862 26.945 212.892 26.965C212.922 26.9817 212.947 27.0133 212.967 27.06L213.817 28.805C213.853 28.7317 213.895 28.66 213.942 28.59L215.087 27.075C215.14 26.9817 215.21 26.935 215.297 26.935H216.097L214.292 29.28ZM220.249 26.935L219.639 32H218.764L219.374 26.935H220.249ZM220.589 25.345C220.589 25.4317 220.571 25.5133 220.534 25.59C220.501 25.6633 220.454 25.73 220.394 25.79C220.337 25.8467 220.271 25.8917 220.194 25.925C220.121 25.9583 220.044 25.975 219.964 25.975C219.887 25.975 219.812 25.9583 219.739 25.925C219.666 25.8917 219.601 25.8467 219.544 25.79C219.491 25.73 219.447 25.6633 219.414 25.59C219.381 25.5133 219.364 25.4317 219.364 25.345C219.364 25.2583 219.381 25.1767 219.414 25.1C219.447 25.0233 219.492 24.9567 219.549 24.9C219.606 24.84 219.671 24.7933 219.744 24.76C219.817 24.7233 219.892 24.705 219.969 24.705C220.049 24.705 220.126 24.7217 220.199 24.755C220.276 24.7883 220.342 24.835 220.399 24.895C220.456 24.9517 220.501 25.02 220.534 25.1C220.571 25.1767 220.589 25.2583 220.589 25.345ZM224.284 27.745C224.257 27.785 224.23 27.815 224.204 27.835C224.177 27.8517 224.144 27.86 224.104 27.86C224.057 27.86 224.005 27.8417 223.949 27.805C223.895 27.7683 223.829 27.7283 223.749 27.685C223.672 27.6383 223.577 27.5967 223.464 27.56C223.35 27.52 223.214 27.5 223.054 27.5C222.904 27.5 222.767 27.5217 222.644 27.565C222.52 27.605 222.414 27.6617 222.324 27.735C222.237 27.8083 222.169 27.895 222.119 27.995C222.072 28.0917 222.049 28.195 222.049 28.305C222.049 28.4617 222.1 28.5867 222.204 28.68C222.307 28.7733 222.437 28.855 222.594 28.925C222.75 28.9917 222.919 29.0567 223.099 29.12C223.279 29.1833 223.447 29.2633 223.604 29.36C223.76 29.4567 223.89 29.58 223.994 29.73C224.097 29.88 224.149 30.075 224.149 30.315C224.149 30.5483 224.102 30.7717 224.009 30.985C223.919 31.1983 223.787 31.3867 223.614 31.55C223.444 31.71 223.237 31.8383 222.994 31.935C222.754 32.0317 222.484 32.08 222.184 32.08C221.86 32.08 221.574 32.0233 221.324 31.91C221.077 31.7933 220.875 31.645 220.719 31.465L220.939 31.125C220.969 31.0817 221 31.0483 221.034 31.025C221.07 31.0017 221.117 30.99 221.174 30.99C221.227 30.99 221.28 31.0133 221.334 31.06C221.387 31.1067 221.454 31.16 221.534 31.22C221.614 31.2767 221.714 31.3283 221.834 31.375C221.957 31.4217 222.112 31.445 222.299 31.445C222.462 31.445 222.609 31.42 222.739 31.37C222.872 31.32 222.984 31.2533 223.074 31.17C223.167 31.0867 223.237 30.99 223.284 30.88C223.334 30.7667 223.359 30.6467 223.359 30.52C223.359 30.35 223.307 30.215 223.204 30.115C223.1 30.015 222.97 29.9317 222.814 29.865C222.657 29.7983 222.489 29.7367 222.309 29.68C222.129 29.62 221.96 29.545 221.804 29.455C221.647 29.3617 221.517 29.2417 221.414 29.095C221.31 28.9483 221.259 28.7533 221.259 28.51C221.259 28.2967 221.3 28.0917 221.384 27.895C221.47 27.695 221.594 27.5183 221.754 27.365C221.914 27.2117 222.107 27.09 222.334 27C222.564 26.9067 222.822 26.86 223.109 26.86C223.412 26.86 223.679 26.9117 223.909 27.015C224.142 27.115 224.342 27.2517 224.509 27.425L224.284 27.745ZM229.941 27.505C229.731 27.505 229.538 27.5483 229.361 27.635C229.185 27.7217 229.028 27.8417 228.891 27.995C228.755 28.145 228.638 28.3233 228.541 28.53C228.445 28.7333 228.37 28.9533 228.316 29.19C228.83 29.1267 229.241 29.055 229.551 28.975C229.861 28.8917 230.1 28.8033 230.266 28.71C230.433 28.6133 230.543 28.51 230.596 28.4C230.65 28.29 230.676 28.175 230.676 28.055C230.676 27.995 230.663 27.9333 230.636 27.87C230.61 27.8033 230.566 27.7433 230.506 27.69C230.45 27.6367 230.375 27.5933 230.281 27.56C230.188 27.5233 230.075 27.505 229.941 27.505ZM231.351 31.065C231.181 31.2417 231.015 31.3933 230.851 31.52C230.688 31.6433 230.521 31.7467 230.351 31.83C230.185 31.9133 230.008 31.9733 229.821 32.01C229.638 32.05 229.44 32.07 229.226 32.07C228.936 32.07 228.676 32.0217 228.446 31.925C228.216 31.8283 228.021 31.6917 227.861 31.515C227.701 31.335 227.578 31.1183 227.491 30.865C227.405 30.6117 227.361 30.3283 227.361 30.015C227.361 29.755 227.388 29.4967 227.441 29.24C227.498 28.98 227.578 28.7333 227.681 28.5C227.788 28.2667 227.916 28.05 228.066 27.85C228.22 27.65 228.393 27.4783 228.586 27.335C228.783 27.1883 228.998 27.0733 229.231 26.99C229.468 26.9067 229.721 26.865 229.991 26.865C230.248 26.865 230.47 26.9017 230.656 26.975C230.843 27.0483 230.996 27.1417 231.116 27.255C231.236 27.3683 231.325 27.4933 231.381 27.63C231.441 27.7667 231.471 27.8967 231.471 28.02C231.471 28.24 231.426 28.4433 231.336 28.63C231.246 28.8133 231.081 28.98 230.841 29.13C230.601 29.2767 230.271 29.405 229.851 29.515C229.431 29.625 228.891 29.7133 228.231 29.78C228.231 29.8167 228.23 29.8533 228.226 29.89C228.226 29.9233 228.226 29.9583 228.226 29.995C228.226 30.4417 228.323 30.7833 228.516 31.02C228.713 31.2533 229.008 31.37 229.401 31.37C229.561 31.37 229.703 31.3533 229.826 31.32C229.953 31.2867 230.065 31.2467 230.161 31.2C230.261 31.15 230.348 31.0967 230.421 31.04C230.498 30.98 230.566 30.9267 230.626 30.88C230.69 30.83 230.748 30.7883 230.801 30.755C230.855 30.7217 230.908 30.705 230.961 30.705C231.025 30.705 231.081 30.7333 231.131 30.79L231.351 31.065ZM232.151 32L232.761 26.93H233.201C233.405 26.93 233.506 27.03 233.506 27.23L233.436 28.13C233.686 27.7133 233.96 27.3983 234.256 27.185C234.556 26.9683 234.87 26.86 235.196 26.86C235.54 26.86 235.793 26.9783 235.956 27.215C236.12 27.4483 236.201 27.7833 236.201 28.22C236.451 27.7567 236.733 27.415 237.046 27.195C237.363 26.9717 237.696 26.86 238.046 26.86C238.48 26.86 238.786 27.0267 238.966 27.36C239.146 27.6933 239.2 28.165 239.126 28.775L238.746 32H237.866L238.251 28.775C238.298 28.3783 238.285 28.0833 238.211 27.89C238.141 27.6967 237.981 27.6 237.731 27.6C237.588 27.6 237.445 27.6367 237.301 27.71C237.161 27.78 237.025 27.885 236.891 28.025C236.758 28.1617 236.633 28.3333 236.516 28.54C236.403 28.7433 236.301 28.9783 236.211 29.245V29.25L235.886 32H235.006L235.386 28.775C235.436 28.3783 235.43 28.0833 235.366 27.89C235.303 27.6967 235.146 27.6 234.896 27.6C234.736 27.6 234.581 27.64 234.431 27.72C234.285 27.8 234.145 27.9167 234.011 28.07C233.881 28.22 233.76 28.405 233.646 28.625C233.533 28.8417 233.43 29.0867 233.336 29.36L233.021 32H232.151ZM241.023 30.89C241.149 31.0667 241.301 31.1933 241.478 31.27C241.654 31.3433 241.834 31.38 242.018 31.38C242.191 31.38 242.354 31.3433 242.508 31.27C242.661 31.1967 242.801 31.0983 242.928 30.975C243.054 30.8483 243.168 30.7017 243.268 30.535C243.368 30.365 243.451 30.185 243.518 29.995C243.588 29.8017 243.641 29.6033 243.678 29.4C243.714 29.1933 243.733 28.99 243.733 28.79C243.733 28.3933 243.661 28.0917 243.518 27.885C243.374 27.6783 243.173 27.575 242.913 27.575C242.753 27.575 242.591 27.625 242.428 27.725C242.264 27.8217 242.106 27.9583 241.953 28.135C241.803 28.3117 241.661 28.5217 241.528 28.765C241.398 29.0083 241.284 29.275 241.188 29.565L241.023 30.89ZM241.293 28.31C241.419 28.09 241.558 27.8917 241.708 27.715C241.858 27.535 242.016 27.3817 242.183 27.255C242.349 27.1283 242.521 27.0317 242.698 26.965C242.878 26.895 243.061 26.86 243.248 26.86C243.681 26.86 244.016 27.0167 244.253 27.33C244.493 27.6433 244.613 28.1017 244.613 28.705C244.613 28.9783 244.584 29.2517 244.528 29.525C244.471 29.7983 244.389 30.06 244.283 30.31C244.179 30.5567 244.053 30.7883 243.903 31.005C243.756 31.2183 243.591 31.405 243.408 31.565C243.228 31.7217 243.031 31.845 242.818 31.935C242.604 32.025 242.381 32.07 242.148 32.07C241.898 32.07 241.671 32.0217 241.468 31.925C241.264 31.825 241.091 31.685 240.948 31.505L240.678 33.715H239.813L240.638 26.93H241.078C241.278 26.93 241.378 27.03 241.378 27.23L241.293 28.31ZM245.667 31.045C245.667 31.025 245.667 31 245.667 30.97C245.667 30.9367 245.668 30.89 245.672 30.83C245.678 30.77 245.687 30.6917 245.697 30.595C245.71 30.4983 245.727 30.3717 245.747 30.215L246.057 27.68H245.492C245.445 27.68 245.407 27.665 245.377 27.635C245.35 27.6017 245.34 27.5517 245.347 27.485L245.387 27.13L246.167 27.025L246.547 25.46C246.563 25.41 246.588 25.37 246.622 25.34C246.658 25.3067 246.703 25.29 246.757 25.29H247.222L247.007 27.035H248.337L248.262 27.68H246.927L246.622 30.17C246.605 30.3067 246.592 30.4167 246.582 30.5C246.572 30.5833 246.563 30.65 246.557 30.7C246.553 30.75 246.55 30.785 246.547 30.805C246.547 30.825 246.547 30.84 246.547 30.85C246.547 31.02 246.587 31.1467 246.667 31.23C246.747 31.31 246.853 31.35 246.987 31.35C247.077 31.35 247.153 31.3383 247.217 31.315C247.283 31.2883 247.342 31.26 247.392 31.23C247.442 31.2 247.483 31.1733 247.517 31.15C247.55 31.1233 247.578 31.11 247.602 31.11C247.632 31.11 247.653 31.1167 247.667 31.13C247.683 31.1433 247.698 31.165 247.712 31.195L247.902 31.62C247.738 31.7633 247.552 31.8767 247.342 31.96C247.135 32.04 246.927 32.08 246.717 32.08C246.393 32.08 246.138 31.9917 245.952 31.815C245.768 31.6383 245.673 31.3817 245.667 31.045ZM253.477 26.935L250.057 33.51C250.02 33.58 249.977 33.6317 249.927 33.665C249.88 33.6983 249.82 33.715 249.747 33.715H249.092L250.192 31.7L248.877 26.935H249.612C249.685 26.935 249.738 26.9533 249.772 26.99C249.805 27.0233 249.83 27.0667 249.847 27.12L250.662 30.31C250.678 30.38 250.692 30.45 250.702 30.52C250.712 30.59 250.72 30.66 250.727 30.73C250.757 30.66 250.787 30.59 250.817 30.52C250.847 30.4467 250.878 30.375 250.912 30.305L252.512 27.11C252.538 27.0567 252.575 27.015 252.622 26.985C252.672 26.9517 252.722 26.935 252.772 26.935H253.477Z" fill="black"/>
<path d="M200.618 124.01C200.618 123.854 200.645 123.707 200.699 123.569C200.759 123.431 200.837 123.311 200.933 123.209C201.035 123.107 201.155 123.026 201.293 122.966C201.431 122.906 201.578 122.876 201.734 122.876C201.89 122.876 202.037 122.906 202.175 122.966C202.313 123.026 202.433 123.107 202.535 123.209C202.637 123.311 202.718 123.431 202.778 123.569C202.838 123.707 202.868 123.854 202.868 124.01C202.868 124.172 202.838 124.322 202.778 124.46C202.718 124.592 202.637 124.709 202.535 124.811C202.433 124.913 202.313 124.991 202.175 125.045C202.037 125.105 201.89 125.135 201.734 125.135C201.578 125.135 201.431 125.105 201.293 125.045C201.155 124.991 201.035 124.913 200.933 124.811C200.837 124.709 200.759 124.592 200.699 124.46C200.645 124.322 200.618 124.172 200.618 124.01ZM204.872 124.01C204.872 123.854 204.899 123.707 204.953 123.569C205.013 123.431 205.091 123.311 205.187 123.209C205.289 123.107 205.409 123.026 205.547 122.966C205.685 122.906 205.832 122.876 205.988 122.876C206.144 122.876 206.291 122.906 206.429 122.966C206.567 123.026 206.687 123.107 206.789 123.209C206.891 123.311 206.972 123.431 207.032 123.569C207.092 123.707 207.122 123.854 207.122 124.01C207.122 124.172 207.092 124.322 207.032 124.46C206.972 124.592 206.891 124.709 206.789 124.811C206.687 124.913 206.567 124.991 206.429 125.045C206.291 125.105 206.144 125.135 205.988 125.135C205.832 125.135 205.685 125.105 205.547 125.045C205.409 124.991 205.289 124.913 205.187 124.811C205.091 124.709 205.013 124.592 204.953 124.46C204.899 124.322 204.872 124.172 204.872 124.01ZM209.126 124.01C209.126 123.854 209.153 123.707 209.207 123.569C209.267 123.431 209.345 123.311 209.441 123.209C209.543 123.107 209.663 123.026 209.801 122.966C209.939 122.906 210.086 122.876 210.242 122.876C210.398 122.876 210.545 122.906 210.683 122.966C210.821 123.026 210.941 123.107 211.043 123.209C211.145 123.311 211.226 123.431 211.286 123.569C211.346 123.707 211.376 123.854 211.376 124.01C211.376 124.172 211.346 124.322 211.286 124.46C211.226 124.592 211.145 124.709 211.043 124.811C210.941 124.913 210.821 124.991 210.683 125.045C210.545 125.105 210.398 125.135 210.242 125.135C210.086 125.135 209.939 125.105 209.801 125.045C209.663 124.991 209.543 124.913 209.441 124.811C209.345 124.709 209.267 124.592 209.207 124.46C209.153 124.322 209.126 124.172 209.126 124.01Z" fill="black"/>
</svg>
