<svg width="450" height="280" viewBox="0 0 450 280" fill="none" xmlns="http://www.w3.org/2000/svg">
<rect width="450" height="280" fill="white"/>
<rect x="155.5" y="76.5" width="139" height="139" fill="white" stroke="black"/>
<rect x="33.5" y="204.5" width="34" height="33.5" fill="#F4F1DE" stroke="black"/>
<path d="M45.5965 225.829H44.6265V218.664H45.5965V225.829ZM51.0943 219.784C51.0643 219.834 51.0309 219.872 50.9943 219.899C50.9609 219.922 50.9193 219.934 50.8693 219.934C50.8126 219.934 50.7459 219.905 50.6693 219.849C50.5926 219.792 50.4959 219.73 50.3793 219.664C50.2659 219.594 50.1276 219.53 49.9643 219.474C49.8043 219.417 49.6093 219.389 49.3793 219.389C49.1626 219.389 48.9709 219.419 48.8043 219.479C48.6409 219.535 48.5026 219.614 48.3893 219.714C48.2793 219.814 48.1959 219.932 48.1393 220.069C48.0826 220.202 48.0543 220.347 48.0543 220.504C48.0543 220.704 48.1026 220.87 48.1993 221.004C48.2993 221.134 48.4293 221.245 48.5893 221.339C48.7526 221.432 48.9359 221.514 49.1393 221.584C49.3459 221.65 49.5559 221.72 49.7693 221.794C49.9859 221.867 50.1959 221.95 50.3993 222.044C50.6059 222.134 50.7893 222.249 50.9493 222.389C51.1126 222.529 51.2426 222.7 51.3393 222.904C51.4393 223.107 51.4893 223.357 51.4893 223.654C51.4893 223.967 51.4359 224.262 51.3293 224.539C51.2226 224.812 51.0659 225.05 50.8593 225.254C50.6559 225.457 50.4043 225.617 50.1043 225.734C49.8076 225.85 49.4693 225.909 49.0893 225.909C48.6226 225.909 48.1993 225.825 47.8193 225.659C47.4393 225.489 47.1143 225.26 46.8443 224.974L47.1243 224.514C47.1509 224.477 47.1826 224.447 47.2193 224.424C47.2593 224.397 47.3026 224.384 47.3493 224.384C47.3926 224.384 47.4409 224.402 47.4943 224.439C47.5509 224.472 47.6143 224.515 47.6843 224.569C47.7543 224.622 47.8343 224.68 47.9243 224.744C48.0143 224.807 48.1159 224.865 48.2293 224.919C48.3459 224.972 48.4776 225.017 48.6243 225.054C48.7709 225.087 48.9359 225.104 49.1193 225.104C49.3493 225.104 49.5543 225.072 49.7343 225.009C49.9143 224.945 50.0659 224.857 50.1893 224.744C50.3159 224.627 50.4126 224.489 50.4793 224.329C50.5459 224.169 50.5793 223.99 50.5793 223.794C50.5793 223.577 50.5293 223.4 50.4293 223.264C50.3326 223.124 50.2043 223.007 50.0443 222.914C49.8843 222.82 49.7009 222.742 49.4943 222.679C49.2876 222.612 49.0776 222.545 48.8643 222.479C48.6509 222.409 48.4409 222.329 48.2343 222.239C48.0276 222.149 47.8443 222.032 47.6843 221.889C47.5243 221.745 47.3943 221.567 47.2943 221.354C47.1976 221.137 47.1493 220.87 47.1493 220.554C47.1493 220.3 47.1976 220.055 47.2943 219.819C47.3943 219.582 47.5376 219.372 47.7243 219.189C47.9143 219.005 48.1459 218.859 48.4193 218.749C48.6959 218.639 49.0126 218.584 49.3693 218.584C49.7693 218.584 50.1326 218.647 50.4593 218.774C50.7893 218.9 51.0793 219.084 51.3293 219.324L51.0943 219.784ZM54.8439 222.134C55.1239 222.134 55.3706 222.1 55.5839 222.034C55.8006 221.964 55.9806 221.867 56.1239 221.744C56.2706 221.617 56.3806 221.467 56.4539 221.294C56.5273 221.12 56.5639 220.929 56.5639 220.719C56.5639 220.292 56.4239 219.97 56.1439 219.754C55.8639 219.537 55.4439 219.429 54.8839 219.429H53.8239V222.134H54.8439ZM58.1539 225.829H57.2939C57.1173 225.829 56.9873 225.76 56.9039 225.624L55.0439 223.064C54.9873 222.984 54.9256 222.927 54.8589 222.894C54.7956 222.857 54.6956 222.839 54.5589 222.839H53.8239V225.829H52.8589V218.664H54.8839C55.3373 218.664 55.7289 218.71 56.0589 218.804C56.3889 218.894 56.6606 219.025 56.8739 219.199C57.0906 219.372 57.2506 219.582 57.3539 219.829C57.4573 220.072 57.5089 220.345 57.5089 220.649C57.5089 220.902 57.4689 221.139 57.3889 221.359C57.3089 221.579 57.1923 221.777 57.0389 221.954C56.8889 222.127 56.7039 222.275 56.4839 222.399C56.2673 222.522 56.0206 222.615 55.7439 222.679C55.8673 222.749 55.9739 222.85 56.0639 222.984L58.1539 225.829Z" fill="black"/>
<rect x="177.5" y="140.5" width="24" height="24" rx="4.5" fill="#F4F1DE" stroke="black"/>
<rect x="212.5" y="140.5" width="24" height="24" rx="4.5" fill="#F4F1DE" stroke="black"/>
<rect x="247.5" y="140.5" width="24" height="24" rx="4.5" fill="#F4F1DE" stroke="black"/>
<rect x="177.5" y="175.5" width="24" height="24" rx="4.5" fill="#F4F1DE" stroke="black"/>
<rect x="212.5" y="175.5" width="24" height="24" rx="4.5" fill="#F4F1DE" stroke="black"/>
<rect x="247.5" y="175.5" width="24" height="24" rx="4.5" fill="#F4F1DE" stroke="black"/>
<circle cx="52" cy="59" r="24.5" fill="#F1FAEE" stroke="black"/>
<circle cx="52" cy="59" r="24.5" fill="#F1FAEE" stroke="black"/>
<path d="M48.1897 55.65H45.8697V62H44.9047V55.65H42.5797V54.835H48.1897V55.65ZM50.6453 59.72C50.2353 59.7333 49.8853 59.7667 49.5953 59.82C49.3086 59.87 49.0736 59.9367 48.8903 60.02C48.7103 60.1033 48.5786 60.2017 48.4953 60.315C48.4153 60.4283 48.3753 60.555 48.3753 60.695C48.3753 60.8283 48.397 60.9433 48.4403 61.04C48.4836 61.1367 48.542 61.2167 48.6153 61.28C48.692 61.34 48.7803 61.385 48.8803 61.415C48.9836 61.4417 49.0936 61.455 49.2103 61.455C49.367 61.455 49.5103 61.44 49.6403 61.41C49.7703 61.3767 49.892 61.33 50.0053 61.27C50.122 61.21 50.232 61.1383 50.3353 61.055C50.442 60.9717 50.5453 60.8767 50.6453 60.77V59.72ZM47.7703 57.65C48.0503 57.38 48.352 57.1783 48.6753 57.045C48.9986 56.9117 49.357 56.845 49.7503 56.845C50.0336 56.845 50.2853 56.8917 50.5053 56.985C50.7253 57.0783 50.9103 57.2083 51.0603 57.375C51.2103 57.5417 51.3236 57.7433 51.4003 57.98C51.477 58.2167 51.5153 58.4767 51.5153 58.76V62H51.1203C51.0336 62 50.967 61.9867 50.9203 61.96C50.8736 61.93 50.837 61.8733 50.8103 61.79L50.7103 61.31C50.577 61.4333 50.447 61.5433 50.3203 61.64C50.1936 61.7333 50.0603 61.8133 49.9203 61.88C49.7803 61.9433 49.6303 61.9917 49.4703 62.025C49.3136 62.0617 49.1386 62.08 48.9453 62.08C48.7486 62.08 48.5636 62.0533 48.3903 62C48.217 61.9433 48.0653 61.86 47.9353 61.75C47.8086 61.64 47.707 61.5017 47.6303 61.335C47.557 61.165 47.5203 60.965 47.5203 60.735C47.5203 60.535 47.5753 60.3433 47.6853 60.16C47.7953 59.9733 47.9736 59.8083 48.2203 59.665C48.467 59.5217 48.7886 59.405 49.1853 59.315C49.582 59.2217 50.0686 59.1683 50.6453 59.155V58.76C50.6453 58.3667 50.5603 58.07 50.3903 57.87C50.2203 57.6667 49.972 57.565 49.6453 57.565C49.4253 57.565 49.2403 57.5933 49.0903 57.65C48.9436 57.7033 48.8153 57.765 48.7053 57.835C48.5986 57.9017 48.5053 57.9633 48.4253 58.02C48.3486 58.0733 48.272 58.1 48.1953 58.1C48.1353 58.1 48.0836 58.085 48.0403 58.055C47.997 58.0217 47.9603 57.9817 47.9303 57.935L47.7703 57.65ZM55.821 57.77C55.781 57.8433 55.7193 57.88 55.636 57.88C55.586 57.88 55.5293 57.8617 55.466 57.825C55.4027 57.7883 55.3243 57.7483 55.231 57.705C55.141 57.6583 55.0327 57.6167 54.906 57.58C54.7793 57.54 54.6293 57.52 54.456 57.52C54.306 57.52 54.171 57.54 54.051 57.58C53.931 57.6167 53.8277 57.6683 53.741 57.735C53.6577 57.8017 53.5927 57.88 53.546 57.97C53.5027 58.0567 53.481 58.1517 53.481 58.255C53.481 58.385 53.5177 58.4933 53.591 58.58C53.6677 58.6667 53.7677 58.7417 53.891 58.805C54.0143 58.8683 54.1543 58.925 54.311 58.975C54.4677 59.0217 54.6277 59.0733 54.791 59.13C54.9577 59.1833 55.1193 59.2433 55.276 59.31C55.4327 59.3767 55.5727 59.46 55.696 59.56C55.8193 59.66 55.9177 59.7833 55.991 59.93C56.0677 60.0733 56.106 60.2467 56.106 60.45C56.106 60.6833 56.0643 60.9 55.981 61.1C55.8977 61.2967 55.7743 61.4683 55.611 61.615C55.4477 61.7583 55.2477 61.8717 55.011 61.955C54.7743 62.0383 54.501 62.08 54.191 62.08C53.8377 62.08 53.5177 62.0233 53.231 61.91C52.9443 61.7933 52.701 61.645 52.501 61.465L52.711 61.125C52.7377 61.0817 52.7693 61.0483 52.806 61.025C52.8427 61.0017 52.8893 60.99 52.946 60.99C53.006 60.99 53.0693 61.0133 53.136 61.06C53.2027 61.1067 53.2827 61.1583 53.376 61.215C53.4727 61.2717 53.5893 61.3233 53.726 61.37C53.8627 61.4167 54.0327 61.44 54.236 61.44C54.4093 61.44 54.561 61.4183 54.691 61.375C54.821 61.3283 54.9293 61.2667 55.016 61.19C55.1027 61.1133 55.166 61.025 55.206 60.925C55.2493 60.825 55.271 60.7183 55.271 60.605C55.271 60.465 55.2327 60.35 55.156 60.26C55.0827 60.1667 54.9843 60.0883 54.861 60.025C54.7377 59.9583 54.596 59.9017 54.436 59.855C54.2793 59.805 54.1177 59.7533 53.951 59.7C53.7877 59.6467 53.626 59.5867 53.466 59.52C53.3093 59.45 53.1693 59.3633 53.046 59.26C52.9227 59.1567 52.8227 59.03 52.746 58.88C52.6727 58.7267 52.636 58.5417 52.636 58.325C52.636 58.1317 52.676 57.9467 52.756 57.77C52.836 57.59 52.9527 57.4333 53.106 57.3C53.2593 57.1633 53.4477 57.055 53.671 56.975C53.8943 56.895 54.1493 56.855 54.436 56.855C54.7693 56.855 55.0677 56.9083 55.331 57.015C55.5977 57.1183 55.8277 57.2617 56.021 57.445L55.821 57.77ZM58.0922 54.635V58.97H58.3222C58.3889 58.97 58.4439 58.9617 58.4872 58.945C58.5339 58.925 58.5822 58.8867 58.6322 58.83L60.2322 57.115C60.2789 57.0583 60.3272 57.015 60.3772 56.985C60.4305 56.9517 60.5005 56.935 60.5872 56.935H61.3922L59.5272 58.92C59.4372 59.0333 59.3405 59.1217 59.2372 59.185C59.2972 59.225 59.3505 59.2717 59.3972 59.325C59.4472 59.375 59.4939 59.4333 59.5372 59.5L61.5172 62H60.7222C60.6455 62 60.5789 61.9883 60.5222 61.965C60.4689 61.9383 60.4222 61.8917 60.3822 61.825L58.7172 59.75C58.6672 59.68 58.6172 59.635 58.5672 59.615C58.5205 59.5917 58.4472 59.58 58.3472 59.58H58.0922V62H57.1972V54.635H58.0922Z" fill="black"/>
<circle cx="52" cy="144" r="24.5" fill="#F1FAEE" stroke="black"/>
<circle cx="52" cy="144" r="24.5" fill="#F1FAEE" stroke="black"/>
<path d="M48.1897 140.65H45.8697V147H44.9047V140.65H42.5797V139.835H48.1897V140.65ZM50.6453 144.72C50.2353 144.733 49.8853 144.767 49.5953 144.82C49.3086 144.87 49.0736 144.937 48.8903 145.02C48.7103 145.103 48.5786 145.202 48.4953 145.315C48.4153 145.428 48.3753 145.555 48.3753 145.695C48.3753 145.828 48.397 145.943 48.4403 146.04C48.4836 146.137 48.542 146.217 48.6153 146.28C48.692 146.34 48.7803 146.385 48.8803 146.415C48.9836 146.442 49.0936 146.455 49.2103 146.455C49.367 146.455 49.5103 146.44 49.6403 146.41C49.7703 146.377 49.892 146.33 50.0053 146.27C50.122 146.21 50.232 146.138 50.3353 146.055C50.442 145.972 50.5453 145.877 50.6453 145.77V144.72ZM47.7703 142.65C48.0503 142.38 48.352 142.178 48.6753 142.045C48.9986 141.912 49.357 141.845 49.7503 141.845C50.0336 141.845 50.2853 141.892 50.5053 141.985C50.7253 142.078 50.9103 142.208 51.0603 142.375C51.2103 142.542 51.3236 142.743 51.4003 142.98C51.477 143.217 51.5153 143.477 51.5153 143.76V147H51.1203C51.0336 147 50.967 146.987 50.9203 146.96C50.8736 146.93 50.837 146.873 50.8103 146.79L50.7103 146.31C50.577 146.433 50.447 146.543 50.3203 146.64C50.1936 146.733 50.0603 146.813 49.9203 146.88C49.7803 146.943 49.6303 146.992 49.4703 147.025C49.3136 147.062 49.1386 147.08 48.9453 147.08C48.7486 147.08 48.5636 147.053 48.3903 147C48.217 146.943 48.0653 146.86 47.9353 146.75C47.8086 146.64 47.707 146.502 47.6303 146.335C47.557 146.165 47.5203 145.965 47.5203 145.735C47.5203 145.535 47.5753 145.343 47.6853 145.16C47.7953 144.973 47.9736 144.808 48.2203 144.665C48.467 144.522 48.7886 144.405 49.1853 144.315C49.582 144.222 50.0686 144.168 50.6453 144.155V143.76C50.6453 143.367 50.5603 143.07 50.3903 142.87C50.2203 142.667 49.972 142.565 49.6453 142.565C49.4253 142.565 49.2403 142.593 49.0903 142.65C48.9436 142.703 48.8153 142.765 48.7053 142.835C48.5986 142.902 48.5053 142.963 48.4253 143.02C48.3486 143.073 48.272 143.1 48.1953 143.1C48.1353 143.1 48.0836 143.085 48.0403 143.055C47.997 143.022 47.9603 142.982 47.9303 142.935L47.7703 142.65ZM55.821 142.77C55.781 142.843 55.7193 142.88 55.636 142.88C55.586 142.88 55.5293 142.862 55.466 142.825C55.4027 142.788 55.3243 142.748 55.231 142.705C55.141 142.658 55.0327 142.617 54.906 142.58C54.7793 142.54 54.6293 142.52 54.456 142.52C54.306 142.52 54.171 142.54 54.051 142.58C53.931 142.617 53.8277 142.668 53.741 142.735C53.6577 142.802 53.5927 142.88 53.546 142.97C53.5027 143.057 53.481 143.152 53.481 143.255C53.481 143.385 53.5177 143.493 53.591 143.58C53.6677 143.667 53.7677 143.742 53.891 143.805C54.0143 143.868 54.1543 143.925 54.311 143.975C54.4677 144.022 54.6277 144.073 54.791 144.13C54.9577 144.183 55.1193 144.243 55.276 144.31C55.4327 144.377 55.5727 144.46 55.696 144.56C55.8193 144.66 55.9177 144.783 55.991 144.93C56.0677 145.073 56.106 145.247 56.106 145.45C56.106 145.683 56.0643 145.9 55.981 146.1C55.8977 146.297 55.7743 146.468 55.611 146.615C55.4477 146.758 55.2477 146.872 55.011 146.955C54.7743 147.038 54.501 147.08 54.191 147.08C53.8377 147.08 53.5177 147.023 53.231 146.91C52.9443 146.793 52.701 146.645 52.501 146.465L52.711 146.125C52.7377 146.082 52.7693 146.048 52.806 146.025C52.8427 146.002 52.8893 145.99 52.946 145.99C53.006 145.99 53.0693 146.013 53.136 146.06C53.2027 146.107 53.2827 146.158 53.376 146.215C53.4727 146.272 53.5893 146.323 53.726 146.37C53.8627 146.417 54.0327 146.44 54.236 146.44C54.4093 146.44 54.561 146.418 54.691 146.375C54.821 146.328 54.9293 146.267 55.016 146.19C55.1027 146.113 55.166 146.025 55.206 145.925C55.2493 145.825 55.271 145.718 55.271 145.605C55.271 145.465 55.2327 145.35 55.156 145.26C55.0827 145.167 54.9843 145.088 54.861 145.025C54.7377 144.958 54.596 144.902 54.436 144.855C54.2793 144.805 54.1177 144.753 53.951 144.7C53.7877 144.647 53.626 144.587 53.466 144.52C53.3093 144.45 53.1693 144.363 53.046 144.26C52.9227 144.157 52.8227 144.03 52.746 143.88C52.6727 143.727 52.636 143.542 52.636 143.325C52.636 143.132 52.676 142.947 52.756 142.77C52.836 142.59 52.9527 142.433 53.106 142.3C53.2593 142.163 53.4477 142.055 53.671 141.975C53.8943 141.895 54.1493 141.855 54.436 141.855C54.7693 141.855 55.0677 141.908 55.331 142.015C55.5977 142.118 55.8277 142.262 56.021 142.445L55.821 142.77ZM58.0922 139.635V143.97H58.3222C58.3889 143.97 58.4439 143.962 58.4872 143.945C58.5339 143.925 58.5822 143.887 58.6322 143.83L60.2322 142.115C60.2789 142.058 60.3272 142.015 60.3772 141.985C60.4305 141.952 60.5005 141.935 60.5872 141.935H61.3922L59.5272 143.92C59.4372 144.033 59.3405 144.122 59.2372 144.185C59.2972 144.225 59.3505 144.272 59.3972 144.325C59.4472 144.375 59.4939 144.433 59.5372 144.5L61.5172 147H60.7222C60.6455 147 60.5789 146.988 60.5222 146.965C60.4689 146.938 60.4222 146.892 60.3822 146.825L58.7172 144.75C58.6672 144.68 58.6172 144.635 58.5672 144.615C58.5205 144.592 58.4472 144.58 58.3472 144.58H58.0922V147H57.1972V139.635H58.0922Z" fill="black"/>
<circle cx="398" cy="144" r="24.5" fill="#F1FAEE" stroke="black"/>
<circle cx="398" cy="144" r="24.5" fill="#F1FAEE" stroke="black"/>
<path d="M394.19 140.65H391.87V147H390.905V140.65H388.58V139.835H394.19V140.65ZM396.645 144.72C396.235 144.733 395.885 144.767 395.595 144.82C395.309 144.87 395.074 144.937 394.89 145.02C394.71 145.103 394.579 145.202 394.495 145.315C394.415 145.428 394.375 145.555 394.375 145.695C394.375 145.828 394.397 145.943 394.44 146.04C394.484 146.137 394.542 146.217 394.615 146.28C394.692 146.34 394.78 146.385 394.88 146.415C394.984 146.442 395.094 146.455 395.21 146.455C395.367 146.455 395.51 146.44 395.64 146.41C395.77 146.377 395.892 146.33 396.005 146.27C396.122 146.21 396.232 146.138 396.335 146.055C396.442 145.972 396.545 145.877 396.645 145.77V144.72ZM393.77 142.65C394.05 142.38 394.352 142.178 394.675 142.045C394.999 141.912 395.357 141.845 395.75 141.845C396.034 141.845 396.285 141.892 396.505 141.985C396.725 142.078 396.91 142.208 397.06 142.375C397.21 142.542 397.324 142.743 397.4 142.98C397.477 143.217 397.515 143.477 397.515 143.76V147H397.12C397.034 147 396.967 146.987 396.92 146.96C396.874 146.93 396.837 146.873 396.81 146.79L396.71 146.31C396.577 146.433 396.447 146.543 396.32 146.64C396.194 146.733 396.06 146.813 395.92 146.88C395.78 146.943 395.63 146.992 395.47 147.025C395.314 147.062 395.139 147.08 394.945 147.08C394.749 147.08 394.564 147.053 394.39 147C394.217 146.943 394.065 146.86 393.935 146.75C393.809 146.64 393.707 146.502 393.63 146.335C393.557 146.165 393.52 145.965 393.52 145.735C393.52 145.535 393.575 145.343 393.685 145.16C393.795 144.973 393.974 144.808 394.22 144.665C394.467 144.522 394.789 144.405 395.185 144.315C395.582 144.222 396.069 144.168 396.645 144.155V143.76C396.645 143.367 396.56 143.07 396.39 142.87C396.22 142.667 395.972 142.565 395.645 142.565C395.425 142.565 395.24 142.593 395.09 142.65C394.944 142.703 394.815 142.765 394.705 142.835C394.599 142.902 394.505 142.963 394.425 143.02C394.349 143.073 394.272 143.1 394.195 143.1C394.135 143.1 394.084 143.085 394.04 143.055C393.997 143.022 393.96 142.982 393.93 142.935L393.77 142.65ZM401.821 142.77C401.781 142.843 401.719 142.88 401.636 142.88C401.586 142.88 401.529 142.862 401.466 142.825C401.403 142.788 401.324 142.748 401.231 142.705C401.141 142.658 401.033 142.617 400.906 142.58C400.779 142.54 400.629 142.52 400.456 142.52C400.306 142.52 400.171 142.54 400.051 142.58C399.931 142.617 399.828 142.668 399.741 142.735C399.658 142.802 399.593 142.88 399.546 142.97C399.503 143.057 399.481 143.152 399.481 143.255C399.481 143.385 399.518 143.493 399.591 143.58C399.668 143.667 399.768 143.742 399.891 143.805C400.014 143.868 400.154 143.925 400.311 143.975C400.468 144.022 400.628 144.073 400.791 144.13C400.958 144.183 401.119 144.243 401.276 144.31C401.433 144.377 401.573 144.46 401.696 144.56C401.819 144.66 401.918 144.783 401.991 144.93C402.068 145.073 402.106 145.247 402.106 145.45C402.106 145.683 402.064 145.9 401.981 146.1C401.898 146.297 401.774 146.468 401.611 146.615C401.448 146.758 401.248 146.872 401.011 146.955C400.774 147.038 400.501 147.08 400.191 147.08C399.838 147.08 399.518 147.023 399.231 146.91C398.944 146.793 398.701 146.645 398.501 146.465L398.711 146.125C398.738 146.082 398.769 146.048 398.806 146.025C398.843 146.002 398.889 145.99 398.946 145.99C399.006 145.99 399.069 146.013 399.136 146.06C399.203 146.107 399.283 146.158 399.376 146.215C399.473 146.272 399.589 146.323 399.726 146.37C399.863 146.417 400.033 146.44 400.236 146.44C400.409 146.44 400.561 146.418 400.691 146.375C400.821 146.328 400.929 146.267 401.016 146.19C401.103 146.113 401.166 146.025 401.206 145.925C401.249 145.825 401.271 145.718 401.271 145.605C401.271 145.465 401.233 145.35 401.156 145.26C401.083 145.167 400.984 145.088 400.861 145.025C400.738 144.958 400.596 144.902 400.436 144.855C400.279 144.805 400.118 144.753 399.951 144.7C399.788 144.647 399.626 144.587 399.466 144.52C399.309 144.45 399.169 144.363 399.046 144.26C398.923 144.157 398.823 144.03 398.746 143.88C398.673 143.727 398.636 143.542 398.636 143.325C398.636 143.132 398.676 142.947 398.756 142.77C398.836 142.59 398.953 142.433 399.106 142.3C399.259 142.163 399.448 142.055 399.671 141.975C399.894 141.895 400.149 141.855 400.436 141.855C400.769 141.855 401.068 141.908 401.331 142.015C401.598 142.118 401.828 142.262 402.021 142.445L401.821 142.77ZM404.092 139.635V143.97H404.322C404.389 143.97 404.444 143.962 404.487 143.945C404.534 143.925 404.582 143.887 404.632 143.83L406.232 142.115C406.279 142.058 406.327 142.015 406.377 141.985C406.431 141.952 406.501 141.935 406.587 141.935H407.392L405.527 143.92C405.437 144.033 405.341 144.122 405.237 144.185C405.297 144.225 405.351 144.272 405.397 144.325C405.447 144.375 405.494 144.433 405.537 144.5L407.517 147H406.722C406.646 147 406.579 146.988 406.522 146.965C406.469 146.938 406.422 146.892 406.382 146.825L404.717 144.75C404.667 144.68 404.617 144.635 404.567 144.615C404.521 144.592 404.447 144.58 404.347 144.58H404.092V147H403.197V139.635H404.092Z" fill="black"/>
<path d="M215.603 227.402V236H214.583V229.682C214.583 229.598 214.585 229.508 214.589 229.412C214.597 229.316 214.605 229.218 214.613 229.118L211.661 234.494C211.569 234.674 211.429 234.764 211.241 234.764H211.073C210.885 234.764 210.745 234.674 210.653 234.494L207.641 229.094C207.665 229.306 207.677 229.502 207.677 229.682V236H206.657V227.402H207.515C207.619 227.402 207.699 227.412 207.755 227.432C207.811 227.452 207.865 227.508 207.917 227.6L210.887 232.892C210.935 232.988 210.981 233.088 211.025 233.192C211.073 233.296 211.117 233.402 211.157 233.51C211.197 233.402 211.239 233.296 211.283 233.192C211.327 233.084 211.375 232.982 211.427 232.886L214.343 227.6C214.391 227.508 214.443 227.452 214.499 227.432C214.559 227.412 214.641 227.402 214.745 227.402H215.603ZM220.667 233.264C220.175 233.28 219.755 233.32 219.407 233.384C219.063 233.444 218.781 233.524 218.561 233.624C218.345 233.724 218.187 233.842 218.087 233.978C217.991 234.114 217.943 234.266 217.943 234.434C217.943 234.594 217.969 234.732 218.021 234.848C218.073 234.964 218.143 235.06 218.231 235.136C218.323 235.208 218.429 235.262 218.549 235.298C218.673 235.33 218.805 235.346 218.945 235.346C219.133 235.346 219.305 235.328 219.461 235.292C219.617 235.252 219.763 235.196 219.899 235.124C220.039 235.052 220.171 234.966 220.295 234.866C220.423 234.766 220.547 234.652 220.667 234.524V233.264ZM217.217 230.78C217.553 230.456 217.915 230.214 218.303 230.054C218.691 229.894 219.121 229.814 219.593 229.814C219.933 229.814 220.235 229.87 220.499 229.982C220.763 230.094 220.985 230.25 221.165 230.45C221.345 230.65 221.481 230.892 221.573 231.176C221.665 231.46 221.711 231.772 221.711 232.112V236H221.237C221.133 236 221.053 235.984 220.997 235.952C220.941 235.916 220.897 235.848 220.865 235.748L220.745 235.172C220.585 235.32 220.429 235.452 220.277 235.568C220.125 235.68 219.965 235.776 219.797 235.856C219.629 235.932 219.449 235.99 219.257 236.03C219.069 236.074 218.859 236.096 218.627 236.096C218.391 236.096 218.169 236.064 217.961 236C217.753 235.932 217.571 235.832 217.415 235.7C217.263 235.568 217.141 235.402 217.049 235.202C216.961 234.998 216.917 234.758 216.917 234.482C216.917 234.242 216.983 234.012 217.115 233.792C217.247 233.568 217.461 233.37 217.757 233.198C218.053 233.026 218.439 232.886 218.915 232.778C219.391 232.666 219.975 232.602 220.667 232.586V232.112C220.667 231.64 220.565 231.284 220.361 231.044C220.157 230.8 219.859 230.678 219.467 230.678C219.203 230.678 218.981 230.712 218.801 230.78C218.625 230.844 218.471 230.918 218.339 231.002C218.211 231.082 218.099 231.156 218.003 231.224C217.911 231.288 217.819 231.32 217.727 231.32C217.655 231.32 217.593 231.302 217.541 231.266C217.489 231.226 217.445 231.178 217.409 231.122L217.217 230.78ZM224.466 229.922V236H223.398V229.922H224.466ZM224.694 228.014C224.694 228.118 224.672 228.216 224.628 228.308C224.588 228.396 224.532 228.476 224.46 228.548C224.392 228.616 224.31 228.67 224.214 228.71C224.122 228.75 224.024 228.77 223.92 228.77C223.816 228.77 223.718 228.75 223.626 228.71C223.538 228.67 223.46 228.616 223.392 228.548C223.324 228.476 223.27 228.396 223.23 228.308C223.19 228.216 223.17 228.118 223.17 228.014C223.17 227.91 223.19 227.812 223.23 227.72C223.27 227.624 223.324 227.542 223.392 227.474C223.46 227.402 223.538 227.346 223.626 227.306C223.718 227.266 223.816 227.246 223.92 227.246C224.024 227.246 224.122 227.266 224.214 227.306C224.31 227.346 224.392 227.402 224.46 227.474C224.532 227.542 224.588 227.624 224.628 227.72C224.672 227.812 224.694 227.91 224.694 228.014ZM227.325 227.162V236H226.257V227.162H227.325ZM230.131 234.536C230.327 234.8 230.541 234.986 230.773 235.094C231.009 235.202 231.267 235.256 231.547 235.256C232.119 235.256 232.557 235.054 232.861 234.65C233.165 234.246 233.317 233.644 233.317 232.844C233.317 232.1 233.181 231.554 232.909 231.206C232.641 230.854 232.257 230.678 231.757 230.678C231.409 230.678 231.105 230.758 230.845 230.918C230.589 231.078 230.351 231.304 230.131 231.596V234.536ZM230.131 230.798C230.387 230.502 230.675 230.266 230.995 230.09C231.319 229.914 231.691 229.826 232.111 229.826C232.467 229.826 232.787 229.894 233.071 230.03C233.359 230.166 233.603 230.364 233.803 230.624C234.003 230.88 234.155 231.192 234.259 231.56C234.367 231.928 234.421 232.342 234.421 232.802C234.421 233.294 234.361 233.742 234.241 234.146C234.121 234.55 233.947 234.896 233.719 235.184C233.495 235.468 233.221 235.69 232.897 235.85C232.573 236.006 232.209 236.084 231.805 236.084C231.405 236.084 231.067 236.01 230.791 235.862C230.519 235.71 230.281 235.496 230.077 235.22L230.023 235.772C229.991 235.924 229.899 236 229.747 236H229.057V227.162H230.131V230.798ZM238.334 229.826C238.778 229.826 239.178 229.9 239.534 230.048C239.89 230.196 240.194 230.406 240.446 230.678C240.698 230.95 240.89 231.28 241.022 231.668C241.158 232.052 241.226 232.482 241.226 232.958C241.226 233.438 241.158 233.87 241.022 234.254C240.89 234.638 240.698 234.966 240.446 235.238C240.194 235.51 239.89 235.72 239.534 235.868C239.178 236.012 238.778 236.084 238.334 236.084C237.886 236.084 237.482 236.012 237.122 235.868C236.766 235.72 236.462 235.51 236.21 235.238C235.958 234.966 235.764 234.638 235.628 234.254C235.496 233.87 235.43 233.438 235.43 232.958C235.43 232.482 235.496 232.052 235.628 231.668C235.764 231.28 235.958 230.95 236.21 230.678C236.462 230.406 236.766 230.196 237.122 230.048C237.482 229.9 237.886 229.826 238.334 229.826ZM238.334 235.25C238.934 235.25 239.382 235.05 239.678 234.65C239.974 234.246 240.122 233.684 240.122 232.964C240.122 232.24 239.974 231.676 239.678 231.272C239.382 230.868 238.934 230.666 238.334 230.666C238.03 230.666 237.764 230.718 237.536 230.822C237.312 230.926 237.124 231.076 236.972 231.272C236.824 231.468 236.712 231.71 236.636 231.998C236.564 232.282 236.528 232.604 236.528 232.964C236.528 233.684 236.676 234.246 236.972 234.65C237.272 235.05 237.726 235.25 238.334 235.25ZM247.303 236H246.277C246.189 236 246.119 235.978 246.067 235.934C246.019 235.886 245.979 235.834 245.947 235.778L244.417 233.396C244.401 233.452 244.383 233.508 244.363 233.564C244.347 233.616 244.323 233.664 244.291 233.708L242.875 235.778C242.835 235.834 242.791 235.886 242.743 235.934C242.699 235.978 242.637 236 242.557 236H241.603L243.733 232.88L241.687 229.922H242.713C242.801 229.922 242.865 229.936 242.905 229.964C242.945 229.992 242.981 230.032 243.013 230.084L244.507 232.364C244.539 232.248 244.589 232.136 244.657 232.028L245.965 230.108C246.001 230.052 246.039 230.008 246.079 229.976C246.123 229.94 246.175 229.922 246.235 229.922H247.219L245.173 232.826L247.303 236Z" fill="black"/>
<path d="M330.651 183.835V191H329.801V185.735C329.801 185.665 329.803 185.59 329.806 185.51C329.813 185.43 329.82 185.348 329.826 185.265L327.366 189.745C327.29 189.895 327.173 189.97 327.016 189.97H326.876C326.72 189.97 326.603 189.895 326.526 189.745L324.016 185.245C324.036 185.422 324.046 185.585 324.046 185.735V191H323.196V183.835H323.911C323.998 183.835 324.065 183.843 324.111 183.86C324.158 183.877 324.203 183.923 324.246 184L326.721 188.41C326.761 188.49 326.8 188.573 326.836 188.66C326.876 188.747 326.913 188.835 326.946 188.925C326.98 188.835 327.015 188.747 327.051 188.66C327.088 188.57 327.128 188.485 327.171 188.405L329.601 184C329.641 183.923 329.685 183.877 329.731 183.86C329.781 183.843 329.85 183.835 329.936 183.835H330.651ZM335.507 187.915C335.507 187.708 335.477 187.52 335.417 187.35C335.36 187.177 335.275 187.028 335.162 186.905C335.052 186.778 334.917 186.682 334.757 186.615C334.597 186.545 334.415 186.51 334.212 186.51C333.785 186.51 333.447 186.635 333.197 186.885C332.95 187.132 332.797 187.475 332.737 187.915H335.507ZM336.227 190.29C336.117 190.423 335.985 190.54 335.832 190.64C335.679 190.737 335.514 190.817 335.337 190.88C335.164 190.943 334.984 190.99 334.797 191.02C334.61 191.053 334.425 191.07 334.242 191.07C333.892 191.07 333.569 191.012 333.272 190.895C332.979 190.775 332.724 190.602 332.507 190.375C332.294 190.145 332.127 189.862 332.007 189.525C331.887 189.188 331.827 188.802 331.827 188.365C331.827 188.012 331.88 187.682 331.987 187.375C332.097 187.068 332.254 186.803 332.457 186.58C332.66 186.353 332.909 186.177 333.202 186.05C333.495 185.92 333.825 185.855 334.192 185.855C334.495 185.855 334.775 185.907 335.032 186.01C335.292 186.11 335.515 186.257 335.702 186.45C335.892 186.64 336.04 186.877 336.147 187.16C336.254 187.44 336.307 187.76 336.307 188.12C336.307 188.26 336.292 188.353 336.262 188.4C336.232 188.447 336.175 188.47 336.092 188.47H332.707C332.717 188.79 332.76 189.068 332.837 189.305C332.917 189.542 333.027 189.74 333.167 189.9C333.307 190.057 333.474 190.175 333.667 190.255C333.86 190.332 334.077 190.37 334.317 190.37C334.54 190.37 334.732 190.345 334.892 190.295C335.055 190.242 335.195 190.185 335.312 190.125C335.429 190.065 335.525 190.01 335.602 189.96C335.682 189.907 335.75 189.88 335.807 189.88C335.88 189.88 335.937 189.908 335.977 189.965L336.227 190.29ZM340.35 186.77C340.31 186.843 340.249 186.88 340.165 186.88C340.115 186.88 340.059 186.862 339.995 186.825C339.932 186.788 339.854 186.748 339.76 186.705C339.67 186.658 339.562 186.617 339.435 186.58C339.309 186.54 339.159 186.52 338.985 186.52C338.835 186.52 338.7 186.54 338.58 186.58C338.46 186.617 338.357 186.668 338.27 186.735C338.187 186.802 338.122 186.88 338.075 186.97C338.032 187.057 338.01 187.152 338.01 187.255C338.01 187.385 338.047 187.493 338.12 187.58C338.197 187.667 338.297 187.742 338.42 187.805C338.544 187.868 338.684 187.925 338.84 187.975C338.997 188.022 339.157 188.073 339.32 188.13C339.487 188.183 339.649 188.243 339.805 188.31C339.962 188.377 340.102 188.46 340.225 188.56C340.349 188.66 340.447 188.783 340.52 188.93C340.597 189.073 340.635 189.247 340.635 189.45C340.635 189.683 340.594 189.9 340.51 190.1C340.427 190.297 340.304 190.468 340.14 190.615C339.977 190.758 339.777 190.872 339.54 190.955C339.304 191.038 339.03 191.08 338.72 191.08C338.367 191.08 338.047 191.023 337.76 190.91C337.474 190.793 337.23 190.645 337.03 190.465L337.24 190.125C337.267 190.082 337.299 190.048 337.335 190.025C337.372 190.002 337.419 189.99 337.475 189.99C337.535 189.99 337.599 190.013 337.665 190.06C337.732 190.107 337.812 190.158 337.905 190.215C338.002 190.272 338.119 190.323 338.255 190.37C338.392 190.417 338.562 190.44 338.765 190.44C338.939 190.44 339.09 190.418 339.22 190.375C339.35 190.328 339.459 190.267 339.545 190.19C339.632 190.113 339.695 190.025 339.735 189.925C339.779 189.825 339.8 189.718 339.8 189.605C339.8 189.465 339.762 189.35 339.685 189.26C339.612 189.167 339.514 189.088 339.39 189.025C339.267 188.958 339.125 188.902 338.965 188.855C338.809 188.805 338.647 188.753 338.48 188.7C338.317 188.647 338.155 188.587 337.995 188.52C337.839 188.45 337.699 188.363 337.575 188.26C337.452 188.157 337.352 188.03 337.275 187.88C337.202 187.727 337.165 187.542 337.165 187.325C337.165 187.132 337.205 186.947 337.285 186.77C337.365 186.59 337.482 186.433 337.635 186.3C337.789 186.163 337.977 186.055 338.2 185.975C338.424 185.895 338.679 185.855 338.965 185.855C339.299 185.855 339.597 185.908 339.86 186.015C340.127 186.118 340.357 186.262 340.55 186.445L340.35 186.77ZM344.676 186.77C344.636 186.843 344.575 186.88 344.491 186.88C344.441 186.88 344.385 186.862 344.321 186.825C344.258 186.788 344.18 186.748 344.086 186.705C343.996 186.658 343.888 186.617 343.761 186.58C343.635 186.54 343.485 186.52 343.311 186.52C343.161 186.52 343.026 186.54 342.906 186.58C342.786 186.617 342.683 186.668 342.596 186.735C342.513 186.802 342.448 186.88 342.401 186.97C342.358 187.057 342.336 187.152 342.336 187.255C342.336 187.385 342.373 187.493 342.446 187.58C342.523 187.667 342.623 187.742 342.746 187.805C342.87 187.868 343.01 187.925 343.166 187.975C343.323 188.022 343.483 188.073 343.646 188.13C343.813 188.183 343.975 188.243 344.131 188.31C344.288 188.377 344.428 188.46 344.551 188.56C344.675 188.66 344.773 188.783 344.846 188.93C344.923 189.073 344.961 189.247 344.961 189.45C344.961 189.683 344.92 189.9 344.836 190.1C344.753 190.297 344.63 190.468 344.466 190.615C344.303 190.758 344.103 190.872 343.866 190.955C343.63 191.038 343.356 191.08 343.046 191.08C342.693 191.08 342.373 191.023 342.086 190.91C341.8 190.793 341.556 190.645 341.356 190.465L341.566 190.125C341.593 190.082 341.625 190.048 341.661 190.025C341.698 190.002 341.745 189.99 341.801 189.99C341.861 189.99 341.925 190.013 341.991 190.06C342.058 190.107 342.138 190.158 342.231 190.215C342.328 190.272 342.445 190.323 342.581 190.37C342.718 190.417 342.888 190.44 343.091 190.44C343.265 190.44 343.416 190.418 343.546 190.375C343.676 190.328 343.785 190.267 343.871 190.19C343.958 190.113 344.021 190.025 344.061 189.925C344.105 189.825 344.126 189.718 344.126 189.605C344.126 189.465 344.088 189.35 344.011 189.26C343.938 189.167 343.84 189.088 343.716 189.025C343.593 188.958 343.451 188.902 343.291 188.855C343.135 188.805 342.973 188.753 342.806 188.7C342.643 188.647 342.481 188.587 342.321 188.52C342.165 188.45 342.025 188.363 341.901 188.26C341.778 188.157 341.678 188.03 341.601 187.88C341.528 187.727 341.491 187.542 341.491 187.325C341.491 187.132 341.531 186.947 341.611 186.77C341.691 186.59 341.808 186.433 341.961 186.3C342.115 186.163 342.303 186.055 342.526 185.975C342.75 185.895 343.005 185.855 343.291 185.855C343.625 185.855 343.923 185.908 344.186 186.015C344.453 186.118 344.683 186.262 344.876 186.445L344.676 186.77ZM348.798 188.72C348.388 188.733 348.038 188.767 347.748 188.82C347.461 188.87 347.226 188.937 347.043 189.02C346.863 189.103 346.731 189.202 346.648 189.315C346.568 189.428 346.528 189.555 346.528 189.695C346.528 189.828 346.549 189.943 346.593 190.04C346.636 190.137 346.694 190.217 346.768 190.28C346.844 190.34 346.933 190.385 347.033 190.415C347.136 190.442 347.246 190.455 347.363 190.455C347.519 190.455 347.663 190.44 347.793 190.41C347.923 190.377 348.044 190.33 348.158 190.27C348.274 190.21 348.384 190.138 348.488 190.055C348.594 189.972 348.698 189.877 348.798 189.77V188.72ZM345.923 186.65C346.203 186.38 346.504 186.178 346.828 186.045C347.151 185.912 347.509 185.845 347.903 185.845C348.186 185.845 348.438 185.892 348.658 185.985C348.878 186.078 349.063 186.208 349.213 186.375C349.363 186.542 349.476 186.743 349.553 186.98C349.629 187.217 349.668 187.477 349.668 187.76V191H349.273C349.186 191 349.119 190.987 349.073 190.96C349.026 190.93 348.989 190.873 348.963 190.79L348.863 190.31C348.729 190.433 348.599 190.543 348.473 190.64C348.346 190.733 348.213 190.813 348.073 190.88C347.933 190.943 347.783 190.992 347.623 191.025C347.466 191.062 347.291 191.08 347.098 191.08C346.901 191.08 346.716 191.053 346.543 191C346.369 190.943 346.218 190.86 346.088 190.75C345.961 190.64 345.859 190.502 345.783 190.335C345.709 190.165 345.673 189.965 345.673 189.735C345.673 189.535 345.728 189.343 345.838 189.16C345.948 188.973 346.126 188.808 346.373 188.665C346.619 188.522 346.941 188.405 347.338 188.315C347.734 188.222 348.221 188.168 348.798 188.155V187.76C348.798 187.367 348.713 187.07 348.543 186.87C348.373 186.667 348.124 186.565 347.798 186.565C347.578 186.565 347.393 186.593 347.243 186.65C347.096 186.703 346.968 186.765 346.858 186.835C346.751 186.902 346.658 186.963 346.578 187.02C346.501 187.073 346.424 187.1 346.348 187.1C346.288 187.1 346.236 187.085 346.193 187.055C346.149 187.022 346.113 186.982 346.083 186.935L345.923 186.65ZM352.788 188.525C352.968 188.525 353.127 188.5 353.263 188.45C353.4 188.4 353.515 188.33 353.608 188.24C353.702 188.15 353.772 188.043 353.818 187.92C353.865 187.793 353.888 187.655 353.888 187.505C353.888 187.195 353.793 186.948 353.603 186.765C353.417 186.582 353.145 186.49 352.788 186.49C352.428 186.49 352.153 186.582 351.963 186.765C351.777 186.948 351.683 187.195 351.683 187.505C351.683 187.655 351.707 187.793 351.753 187.92C351.803 188.043 351.875 188.15 351.968 188.24C352.062 188.33 352.177 188.4 352.313 188.45C352.45 188.5 352.608 188.525 352.788 188.525ZM354.393 191.275C354.393 191.152 354.358 191.052 354.288 190.975C354.218 190.898 354.123 190.838 354.003 190.795C353.887 190.752 353.75 190.722 353.593 190.705C353.437 190.685 353.27 190.67 353.093 190.66C352.92 190.65 352.743 190.64 352.563 190.63C352.383 190.62 352.21 190.603 352.043 190.58C351.857 190.667 351.703 190.777 351.583 190.91C351.467 191.04 351.408 191.193 351.408 191.37C351.408 191.483 351.437 191.588 351.493 191.685C351.553 191.785 351.643 191.87 351.763 191.94C351.883 192.013 352.033 192.07 352.213 192.11C352.397 192.153 352.612 192.175 352.858 192.175C353.098 192.175 353.313 192.153 353.503 192.11C353.693 192.067 353.853 192.005 353.983 191.925C354.117 191.845 354.218 191.75 354.288 191.64C354.358 191.53 354.393 191.408 354.393 191.275ZM355.298 186.135V186.465C355.298 186.575 355.228 186.645 355.088 186.675L354.513 186.75C354.627 186.97 354.683 187.213 354.683 187.48C354.683 187.727 354.635 187.952 354.538 188.155C354.445 188.355 354.315 188.527 354.148 188.67C353.982 188.813 353.782 188.923 353.548 189C353.315 189.077 353.062 189.115 352.788 189.115C352.552 189.115 352.328 189.087 352.118 189.03C352.012 189.097 351.93 189.168 351.873 189.245C351.817 189.318 351.788 189.393 351.788 189.47C351.788 189.59 351.837 189.682 351.933 189.745C352.033 189.805 352.163 189.848 352.323 189.875C352.483 189.902 352.665 189.918 352.868 189.925C353.075 189.932 353.285 189.943 353.498 189.96C353.715 189.973 353.925 189.998 354.128 190.035C354.335 190.072 354.518 190.132 354.678 190.215C354.838 190.298 354.967 190.413 355.063 190.56C355.163 190.707 355.213 190.897 355.213 191.13C355.213 191.347 355.158 191.557 355.048 191.76C354.942 191.963 354.787 192.143 354.583 192.3C354.38 192.46 354.13 192.587 353.833 192.68C353.54 192.777 353.208 192.825 352.838 192.825C352.468 192.825 352.145 192.788 351.868 192.715C351.592 192.642 351.362 192.543 351.178 192.42C350.995 192.297 350.857 192.153 350.763 191.99C350.673 191.83 350.628 191.662 350.628 191.485C350.628 191.235 350.707 191.023 350.863 190.85C351.02 190.677 351.235 190.538 351.508 190.435C351.358 190.368 351.238 190.28 351.148 190.17C351.062 190.057 351.018 189.905 351.018 189.715C351.018 189.642 351.032 189.567 351.058 189.49C351.085 189.41 351.125 189.332 351.178 189.255C351.235 189.175 351.303 189.1 351.383 189.03C351.463 188.96 351.557 188.898 351.663 188.845C351.413 188.705 351.218 188.52 351.078 188.29C350.938 188.057 350.868 187.787 350.868 187.48C350.868 187.233 350.915 187.01 351.008 186.81C351.105 186.607 351.238 186.435 351.408 186.295C351.578 186.152 351.78 186.042 352.013 185.965C352.25 185.888 352.508 185.85 352.788 185.85C353.008 185.85 353.213 185.875 353.403 185.925C353.593 185.972 353.767 186.042 353.923 186.135H355.298ZM359.531 187.915C359.531 187.708 359.501 187.52 359.441 187.35C359.384 187.177 359.299 187.028 359.186 186.905C359.076 186.778 358.941 186.682 358.781 186.615C358.621 186.545 358.439 186.51 358.236 186.51C357.809 186.51 357.471 186.635 357.221 186.885C356.974 187.132 356.821 187.475 356.761 187.915H359.531ZM360.251 190.29C360.141 190.423 360.009 190.54 359.856 190.64C359.702 190.737 359.537 190.817 359.361 190.88C359.187 190.943 359.007 190.99 358.821 191.02C358.634 191.053 358.449 191.07 358.266 191.07C357.916 191.07 357.592 191.012 357.296 190.895C357.002 190.775 356.747 190.602 356.531 190.375C356.317 190.145 356.151 189.862 356.031 189.525C355.911 189.188 355.851 188.802 355.851 188.365C355.851 188.012 355.904 187.682 356.011 187.375C356.121 187.068 356.277 186.803 356.481 186.58C356.684 186.353 356.932 186.177 357.226 186.05C357.519 185.92 357.849 185.855 358.216 185.855C358.519 185.855 358.799 185.907 359.056 186.01C359.316 186.11 359.539 186.257 359.726 186.45C359.916 186.64 360.064 186.877 360.171 187.16C360.277 187.44 360.331 187.76 360.331 188.12C360.331 188.26 360.316 188.353 360.286 188.4C360.256 188.447 360.199 188.47 360.116 188.47H356.731C356.741 188.79 356.784 189.068 356.861 189.305C356.941 189.542 357.051 189.74 357.191 189.9C357.331 190.057 357.497 190.175 357.691 190.255C357.884 190.332 358.101 190.37 358.341 190.37C358.564 190.37 358.756 190.345 358.916 190.295C359.079 190.242 359.219 190.185 359.336 190.125C359.452 190.065 359.549 190.01 359.626 189.96C359.706 189.907 359.774 189.88 359.831 189.88C359.904 189.88 359.961 189.908 360.001 189.965L360.251 190.29Z" fill="black"/>
<path d="M154.502 117.884L151.616 112.884L148.729 117.884L154.502 117.884ZM73.4977 71.116L73.2477 71.549L150.355 116.067L150.605 115.634L150.855 115.201L73.7477 70.683L73.4977 71.116Z" fill="black"/>
<path d="M154.603 171.768L148.829 171.768L151.716 176.768L154.603 171.768ZM68 221.768L68.25 222.201L150.955 174.451L150.705 174.018L150.455 173.585L67.75 221.335L68 221.768Z" fill="black"/>
<path d="M155 145L150 142.113V147.887L155 145ZM77 145V145.5H150.5V145V144.5H77V145Z" fill="black"/>
<path d="M373 144L368 141.113V146.887L373 144ZM295 144V144.5H368.5V144V143.5H295V144Z" fill="black"/>
<line x1="277" y1="187.6" x2="317" y2="187.6" stroke="black" stroke-width="0.8"/>
<circle cx="274.5" cy="187.5" r="2.5" fill="black"/>
<path d="M218.618 108.01C218.618 107.854 218.645 107.707 218.699 107.569C218.759 107.431 218.837 107.311 218.933 107.209C219.035 107.107 219.155 107.026 219.293 106.966C219.431 106.906 219.578 106.876 219.734 106.876C219.89 106.876 220.037 106.906 220.175 106.966C220.313 107.026 220.433 107.107 220.535 107.209C220.637 107.311 220.718 107.431 220.778 107.569C220.838 107.707 220.868 107.854 220.868 108.01C220.868 108.172 220.838 108.322 220.778 108.46C220.718 108.592 220.637 108.709 220.535 108.811C220.433 108.913 220.313 108.991 220.175 109.045C220.037 109.105 219.89 109.135 219.734 109.135C219.578 109.135 219.431 109.105 219.293 109.045C219.155 108.991 219.035 108.913 218.933 108.811C218.837 108.709 218.759 108.592 218.699 108.46C218.645 108.322 218.618 108.172 218.618 108.01ZM222.872 108.01C222.872 107.854 222.899 107.707 222.953 107.569C223.013 107.431 223.091 107.311 223.187 107.209C223.289 107.107 223.409 107.026 223.547 106.966C223.685 106.906 223.832 106.876 223.988 106.876C224.144 106.876 224.291 106.906 224.429 106.966C224.567 107.026 224.687 107.107 224.789 107.209C224.891 107.311 224.972 107.431 225.032 107.569C225.092 107.707 225.122 107.854 225.122 108.01C225.122 108.172 225.092 108.322 225.032 108.46C224.972 108.592 224.891 108.709 224.789 108.811C224.687 108.913 224.567 108.991 224.429 109.045C224.291 109.105 224.144 109.135 223.988 109.135C223.832 109.135 223.685 109.105 223.547 109.045C223.409 108.991 223.289 108.913 223.187 108.811C223.091 108.709 223.013 108.592 222.953 108.46C222.899 108.322 222.872 108.172 222.872 108.01ZM227.126 108.01C227.126 107.854 227.153 107.707 227.207 107.569C227.267 107.431 227.345 107.311 227.441 107.209C227.543 107.107 227.663 107.026 227.801 106.966C227.939 106.906 228.086 106.876 228.242 106.876C228.398 106.876 228.545 106.906 228.683 106.966C228.821 107.026 228.941 107.107 229.043 107.209C229.145 107.311 229.226 107.431 229.286 107.569C229.346 107.707 229.376 107.854 229.376 108.01C229.376 108.172 229.346 108.322 229.286 108.46C229.226 108.592 229.145 108.709 229.043 108.811C228.941 108.913 228.821 108.991 228.683 109.045C228.545 109.105 228.398 109.135 228.242 109.135C228.086 109.135 227.939 109.105 227.801 109.045C227.663 108.991 227.543 108.913 227.441 108.811C227.345 108.709 227.267 108.592 227.207 108.46C227.153 108.322 227.126 108.172 227.126 108.01Z" fill="black"/>
</svg>
