<svg width="550" height="100" viewBox="0 0 550 100" fill="none" xmlns="http://www.w3.org/2000/svg">
<rect width="550" height="100" fill="white"/>
<rect x="25.5" y="21.5" width="499" height="49" fill="#F1FAEE" stroke="black"/>
<rect x="24.5" y="21.5" width="92" height="49" fill="#F2CC8F" stroke="black"/>
<rect x="213.5" y="21.5" width="58" height="49" fill="#F2CC8F" stroke="black"/>
<rect x="317.5" y="21.5" width="47" height="49" fill="#F2CC8F" stroke="black"/>
<rect x="443.5" y="21.5" width="47" height="49" fill="#F2CC8F" stroke="black"/>
<path d="M54.5901 47.34L53.4651 44.425C53.4318 44.3383 53.3968 44.2383 53.3601 44.125C53.3235 44.0083 53.2885 43.885 53.2551 43.755C53.1851 44.025 53.1135 44.25 53.0401 44.43L51.9151 47.34H54.5901ZM56.6101 50H55.8601C55.7735 50 55.7035 49.9783 55.6501 49.935C55.5968 49.8917 55.5568 49.8367 55.5301 49.77L54.8601 48.04H51.6451L50.9751 49.77C50.9551 49.83 50.9168 49.8833 50.8601 49.93C50.8035 49.9767 50.7335 50 50.6501 50H49.9001L52.7651 42.835H53.7451L56.6101 50ZM58.2432 42.635V50H57.3532V42.635H58.2432ZM60.6064 42.635V50H59.7164V42.635H60.6064ZM64.1847 44.855C64.5547 44.855 64.8881 44.9167 65.1847 45.04C65.4814 45.1633 65.7347 45.3383 65.9447 45.565C66.1547 45.7917 66.3147 46.0667 66.4247 46.39C66.5381 46.71 66.5947 47.0683 66.5947 47.465C66.5947 47.865 66.5381 48.225 66.4247 48.545C66.3147 48.865 66.1547 49.1383 65.9447 49.365C65.7347 49.5917 65.4814 49.7667 65.1847 49.89C64.8881 50.01 64.5547 50.07 64.1847 50.07C63.8114 50.07 63.4747 50.01 63.1747 49.89C62.8781 49.7667 62.6247 49.5917 62.4147 49.365C62.2047 49.1383 62.0431 48.865 61.9297 48.545C61.8197 48.225 61.7647 47.865 61.7647 47.465C61.7647 47.0683 61.8197 46.71 61.9297 46.39C62.0431 46.0667 62.2047 45.7917 62.4147 45.565C62.6247 45.3383 62.8781 45.1633 63.1747 45.04C63.4747 44.9167 63.8114 44.855 64.1847 44.855ZM64.1847 49.375C64.6847 49.375 65.0581 49.2083 65.3047 48.875C65.5514 48.5383 65.6747 48.07 65.6747 47.47C65.6747 46.8667 65.5514 46.3967 65.3047 46.06C65.0581 45.7233 64.6847 45.555 64.1847 45.555C63.9314 45.555 63.7097 45.5983 63.5197 45.685C63.3331 45.7717 63.1764 45.8967 63.0497 46.06C62.9264 46.2233 62.8331 46.425 62.7697 46.665C62.7097 46.9017 62.6797 47.17 62.6797 47.47C62.6797 48.07 62.8031 48.5383 63.0497 48.875C63.2997 49.2083 63.6781 49.375 64.1847 49.375ZM71.2486 45.835C71.2219 45.8717 71.1952 45.9 71.1686 45.92C71.1419 45.94 71.1052 45.95 71.0586 45.95C71.0086 45.95 70.9536 45.93 70.8936 45.89C70.8336 45.8467 70.7586 45.8 70.6686 45.75C70.5819 45.7 70.4736 45.655 70.3436 45.615C70.2169 45.5717 70.0602 45.55 69.8736 45.55C69.6236 45.55 69.4036 45.595 69.2136 45.685C69.0236 45.7717 68.8636 45.8983 68.7336 46.065C68.6069 46.2317 68.5102 46.4333 68.4436 46.67C68.3802 46.9067 68.3486 47.1717 68.3486 47.465C68.3486 47.7717 68.3836 48.045 68.4536 48.285C68.5236 48.5217 68.6219 48.7217 68.7486 48.885C68.8786 49.045 69.0336 49.1683 69.2136 49.255C69.3969 49.3383 69.6019 49.38 69.8286 49.38C70.0452 49.38 70.2236 49.355 70.3636 49.305C70.5036 49.2517 70.6186 49.1933 70.7086 49.13C70.8019 49.0667 70.8786 49.01 70.9386 48.96C71.0019 48.9067 71.0636 48.88 71.1236 48.88C71.1969 48.88 71.2536 48.9083 71.2936 48.965L71.5436 49.29C71.4336 49.4267 71.3086 49.5433 71.1686 49.64C71.0286 49.7367 70.8769 49.8183 70.7136 49.885C70.5536 49.9483 70.3852 49.995 70.2086 50.025C70.0319 50.055 69.8519 50.07 69.6686 50.07C69.3519 50.07 69.0569 50.0117 68.7836 49.895C68.5136 49.7783 68.2786 49.61 68.0786 49.39C67.8786 49.1667 67.7219 48.8933 67.6086 48.57C67.4952 48.2467 67.4386 47.8783 67.4386 47.465C67.4386 47.0883 67.4902 46.74 67.5936 46.42C67.7002 46.1 67.8536 45.825 68.0536 45.595C68.2569 45.3617 68.5052 45.18 68.7986 45.05C69.0952 44.92 69.4352 44.855 69.8186 44.855C70.1752 44.855 70.4886 44.9133 70.7586 45.03C71.0319 45.1433 71.2736 45.305 71.4836 45.515L71.2486 45.835ZM75.2439 47.72C74.8339 47.7333 74.4839 47.7667 74.1939 47.82C73.9073 47.87 73.6723 47.9367 73.4889 48.02C73.3089 48.1033 73.1773 48.2017 73.0939 48.315C73.0139 48.4283 72.9739 48.555 72.9739 48.695C72.9739 48.8283 72.9956 48.9433 73.0389 49.04C73.0823 49.1367 73.1406 49.2167 73.2139 49.28C73.2906 49.34 73.3789 49.385 73.4789 49.415C73.5823 49.4417 73.6923 49.455 73.8089 49.455C73.9656 49.455 74.1089 49.44 74.2389 49.41C74.3689 49.3767 74.4906 49.33 74.6039 49.27C74.7206 49.21 74.8306 49.1383 74.9339 49.055C75.0406 48.9717 75.1439 48.8767 75.2439 48.77V47.72ZM72.3689 45.65C72.6489 45.38 72.9506 45.1783 73.2739 45.045C73.5973 44.9117 73.9556 44.845 74.3489 44.845C74.6323 44.845 74.8839 44.8917 75.1039 44.985C75.3239 45.0783 75.5089 45.2083 75.6589 45.375C75.8089 45.5417 75.9223 45.7433 75.9989 45.98C76.0756 46.2167 76.1139 46.4767 76.1139 46.76V50H75.7189C75.6323 50 75.5656 49.9867 75.5189 49.96C75.4723 49.93 75.4356 49.8733 75.4089 49.79L75.3089 49.31C75.1756 49.4333 75.0456 49.5433 74.9189 49.64C74.7923 49.7333 74.6589 49.8133 74.5189 49.88C74.3789 49.9433 74.2289 49.9917 74.0689 50.025C73.9123 50.0617 73.7373 50.08 73.5439 50.08C73.3473 50.08 73.1623 50.0533 72.9889 50C72.8156 49.9433 72.6639 49.86 72.5339 49.75C72.4073 49.64 72.3056 49.5017 72.2289 49.335C72.1556 49.165 72.1189 48.965 72.1189 48.735C72.1189 48.535 72.1739 48.3433 72.2839 48.16C72.3939 47.9733 72.5723 47.8083 72.8189 47.665C73.0656 47.5217 73.3873 47.405 73.7839 47.315C74.1806 47.2217 74.6673 47.1683 75.2439 47.155V46.76C75.2439 46.3667 75.1589 46.07 74.9889 45.87C74.8189 45.6667 74.5706 45.565 74.2439 45.565C74.0239 45.565 73.8389 45.5933 73.6889 45.65C73.5423 45.7033 73.4139 45.765 73.3039 45.835C73.1973 45.9017 73.1039 45.9633 73.0239 46.02C72.9473 46.0733 72.8706 46.1 72.7939 46.1C72.7339 46.1 72.6823 46.085 72.6389 46.055C72.5956 46.0217 72.5589 45.9817 72.5289 45.935L72.3689 45.65ZM78.9563 50.08C78.5563 50.08 78.248 49.9683 78.0313 49.745C77.818 49.5217 77.7113 49.2 77.7113 48.78V45.68H77.1013C77.048 45.68 77.003 45.665 76.9663 45.635C76.9296 45.6017 76.9113 45.5517 76.9113 45.485V45.13L77.7413 45.025L77.9463 43.46C77.9563 43.41 77.978 43.37 78.0113 43.34C78.048 43.3067 78.0946 43.29 78.1513 43.29H78.6013V45.035H80.0663V45.68H78.6013V48.72C78.6013 48.9333 78.653 49.0917 78.7563 49.195C78.8596 49.2983 78.993 49.35 79.1563 49.35C79.2496 49.35 79.3296 49.3383 79.3963 49.315C79.4663 49.2883 79.5263 49.26 79.5763 49.23C79.6263 49.2 79.668 49.1733 79.7013 49.15C79.738 49.1233 79.7696 49.11 79.7963 49.11C79.843 49.11 79.8846 49.1383 79.9213 49.195L80.1813 49.62C80.028 49.7633 79.843 49.8767 79.6263 49.96C79.4096 50.04 79.1863 50.08 78.9563 50.08ZM84.346 46.915C84.346 46.7083 84.316 46.52 84.256 46.35C84.1993 46.1767 84.1143 46.0283 84.001 45.905C83.891 45.7783 83.756 45.6817 83.596 45.615C83.436 45.545 83.2543 45.51 83.051 45.51C82.6243 45.51 82.286 45.635 82.036 45.885C81.7893 46.1317 81.636 46.475 81.576 46.915H84.346ZM85.066 49.29C84.956 49.4233 84.8243 49.54 84.671 49.64C84.5176 49.7367 84.3526 49.8167 84.176 49.88C84.0026 49.9433 83.8226 49.99 83.636 50.02C83.4493 50.0533 83.2643 50.07 83.081 50.07C82.731 50.07 82.4076 50.0117 82.111 49.895C81.8176 49.775 81.5626 49.6017 81.346 49.375C81.1326 49.145 80.966 48.8617 80.846 48.525C80.726 48.1883 80.666 47.8017 80.666 47.365C80.666 47.0117 80.7193 46.6817 80.826 46.375C80.936 46.0683 81.0926 45.8033 81.296 45.58C81.4993 45.3533 81.7476 45.1767 82.041 45.05C82.3343 44.92 82.6643 44.855 83.031 44.855C83.3343 44.855 83.6143 44.9067 83.871 45.01C84.131 45.11 84.3543 45.2567 84.541 45.45C84.731 45.64 84.8793 45.8767 84.986 46.16C85.0926 46.44 85.146 46.76 85.146 47.12C85.146 47.26 85.131 47.3533 85.101 47.4C85.071 47.4467 85.0143 47.47 84.931 47.47H81.546C81.556 47.79 81.5993 48.0683 81.676 48.305C81.756 48.5417 81.866 48.74 82.006 48.9C82.146 49.0567 82.3126 49.175 82.506 49.255C82.6993 49.3317 82.916 49.37 83.156 49.37C83.3793 49.37 83.571 49.345 83.731 49.295C83.8943 49.2417 84.0343 49.185 84.151 49.125C84.2676 49.065 84.3643 49.01 84.441 48.96C84.521 48.9067 84.5893 48.88 84.646 48.88C84.7193 48.88 84.776 48.9083 84.816 48.965L85.066 49.29ZM89.5392 46.14C89.3725 45.9167 89.1925 45.7617 88.9992 45.675C88.8058 45.585 88.5892 45.54 88.3492 45.54C87.8792 45.54 87.5175 45.7083 87.2642 46.045C87.0108 46.3817 86.8842 46.8617 86.8842 47.485C86.8842 47.815 86.9125 48.0983 86.9692 48.335C87.0258 48.5683 87.1092 48.7617 87.2192 48.915C87.3292 49.065 87.4642 49.175 87.6242 49.245C87.7842 49.315 87.9658 49.35 88.1692 49.35C88.4625 49.35 88.7175 49.2833 88.9342 49.15C89.1542 49.0167 89.3558 48.8283 89.5392 48.585V46.14ZM90.4292 42.635V50H89.8992C89.7725 50 89.6925 49.9383 89.6592 49.815L89.5792 49.2C89.3625 49.46 89.1158 49.67 88.8392 49.83C88.5625 49.99 88.2425 50.07 87.8792 50.07C87.5892 50.07 87.3258 50.015 87.0892 49.905C86.8525 49.7917 86.6508 49.6267 86.4842 49.41C86.3175 49.1933 86.1892 48.9233 86.0992 48.6C86.0092 48.2767 85.9642 47.905 85.9642 47.485C85.9642 47.1117 86.0142 46.765 86.1142 46.445C86.2142 46.1217 86.3575 45.8417 86.5442 45.605C86.7308 45.3683 86.9592 45.1833 87.2292 45.05C87.5025 44.9133 87.8092 44.845 88.1492 44.845C88.4592 44.845 88.7242 44.8983 88.9442 45.005C89.1675 45.1083 89.3658 45.2533 89.5392 45.44V42.635H90.4292Z" fill="black"/>
<path d="M324.59 47.34L323.465 44.425C323.432 44.3383 323.397 44.2383 323.36 44.125C323.323 44.0083 323.288 43.885 323.255 43.755C323.185 44.025 323.113 44.25 323.04 44.43L321.915 47.34H324.59ZM326.61 50H325.86C325.773 50 325.703 49.9783 325.65 49.935C325.597 49.8917 325.557 49.8367 325.53 49.77L324.86 48.04H321.645L320.975 49.77C320.955 49.83 320.917 49.8833 320.86 49.93C320.803 49.9767 320.733 50 320.65 50H319.9L322.765 42.835H323.745L326.61 50ZM328.243 42.635V50H327.353V42.635H328.243ZM330.606 42.635V50H329.716V42.635H330.606ZM334.185 44.855C334.555 44.855 334.888 44.9167 335.185 45.04C335.481 45.1633 335.735 45.3383 335.945 45.565C336.155 45.7917 336.315 46.0667 336.425 46.39C336.538 46.71 336.595 47.0683 336.595 47.465C336.595 47.865 336.538 48.225 336.425 48.545C336.315 48.865 336.155 49.1383 335.945 49.365C335.735 49.5917 335.481 49.7667 335.185 49.89C334.888 50.01 334.555 50.07 334.185 50.07C333.811 50.07 333.475 50.01 333.175 49.89C332.878 49.7667 332.625 49.5917 332.415 49.365C332.205 49.1383 332.043 48.865 331.93 48.545C331.82 48.225 331.765 47.865 331.765 47.465C331.765 47.0683 331.82 46.71 331.93 46.39C332.043 46.0667 332.205 45.7917 332.415 45.565C332.625 45.3383 332.878 45.1633 333.175 45.04C333.475 44.9167 333.811 44.855 334.185 44.855ZM334.185 49.375C334.685 49.375 335.058 49.2083 335.305 48.875C335.551 48.5383 335.675 48.07 335.675 47.47C335.675 46.8667 335.551 46.3967 335.305 46.06C335.058 45.7233 334.685 45.555 334.185 45.555C333.931 45.555 333.71 45.5983 333.52 45.685C333.333 45.7717 333.176 45.8967 333.05 46.06C332.926 46.2233 332.833 46.425 332.77 46.665C332.71 46.9017 332.68 47.17 332.68 47.47C332.68 48.07 332.803 48.5383 333.05 48.875C333.3 49.2083 333.678 49.375 334.185 49.375ZM341.249 45.835C341.222 45.8717 341.195 45.9 341.169 45.92C341.142 45.94 341.105 45.95 341.059 45.95C341.009 45.95 340.954 45.93 340.894 45.89C340.834 45.8467 340.759 45.8 340.669 45.75C340.582 45.7 340.474 45.655 340.344 45.615C340.217 45.5717 340.06 45.55 339.874 45.55C339.624 45.55 339.404 45.595 339.214 45.685C339.024 45.7717 338.864 45.8983 338.734 46.065C338.607 46.2317 338.51 46.4333 338.444 46.67C338.38 46.9067 338.349 47.1717 338.349 47.465C338.349 47.7717 338.384 48.045 338.454 48.285C338.524 48.5217 338.622 48.7217 338.749 48.885C338.879 49.045 339.034 49.1683 339.214 49.255C339.397 49.3383 339.602 49.38 339.829 49.38C340.045 49.38 340.224 49.355 340.364 49.305C340.504 49.2517 340.619 49.1933 340.709 49.13C340.802 49.0667 340.879 49.01 340.939 48.96C341.002 48.9067 341.064 48.88 341.124 48.88C341.197 48.88 341.254 48.9083 341.294 48.965L341.544 49.29C341.434 49.4267 341.309 49.5433 341.169 49.64C341.029 49.7367 340.877 49.8183 340.714 49.885C340.554 49.9483 340.385 49.995 340.209 50.025C340.032 50.055 339.852 50.07 339.669 50.07C339.352 50.07 339.057 50.0117 338.784 49.895C338.514 49.7783 338.279 49.61 338.079 49.39C337.879 49.1667 337.722 48.8933 337.609 48.57C337.495 48.2467 337.439 47.8783 337.439 47.465C337.439 47.0883 337.49 46.74 337.594 46.42C337.7 46.1 337.854 45.825 338.054 45.595C338.257 45.3617 338.505 45.18 338.799 45.05C339.095 44.92 339.435 44.855 339.819 44.855C340.175 44.855 340.489 44.9133 340.759 45.03C341.032 45.1433 341.274 45.305 341.484 45.515L341.249 45.835ZM345.244 47.72C344.834 47.7333 344.484 47.7667 344.194 47.82C343.907 47.87 343.672 47.9367 343.489 48.02C343.309 48.1033 343.177 48.2017 343.094 48.315C343.014 48.4283 342.974 48.555 342.974 48.695C342.974 48.8283 342.996 48.9433 343.039 49.04C343.082 49.1367 343.141 49.2167 343.214 49.28C343.291 49.34 343.379 49.385 343.479 49.415C343.582 49.4417 343.692 49.455 343.809 49.455C343.966 49.455 344.109 49.44 344.239 49.41C344.369 49.3767 344.491 49.33 344.604 49.27C344.721 49.21 344.831 49.1383 344.934 49.055C345.041 48.9717 345.144 48.8767 345.244 48.77V47.72ZM342.369 45.65C342.649 45.38 342.951 45.1783 343.274 45.045C343.597 44.9117 343.956 44.845 344.349 44.845C344.632 44.845 344.884 44.8917 345.104 44.985C345.324 45.0783 345.509 45.2083 345.659 45.375C345.809 45.5417 345.922 45.7433 345.999 45.98C346.076 46.2167 346.114 46.4767 346.114 46.76V50H345.719C345.632 50 345.566 49.9867 345.519 49.96C345.472 49.93 345.436 49.8733 345.409 49.79L345.309 49.31C345.176 49.4333 345.046 49.5433 344.919 49.64C344.792 49.7333 344.659 49.8133 344.519 49.88C344.379 49.9433 344.229 49.9917 344.069 50.025C343.912 50.0617 343.737 50.08 343.544 50.08C343.347 50.08 343.162 50.0533 342.989 50C342.816 49.9433 342.664 49.86 342.534 49.75C342.407 49.64 342.306 49.5017 342.229 49.335C342.156 49.165 342.119 48.965 342.119 48.735C342.119 48.535 342.174 48.3433 342.284 48.16C342.394 47.9733 342.572 47.8083 342.819 47.665C343.066 47.5217 343.387 47.405 343.784 47.315C344.181 47.2217 344.667 47.1683 345.244 47.155V46.76C345.244 46.3667 345.159 46.07 344.989 45.87C344.819 45.6667 344.571 45.565 344.244 45.565C344.024 45.565 343.839 45.5933 343.689 45.65C343.542 45.7033 343.414 45.765 343.304 45.835C343.197 45.9017 343.104 45.9633 343.024 46.02C342.947 46.0733 342.871 46.1 342.794 46.1C342.734 46.1 342.682 46.085 342.639 46.055C342.596 46.0217 342.559 45.9817 342.529 45.935L342.369 45.65ZM348.956 50.08C348.556 50.08 348.248 49.9683 348.031 49.745C347.818 49.5217 347.711 49.2 347.711 48.78V45.68H347.101C347.048 45.68 347.003 45.665 346.966 45.635C346.93 45.6017 346.911 45.5517 346.911 45.485V45.13L347.741 45.025L347.946 43.46C347.956 43.41 347.978 43.37 348.011 43.34C348.048 43.3067 348.095 43.29 348.151 43.29H348.601V45.035H350.066V45.68H348.601V48.72C348.601 48.9333 348.653 49.0917 348.756 49.195C348.86 49.2983 348.993 49.35 349.156 49.35C349.25 49.35 349.33 49.3383 349.396 49.315C349.466 49.2883 349.526 49.26 349.576 49.23C349.626 49.2 349.668 49.1733 349.701 49.15C349.738 49.1233 349.77 49.11 349.796 49.11C349.843 49.11 349.885 49.1383 349.921 49.195L350.181 49.62C350.028 49.7633 349.843 49.8767 349.626 49.96C349.41 50.04 349.186 50.08 348.956 50.08ZM354.346 46.915C354.346 46.7083 354.316 46.52 354.256 46.35C354.199 46.1767 354.114 46.0283 354.001 45.905C353.891 45.7783 353.756 45.6817 353.596 45.615C353.436 45.545 353.254 45.51 353.051 45.51C352.624 45.51 352.286 45.635 352.036 45.885C351.789 46.1317 351.636 46.475 351.576 46.915H354.346ZM355.066 49.29C354.956 49.4233 354.824 49.54 354.671 49.64C354.518 49.7367 354.353 49.8167 354.176 49.88C354.003 49.9433 353.823 49.99 353.636 50.02C353.449 50.0533 353.264 50.07 353.081 50.07C352.731 50.07 352.408 50.0117 352.111 49.895C351.818 49.775 351.563 49.6017 351.346 49.375C351.133 49.145 350.966 48.8617 350.846 48.525C350.726 48.1883 350.666 47.8017 350.666 47.365C350.666 47.0117 350.719 46.6817 350.826 46.375C350.936 46.0683 351.093 45.8033 351.296 45.58C351.499 45.3533 351.748 45.1767 352.041 45.05C352.334 44.92 352.664 44.855 353.031 44.855C353.334 44.855 353.614 44.9067 353.871 45.01C354.131 45.11 354.354 45.2567 354.541 45.45C354.731 45.64 354.879 45.8767 354.986 46.16C355.093 46.44 355.146 46.76 355.146 47.12C355.146 47.26 355.131 47.3533 355.101 47.4C355.071 47.4467 355.014 47.47 354.931 47.47H351.546C351.556 47.79 351.599 48.0683 351.676 48.305C351.756 48.5417 351.866 48.74 352.006 48.9C352.146 49.0567 352.313 49.175 352.506 49.255C352.699 49.3317 352.916 49.37 353.156 49.37C353.379 49.37 353.571 49.345 353.731 49.295C353.894 49.2417 354.034 49.185 354.151 49.125C354.268 49.065 354.364 49.01 354.441 48.96C354.521 48.9067 354.589 48.88 354.646 48.88C354.719 48.88 354.776 48.9083 354.816 48.965L355.066 49.29ZM359.539 46.14C359.373 45.9167 359.193 45.7617 358.999 45.675C358.806 45.585 358.589 45.54 358.349 45.54C357.879 45.54 357.518 45.7083 357.264 46.045C357.011 46.3817 356.884 46.8617 356.884 47.485C356.884 47.815 356.913 48.0983 356.969 48.335C357.026 48.5683 357.109 48.7617 357.219 48.915C357.329 49.065 357.464 49.175 357.624 49.245C357.784 49.315 357.966 49.35 358.169 49.35C358.463 49.35 358.718 49.2833 358.934 49.15C359.154 49.0167 359.356 48.8283 359.539 48.585V46.14ZM360.429 42.635V50H359.899C359.773 50 359.693 49.9383 359.659 49.815L359.579 49.2C359.363 49.46 359.116 49.67 358.839 49.83C358.563 49.99 358.243 50.07 357.879 50.07C357.589 50.07 357.326 50.015 357.089 49.905C356.853 49.7917 356.651 49.6267 356.484 49.41C356.318 49.1933 356.189 48.9233 356.099 48.6C356.009 48.2767 355.964 47.905 355.964 47.485C355.964 47.1117 356.014 46.765 356.114 46.445C356.214 46.1217 356.358 45.8417 356.544 45.605C356.731 45.3683 356.959 45.1833 357.229 45.05C357.503 44.9133 357.809 44.845 358.149 44.845C358.459 44.845 358.724 44.8983 358.944 45.005C359.168 45.1083 359.366 45.2533 359.539 45.44V42.635H360.429Z" fill="black"/>
<path d="M451.59 47.34L450.465 44.425C450.432 44.3383 450.397 44.2383 450.36 44.125C450.323 44.0083 450.288 43.885 450.255 43.755C450.185 44.025 450.113 44.25 450.04 44.43L448.915 47.34H451.59ZM453.61 50H452.86C452.773 50 452.703 49.9783 452.65 49.935C452.597 49.8917 452.557 49.8367 452.53 49.77L451.86 48.04H448.645L447.975 49.77C447.955 49.83 447.917 49.8833 447.86 49.93C447.803 49.9767 447.733 50 447.65 50H446.9L449.765 42.835H450.745L453.61 50ZM455.243 42.635V50H454.353V42.635H455.243ZM457.606 42.635V50H456.716V42.635H457.606ZM461.185 44.855C461.555 44.855 461.888 44.9167 462.185 45.04C462.481 45.1633 462.735 45.3383 462.945 45.565C463.155 45.7917 463.315 46.0667 463.425 46.39C463.538 46.71 463.595 47.0683 463.595 47.465C463.595 47.865 463.538 48.225 463.425 48.545C463.315 48.865 463.155 49.1383 462.945 49.365C462.735 49.5917 462.481 49.7667 462.185 49.89C461.888 50.01 461.555 50.07 461.185 50.07C460.811 50.07 460.475 50.01 460.175 49.89C459.878 49.7667 459.625 49.5917 459.415 49.365C459.205 49.1383 459.043 48.865 458.93 48.545C458.82 48.225 458.765 47.865 458.765 47.465C458.765 47.0683 458.82 46.71 458.93 46.39C459.043 46.0667 459.205 45.7917 459.415 45.565C459.625 45.3383 459.878 45.1633 460.175 45.04C460.475 44.9167 460.811 44.855 461.185 44.855ZM461.185 49.375C461.685 49.375 462.058 49.2083 462.305 48.875C462.551 48.5383 462.675 48.07 462.675 47.47C462.675 46.8667 462.551 46.3967 462.305 46.06C462.058 45.7233 461.685 45.555 461.185 45.555C460.931 45.555 460.71 45.5983 460.52 45.685C460.333 45.7717 460.176 45.8967 460.05 46.06C459.926 46.2233 459.833 46.425 459.77 46.665C459.71 46.9017 459.68 47.17 459.68 47.47C459.68 48.07 459.803 48.5383 460.05 48.875C460.3 49.2083 460.678 49.375 461.185 49.375ZM468.249 45.835C468.222 45.8717 468.195 45.9 468.169 45.92C468.142 45.94 468.105 45.95 468.059 45.95C468.009 45.95 467.954 45.93 467.894 45.89C467.834 45.8467 467.759 45.8 467.669 45.75C467.582 45.7 467.474 45.655 467.344 45.615C467.217 45.5717 467.06 45.55 466.874 45.55C466.624 45.55 466.404 45.595 466.214 45.685C466.024 45.7717 465.864 45.8983 465.734 46.065C465.607 46.2317 465.51 46.4333 465.444 46.67C465.38 46.9067 465.349 47.1717 465.349 47.465C465.349 47.7717 465.384 48.045 465.454 48.285C465.524 48.5217 465.622 48.7217 465.749 48.885C465.879 49.045 466.034 49.1683 466.214 49.255C466.397 49.3383 466.602 49.38 466.829 49.38C467.045 49.38 467.224 49.355 467.364 49.305C467.504 49.2517 467.619 49.1933 467.709 49.13C467.802 49.0667 467.879 49.01 467.939 48.96C468.002 48.9067 468.064 48.88 468.124 48.88C468.197 48.88 468.254 48.9083 468.294 48.965L468.544 49.29C468.434 49.4267 468.309 49.5433 468.169 49.64C468.029 49.7367 467.877 49.8183 467.714 49.885C467.554 49.9483 467.385 49.995 467.209 50.025C467.032 50.055 466.852 50.07 466.669 50.07C466.352 50.07 466.057 50.0117 465.784 49.895C465.514 49.7783 465.279 49.61 465.079 49.39C464.879 49.1667 464.722 48.8933 464.609 48.57C464.495 48.2467 464.439 47.8783 464.439 47.465C464.439 47.0883 464.49 46.74 464.594 46.42C464.7 46.1 464.854 45.825 465.054 45.595C465.257 45.3617 465.505 45.18 465.799 45.05C466.095 44.92 466.435 44.855 466.819 44.855C467.175 44.855 467.489 44.9133 467.759 45.03C468.032 45.1433 468.274 45.305 468.484 45.515L468.249 45.835ZM472.244 47.72C471.834 47.7333 471.484 47.7667 471.194 47.82C470.907 47.87 470.672 47.9367 470.489 48.02C470.309 48.1033 470.177 48.2017 470.094 48.315C470.014 48.4283 469.974 48.555 469.974 48.695C469.974 48.8283 469.996 48.9433 470.039 49.04C470.082 49.1367 470.141 49.2167 470.214 49.28C470.291 49.34 470.379 49.385 470.479 49.415C470.582 49.4417 470.692 49.455 470.809 49.455C470.966 49.455 471.109 49.44 471.239 49.41C471.369 49.3767 471.491 49.33 471.604 49.27C471.721 49.21 471.831 49.1383 471.934 49.055C472.041 48.9717 472.144 48.8767 472.244 48.77V47.72ZM469.369 45.65C469.649 45.38 469.951 45.1783 470.274 45.045C470.597 44.9117 470.956 44.845 471.349 44.845C471.632 44.845 471.884 44.8917 472.104 44.985C472.324 45.0783 472.509 45.2083 472.659 45.375C472.809 45.5417 472.922 45.7433 472.999 45.98C473.076 46.2167 473.114 46.4767 473.114 46.76V50H472.719C472.632 50 472.566 49.9867 472.519 49.96C472.472 49.93 472.436 49.8733 472.409 49.79L472.309 49.31C472.176 49.4333 472.046 49.5433 471.919 49.64C471.792 49.7333 471.659 49.8133 471.519 49.88C471.379 49.9433 471.229 49.9917 471.069 50.025C470.912 50.0617 470.737 50.08 470.544 50.08C470.347 50.08 470.162 50.0533 469.989 50C469.816 49.9433 469.664 49.86 469.534 49.75C469.407 49.64 469.306 49.5017 469.229 49.335C469.156 49.165 469.119 48.965 469.119 48.735C469.119 48.535 469.174 48.3433 469.284 48.16C469.394 47.9733 469.572 47.8083 469.819 47.665C470.066 47.5217 470.387 47.405 470.784 47.315C471.181 47.2217 471.667 47.1683 472.244 47.155V46.76C472.244 46.3667 472.159 46.07 471.989 45.87C471.819 45.6667 471.571 45.565 471.244 45.565C471.024 45.565 470.839 45.5933 470.689 45.65C470.542 45.7033 470.414 45.765 470.304 45.835C470.197 45.9017 470.104 45.9633 470.024 46.02C469.947 46.0733 469.871 46.1 469.794 46.1C469.734 46.1 469.682 46.085 469.639 46.055C469.596 46.0217 469.559 45.9817 469.529 45.935L469.369 45.65ZM475.956 50.08C475.556 50.08 475.248 49.9683 475.031 49.745C474.818 49.5217 474.711 49.2 474.711 48.78V45.68H474.101C474.048 45.68 474.003 45.665 473.966 45.635C473.93 45.6017 473.911 45.5517 473.911 45.485V45.13L474.741 45.025L474.946 43.46C474.956 43.41 474.978 43.37 475.011 43.34C475.048 43.3067 475.095 43.29 475.151 43.29H475.601V45.035H477.066V45.68H475.601V48.72C475.601 48.9333 475.653 49.0917 475.756 49.195C475.86 49.2983 475.993 49.35 476.156 49.35C476.25 49.35 476.33 49.3383 476.396 49.315C476.466 49.2883 476.526 49.26 476.576 49.23C476.626 49.2 476.668 49.1733 476.701 49.15C476.738 49.1233 476.77 49.11 476.796 49.11C476.843 49.11 476.885 49.1383 476.921 49.195L477.181 49.62C477.028 49.7633 476.843 49.8767 476.626 49.96C476.41 50.04 476.186 50.08 475.956 50.08ZM481.346 46.915C481.346 46.7083 481.316 46.52 481.256 46.35C481.199 46.1767 481.114 46.0283 481.001 45.905C480.891 45.7783 480.756 45.6817 480.596 45.615C480.436 45.545 480.254 45.51 480.051 45.51C479.624 45.51 479.286 45.635 479.036 45.885C478.789 46.1317 478.636 46.475 478.576 46.915H481.346ZM482.066 49.29C481.956 49.4233 481.824 49.54 481.671 49.64C481.518 49.7367 481.353 49.8167 481.176 49.88C481.003 49.9433 480.823 49.99 480.636 50.02C480.449 50.0533 480.264 50.07 480.081 50.07C479.731 50.07 479.408 50.0117 479.111 49.895C478.818 49.775 478.563 49.6017 478.346 49.375C478.133 49.145 477.966 48.8617 477.846 48.525C477.726 48.1883 477.666 47.8017 477.666 47.365C477.666 47.0117 477.719 46.6817 477.826 46.375C477.936 46.0683 478.093 45.8033 478.296 45.58C478.499 45.3533 478.748 45.1767 479.041 45.05C479.334 44.92 479.664 44.855 480.031 44.855C480.334 44.855 480.614 44.9067 480.871 45.01C481.131 45.11 481.354 45.2567 481.541 45.45C481.731 45.64 481.879 45.8767 481.986 46.16C482.093 46.44 482.146 46.76 482.146 47.12C482.146 47.26 482.131 47.3533 482.101 47.4C482.071 47.4467 482.014 47.47 481.931 47.47H478.546C478.556 47.79 478.599 48.0683 478.676 48.305C478.756 48.5417 478.866 48.74 479.006 48.9C479.146 49.0567 479.313 49.175 479.506 49.255C479.699 49.3317 479.916 49.37 480.156 49.37C480.379 49.37 480.571 49.345 480.731 49.295C480.894 49.2417 481.034 49.185 481.151 49.125C481.268 49.065 481.364 49.01 481.441 48.96C481.521 48.9067 481.589 48.88 481.646 48.88C481.719 48.88 481.776 48.9083 481.816 48.965L482.066 49.29ZM486.539 46.14C486.373 45.9167 486.193 45.7617 485.999 45.675C485.806 45.585 485.589 45.54 485.349 45.54C484.879 45.54 484.518 45.7083 484.264 46.045C484.011 46.3817 483.884 46.8617 483.884 47.485C483.884 47.815 483.913 48.0983 483.969 48.335C484.026 48.5683 484.109 48.7617 484.219 48.915C484.329 49.065 484.464 49.175 484.624 49.245C484.784 49.315 484.966 49.35 485.169 49.35C485.463 49.35 485.718 49.2833 485.934 49.15C486.154 49.0167 486.356 48.8283 486.539 48.585V46.14ZM487.429 42.635V50H486.899C486.773 50 486.693 49.9383 486.659 49.815L486.579 49.2C486.363 49.46 486.116 49.67 485.839 49.83C485.563 49.99 485.243 50.07 484.879 50.07C484.589 50.07 484.326 50.015 484.089 49.905C483.853 49.7917 483.651 49.6267 483.484 49.41C483.318 49.1933 483.189 48.9233 483.099 48.6C483.009 48.2767 482.964 47.905 482.964 47.485C482.964 47.1117 483.014 46.765 483.114 46.445C483.214 46.1217 483.358 45.8417 483.544 45.605C483.731 45.3683 483.959 45.1833 484.229 45.05C484.503 44.9133 484.809 44.845 485.149 44.845C485.459 44.845 485.724 44.8983 485.944 45.005C486.168 45.1083 486.366 45.2533 486.539 45.44V42.635H487.429Z" fill="black"/>
<path d="M226.59 47.34L225.465 44.425C225.432 44.3383 225.397 44.2383 225.36 44.125C225.323 44.0083 225.288 43.885 225.255 43.755C225.185 44.025 225.113 44.25 225.04 44.43L223.915 47.34H226.59ZM228.61 50H227.86C227.773 50 227.703 49.9783 227.65 49.935C227.597 49.8917 227.557 49.8367 227.53 49.77L226.86 48.04H223.645L222.975 49.77C222.955 49.83 222.917 49.8833 222.86 49.93C222.803 49.9767 222.733 50 222.65 50H221.9L224.765 42.835H225.745L228.61 50ZM230.243 42.635V50H229.353V42.635H230.243ZM232.606 42.635V50H231.716V42.635H232.606ZM236.185 44.855C236.555 44.855 236.888 44.9167 237.185 45.04C237.481 45.1633 237.735 45.3383 237.945 45.565C238.155 45.7917 238.315 46.0667 238.425 46.39C238.538 46.71 238.595 47.0683 238.595 47.465C238.595 47.865 238.538 48.225 238.425 48.545C238.315 48.865 238.155 49.1383 237.945 49.365C237.735 49.5917 237.481 49.7667 237.185 49.89C236.888 50.01 236.555 50.07 236.185 50.07C235.811 50.07 235.475 50.01 235.175 49.89C234.878 49.7667 234.625 49.5917 234.415 49.365C234.205 49.1383 234.043 48.865 233.93 48.545C233.82 48.225 233.765 47.865 233.765 47.465C233.765 47.0683 233.82 46.71 233.93 46.39C234.043 46.0667 234.205 45.7917 234.415 45.565C234.625 45.3383 234.878 45.1633 235.175 45.04C235.475 44.9167 235.811 44.855 236.185 44.855ZM236.185 49.375C236.685 49.375 237.058 49.2083 237.305 48.875C237.551 48.5383 237.675 48.07 237.675 47.47C237.675 46.8667 237.551 46.3967 237.305 46.06C237.058 45.7233 236.685 45.555 236.185 45.555C235.931 45.555 235.71 45.5983 235.52 45.685C235.333 45.7717 235.176 45.8967 235.05 46.06C234.926 46.2233 234.833 46.425 234.77 46.665C234.71 46.9017 234.68 47.17 234.68 47.47C234.68 48.07 234.803 48.5383 235.05 48.875C235.3 49.2083 235.678 49.375 236.185 49.375ZM243.249 45.835C243.222 45.8717 243.195 45.9 243.169 45.92C243.142 45.94 243.105 45.95 243.059 45.95C243.009 45.95 242.954 45.93 242.894 45.89C242.834 45.8467 242.759 45.8 242.669 45.75C242.582 45.7 242.474 45.655 242.344 45.615C242.217 45.5717 242.06 45.55 241.874 45.55C241.624 45.55 241.404 45.595 241.214 45.685C241.024 45.7717 240.864 45.8983 240.734 46.065C240.607 46.2317 240.51 46.4333 240.444 46.67C240.38 46.9067 240.349 47.1717 240.349 47.465C240.349 47.7717 240.384 48.045 240.454 48.285C240.524 48.5217 240.622 48.7217 240.749 48.885C240.879 49.045 241.034 49.1683 241.214 49.255C241.397 49.3383 241.602 49.38 241.829 49.38C242.045 49.38 242.224 49.355 242.364 49.305C242.504 49.2517 242.619 49.1933 242.709 49.13C242.802 49.0667 242.879 49.01 242.939 48.96C243.002 48.9067 243.064 48.88 243.124 48.88C243.197 48.88 243.254 48.9083 243.294 48.965L243.544 49.29C243.434 49.4267 243.309 49.5433 243.169 49.64C243.029 49.7367 242.877 49.8183 242.714 49.885C242.554 49.9483 242.385 49.995 242.209 50.025C242.032 50.055 241.852 50.07 241.669 50.07C241.352 50.07 241.057 50.0117 240.784 49.895C240.514 49.7783 240.279 49.61 240.079 49.39C239.879 49.1667 239.722 48.8933 239.609 48.57C239.495 48.2467 239.439 47.8783 239.439 47.465C239.439 47.0883 239.49 46.74 239.594 46.42C239.7 46.1 239.854 45.825 240.054 45.595C240.257 45.3617 240.505 45.18 240.799 45.05C241.095 44.92 241.435 44.855 241.819 44.855C242.175 44.855 242.489 44.9133 242.759 45.03C243.032 45.1433 243.274 45.305 243.484 45.515L243.249 45.835ZM247.244 47.72C246.834 47.7333 246.484 47.7667 246.194 47.82C245.907 47.87 245.672 47.9367 245.489 48.02C245.309 48.1033 245.177 48.2017 245.094 48.315C245.014 48.4283 244.974 48.555 244.974 48.695C244.974 48.8283 244.996 48.9433 245.039 49.04C245.082 49.1367 245.141 49.2167 245.214 49.28C245.291 49.34 245.379 49.385 245.479 49.415C245.582 49.4417 245.692 49.455 245.809 49.455C245.966 49.455 246.109 49.44 246.239 49.41C246.369 49.3767 246.491 49.33 246.604 49.27C246.721 49.21 246.831 49.1383 246.934 49.055C247.041 48.9717 247.144 48.8767 247.244 48.77V47.72ZM244.369 45.65C244.649 45.38 244.951 45.1783 245.274 45.045C245.597 44.9117 245.956 44.845 246.349 44.845C246.632 44.845 246.884 44.8917 247.104 44.985C247.324 45.0783 247.509 45.2083 247.659 45.375C247.809 45.5417 247.922 45.7433 247.999 45.98C248.076 46.2167 248.114 46.4767 248.114 46.76V50H247.719C247.632 50 247.566 49.9867 247.519 49.96C247.472 49.93 247.436 49.8733 247.409 49.79L247.309 49.31C247.176 49.4333 247.046 49.5433 246.919 49.64C246.792 49.7333 246.659 49.8133 246.519 49.88C246.379 49.9433 246.229 49.9917 246.069 50.025C245.912 50.0617 245.737 50.08 245.544 50.08C245.347 50.08 245.162 50.0533 244.989 50C244.816 49.9433 244.664 49.86 244.534 49.75C244.407 49.64 244.306 49.5017 244.229 49.335C244.156 49.165 244.119 48.965 244.119 48.735C244.119 48.535 244.174 48.3433 244.284 48.16C244.394 47.9733 244.572 47.8083 244.819 47.665C245.066 47.5217 245.387 47.405 245.784 47.315C246.181 47.2217 246.667 47.1683 247.244 47.155V46.76C247.244 46.3667 247.159 46.07 246.989 45.87C246.819 45.6667 246.571 45.565 246.244 45.565C246.024 45.565 245.839 45.5933 245.689 45.65C245.542 45.7033 245.414 45.765 245.304 45.835C245.197 45.9017 245.104 45.9633 245.024 46.02C244.947 46.0733 244.871 46.1 244.794 46.1C244.734 46.1 244.682 46.085 244.639 46.055C244.596 46.0217 244.559 45.9817 244.529 45.935L244.369 45.65ZM250.956 50.08C250.556 50.08 250.248 49.9683 250.031 49.745C249.818 49.5217 249.711 49.2 249.711 48.78V45.68H249.101C249.048 45.68 249.003 45.665 248.966 45.635C248.93 45.6017 248.911 45.5517 248.911 45.485V45.13L249.741 45.025L249.946 43.46C249.956 43.41 249.978 43.37 250.011 43.34C250.048 43.3067 250.095 43.29 250.151 43.29H250.601V45.035H252.066V45.68H250.601V48.72C250.601 48.9333 250.653 49.0917 250.756 49.195C250.86 49.2983 250.993 49.35 251.156 49.35C251.25 49.35 251.33 49.3383 251.396 49.315C251.466 49.2883 251.526 49.26 251.576 49.23C251.626 49.2 251.668 49.1733 251.701 49.15C251.738 49.1233 251.77 49.11 251.796 49.11C251.843 49.11 251.885 49.1383 251.921 49.195L252.181 49.62C252.028 49.7633 251.843 49.8767 251.626 49.96C251.41 50.04 251.186 50.08 250.956 50.08ZM256.346 46.915C256.346 46.7083 256.316 46.52 256.256 46.35C256.199 46.1767 256.114 46.0283 256.001 45.905C255.891 45.7783 255.756 45.6817 255.596 45.615C255.436 45.545 255.254 45.51 255.051 45.51C254.624 45.51 254.286 45.635 254.036 45.885C253.789 46.1317 253.636 46.475 253.576 46.915H256.346ZM257.066 49.29C256.956 49.4233 256.824 49.54 256.671 49.64C256.518 49.7367 256.353 49.8167 256.176 49.88C256.003 49.9433 255.823 49.99 255.636 50.02C255.449 50.0533 255.264 50.07 255.081 50.07C254.731 50.07 254.408 50.0117 254.111 49.895C253.818 49.775 253.563 49.6017 253.346 49.375C253.133 49.145 252.966 48.8617 252.846 48.525C252.726 48.1883 252.666 47.8017 252.666 47.365C252.666 47.0117 252.719 46.6817 252.826 46.375C252.936 46.0683 253.093 45.8033 253.296 45.58C253.499 45.3533 253.748 45.1767 254.041 45.05C254.334 44.92 254.664 44.855 255.031 44.855C255.334 44.855 255.614 44.9067 255.871 45.01C256.131 45.11 256.354 45.2567 256.541 45.45C256.731 45.64 256.879 45.8767 256.986 46.16C257.093 46.44 257.146 46.76 257.146 47.12C257.146 47.26 257.131 47.3533 257.101 47.4C257.071 47.4467 257.014 47.47 256.931 47.47H253.546C253.556 47.79 253.599 48.0683 253.676 48.305C253.756 48.5417 253.866 48.74 254.006 48.9C254.146 49.0567 254.313 49.175 254.506 49.255C254.699 49.3317 254.916 49.37 255.156 49.37C255.379 49.37 255.571 49.345 255.731 49.295C255.894 49.2417 256.034 49.185 256.151 49.125C256.268 49.065 256.364 49.01 256.441 48.96C256.521 48.9067 256.589 48.88 256.646 48.88C256.719 48.88 256.776 48.9083 256.816 48.965L257.066 49.29ZM261.539 46.14C261.373 45.9167 261.193 45.7617 260.999 45.675C260.806 45.585 260.589 45.54 260.349 45.54C259.879 45.54 259.518 45.7083 259.264 46.045C259.011 46.3817 258.884 46.8617 258.884 47.485C258.884 47.815 258.913 48.0983 258.969 48.335C259.026 48.5683 259.109 48.7617 259.219 48.915C259.329 49.065 259.464 49.175 259.624 49.245C259.784 49.315 259.966 49.35 260.169 49.35C260.463 49.35 260.718 49.2833 260.934 49.15C261.154 49.0167 261.356 48.8283 261.539 48.585V46.14ZM262.429 42.635V50H261.899C261.773 50 261.693 49.9383 261.659 49.815L261.579 49.2C261.363 49.46 261.116 49.67 260.839 49.83C260.563 49.99 260.243 50.07 259.879 50.07C259.589 50.07 259.326 50.015 259.089 49.905C258.853 49.7917 258.651 49.6267 258.484 49.41C258.318 49.1933 258.189 48.9233 258.099 48.6C258.009 48.2767 257.964 47.905 257.964 47.485C257.964 47.1117 258.014 46.765 258.114 46.445C258.214 46.1217 258.358 45.8417 258.544 45.605C258.731 45.3683 258.959 45.1833 259.229 45.05C259.503 44.9133 259.809 44.845 260.149 44.845C260.459 44.845 260.724 44.8983 260.944 45.005C261.168 45.1083 261.366 45.2533 261.539 45.44V42.635H262.429Z" fill="black"/>
<path d="M157.271 43.625V46.13H160.216V46.92H157.271V50H156.301V42.835H160.716V43.625H157.271ZM162.16 45.95C162.32 45.6033 162.517 45.3333 162.75 45.14C162.984 44.9433 163.269 44.845 163.605 44.845C163.712 44.845 163.814 44.8567 163.91 44.88C164.01 44.9033 164.099 44.94 164.175 44.99L164.11 45.655C164.09 45.7383 164.04 45.78 163.96 45.78C163.914 45.78 163.845 45.77 163.755 45.75C163.665 45.73 163.564 45.72 163.45 45.72C163.29 45.72 163.147 45.7433 163.02 45.79C162.897 45.8367 162.785 45.9067 162.685 46C162.589 46.09 162.5 46.2033 162.42 46.34C162.344 46.4733 162.274 46.6267 162.21 46.8V50H161.315V44.935H161.825C161.922 44.935 161.989 44.9533 162.025 44.99C162.062 45.0267 162.087 45.09 162.1 45.18L162.16 45.95ZM168.143 46.915C168.143 46.7083 168.113 46.52 168.053 46.35C167.996 46.1767 167.911 46.0283 167.798 45.905C167.688 45.7783 167.553 45.6817 167.393 45.615C167.233 45.545 167.051 45.51 166.848 45.51C166.421 45.51 166.083 45.635 165.833 45.885C165.586 46.1317 165.433 46.475 165.373 46.915H168.143ZM168.863 49.29C168.753 49.4233 168.621 49.54 168.468 49.64C168.315 49.7367 168.15 49.8167 167.973 49.88C167.8 49.9433 167.62 49.99 167.433 50.02C167.246 50.0533 167.061 50.07 166.878 50.07C166.528 50.07 166.205 50.0117 165.908 49.895C165.615 49.775 165.36 49.6017 165.143 49.375C164.93 49.145 164.763 48.8617 164.643 48.525C164.523 48.1883 164.463 47.8017 164.463 47.365C164.463 47.0117 164.516 46.6817 164.623 46.375C164.733 46.0683 164.89 45.8033 165.093 45.58C165.296 45.3533 165.545 45.1767 165.838 45.05C166.131 44.92 166.461 44.855 166.828 44.855C167.131 44.855 167.411 44.9067 167.668 45.01C167.928 45.11 168.151 45.2567 168.338 45.45C168.528 45.64 168.676 45.8767 168.783 46.16C168.89 46.44 168.943 46.76 168.943 47.12C168.943 47.26 168.928 47.3533 168.898 47.4C168.868 47.4467 168.811 47.47 168.728 47.47H165.343C165.353 47.79 165.396 48.0683 165.473 48.305C165.553 48.5417 165.663 48.74 165.803 48.9C165.943 49.0567 166.11 49.175 166.303 49.255C166.496 49.3317 166.713 49.37 166.953 49.37C167.176 49.37 167.368 49.345 167.528 49.295C167.691 49.2417 167.831 49.185 167.948 49.125C168.065 49.065 168.161 49.01 168.238 48.96C168.318 48.9067 168.386 48.88 168.443 48.88C168.516 48.88 168.573 48.9083 168.613 48.965L168.863 49.29ZM173.426 46.915C173.426 46.7083 173.396 46.52 173.336 46.35C173.279 46.1767 173.194 46.0283 173.081 45.905C172.971 45.7783 172.836 45.6817 172.676 45.615C172.516 45.545 172.334 45.51 172.131 45.51C171.704 45.51 171.366 45.635 171.116 45.885C170.869 46.1317 170.716 46.475 170.656 46.915H173.426ZM174.146 49.29C174.036 49.4233 173.904 49.54 173.751 49.64C173.598 49.7367 173.433 49.8167 173.256 49.88C173.083 49.9433 172.903 49.99 172.716 50.02C172.529 50.0533 172.344 50.07 172.161 50.07C171.811 50.07 171.488 50.0117 171.191 49.895C170.898 49.775 170.643 49.6017 170.426 49.375C170.213 49.145 170.046 48.8617 169.926 48.525C169.806 48.1883 169.746 47.8017 169.746 47.365C169.746 47.0117 169.799 46.6817 169.906 46.375C170.016 46.0683 170.173 45.8033 170.376 45.58C170.579 45.3533 170.828 45.1767 171.121 45.05C171.414 44.92 171.744 44.855 172.111 44.855C172.414 44.855 172.694 44.9067 172.951 45.01C173.211 45.11 173.434 45.2567 173.621 45.45C173.811 45.64 173.959 45.8767 174.066 46.16C174.173 46.44 174.226 46.76 174.226 47.12C174.226 47.26 174.211 47.3533 174.181 47.4C174.151 47.4467 174.094 47.47 174.011 47.47H170.626C170.636 47.79 170.679 48.0683 170.756 48.305C170.836 48.5417 170.946 48.74 171.086 48.9C171.226 49.0567 171.393 49.175 171.586 49.255C171.779 49.3317 171.996 49.37 172.236 49.37C172.459 49.37 172.651 49.345 172.811 49.295C172.974 49.2417 173.114 49.185 173.231 49.125C173.348 49.065 173.444 49.01 173.521 48.96C173.601 48.9067 173.669 48.88 173.726 48.88C173.799 48.88 173.856 48.9083 173.896 48.965L174.146 49.29Z" fill="black"/>
<path d="M287.271 43.625V46.13H290.216V46.92H287.271V50H286.301V42.835H290.716V43.625H287.271ZM292.16 45.95C292.32 45.6033 292.517 45.3333 292.75 45.14C292.984 44.9433 293.269 44.845 293.605 44.845C293.712 44.845 293.814 44.8567 293.91 44.88C294.01 44.9033 294.099 44.94 294.175 44.99L294.11 45.655C294.09 45.7383 294.04 45.78 293.96 45.78C293.914 45.78 293.845 45.77 293.755 45.75C293.665 45.73 293.564 45.72 293.45 45.72C293.29 45.72 293.147 45.7433 293.02 45.79C292.897 45.8367 292.785 45.9067 292.685 46C292.589 46.09 292.5 46.2033 292.42 46.34C292.344 46.4733 292.274 46.6267 292.21 46.8V50H291.315V44.935H291.825C291.922 44.935 291.989 44.9533 292.025 44.99C292.062 45.0267 292.087 45.09 292.1 45.18L292.16 45.95ZM298.143 46.915C298.143 46.7083 298.113 46.52 298.053 46.35C297.996 46.1767 297.911 46.0283 297.798 45.905C297.688 45.7783 297.553 45.6817 297.393 45.615C297.233 45.545 297.051 45.51 296.848 45.51C296.421 45.51 296.083 45.635 295.833 45.885C295.586 46.1317 295.433 46.475 295.373 46.915H298.143ZM298.863 49.29C298.753 49.4233 298.621 49.54 298.468 49.64C298.315 49.7367 298.15 49.8167 297.973 49.88C297.8 49.9433 297.62 49.99 297.433 50.02C297.246 50.0533 297.061 50.07 296.878 50.07C296.528 50.07 296.205 50.0117 295.908 49.895C295.615 49.775 295.36 49.6017 295.143 49.375C294.93 49.145 294.763 48.8617 294.643 48.525C294.523 48.1883 294.463 47.8017 294.463 47.365C294.463 47.0117 294.516 46.6817 294.623 46.375C294.733 46.0683 294.89 45.8033 295.093 45.58C295.296 45.3533 295.545 45.1767 295.838 45.05C296.131 44.92 296.461 44.855 296.828 44.855C297.131 44.855 297.411 44.9067 297.668 45.01C297.928 45.11 298.151 45.2567 298.338 45.45C298.528 45.64 298.676 45.8767 298.783 46.16C298.89 46.44 298.943 46.76 298.943 47.12C298.943 47.26 298.928 47.3533 298.898 47.4C298.868 47.4467 298.811 47.47 298.728 47.47H295.343C295.353 47.79 295.396 48.0683 295.473 48.305C295.553 48.5417 295.663 48.74 295.803 48.9C295.943 49.0567 296.11 49.175 296.303 49.255C296.496 49.3317 296.713 49.37 296.953 49.37C297.176 49.37 297.368 49.345 297.528 49.295C297.691 49.2417 297.831 49.185 297.948 49.125C298.065 49.065 298.161 49.01 298.238 48.96C298.318 48.9067 298.386 48.88 298.443 48.88C298.516 48.88 298.573 48.9083 298.613 48.965L298.863 49.29ZM303.426 46.915C303.426 46.7083 303.396 46.52 303.336 46.35C303.279 46.1767 303.194 46.0283 303.081 45.905C302.971 45.7783 302.836 45.6817 302.676 45.615C302.516 45.545 302.334 45.51 302.131 45.51C301.704 45.51 301.366 45.635 301.116 45.885C300.869 46.1317 300.716 46.475 300.656 46.915H303.426ZM304.146 49.29C304.036 49.4233 303.904 49.54 303.751 49.64C303.598 49.7367 303.433 49.8167 303.256 49.88C303.083 49.9433 302.903 49.99 302.716 50.02C302.529 50.0533 302.344 50.07 302.161 50.07C301.811 50.07 301.488 50.0117 301.191 49.895C300.898 49.775 300.643 49.6017 300.426 49.375C300.213 49.145 300.046 48.8617 299.926 48.525C299.806 48.1883 299.746 47.8017 299.746 47.365C299.746 47.0117 299.799 46.6817 299.906 46.375C300.016 46.0683 300.173 45.8033 300.376 45.58C300.579 45.3533 300.828 45.1767 301.121 45.05C301.414 44.92 301.744 44.855 302.111 44.855C302.414 44.855 302.694 44.9067 302.951 45.01C303.211 45.11 303.434 45.2567 303.621 45.45C303.811 45.64 303.959 45.8767 304.066 46.16C304.173 46.44 304.226 46.76 304.226 47.12C304.226 47.26 304.211 47.3533 304.181 47.4C304.151 47.4467 304.094 47.47 304.011 47.47H300.626C300.636 47.79 300.679 48.0683 300.756 48.305C300.836 48.5417 300.946 48.74 301.086 48.9C301.226 49.0567 301.393 49.175 301.586 49.255C301.779 49.3317 301.996 49.37 302.236 49.37C302.459 49.37 302.651 49.345 302.811 49.295C302.974 49.2417 303.114 49.185 303.231 49.125C303.348 49.065 303.444 49.01 303.521 48.96C303.601 48.9067 303.669 48.88 303.726 48.88C303.799 48.88 303.856 48.9083 303.896 48.965L304.146 49.29Z" fill="black"/>
<path d="M500.271 43.625V46.13H503.216V46.92H500.271V50H499.301V42.835H503.716V43.625H500.271ZM505.16 45.95C505.32 45.6033 505.517 45.3333 505.75 45.14C505.984 44.9433 506.269 44.845 506.605 44.845C506.712 44.845 506.814 44.8567 506.91 44.88C507.01 44.9033 507.099 44.94 507.175 44.99L507.11 45.655C507.09 45.7383 507.04 45.78 506.96 45.78C506.914 45.78 506.845 45.77 506.755 45.75C506.665 45.73 506.564 45.72 506.45 45.72C506.29 45.72 506.147 45.7433 506.02 45.79C505.897 45.8367 505.785 45.9067 505.685 46C505.589 46.09 505.5 46.2033 505.42 46.34C505.344 46.4733 505.274 46.6267 505.21 46.8V50H504.315V44.935H504.825C504.922 44.935 504.989 44.9533 505.025 44.99C505.062 45.0267 505.087 45.09 505.1 45.18L505.16 45.95ZM511.143 46.915C511.143 46.7083 511.113 46.52 511.053 46.35C510.996 46.1767 510.911 46.0283 510.798 45.905C510.688 45.7783 510.553 45.6817 510.393 45.615C510.233 45.545 510.051 45.51 509.848 45.51C509.421 45.51 509.083 45.635 508.833 45.885C508.586 46.1317 508.433 46.475 508.373 46.915H511.143ZM511.863 49.29C511.753 49.4233 511.621 49.54 511.468 49.64C511.315 49.7367 511.15 49.8167 510.973 49.88C510.8 49.9433 510.62 49.99 510.433 50.02C510.246 50.0533 510.061 50.07 509.878 50.07C509.528 50.07 509.205 50.0117 508.908 49.895C508.615 49.775 508.36 49.6017 508.143 49.375C507.93 49.145 507.763 48.8617 507.643 48.525C507.523 48.1883 507.463 47.8017 507.463 47.365C507.463 47.0117 507.516 46.6817 507.623 46.375C507.733 46.0683 507.89 45.8033 508.093 45.58C508.296 45.3533 508.545 45.1767 508.838 45.05C509.131 44.92 509.461 44.855 509.828 44.855C510.131 44.855 510.411 44.9067 510.668 45.01C510.928 45.11 511.151 45.2567 511.338 45.45C511.528 45.64 511.676 45.8767 511.783 46.16C511.89 46.44 511.943 46.76 511.943 47.12C511.943 47.26 511.928 47.3533 511.898 47.4C511.868 47.4467 511.811 47.47 511.728 47.47H508.343C508.353 47.79 508.396 48.0683 508.473 48.305C508.553 48.5417 508.663 48.74 508.803 48.9C508.943 49.0567 509.11 49.175 509.303 49.255C509.496 49.3317 509.713 49.37 509.953 49.37C510.176 49.37 510.368 49.345 510.528 49.295C510.691 49.2417 510.831 49.185 510.948 49.125C511.065 49.065 511.161 49.01 511.238 48.96C511.318 48.9067 511.386 48.88 511.443 48.88C511.516 48.88 511.573 48.9083 511.613 48.965L511.863 49.29ZM516.426 46.915C516.426 46.7083 516.396 46.52 516.336 46.35C516.279 46.1767 516.194 46.0283 516.081 45.905C515.971 45.7783 515.836 45.6817 515.676 45.615C515.516 45.545 515.334 45.51 515.131 45.51C514.704 45.51 514.366 45.635 514.116 45.885C513.869 46.1317 513.716 46.475 513.656 46.915H516.426ZM517.146 49.29C517.036 49.4233 516.904 49.54 516.751 49.64C516.598 49.7367 516.433 49.8167 516.256 49.88C516.083 49.9433 515.903 49.99 515.716 50.02C515.529 50.0533 515.344 50.07 515.161 50.07C514.811 50.07 514.488 50.0117 514.191 49.895C513.898 49.775 513.643 49.6017 513.426 49.375C513.213 49.145 513.046 48.8617 512.926 48.525C512.806 48.1883 512.746 47.8017 512.746 47.365C512.746 47.0117 512.799 46.6817 512.906 46.375C513.016 46.0683 513.173 45.8033 513.376 45.58C513.579 45.3533 513.828 45.1767 514.121 45.05C514.414 44.92 514.744 44.855 515.111 44.855C515.414 44.855 515.694 44.9067 515.951 45.01C516.211 45.11 516.434 45.2567 516.621 45.45C516.811 45.64 516.959 45.8767 517.066 46.16C517.173 46.44 517.226 46.76 517.226 47.12C517.226 47.26 517.211 47.3533 517.181 47.4C517.151 47.4467 517.094 47.47 517.011 47.47H513.626C513.636 47.79 513.679 48.0683 513.756 48.305C513.836 48.5417 513.946 48.74 514.086 48.9C514.226 49.0567 514.393 49.175 514.586 49.255C514.779 49.3317 514.996 49.37 515.236 49.37C515.459 49.37 515.651 49.345 515.811 49.295C515.974 49.2417 516.114 49.185 516.231 49.125C516.348 49.065 516.444 49.01 516.521 48.96C516.601 48.9067 516.669 48.88 516.726 48.88C516.799 48.88 516.856 48.9083 516.896 48.965L517.146 49.29Z" fill="black"/>
<path d="M396.271 43.625V46.13H399.216V46.92H396.271V50H395.301V42.835H399.716V43.625H396.271ZM401.16 45.95C401.32 45.6033 401.517 45.3333 401.75 45.14C401.984 44.9433 402.269 44.845 402.605 44.845C402.712 44.845 402.814 44.8567 402.91 44.88C403.01 44.9033 403.099 44.94 403.175 44.99L403.11 45.655C403.09 45.7383 403.04 45.78 402.96 45.78C402.914 45.78 402.845 45.77 402.755 45.75C402.665 45.73 402.564 45.72 402.45 45.72C402.29 45.72 402.147 45.7433 402.02 45.79C401.897 45.8367 401.785 45.9067 401.685 46C401.589 46.09 401.5 46.2033 401.42 46.34C401.344 46.4733 401.274 46.6267 401.21 46.8V50H400.315V44.935H400.825C400.922 44.935 400.989 44.9533 401.025 44.99C401.062 45.0267 401.087 45.09 401.1 45.18L401.16 45.95ZM407.143 46.915C407.143 46.7083 407.113 46.52 407.053 46.35C406.996 46.1767 406.911 46.0283 406.798 45.905C406.688 45.7783 406.553 45.6817 406.393 45.615C406.233 45.545 406.051 45.51 405.848 45.51C405.421 45.51 405.083 45.635 404.833 45.885C404.586 46.1317 404.433 46.475 404.373 46.915H407.143ZM407.863 49.29C407.753 49.4233 407.621 49.54 407.468 49.64C407.315 49.7367 407.15 49.8167 406.973 49.88C406.8 49.9433 406.62 49.99 406.433 50.02C406.246 50.0533 406.061 50.07 405.878 50.07C405.528 50.07 405.205 50.0117 404.908 49.895C404.615 49.775 404.36 49.6017 404.143 49.375C403.93 49.145 403.763 48.8617 403.643 48.525C403.523 48.1883 403.463 47.8017 403.463 47.365C403.463 47.0117 403.516 46.6817 403.623 46.375C403.733 46.0683 403.89 45.8033 404.093 45.58C404.296 45.3533 404.545 45.1767 404.838 45.05C405.131 44.92 405.461 44.855 405.828 44.855C406.131 44.855 406.411 44.9067 406.668 45.01C406.928 45.11 407.151 45.2567 407.338 45.45C407.528 45.64 407.676 45.8767 407.783 46.16C407.89 46.44 407.943 46.76 407.943 47.12C407.943 47.26 407.928 47.3533 407.898 47.4C407.868 47.4467 407.811 47.47 407.728 47.47H404.343C404.353 47.79 404.396 48.0683 404.473 48.305C404.553 48.5417 404.663 48.74 404.803 48.9C404.943 49.0567 405.11 49.175 405.303 49.255C405.496 49.3317 405.713 49.37 405.953 49.37C406.176 49.37 406.368 49.345 406.528 49.295C406.691 49.2417 406.831 49.185 406.948 49.125C407.065 49.065 407.161 49.01 407.238 48.96C407.318 48.9067 407.386 48.88 407.443 48.88C407.516 48.88 407.573 48.9083 407.613 48.965L407.863 49.29ZM412.426 46.915C412.426 46.7083 412.396 46.52 412.336 46.35C412.279 46.1767 412.194 46.0283 412.081 45.905C411.971 45.7783 411.836 45.6817 411.676 45.615C411.516 45.545 411.334 45.51 411.131 45.51C410.704 45.51 410.366 45.635 410.116 45.885C409.869 46.1317 409.716 46.475 409.656 46.915H412.426ZM413.146 49.29C413.036 49.4233 412.904 49.54 412.751 49.64C412.598 49.7367 412.433 49.8167 412.256 49.88C412.083 49.9433 411.903 49.99 411.716 50.02C411.529 50.0533 411.344 50.07 411.161 50.07C410.811 50.07 410.488 50.0117 410.191 49.895C409.898 49.775 409.643 49.6017 409.426 49.375C409.213 49.145 409.046 48.8617 408.926 48.525C408.806 48.1883 408.746 47.8017 408.746 47.365C408.746 47.0117 408.799 46.6817 408.906 46.375C409.016 46.0683 409.173 45.8033 409.376 45.58C409.579 45.3533 409.828 45.1767 410.121 45.05C410.414 44.92 410.744 44.855 411.111 44.855C411.414 44.855 411.694 44.9067 411.951 45.01C412.211 45.11 412.434 45.2567 412.621 45.45C412.811 45.64 412.959 45.8767 413.066 46.16C413.173 46.44 413.226 46.76 413.226 47.12C413.226 47.26 413.211 47.3533 413.181 47.4C413.151 47.4467 413.094 47.47 413.011 47.47H409.626C409.636 47.79 409.679 48.0683 409.756 48.305C409.836 48.5417 409.946 48.74 410.086 48.9C410.226 49.0567 410.393 49.175 410.586 49.255C410.779 49.3317 410.996 49.37 411.236 49.37C411.459 49.37 411.651 49.345 411.811 49.295C411.974 49.2417 412.114 49.185 412.231 49.125C412.348 49.065 412.444 49.01 412.521 48.96C412.601 48.9067 412.669 48.88 412.726 48.88C412.799 48.88 412.856 48.9083 412.896 48.965L413.146 49.29Z" fill="black"/>
<path d="M255.872 81.835V89H254.902V85.74H251.037V89H250.067V81.835H251.037V85.03H254.902V81.835H255.872ZM260.728 85.915C260.728 85.7083 260.698 85.52 260.638 85.35C260.581 85.1767 260.496 85.0283 260.383 84.905C260.273 84.7783 260.138 84.6817 259.978 84.615C259.818 84.545 259.636 84.51 259.433 84.51C259.006 84.51 258.668 84.635 258.418 84.885C258.171 85.1317 258.018 85.475 257.958 85.915H260.728ZM261.448 88.29C261.338 88.4233 261.206 88.54 261.053 88.64C260.899 88.7367 260.734 88.8167 260.558 88.88C260.384 88.9433 260.204 88.99 260.018 89.02C259.831 89.0533 259.646 89.07 259.463 89.07C259.113 89.07 258.789 89.0117 258.493 88.895C258.199 88.775 257.944 88.6017 257.728 88.375C257.514 88.145 257.348 87.8617 257.228 87.525C257.108 87.1883 257.048 86.8017 257.048 86.365C257.048 86.0117 257.101 85.6817 257.208 85.375C257.318 85.0683 257.474 84.8033 257.678 84.58C257.881 84.3533 258.129 84.1767 258.423 84.05C258.716 83.92 259.046 83.855 259.413 83.855C259.716 83.855 259.996 83.9067 260.253 84.01C260.513 84.11 260.736 84.2567 260.923 84.45C261.113 84.64 261.261 84.8767 261.368 85.16C261.474 85.44 261.528 85.76 261.528 86.12C261.528 86.26 261.513 86.3533 261.483 86.4C261.453 86.4467 261.396 86.47 261.313 86.47H257.928C257.938 86.79 257.981 87.0683 258.058 87.305C258.138 87.5417 258.248 87.74 258.388 87.9C258.528 88.0567 258.694 88.175 258.888 88.255C259.081 88.3317 259.298 88.37 259.538 88.37C259.761 88.37 259.953 88.345 260.113 88.295C260.276 88.2417 260.416 88.185 260.533 88.125C260.649 88.065 260.746 88.01 260.823 87.96C260.903 87.9067 260.971 87.88 261.028 87.88C261.101 87.88 261.158 87.9083 261.198 87.965L261.448 88.29ZM265.366 86.72C264.956 86.7333 264.606 86.7667 264.316 86.82C264.029 86.87 263.794 86.9367 263.611 87.02C263.431 87.1033 263.299 87.2017 263.216 87.315C263.136 87.4283 263.096 87.555 263.096 87.695C263.096 87.8283 263.118 87.9433 263.161 88.04C263.204 88.1367 263.263 88.2167 263.336 88.28C263.413 88.34 263.501 88.385 263.601 88.415C263.704 88.4417 263.814 88.455 263.931 88.455C264.088 88.455 264.231 88.44 264.361 88.41C264.491 88.3767 264.613 88.33 264.726 88.27C264.843 88.21 264.953 88.1383 265.056 88.055C265.163 87.9717 265.266 87.8767 265.366 87.77V86.72ZM262.491 84.65C262.771 84.38 263.073 84.1783 263.396 84.045C263.719 83.9117 264.078 83.845 264.471 83.845C264.754 83.845 265.006 83.8917 265.226 83.985C265.446 84.0783 265.631 84.2083 265.781 84.375C265.931 84.5417 266.044 84.7433 266.121 84.98C266.198 85.2167 266.236 85.4767 266.236 85.76V89H265.841C265.754 89 265.688 88.9867 265.641 88.96C265.594 88.93 265.558 88.8733 265.531 88.79L265.431 88.31C265.298 88.4333 265.168 88.5433 265.041 88.64C264.914 88.7333 264.781 88.8133 264.641 88.88C264.501 88.9433 264.351 88.9917 264.191 89.025C264.034 89.0617 263.859 89.08 263.666 89.08C263.469 89.08 263.284 89.0533 263.111 89C262.938 88.9433 262.786 88.86 262.656 88.75C262.529 88.64 262.428 88.5017 262.351 88.335C262.278 88.165 262.241 87.965 262.241 87.735C262.241 87.535 262.296 87.3433 262.406 87.16C262.516 86.9733 262.694 86.8083 262.941 86.665C263.188 86.5217 263.509 86.405 263.906 86.315C264.303 86.2217 264.789 86.1683 265.366 86.155V85.76C265.366 85.3667 265.281 85.07 265.111 84.87C264.941 84.6667 264.693 84.565 264.366 84.565C264.146 84.565 263.961 84.5933 263.811 84.65C263.664 84.7033 263.536 84.765 263.426 84.835C263.319 84.9017 263.226 84.9633 263.146 85.02C263.069 85.0733 262.993 85.1 262.916 85.1C262.856 85.1 262.804 85.085 262.761 85.055C262.718 85.0217 262.681 84.9817 262.651 84.935L262.491 84.65ZM268.487 87.78C268.65 88 268.828 88.155 269.022 88.245C269.215 88.335 269.432 88.38 269.672 88.38C270.145 88.38 270.508 88.2117 270.762 87.875C271.015 87.5383 271.142 87.0583 271.142 86.435C271.142 86.105 271.112 85.8217 271.052 85.585C270.995 85.3483 270.912 85.155 270.802 85.005C270.692 84.8517 270.557 84.74 270.397 84.67C270.237 84.6 270.055 84.565 269.852 84.565C269.562 84.565 269.307 84.6317 269.087 84.765C268.87 84.8983 268.67 85.0867 268.487 85.33V87.78ZM268.442 84.72C268.655 84.4567 268.902 84.245 269.182 84.085C269.462 83.925 269.782 83.845 270.142 83.845C270.435 83.845 270.7 83.9017 270.937 84.015C271.173 84.125 271.375 84.29 271.542 84.51C271.708 84.7267 271.837 84.9967 271.927 85.32C272.017 85.6433 272.062 86.015 272.062 86.435C272.062 86.8083 272.012 87.1567 271.912 87.48C271.812 87.8 271.667 88.0783 271.477 88.315C271.29 88.5483 271.06 88.7333 270.787 88.87C270.517 89.0033 270.212 89.07 269.872 89.07C269.562 89.07 269.295 89.0183 269.072 88.915C268.852 88.8083 268.657 88.6617 268.487 88.475V90.715H267.592V83.935H268.127C268.253 83.935 268.332 83.9967 268.362 84.12L268.442 84.72ZM278.706 84.77C278.666 84.8433 278.604 84.88 278.521 84.88C278.471 84.88 278.414 84.8617 278.351 84.825C278.287 84.7883 278.209 84.7483 278.116 84.705C278.026 84.6583 277.917 84.6167 277.791 84.58C277.664 84.54 277.514 84.52 277.341 84.52C277.191 84.52 277.056 84.54 276.936 84.58C276.816 84.6167 276.712 84.6683 276.626 84.735C276.542 84.8017 276.477 84.88 276.431 84.97C276.387 85.0567 276.366 85.1517 276.366 85.255C276.366 85.385 276.402 85.4933 276.476 85.58C276.552 85.6667 276.652 85.7417 276.776 85.805C276.899 85.8683 277.039 85.925 277.196 85.975C277.352 86.0217 277.512 86.0733 277.676 86.13C277.842 86.1833 278.004 86.2433 278.161 86.31C278.317 86.3767 278.457 86.46 278.581 86.56C278.704 86.66 278.802 86.7833 278.876 86.93C278.952 87.0733 278.991 87.2467 278.991 87.45C278.991 87.6833 278.949 87.9 278.866 88.1C278.782 88.2967 278.659 88.4683 278.496 88.615C278.332 88.7583 278.132 88.8717 277.896 88.955C277.659 89.0383 277.386 89.08 277.076 89.08C276.722 89.08 276.402 89.0233 276.116 88.91C275.829 88.7933 275.586 88.645 275.386 88.465L275.596 88.125C275.622 88.0817 275.654 88.0483 275.691 88.025C275.727 88.0017 275.774 87.99 275.831 87.99C275.891 87.99 275.954 88.0133 276.021 88.06C276.087 88.1067 276.167 88.1583 276.261 88.215C276.357 88.2717 276.474 88.3233 276.611 88.37C276.747 88.4167 276.917 88.44 277.121 88.44C277.294 88.44 277.446 88.4183 277.576 88.375C277.706 88.3283 277.814 88.2667 277.901 88.19C277.987 88.1133 278.051 88.025 278.091 87.925C278.134 87.825 278.156 87.7183 278.156 87.605C278.156 87.465 278.117 87.35 278.041 87.26C277.967 87.1667 277.869 87.0883 277.746 87.025C277.622 86.9583 277.481 86.9017 277.321 86.855C277.164 86.805 277.002 86.7533 276.836 86.7C276.672 86.6467 276.511 86.5867 276.351 86.52C276.194 86.45 276.054 86.3633 275.931 86.26C275.807 86.1567 275.707 86.03 275.631 85.88C275.557 85.7267 275.521 85.5417 275.521 85.325C275.521 85.1317 275.561 84.9467 275.641 84.77C275.721 84.59 275.837 84.4333 275.991 84.3C276.144 84.1633 276.332 84.055 276.556 83.975C276.779 83.895 277.034 83.855 277.321 83.855C277.654 83.855 277.952 83.9083 278.216 84.015C278.482 84.1183 278.712 84.2617 278.906 84.445L278.706 84.77ZM283.472 85.915C283.472 85.7083 283.442 85.52 283.382 85.35C283.325 85.1767 283.24 85.0283 283.127 84.905C283.017 84.7783 282.882 84.6817 282.722 84.615C282.562 84.545 282.38 84.51 282.177 84.51C281.75 84.51 281.412 84.635 281.162 84.885C280.915 85.1317 280.762 85.475 280.702 85.915H283.472ZM284.192 88.29C284.082 88.4233 283.95 88.54 283.797 88.64C283.644 88.7367 283.479 88.8167 283.302 88.88C283.129 88.9433 282.949 88.99 282.762 89.02C282.575 89.0533 282.39 89.07 282.207 89.07C281.857 89.07 281.534 89.0117 281.237 88.895C280.944 88.775 280.689 88.6017 280.472 88.375C280.259 88.145 280.092 87.8617 279.972 87.525C279.852 87.1883 279.792 86.8017 279.792 86.365C279.792 86.0117 279.845 85.6817 279.952 85.375C280.062 85.0683 280.219 84.8033 280.422 84.58C280.625 84.3533 280.874 84.1767 281.167 84.05C281.46 83.92 281.79 83.855 282.157 83.855C282.46 83.855 282.74 83.9067 282.997 84.01C283.257 84.11 283.48 84.2567 283.667 84.45C283.857 84.64 284.005 84.8767 284.112 85.16C284.219 85.44 284.272 85.76 284.272 86.12C284.272 86.26 284.257 86.3533 284.227 86.4C284.197 86.4467 284.14 86.47 284.057 86.47H280.672C280.682 86.79 280.725 87.0683 280.802 87.305C280.882 87.5417 280.992 87.74 281.132 87.9C281.272 88.0567 281.439 88.175 281.632 88.255C281.825 88.3317 282.042 88.37 282.282 88.37C282.505 88.37 282.697 88.345 282.857 88.295C283.02 88.2417 283.16 88.185 283.277 88.125C283.394 88.065 283.49 88.01 283.567 87.96C283.647 87.9067 283.715 87.88 283.772 87.88C283.845 87.88 283.902 87.9083 283.942 87.965L284.192 88.29ZM288.89 84.835C288.863 84.8717 288.837 84.9 288.81 84.92C288.783 84.94 288.747 84.95 288.7 84.95C288.65 84.95 288.595 84.93 288.535 84.89C288.475 84.8467 288.4 84.8 288.31 84.75C288.223 84.7 288.115 84.655 287.985 84.615C287.858 84.5717 287.702 84.55 287.515 84.55C287.265 84.55 287.045 84.595 286.855 84.685C286.665 84.7717 286.505 84.8983 286.375 85.065C286.248 85.2317 286.152 85.4333 286.085 85.67C286.022 85.9067 285.99 86.1717 285.99 86.465C285.99 86.7717 286.025 87.045 286.095 87.285C286.165 87.5217 286.263 87.7217 286.39 87.885C286.52 88.045 286.675 88.1683 286.855 88.255C287.038 88.3383 287.243 88.38 287.47 88.38C287.687 88.38 287.865 88.355 288.005 88.305C288.145 88.2517 288.26 88.1933 288.35 88.13C288.443 88.0667 288.52 88.01 288.58 87.96C288.643 87.9067 288.705 87.88 288.765 87.88C288.838 87.88 288.895 87.9083 288.935 87.965L289.185 88.29C289.075 88.4267 288.95 88.5433 288.81 88.64C288.67 88.7367 288.518 88.8183 288.355 88.885C288.195 88.9483 288.027 88.995 287.85 89.025C287.673 89.055 287.493 89.07 287.31 89.07C286.993 89.07 286.698 89.0117 286.425 88.895C286.155 88.7783 285.92 88.61 285.72 88.39C285.52 88.1667 285.363 87.8933 285.25 87.57C285.137 87.2467 285.08 86.8783 285.08 86.465C285.08 86.0883 285.132 85.74 285.235 85.42C285.342 85.1 285.495 84.825 285.695 84.595C285.898 84.3617 286.147 84.18 286.44 84.05C286.737 83.92 287.077 83.855 287.46 83.855C287.817 83.855 288.13 83.9133 288.4 84.03C288.673 84.1433 288.915 84.305 289.125 84.515L288.89 84.835ZM294.841 89H293.951V84.68H291.341V87.72C291.341 87.9333 291.392 88.0917 291.496 88.195C291.599 88.2983 291.732 88.35 291.896 88.35C291.989 88.35 292.069 88.3383 292.136 88.315C292.206 88.2883 292.266 88.26 292.316 88.23C292.366 88.2 292.407 88.1733 292.441 88.15C292.477 88.1233 292.509 88.11 292.536 88.11C292.582 88.11 292.624 88.1383 292.661 88.195L292.921 88.62C292.767 88.7633 292.582 88.8767 292.366 88.96C292.149 89.04 291.926 89.08 291.696 89.08C291.296 89.08 290.987 88.9683 290.771 88.745C290.557 88.5217 290.451 88.2 290.451 87.78V84.68H289.841C289.787 84.68 289.742 84.665 289.706 84.635C289.669 84.6017 289.651 84.5517 289.651 84.485V84.13L290.481 84.02L290.686 82.46C290.696 82.41 290.717 82.37 290.751 82.34C290.787 82.3067 290.834 82.29 290.891 82.29H291.341V84.035H294.841V89ZM295.061 82.31C295.061 82.3967 295.042 82.4783 295.006 82.555C294.972 82.6283 294.926 82.6933 294.866 82.75C294.809 82.8067 294.742 82.8517 294.666 82.885C294.589 82.9183 294.507 82.935 294.421 82.935C294.334 82.935 294.252 82.9183 294.176 82.885C294.102 82.8517 294.037 82.8067 293.981 82.75C293.924 82.6933 293.879 82.6283 293.846 82.555C293.812 82.4783 293.796 82.3967 293.796 82.31C293.796 82.2233 293.812 82.1417 293.846 82.065C293.879 81.985 293.924 81.9167 293.981 81.86C294.037 81.8 294.102 81.7533 294.176 81.72C294.252 81.6867 294.334 81.67 294.421 81.67C294.507 81.67 294.589 81.6867 294.666 81.72C294.742 81.7533 294.809 81.8 294.866 81.86C294.926 81.9167 294.972 81.985 295.006 82.065C295.042 82.1417 295.061 82.2233 295.061 82.31ZM298.438 83.855C298.808 83.855 299.141 83.9167 299.438 84.04C299.734 84.1633 299.988 84.3383 300.198 84.565C300.408 84.7917 300.568 85.0667 300.678 85.39C300.791 85.71 300.848 86.0683 300.848 86.465C300.848 86.865 300.791 87.225 300.678 87.545C300.568 87.865 300.408 88.1383 300.198 88.365C299.988 88.5917 299.734 88.7667 299.438 88.89C299.141 89.01 298.808 89.07 298.438 89.07C298.064 89.07 297.728 89.01 297.428 88.89C297.131 88.7667 296.878 88.5917 296.668 88.365C296.458 88.1383 296.296 87.865 296.183 87.545C296.073 87.225 296.018 86.865 296.018 86.465C296.018 86.0683 296.073 85.71 296.183 85.39C296.296 85.0667 296.458 84.7917 296.668 84.565C296.878 84.3383 297.131 84.1633 297.428 84.04C297.728 83.9167 298.064 83.855 298.438 83.855ZM298.438 88.375C298.938 88.375 299.311 88.2083 299.558 87.875C299.804 87.5383 299.928 87.07 299.928 86.47C299.928 85.8667 299.804 85.3967 299.558 85.06C299.311 84.7233 298.938 84.555 298.438 84.555C298.184 84.555 297.963 84.5983 297.773 84.685C297.586 84.7717 297.429 84.8967 297.303 85.06C297.179 85.2233 297.086 85.425 297.023 85.665C296.963 85.9017 296.933 86.17 296.933 86.47C296.933 87.07 297.056 87.5383 297.303 87.875C297.553 88.2083 297.931 88.375 298.438 88.375ZM302.816 84.67C302.926 84.5467 303.043 84.435 303.166 84.335C303.29 84.235 303.42 84.15 303.556 84.08C303.696 84.0067 303.843 83.9517 303.996 83.915C304.153 83.875 304.321 83.855 304.501 83.855C304.778 83.855 305.021 83.9017 305.231 83.995C305.445 84.085 305.621 84.215 305.761 84.385C305.905 84.5517 306.013 84.7533 306.086 84.99C306.16 85.2267 306.196 85.4883 306.196 85.775V89H305.301V85.775C305.301 85.3917 305.213 85.095 305.036 84.885C304.863 84.6717 304.598 84.565 304.241 84.565C303.978 84.565 303.731 84.6283 303.501 84.755C303.275 84.8817 303.065 85.0533 302.871 85.27V89H301.976V83.935H302.511C302.638 83.935 302.716 83.9967 302.746 84.12L302.816 84.67Z" fill="black"/>
</svg>
