<svg width="600" height="320" viewBox="0 0 600 320" fill="none" xmlns="http://www.w3.org/2000/svg">
<g clip-path="url(#clip0_41_364)">
<rect width="600" height="320" fill="white"/>
<path d="M295 60.5C349.334 60.5 398.499 72.4068 434.062 91.6328C469.646 110.87 491.5 137.362 491.5 166.5C491.5 195.638 469.646 222.13 434.062 241.367C398.499 260.593 349.334 272.5 295 272.5C240.666 272.5 191.501 260.593 155.938 241.367C120.354 222.13 98.5 195.638 98.5 166.5C98.5 137.362 120.354 110.87 155.938 91.6328C191.501 72.4068 240.666 60.5 295 60.5Z" fill="white" stroke="black"/>
<rect x="157" y="138" width="19" height="19" rx="2" fill="#81B29A"/>
<rect x="232" y="87" width="19" height="19" rx="2" fill="#81B29A"/>
<rect x="167" y="189" width="19" height="19" rx="2" fill="#81B29A"/>
<rect x="247" y="230" width="19" height="20" rx="2" fill="#81B29A"/>
<rect x="413" y="180" width="19" height="19" rx="2" fill="#81B29A"/>
<rect x="241" y="144" width="19" height="19" rx="2" fill="#81B29A"/>
<rect x="290" y="187" width="19" height="19" rx="2" fill="#81B29A"/>
<rect x="350" y="217" width="19" height="19" rx="2" fill="#F2CC8F"/>
<rect x="390" y="125" width="19" height="19" rx="2" fill="#F2CC8F"/>
<rect x="324" y="133" width="19" height="19" rx="2" fill="#81B29A"/>
<rect x="326" y="82" width="19" height="19" rx="2" fill="#81B29A"/>
<path d="M258.076 286.55C258.353 286.55 258.596 286.513 258.806 286.44C259.019 286.367 259.198 286.265 259.341 286.135C259.488 286.002 259.598 285.843 259.671 285.66C259.744 285.477 259.781 285.275 259.781 285.055C259.781 284.598 259.639 284.242 259.356 283.985C259.076 283.728 258.649 283.6 258.076 283.6H256.926V286.55H258.076ZM258.076 282.835C258.529 282.835 258.923 282.888 259.256 282.995C259.593 283.098 259.871 283.247 260.091 283.44C260.311 283.633 260.474 283.867 260.581 284.14C260.691 284.413 260.746 284.718 260.746 285.055C260.746 285.388 260.688 285.693 260.571 285.97C260.454 286.247 260.283 286.485 260.056 286.685C259.833 286.885 259.554 287.042 259.221 287.155C258.891 287.265 258.509 287.32 258.076 287.32H256.926V290H255.961V282.835H258.076ZM263.628 284.855C263.998 284.855 264.331 284.917 264.628 285.04C264.925 285.163 265.178 285.338 265.388 285.565C265.598 285.792 265.758 286.067 265.868 286.39C265.981 286.71 266.038 287.068 266.038 287.465C266.038 287.865 265.981 288.225 265.868 288.545C265.758 288.865 265.598 289.138 265.388 289.365C265.178 289.592 264.925 289.767 264.628 289.89C264.331 290.01 263.998 290.07 263.628 290.07C263.255 290.07 262.918 290.01 262.618 289.89C262.321 289.767 262.068 289.592 261.858 289.365C261.648 289.138 261.486 288.865 261.373 288.545C261.263 288.225 261.208 287.865 261.208 287.465C261.208 287.068 261.263 286.71 261.373 286.39C261.486 286.067 261.648 285.792 261.858 285.565C262.068 285.338 262.321 285.163 262.618 285.04C262.918 284.917 263.255 284.855 263.628 284.855ZM263.628 289.375C264.128 289.375 264.501 289.208 264.748 288.875C264.995 288.538 265.118 288.07 265.118 287.47C265.118 286.867 264.995 286.397 264.748 286.06C264.501 285.723 264.128 285.555 263.628 285.555C263.375 285.555 263.153 285.598 262.963 285.685C262.776 285.772 262.62 285.897 262.493 286.06C262.37 286.223 262.276 286.425 262.213 286.665C262.153 286.902 262.123 287.17 262.123 287.47C262.123 288.07 262.246 288.538 262.493 288.875C262.743 289.208 263.121 289.375 263.628 289.375ZM269.302 284.855C269.672 284.855 270.005 284.917 270.302 285.04C270.599 285.163 270.852 285.338 271.062 285.565C271.272 285.792 271.432 286.067 271.542 286.39C271.655 286.71 271.712 287.068 271.712 287.465C271.712 287.865 271.655 288.225 271.542 288.545C271.432 288.865 271.272 289.138 271.062 289.365C270.852 289.592 270.599 289.767 270.302 289.89C270.005 290.01 269.672 290.07 269.302 290.07C268.929 290.07 268.592 290.01 268.292 289.89C267.995 289.767 267.742 289.592 267.532 289.365C267.322 289.138 267.16 288.865 267.047 288.545C266.937 288.225 266.882 287.865 266.882 287.465C266.882 287.068 266.937 286.71 267.047 286.39C267.16 286.067 267.322 285.792 267.532 285.565C267.742 285.338 267.995 285.163 268.292 285.04C268.592 284.917 268.929 284.855 269.302 284.855ZM269.302 289.375C269.802 289.375 270.175 289.208 270.422 288.875C270.669 288.538 270.792 288.07 270.792 287.47C270.792 286.867 270.669 286.397 270.422 286.06C270.175 285.723 269.802 285.555 269.302 285.555C269.049 285.555 268.827 285.598 268.637 285.685C268.45 285.772 268.294 285.897 268.167 286.06C268.044 286.223 267.95 286.425 267.887 286.665C267.827 286.902 267.797 287.17 267.797 287.47C267.797 288.07 267.92 288.538 268.167 288.875C268.417 289.208 268.795 289.375 269.302 289.375ZM273.761 282.635V290H272.871V282.635H273.761ZM278.283 286.855C278.283 287.568 278.373 288.262 278.553 288.935C278.736 289.608 279.003 290.248 279.353 290.855C279.406 290.958 279.419 291.037 279.393 291.09C279.366 291.147 279.328 291.192 279.278 291.225L278.883 291.465C278.633 291.082 278.419 290.702 278.243 290.325C278.069 289.948 277.928 289.57 277.818 289.19C277.711 288.81 277.633 288.428 277.583 288.045C277.533 287.658 277.508 287.262 277.508 286.855C277.508 286.452 277.533 286.057 277.583 285.67C277.633 285.283 277.711 284.902 277.818 284.525C277.928 284.145 278.069 283.767 278.243 283.39C278.419 283.013 278.633 282.632 278.883 282.245L279.278 282.49C279.328 282.523 279.366 282.568 279.393 282.625C279.419 282.678 279.406 282.755 279.353 282.855C279.003 283.462 278.736 284.102 278.553 284.775C278.373 285.448 278.283 286.142 278.283 286.855ZM284.304 283.955C284.274 284.005 284.24 284.043 284.204 284.07C284.17 284.093 284.129 284.105 284.079 284.105C284.022 284.105 283.955 284.077 283.879 284.02C283.802 283.963 283.705 283.902 283.589 283.835C283.475 283.765 283.337 283.702 283.174 283.645C283.014 283.588 282.819 283.56 282.589 283.56C282.372 283.56 282.18 283.59 282.014 283.65C281.85 283.707 281.712 283.785 281.599 283.885C281.489 283.985 281.405 284.103 281.349 284.24C281.292 284.373 281.264 284.518 281.264 284.675C281.264 284.875 281.312 285.042 281.409 285.175C281.509 285.305 281.639 285.417 281.799 285.51C281.962 285.603 282.145 285.685 282.349 285.755C282.555 285.822 282.765 285.892 282.979 285.965C283.195 286.038 283.405 286.122 283.609 286.215C283.815 286.305 283.999 286.42 284.159 286.56C284.322 286.7 284.452 286.872 284.549 287.075C284.649 287.278 284.699 287.528 284.699 287.825C284.699 288.138 284.645 288.433 284.539 288.71C284.432 288.983 284.275 289.222 284.069 289.425C283.865 289.628 283.614 289.788 283.314 289.905C283.017 290.022 282.679 290.08 282.299 290.08C281.832 290.08 281.409 289.997 281.029 289.83C280.649 289.66 280.324 289.432 280.054 289.145L280.334 288.685C280.36 288.648 280.392 288.618 280.429 288.595C280.469 288.568 280.512 288.555 280.559 288.555C280.602 288.555 280.65 288.573 280.704 288.61C280.76 288.643 280.824 288.687 280.894 288.74C280.964 288.793 281.044 288.852 281.134 288.915C281.224 288.978 281.325 289.037 281.439 289.09C281.555 289.143 281.687 289.188 281.834 289.225C281.98 289.258 282.145 289.275 282.329 289.275C282.559 289.275 282.764 289.243 282.944 289.18C283.124 289.117 283.275 289.028 283.399 288.915C283.525 288.798 283.622 288.66 283.689 288.5C283.755 288.34 283.789 288.162 283.789 287.965C283.789 287.748 283.739 287.572 283.639 287.435C283.542 287.295 283.414 287.178 283.254 287.085C283.094 286.992 282.91 286.913 282.704 286.85C282.497 286.783 282.287 286.717 282.074 286.65C281.86 286.58 281.65 286.5 281.444 286.41C281.237 286.32 281.054 286.203 280.894 286.06C280.734 285.917 280.604 285.738 280.504 285.525C280.407 285.308 280.359 285.042 280.359 284.725C280.359 284.472 280.407 284.227 280.504 283.99C280.604 283.753 280.747 283.543 280.934 283.36C281.124 283.177 281.355 283.03 281.629 282.92C281.905 282.81 282.222 282.755 282.579 282.755C282.979 282.755 283.342 282.818 283.669 282.945C283.999 283.072 284.289 283.255 284.539 283.495L284.304 283.955ZM287.189 290.08C286.789 290.08 286.48 289.968 286.264 289.745C286.05 289.522 285.944 289.2 285.944 288.78V285.68H285.334C285.28 285.68 285.235 285.665 285.199 285.635C285.162 285.602 285.144 285.552 285.144 285.485V285.13L285.974 285.025L286.179 283.46C286.189 283.41 286.21 283.37 286.244 283.34C286.28 283.307 286.327 283.29 286.384 283.29H286.834V285.035H288.299V285.68H286.834V288.72C286.834 288.933 286.885 289.092 286.989 289.195C287.092 289.298 287.225 289.35 287.389 289.35C287.482 289.35 287.562 289.338 287.629 289.315C287.699 289.288 287.759 289.26 287.809 289.23C287.859 289.2 287.9 289.173 287.934 289.15C287.97 289.123 288.002 289.11 288.029 289.11C288.075 289.11 288.117 289.138 288.154 289.195L288.414 289.62C288.26 289.763 288.075 289.877 287.859 289.96C287.642 290.04 287.419 290.08 287.189 290.08ZM291.963 287.72C291.553 287.733 291.203 287.767 290.913 287.82C290.626 287.87 290.391 287.937 290.208 288.02C290.028 288.103 289.896 288.202 289.813 288.315C289.733 288.428 289.693 288.555 289.693 288.695C289.693 288.828 289.714 288.943 289.758 289.04C289.801 289.137 289.859 289.217 289.933 289.28C290.009 289.34 290.098 289.385 290.198 289.415C290.301 289.442 290.411 289.455 290.528 289.455C290.684 289.455 290.828 289.44 290.958 289.41C291.088 289.377 291.209 289.33 291.323 289.27C291.439 289.21 291.549 289.138 291.653 289.055C291.759 288.972 291.863 288.877 291.963 288.77V287.72ZM289.088 285.65C289.368 285.38 289.669 285.178 289.993 285.045C290.316 284.912 290.674 284.845 291.068 284.845C291.351 284.845 291.603 284.892 291.823 284.985C292.043 285.078 292.228 285.208 292.378 285.375C292.528 285.542 292.641 285.743 292.718 285.98C292.794 286.217 292.833 286.477 292.833 286.76V290H292.438C292.351 290 292.284 289.987 292.238 289.96C292.191 289.93 292.154 289.873 292.128 289.79L292.028 289.31C291.894 289.433 291.764 289.543 291.638 289.64C291.511 289.733 291.378 289.813 291.238 289.88C291.098 289.943 290.948 289.992 290.788 290.025C290.631 290.062 290.456 290.08 290.263 290.08C290.066 290.08 289.881 290.053 289.708 290C289.534 289.943 289.383 289.86 289.253 289.75C289.126 289.64 289.024 289.502 288.948 289.335C288.874 289.165 288.838 288.965 288.838 288.735C288.838 288.535 288.893 288.343 289.003 288.16C289.113 287.973 289.291 287.808 289.538 287.665C289.784 287.522 290.106 287.405 290.503 287.315C290.899 287.222 291.386 287.168 291.963 287.155V286.76C291.963 286.367 291.878 286.07 291.708 285.87C291.538 285.667 291.289 285.565 290.963 285.565C290.743 285.565 290.558 285.593 290.408 285.65C290.261 285.703 290.133 285.765 290.023 285.835C289.916 285.902 289.823 285.963 289.743 286.02C289.666 286.073 289.589 286.1 289.513 286.1C289.453 286.1 289.401 286.085 289.358 286.055C289.314 286.022 289.278 285.982 289.248 285.935L289.088 285.65ZM298.82 290H297.93V285.68H295.32V288.72C295.32 288.933 295.372 289.092 295.475 289.195C295.578 289.298 295.712 289.35 295.875 289.35C295.968 289.35 296.048 289.338 296.115 289.315C296.185 289.288 296.245 289.26 296.295 289.23C296.345 289.2 296.387 289.173 296.42 289.15C296.457 289.123 296.488 289.11 296.515 289.11C296.562 289.11 296.603 289.138 296.64 289.195L296.9 289.62C296.747 289.763 296.562 289.877 296.345 289.96C296.128 290.04 295.905 290.08 295.675 290.08C295.275 290.08 294.967 289.968 294.75 289.745C294.537 289.522 294.43 289.2 294.43 288.78V285.68H293.82C293.767 285.68 293.722 285.665 293.685 285.635C293.648 285.602 293.63 285.552 293.63 285.485V285.13L294.46 285.02L294.665 283.46C294.675 283.41 294.697 283.37 294.73 283.34C294.767 283.307 294.813 283.29 294.87 283.29H295.32V285.035H298.82V290ZM299.04 283.31C299.04 283.397 299.022 283.478 298.985 283.555C298.952 283.628 298.905 283.693 298.845 283.75C298.788 283.807 298.722 283.852 298.645 283.885C298.568 283.918 298.487 283.935 298.4 283.935C298.313 283.935 298.232 283.918 298.155 283.885C298.082 283.852 298.017 283.807 297.96 283.75C297.903 283.693 297.858 283.628 297.825 283.555C297.792 283.478 297.775 283.397 297.775 283.31C297.775 283.223 297.792 283.142 297.825 283.065C297.858 282.985 297.903 282.917 297.96 282.86C298.017 282.8 298.082 282.753 298.155 282.72C298.232 282.687 298.313 282.67 298.4 282.67C298.487 282.67 298.568 282.687 298.645 282.72C298.722 282.753 298.788 282.8 298.845 282.86C298.905 282.917 298.952 282.985 298.985 283.065C299.022 283.142 299.04 283.223 299.04 283.31ZM303.807 285.835C303.78 285.872 303.754 285.9 303.727 285.92C303.7 285.94 303.664 285.95 303.617 285.95C303.567 285.95 303.512 285.93 303.452 285.89C303.392 285.847 303.317 285.8 303.227 285.75C303.14 285.7 303.032 285.655 302.902 285.615C302.775 285.572 302.619 285.55 302.432 285.55C302.182 285.55 301.962 285.595 301.772 285.685C301.582 285.772 301.422 285.898 301.292 286.065C301.165 286.232 301.069 286.433 301.002 286.67C300.939 286.907 300.907 287.172 300.907 287.465C300.907 287.772 300.942 288.045 301.012 288.285C301.082 288.522 301.18 288.722 301.307 288.885C301.437 289.045 301.592 289.168 301.772 289.255C301.955 289.338 302.16 289.38 302.387 289.38C302.604 289.38 302.782 289.355 302.922 289.305C303.062 289.252 303.177 289.193 303.267 289.13C303.36 289.067 303.437 289.01 303.497 288.96C303.56 288.907 303.622 288.88 303.682 288.88C303.755 288.88 303.812 288.908 303.852 288.965L304.102 289.29C303.992 289.427 303.867 289.543 303.727 289.64C303.587 289.737 303.435 289.818 303.272 289.885C303.112 289.948 302.944 289.995 302.767 290.025C302.59 290.055 302.41 290.07 302.227 290.07C301.91 290.07 301.615 290.012 301.342 289.895C301.072 289.778 300.837 289.61 300.637 289.39C300.437 289.167 300.28 288.893 300.167 288.57C300.054 288.247 299.997 287.878 299.997 287.465C299.997 287.088 300.049 286.74 300.152 286.42C300.259 286.1 300.412 285.825 300.612 285.595C300.815 285.362 301.064 285.18 301.357 285.05C301.654 284.92 301.994 284.855 302.377 284.855C302.734 284.855 303.047 284.913 303.317 285.03C303.59 285.143 303.832 285.305 304.042 285.515L303.807 285.835ZM308.511 288.78C308.674 289 308.853 289.155 309.046 289.245C309.243 289.335 309.458 289.38 309.691 289.38C310.168 289.38 310.533 289.212 310.786 288.875C311.039 288.538 311.166 288.037 311.166 287.37C311.166 286.75 311.053 286.295 310.826 286.005C310.603 285.712 310.283 285.565 309.866 285.565C309.576 285.565 309.323 285.632 309.106 285.765C308.893 285.898 308.694 286.087 308.511 286.33V288.78ZM308.511 285.665C308.724 285.418 308.964 285.222 309.231 285.075C309.501 284.928 309.811 284.855 310.161 284.855C310.458 284.855 310.724 284.912 310.961 285.025C311.201 285.138 311.404 285.303 311.571 285.52C311.738 285.733 311.864 285.993 311.951 286.3C312.041 286.607 312.086 286.952 312.086 287.335C312.086 287.745 312.036 288.118 311.936 288.455C311.836 288.792 311.691 289.08 311.501 289.32C311.314 289.557 311.086 289.742 310.816 289.875C310.546 290.005 310.243 290.07 309.906 290.07C309.573 290.07 309.291 290.008 309.061 289.885C308.834 289.758 308.636 289.58 308.466 289.35L308.421 289.81C308.394 289.937 308.318 290 308.191 290H307.616V282.635H308.511V285.665ZM317.377 284.935V290H316.847C316.72 290 316.64 289.938 316.607 289.815L316.537 289.27C316.317 289.513 316.07 289.71 315.797 289.86C315.524 290.007 315.21 290.08 314.857 290.08C314.58 290.08 314.335 290.035 314.122 289.945C313.912 289.852 313.735 289.722 313.592 289.555C313.449 289.388 313.34 289.187 313.267 288.95C313.197 288.713 313.162 288.452 313.162 288.165V284.935H314.052V288.165C314.052 288.548 314.139 288.845 314.312 289.055C314.489 289.265 314.757 289.37 315.117 289.37C315.38 289.37 315.625 289.308 315.852 289.185C316.082 289.058 316.294 288.885 316.487 288.665V284.935H317.377ZM319.118 290V285.695L318.558 285.63C318.488 285.613 318.43 285.588 318.383 285.555C318.34 285.518 318.318 285.467 318.318 285.4V285.035H319.118V284.62C319.118 284.33 319.158 284.073 319.238 283.85C319.321 283.623 319.438 283.433 319.588 283.28C319.741 283.123 319.925 283.005 320.138 282.925C320.351 282.845 320.591 282.805 320.858 282.805C321.085 282.805 321.293 282.838 321.483 282.905L321.463 283.355C321.456 283.435 321.411 283.478 321.328 283.485C321.248 283.492 321.14 283.495 321.003 283.495C320.85 283.495 320.71 283.515 320.583 283.555C320.46 283.592 320.353 283.655 320.263 283.745C320.173 283.835 320.103 283.955 320.053 284.105C320.006 284.252 319.983 284.433 319.983 284.65V285.035H322.268V284.49C322.268 284.2 322.308 283.943 322.388 283.72C322.471 283.493 322.588 283.303 322.738 283.15C322.891 282.993 323.075 282.875 323.288 282.795C323.501 282.715 323.741 282.675 324.008 282.675C324.231 282.675 324.44 282.708 324.633 282.775L324.613 283.22C324.606 283.3 324.561 283.343 324.478 283.35C324.398 283.357 324.29 283.36 324.153 283.36C324 283.36 323.86 283.38 323.733 283.42C323.61 283.46 323.503 283.525 323.413 283.615C323.323 283.705 323.253 283.823 323.203 283.97C323.156 284.117 323.133 284.298 323.133 284.515V285.035H324.593V285.68H323.163V290H322.268V285.68H320.013V290H319.118ZM328.662 286.915C328.662 286.708 328.632 286.52 328.572 286.35C328.516 286.177 328.431 286.028 328.317 285.905C328.207 285.778 328.072 285.682 327.912 285.615C327.752 285.545 327.571 285.51 327.367 285.51C326.941 285.51 326.602 285.635 326.352 285.885C326.106 286.132 325.952 286.475 325.892 286.915H328.662ZM329.382 289.29C329.272 289.423 329.141 289.54 328.987 289.64C328.834 289.737 328.669 289.817 328.492 289.88C328.319 289.943 328.139 289.99 327.952 290.02C327.766 290.053 327.581 290.07 327.397 290.07C327.047 290.07 326.724 290.012 326.427 289.895C326.134 289.775 325.879 289.602 325.662 289.375C325.449 289.145 325.282 288.862 325.162 288.525C325.042 288.188 324.982 287.802 324.982 287.365C324.982 287.012 325.036 286.682 325.142 286.375C325.252 286.068 325.409 285.803 325.612 285.58C325.816 285.353 326.064 285.177 326.357 285.05C326.651 284.92 326.981 284.855 327.347 284.855C327.651 284.855 327.931 284.907 328.187 285.01C328.447 285.11 328.671 285.257 328.857 285.45C329.047 285.64 329.196 285.877 329.302 286.16C329.409 286.44 329.462 286.76 329.462 287.12C329.462 287.26 329.447 287.353 329.417 287.4C329.387 287.447 329.331 287.47 329.247 287.47H325.862C325.872 287.79 325.916 288.068 325.992 288.305C326.072 288.542 326.182 288.74 326.322 288.9C326.462 289.057 326.629 289.175 326.822 289.255C327.016 289.332 327.232 289.37 327.472 289.37C327.696 289.37 327.887 289.345 328.047 289.295C328.211 289.242 328.351 289.185 328.467 289.125C328.584 289.065 328.681 289.01 328.757 288.96C328.837 288.907 328.906 288.88 328.962 288.88C329.036 288.88 329.092 288.908 329.132 288.965L329.382 289.29ZM331.401 285.95C331.561 285.603 331.757 285.333 331.991 285.14C332.224 284.943 332.509 284.845 332.846 284.845C332.952 284.845 333.054 284.857 333.151 284.88C333.251 284.903 333.339 284.94 333.416 284.99L333.351 285.655C333.331 285.738 333.281 285.78 333.201 285.78C333.154 285.78 333.086 285.77 332.996 285.75C332.906 285.73 332.804 285.72 332.691 285.72C332.531 285.72 332.387 285.743 332.261 285.79C332.137 285.837 332.026 285.907 331.926 286C331.829 286.09 331.741 286.203 331.661 286.34C331.584 286.473 331.514 286.627 331.451 286.8V290H330.556V284.935H331.066C331.162 284.935 331.229 284.953 331.266 284.99C331.302 285.027 331.327 285.09 331.341 285.18L331.401 285.95ZM334.733 286.855C334.733 286.142 334.641 285.448 334.458 284.775C334.278 284.102 334.013 283.462 333.663 282.855C333.636 282.805 333.62 282.762 333.613 282.725C333.606 282.685 333.608 282.652 333.618 282.625C333.628 282.595 333.643 282.57 333.663 282.55C333.686 282.527 333.711 282.507 333.738 282.49L334.133 282.245C334.383 282.632 334.595 283.013 334.768 283.39C334.945 283.767 335.086 284.145 335.193 284.525C335.303 284.902 335.383 285.283 335.433 285.67C335.483 286.057 335.508 286.452 335.508 286.855C335.508 287.262 335.483 287.658 335.433 288.045C335.383 288.428 335.303 288.81 335.193 289.19C335.086 289.57 334.945 289.948 334.768 290.325C334.595 290.702 334.383 291.082 334.133 291.465L333.738 291.225C333.711 291.208 333.686 291.188 333.663 291.165C333.643 291.145 333.628 291.12 333.618 291.09C333.608 291.063 333.606 291.03 333.613 290.99C333.62 290.95 333.636 290.905 333.663 290.855C334.013 290.248 334.278 289.608 334.458 288.935C334.641 288.262 334.733 287.568 334.733 286.855Z" fill="#14213D"/>
<path d="M258.478 36.967C258.823 36.967 259.124 36.925 259.381 36.841C259.637 36.7523 259.85 36.6287 260.018 36.47C260.19 36.3067 260.319 36.1107 260.403 35.882C260.487 35.6487 260.529 35.3897 260.529 35.105C260.529 34.8343 260.487 34.5893 260.403 34.37C260.319 34.1507 260.193 33.964 260.025 33.81C259.857 33.656 259.644 33.5393 259.388 33.46C259.131 33.376 258.828 33.334 258.478 33.334H257.071V36.967H258.478ZM258.478 31.878C259.154 31.878 259.74 31.9573 260.235 32.116C260.729 32.2747 261.138 32.4963 261.46 32.781C261.782 33.0657 262.02 33.4063 262.174 33.803C262.332 34.1997 262.412 34.6337 262.412 35.105C262.412 35.595 262.33 36.0453 262.167 36.456C262.003 36.862 261.758 37.212 261.432 37.506C261.105 37.8 260.694 38.0287 260.2 38.192C259.71 38.3553 259.136 38.437 258.478 38.437H257.071V42H255.188V31.878H258.478ZM266.432 34.706C266.964 34.706 267.447 34.7923 267.881 34.965C268.32 35.1377 268.693 35.3827 269.001 35.7C269.314 36.0173 269.554 36.4047 269.722 36.862C269.89 37.3193 269.974 37.8303 269.974 38.395C269.974 38.9643 269.89 39.4777 269.722 39.935C269.554 40.3923 269.314 40.782 269.001 41.104C268.693 41.426 268.32 41.6733 267.881 41.846C267.447 42.0187 266.964 42.105 266.432 42.105C265.896 42.105 265.408 42.0187 264.969 41.846C264.531 41.6733 264.155 41.426 263.842 41.104C263.534 40.782 263.294 40.3923 263.121 39.935C262.953 39.4777 262.869 38.9643 262.869 38.395C262.869 37.8303 262.953 37.3193 263.121 36.862C263.294 36.4047 263.534 36.0173 263.842 35.7C264.155 35.3827 264.531 35.1377 264.969 34.965C265.408 34.7923 265.896 34.706 266.432 34.706ZM266.432 40.775C267.03 40.775 267.471 40.5743 267.755 40.173C268.045 39.7717 268.189 39.1837 268.189 38.409C268.189 37.6343 268.045 37.044 267.755 36.638C267.471 36.232 267.03 36.029 266.432 36.029C265.826 36.029 265.375 36.2343 265.081 36.645C264.792 37.051 264.647 37.639 264.647 38.409C264.647 39.179 264.792 39.767 265.081 40.173C265.375 40.5743 265.826 40.775 266.432 40.775ZM274.471 34.706C275.003 34.706 275.486 34.7923 275.92 34.965C276.359 35.1377 276.732 35.3827 277.04 35.7C277.353 36.0173 277.593 36.4047 277.761 36.862C277.929 37.3193 278.013 37.8303 278.013 38.395C278.013 38.9643 277.929 39.4777 277.761 39.935C277.593 40.3923 277.353 40.782 277.04 41.104C276.732 41.426 276.359 41.6733 275.92 41.846C275.486 42.0187 275.003 42.105 274.471 42.105C273.935 42.105 273.447 42.0187 273.008 41.846C272.57 41.6733 272.194 41.426 271.881 41.104C271.573 40.782 271.333 40.3923 271.16 39.935C270.992 39.4777 270.908 38.9643 270.908 38.395C270.908 37.8303 270.992 37.3193 271.16 36.862C271.333 36.4047 271.573 36.0173 271.881 35.7C272.194 35.3827 272.57 35.1377 273.008 34.965C273.447 34.7923 273.935 34.706 274.471 34.706ZM274.471 40.775C275.069 40.775 275.51 40.5743 275.794 40.173C276.084 39.7717 276.228 39.1837 276.228 38.409C276.228 37.6343 276.084 37.044 275.794 36.638C275.51 36.232 275.069 36.029 274.471 36.029C273.865 36.029 273.414 36.2343 273.12 36.645C272.831 37.051 272.686 37.639 272.686 38.409C272.686 39.179 272.831 39.767 273.12 40.173C273.414 40.5743 273.865 40.775 274.471 40.775ZM281.083 31.598V42H279.354V31.598H281.083ZM286.209 42V34.818H287.266C287.49 34.818 287.637 34.923 287.707 35.133L287.819 35.665C287.945 35.525 288.076 35.3967 288.211 35.28C288.351 35.1633 288.498 35.063 288.652 34.979C288.811 34.895 288.979 34.8297 289.156 34.783C289.338 34.7317 289.537 34.706 289.751 34.706C290.204 34.706 290.575 34.8297 290.864 35.077C291.158 35.3197 291.378 35.644 291.522 36.05C291.634 35.812 291.774 35.609 291.942 35.441C292.11 35.2683 292.295 35.1283 292.495 35.021C292.696 34.9137 292.908 34.8343 293.132 34.783C293.361 34.7317 293.59 34.706 293.818 34.706C294.215 34.706 294.567 34.7667 294.875 34.888C295.183 35.0093 295.442 35.1867 295.652 35.42C295.862 35.6533 296.021 35.938 296.128 36.274C296.24 36.61 296.296 36.995 296.296 37.429V42H294.567V37.429C294.567 36.9717 294.467 36.6287 294.266 36.4C294.066 36.1667 293.772 36.05 293.384 36.05C293.207 36.05 293.041 36.0803 292.887 36.141C292.738 36.2017 292.605 36.2903 292.488 36.407C292.376 36.519 292.288 36.6613 292.222 36.834C292.157 37.0067 292.124 37.205 292.124 37.429V42H290.388V37.429C290.388 36.9483 290.29 36.5983 290.094 36.379C289.903 36.1597 289.621 36.05 289.247 36.05C288.995 36.05 288.76 36.113 288.54 36.239C288.326 36.3603 288.125 36.5283 287.938 36.743V42H286.209ZM302.567 37.583C302.567 37.359 302.534 37.149 302.469 36.953C302.408 36.7523 302.315 36.5773 302.189 36.428C302.063 36.2787 301.902 36.162 301.706 36.078C301.515 35.9893 301.291 35.945 301.034 35.945C300.535 35.945 300.14 36.0873 299.851 36.372C299.566 36.6567 299.384 37.0603 299.305 37.583H302.567ZM299.27 38.626C299.298 38.9947 299.363 39.3143 299.466 39.585C299.569 39.851 299.704 40.0727 299.872 40.25C300.04 40.4227 300.238 40.5533 300.467 40.642C300.7 40.726 300.957 40.768 301.237 40.768C301.517 40.768 301.757 40.7353 301.958 40.67C302.163 40.6047 302.341 40.5323 302.49 40.453C302.644 40.3737 302.777 40.3013 302.889 40.236C303.006 40.1707 303.118 40.138 303.225 40.138C303.37 40.138 303.477 40.1917 303.547 40.299L304.044 40.929C303.853 41.153 303.638 41.342 303.4 41.496C303.162 41.6453 302.912 41.7667 302.651 41.86C302.394 41.9487 302.131 42.0117 301.86 42.049C301.594 42.0863 301.335 42.105 301.083 42.105C300.584 42.105 300.119 42.0233 299.69 41.86C299.261 41.692 298.887 41.447 298.57 41.125C298.253 40.7983 298.003 40.397 297.821 39.921C297.639 39.4403 297.548 38.885 297.548 38.255C297.548 37.765 297.627 37.3053 297.786 36.876C297.945 36.442 298.171 36.0663 298.465 35.749C298.764 35.427 299.125 35.1727 299.55 34.986C299.979 34.7993 300.462 34.706 300.999 34.706C301.452 34.706 301.869 34.7783 302.252 34.923C302.635 35.0677 302.964 35.28 303.239 35.56C303.514 35.8353 303.729 36.176 303.883 36.582C304.042 36.9833 304.121 37.443 304.121 37.961C304.121 38.2223 304.093 38.3997 304.037 38.493C303.981 38.5817 303.874 38.626 303.715 38.626H299.27ZM305.418 42V34.818H306.475C306.699 34.818 306.846 34.923 306.916 35.133L307.028 35.665C307.154 35.525 307.285 35.3967 307.42 35.28C307.56 35.1633 307.707 35.063 307.861 34.979C308.02 34.895 308.188 34.8297 308.365 34.783C308.547 34.7317 308.746 34.706 308.96 34.706C309.413 34.706 309.784 34.8297 310.073 35.077C310.367 35.3197 310.587 35.644 310.731 36.05C310.843 35.812 310.983 35.609 311.151 35.441C311.319 35.2683 311.504 35.1283 311.704 35.021C311.905 34.9137 312.117 34.8343 312.341 34.783C312.57 34.7317 312.799 34.706 313.027 34.706C313.424 34.706 313.776 34.7667 314.084 34.888C314.392 35.0093 314.651 35.1867 314.861 35.42C315.071 35.6533 315.23 35.938 315.337 36.274C315.449 36.61 315.505 36.995 315.505 37.429V42H313.776V37.429C313.776 36.9717 313.676 36.6287 313.475 36.4C313.275 36.1667 312.981 36.05 312.593 36.05C312.416 36.05 312.25 36.0803 312.096 36.141C311.947 36.2017 311.814 36.2903 311.697 36.407C311.585 36.519 311.497 36.6613 311.431 36.834C311.366 37.0067 311.333 37.205 311.333 37.429V42H309.597V37.429C309.597 36.9483 309.499 36.5983 309.303 36.379C309.112 36.1597 308.83 36.05 308.456 36.05C308.204 36.05 307.969 36.113 307.749 36.239C307.535 36.3603 307.334 36.5283 307.147 36.743V42H305.418ZM320.327 34.706C320.859 34.706 321.342 34.7923 321.776 34.965C322.215 35.1377 322.588 35.3827 322.896 35.7C323.209 36.0173 323.449 36.4047 323.617 36.862C323.785 37.3193 323.869 37.8303 323.869 38.395C323.869 38.9643 323.785 39.4777 323.617 39.935C323.449 40.3923 323.209 40.782 322.896 41.104C322.588 41.426 322.215 41.6733 321.776 41.846C321.342 42.0187 320.859 42.105 320.327 42.105C319.79 42.105 319.303 42.0187 318.864 41.846C318.425 41.6733 318.05 41.426 317.737 41.104C317.429 40.782 317.189 40.3923 317.016 39.935C316.848 39.4777 316.764 38.9643 316.764 38.395C316.764 37.8303 316.848 37.3193 317.016 36.862C317.189 36.4047 317.429 36.0173 317.737 35.7C318.05 35.3827 318.425 35.1377 318.864 34.965C319.303 34.7923 319.79 34.706 320.327 34.706ZM320.327 40.775C320.924 40.775 321.365 40.5743 321.65 40.173C321.939 39.7717 322.084 39.1837 322.084 38.409C322.084 37.6343 321.939 37.044 321.65 36.638C321.365 36.232 320.924 36.029 320.327 36.029C319.72 36.029 319.27 36.2343 318.976 36.645C318.687 37.051 318.542 37.639 318.542 38.409C318.542 39.179 318.687 39.767 318.976 40.173C319.27 40.5743 319.72 40.775 320.327 40.775ZM326.819 36.064C327.043 35.6347 327.309 35.2987 327.617 35.056C327.925 34.8087 328.289 34.685 328.709 34.685C329.04 34.685 329.306 34.7573 329.507 34.902L329.395 36.197C329.372 36.281 329.337 36.3417 329.29 36.379C329.248 36.4117 329.19 36.428 329.115 36.428C329.045 36.428 328.94 36.4163 328.8 36.393C328.665 36.3697 328.532 36.358 328.401 36.358C328.21 36.358 328.039 36.386 327.89 36.442C327.741 36.498 327.605 36.5797 327.484 36.687C327.367 36.7897 327.262 36.9157 327.169 37.065C327.08 37.2143 326.996 37.3847 326.917 37.576V42H325.188V34.818H326.203C326.38 34.818 326.504 34.8507 326.574 34.916C326.644 34.9767 326.691 35.0887 326.714 35.252L326.819 36.064ZM336.935 34.818L333.022 43.974C332.97 44.0953 332.903 44.1863 332.819 44.247C332.739 44.3123 332.616 44.345 332.448 44.345H331.16L332.504 41.461L329.599 34.818H331.118C331.253 34.818 331.358 34.8507 331.433 34.916C331.512 34.9813 331.57 35.056 331.608 35.14L333.134 38.864C333.185 38.99 333.227 39.116 333.26 39.242C333.297 39.368 333.332 39.4963 333.365 39.627C333.407 39.4963 333.449 39.368 333.491 39.242C333.533 39.1113 333.579 38.983 333.631 38.857L335.073 35.14C335.11 35.0467 335.171 34.9697 335.255 34.909C335.343 34.8483 335.441 34.818 335.549 34.818H336.935Z" fill="black"/>
<path d="M496.72 98.34L495.595 95.425C495.562 95.3383 495.527 95.2383 495.49 95.125C495.453 95.0083 495.418 94.885 495.385 94.755C495.315 95.025 495.243 95.25 495.17 95.43L494.045 98.34H496.72ZM498.74 101H497.99C497.903 101 497.833 100.978 497.78 100.935C497.727 100.892 497.687 100.837 497.66 100.77L496.99 99.04H493.775L493.105 100.77C493.085 100.83 493.047 100.883 492.99 100.93C492.933 100.977 492.863 101 492.78 101H492.03L494.895 93.835H495.875L498.74 101ZM500.373 93.635V101H499.483V93.635H500.373ZM502.736 93.635V101H501.846V93.635H502.736ZM506.315 95.855C506.685 95.855 507.018 95.9167 507.315 96.04C507.611 96.1633 507.865 96.3383 508.075 96.565C508.285 96.7917 508.445 97.0667 508.555 97.39C508.668 97.71 508.725 98.0683 508.725 98.465C508.725 98.865 508.668 99.225 508.555 99.545C508.445 99.865 508.285 100.138 508.075 100.365C507.865 100.592 507.611 100.767 507.315 100.89C507.018 101.01 506.685 101.07 506.315 101.07C505.941 101.07 505.605 101.01 505.305 100.89C505.008 100.767 504.755 100.592 504.545 100.365C504.335 100.138 504.173 99.865 504.06 99.545C503.95 99.225 503.895 98.865 503.895 98.465C503.895 98.0683 503.95 97.71 504.06 97.39C504.173 97.0667 504.335 96.7917 504.545 96.565C504.755 96.3383 505.008 96.1633 505.305 96.04C505.605 95.9167 505.941 95.855 506.315 95.855ZM506.315 100.375C506.815 100.375 507.188 100.208 507.435 99.875C507.681 99.5383 507.805 99.07 507.805 98.47C507.805 97.8667 507.681 97.3967 507.435 97.06C507.188 96.7233 506.815 96.555 506.315 96.555C506.061 96.555 505.84 96.5983 505.65 96.685C505.463 96.7717 505.306 96.8967 505.18 97.06C505.056 97.2233 504.963 97.425 504.9 97.665C504.84 97.9017 504.81 98.17 504.81 98.47C504.81 99.07 504.933 99.5383 505.18 99.875C505.43 100.208 505.808 100.375 506.315 100.375ZM513.378 96.835C513.352 96.8717 513.325 96.9 513.298 96.92C513.272 96.94 513.235 96.95 513.188 96.95C513.138 96.95 513.083 96.93 513.023 96.89C512.963 96.8467 512.888 96.8 512.798 96.75C512.712 96.7 512.603 96.655 512.473 96.615C512.347 96.5717 512.19 96.55 512.003 96.55C511.753 96.55 511.533 96.595 511.343 96.685C511.153 96.7717 510.993 96.8983 510.863 97.065C510.737 97.2317 510.64 97.4333 510.573 97.67C510.51 97.9067 510.478 98.1717 510.478 98.465C510.478 98.7717 510.513 99.045 510.583 99.285C510.653 99.5217 510.752 99.7217 510.878 99.885C511.008 100.045 511.163 100.168 511.343 100.255C511.527 100.338 511.732 100.38 511.958 100.38C512.175 100.38 512.353 100.355 512.493 100.305C512.633 100.252 512.748 100.193 512.838 100.13C512.932 100.067 513.008 100.01 513.068 99.96C513.132 99.9067 513.193 99.88 513.253 99.88C513.327 99.88 513.383 99.9083 513.423 99.965L513.673 100.29C513.563 100.427 513.438 100.543 513.298 100.64C513.158 100.737 513.007 100.818 512.843 100.885C512.683 100.948 512.515 100.995 512.338 101.025C512.162 101.055 511.982 101.07 511.798 101.07C511.482 101.07 511.187 101.012 510.913 100.895C510.643 100.778 510.408 100.61 510.208 100.39C510.008 100.167 509.852 99.8933 509.738 99.57C509.625 99.2467 509.568 98.8783 509.568 98.465C509.568 98.0883 509.62 97.74 509.723 97.42C509.83 97.1 509.983 96.825 510.183 96.595C510.387 96.3617 510.635 96.18 510.928 96.05C511.225 95.92 511.565 95.855 511.948 95.855C512.305 95.855 512.618 95.9133 512.888 96.03C513.162 96.1433 513.403 96.305 513.613 96.515L513.378 96.835ZM517.374 98.72C516.964 98.7333 516.614 98.7667 516.324 98.82C516.037 98.87 515.802 98.9367 515.619 99.02C515.439 99.1033 515.307 99.2017 515.224 99.315C515.144 99.4283 515.104 99.555 515.104 99.695C515.104 99.8283 515.125 99.9433 515.169 100.04C515.212 100.137 515.27 100.217 515.344 100.28C515.42 100.34 515.509 100.385 515.609 100.415C515.712 100.442 515.822 100.455 515.939 100.455C516.095 100.455 516.239 100.44 516.369 100.41C516.499 100.377 516.62 100.33 516.734 100.27C516.85 100.21 516.96 100.138 517.064 100.055C517.17 99.9717 517.274 99.8767 517.374 99.77V98.72ZM514.499 96.65C514.779 96.38 515.08 96.1783 515.404 96.045C515.727 95.9117 516.085 95.845 516.479 95.845C516.762 95.845 517.014 95.8917 517.234 95.985C517.454 96.0783 517.639 96.2083 517.789 96.375C517.939 96.5417 518.052 96.7433 518.129 96.98C518.205 97.2167 518.244 97.4767 518.244 97.76V101H517.849C517.762 101 517.695 100.987 517.649 100.96C517.602 100.93 517.565 100.873 517.539 100.79L517.439 100.31C517.305 100.433 517.175 100.543 517.049 100.64C516.922 100.733 516.789 100.813 516.649 100.88C516.509 100.943 516.359 100.992 516.199 101.025C516.042 101.062 515.867 101.08 515.674 101.08C515.477 101.08 515.292 101.053 515.119 101C514.945 100.943 514.794 100.86 514.664 100.75C514.537 100.64 514.435 100.502 514.359 100.335C514.285 100.165 514.249 99.965 514.249 99.735C514.249 99.535 514.304 99.3433 514.414 99.16C514.524 98.9733 514.702 98.8083 514.949 98.665C515.195 98.5217 515.517 98.405 515.914 98.315C516.31 98.2217 516.797 98.1683 517.374 98.155V97.76C517.374 97.3667 517.289 97.07 517.119 96.87C516.949 96.6667 516.7 96.565 516.374 96.565C516.154 96.565 515.969 96.5933 515.819 96.65C515.672 96.7033 515.544 96.765 515.434 96.835C515.327 96.9017 515.234 96.9633 515.154 97.02C515.077 97.0733 515 97.1 514.924 97.1C514.864 97.1 514.812 97.085 514.769 97.055C514.725 97.0217 514.689 96.9817 514.659 96.935L514.499 96.65ZM521.086 101.08C520.686 101.08 520.378 100.968 520.161 100.745C519.948 100.522 519.841 100.2 519.841 99.78V96.68H519.231C519.178 96.68 519.133 96.665 519.096 96.635C519.06 96.6017 519.041 96.5517 519.041 96.485V96.13L519.871 96.025L520.076 94.46C520.086 94.41 520.108 94.37 520.141 94.34C520.178 94.3067 520.225 94.29 520.281 94.29H520.731V96.035H522.196V96.68H520.731V99.72C520.731 99.9333 520.783 100.092 520.886 100.195C520.99 100.298 521.123 100.35 521.286 100.35C521.38 100.35 521.46 100.338 521.526 100.315C521.596 100.288 521.656 100.26 521.706 100.23C521.756 100.2 521.798 100.173 521.831 100.15C521.868 100.123 521.9 100.11 521.926 100.11C521.973 100.11 522.015 100.138 522.051 100.195L522.311 100.62C522.158 100.763 521.973 100.877 521.756 100.96C521.54 101.04 521.316 101.08 521.086 101.08ZM526.476 97.915C526.476 97.7083 526.446 97.52 526.386 97.35C526.329 97.1767 526.244 97.0283 526.131 96.905C526.021 96.7783 525.886 96.6817 525.726 96.615C525.566 96.545 525.384 96.51 525.181 96.51C524.754 96.51 524.416 96.635 524.166 96.885C523.919 97.1317 523.766 97.475 523.706 97.915H526.476ZM527.196 100.29C527.086 100.423 526.954 100.54 526.801 100.64C526.648 100.737 526.483 100.817 526.306 100.88C526.133 100.943 525.953 100.99 525.766 101.02C525.579 101.053 525.394 101.07 525.211 101.07C524.861 101.07 524.538 101.012 524.241 100.895C523.948 100.775 523.693 100.602 523.476 100.375C523.263 100.145 523.096 99.8617 522.976 99.525C522.856 99.1883 522.796 98.8017 522.796 98.365C522.796 98.0117 522.849 97.6817 522.956 97.375C523.066 97.0683 523.223 96.8033 523.426 96.58C523.629 96.3533 523.878 96.1767 524.171 96.05C524.464 95.92 524.794 95.855 525.161 95.855C525.464 95.855 525.744 95.9067 526.001 96.01C526.261 96.11 526.484 96.2567 526.671 96.45C526.861 96.64 527.009 96.8767 527.116 97.16C527.223 97.44 527.276 97.76 527.276 98.12C527.276 98.26 527.261 98.3533 527.231 98.4C527.201 98.4467 527.144 98.47 527.061 98.47H523.676C523.686 98.79 523.729 99.0683 523.806 99.305C523.886 99.5417 523.996 99.74 524.136 99.9C524.276 100.057 524.443 100.175 524.636 100.255C524.829 100.332 525.046 100.37 525.286 100.37C525.509 100.37 525.701 100.345 525.861 100.295C526.024 100.242 526.164 100.185 526.281 100.125C526.398 100.065 526.494 100.01 526.571 99.96C526.651 99.9067 526.719 99.88 526.776 99.88C526.849 99.88 526.906 99.9083 526.946 99.965L527.196 100.29ZM531.669 97.14C531.502 96.9167 531.322 96.7617 531.129 96.675C530.936 96.585 530.719 96.54 530.479 96.54C530.009 96.54 529.647 96.7083 529.394 97.045C529.141 97.3817 529.014 97.8617 529.014 98.485C529.014 98.815 529.042 99.0983 529.099 99.335C529.156 99.5683 529.239 99.7617 529.349 99.915C529.459 100.065 529.594 100.175 529.754 100.245C529.914 100.315 530.096 100.35 530.299 100.35C530.592 100.35 530.847 100.283 531.064 100.15C531.284 100.017 531.486 99.8283 531.669 99.585V97.14ZM532.559 93.635V101H532.029C531.902 101 531.822 100.938 531.789 100.815L531.709 100.2C531.492 100.46 531.246 100.67 530.969 100.83C530.692 100.99 530.372 101.07 530.009 101.07C529.719 101.07 529.456 101.015 529.219 100.905C528.982 100.792 528.781 100.627 528.614 100.41C528.447 100.193 528.319 99.9233 528.229 99.6C528.139 99.2767 528.094 98.905 528.094 98.485C528.094 98.1117 528.144 97.765 528.244 97.445C528.344 97.1217 528.487 96.8417 528.674 96.605C528.861 96.3683 529.089 96.1833 529.359 96.05C529.632 95.9133 529.939 95.845 530.279 95.845C530.589 95.845 530.854 95.8983 531.074 96.005C531.297 96.1083 531.496 96.2533 531.669 96.44V93.635H532.559ZM539.913 97.915C539.913 97.7083 539.883 97.52 539.823 97.35C539.767 97.1767 539.682 97.0283 539.568 96.905C539.458 96.7783 539.323 96.6817 539.163 96.615C539.003 96.545 538.822 96.51 538.618 96.51C538.192 96.51 537.853 96.635 537.603 96.885C537.357 97.1317 537.203 97.475 537.143 97.915H539.913ZM540.633 100.29C540.523 100.423 540.392 100.54 540.238 100.64C540.085 100.737 539.92 100.817 539.743 100.88C539.57 100.943 539.39 100.99 539.203 101.02C539.017 101.053 538.832 101.07 538.648 101.07C538.298 101.07 537.975 101.012 537.678 100.895C537.385 100.775 537.13 100.602 536.913 100.375C536.7 100.145 536.533 99.8617 536.413 99.525C536.293 99.1883 536.233 98.8017 536.233 98.365C536.233 98.0117 536.287 97.6817 536.393 97.375C536.503 97.0683 536.66 96.8033 536.863 96.58C537.067 96.3533 537.315 96.1767 537.608 96.05C537.902 95.92 538.232 95.855 538.598 95.855C538.902 95.855 539.182 95.9067 539.438 96.01C539.698 96.11 539.922 96.2567 540.108 96.45C540.298 96.64 540.447 96.8767 540.553 97.16C540.66 97.44 540.713 97.76 540.713 98.12C540.713 98.26 540.698 98.3533 540.668 98.4C540.638 98.4467 540.582 98.47 540.498 98.47H537.113C537.123 98.79 537.167 99.0683 537.243 99.305C537.323 99.5417 537.433 99.74 537.573 99.9C537.713 100.057 537.88 100.175 538.073 100.255C538.267 100.332 538.483 100.37 538.723 100.37C538.947 100.37 539.138 100.345 539.298 100.295C539.462 100.242 539.602 100.185 539.718 100.125C539.835 100.065 539.932 100.01 540.008 99.96C540.088 99.9067 540.157 99.88 540.213 99.88C540.287 99.88 540.343 99.9083 540.383 99.965L540.633 100.29ZM542.727 93.635V101H541.837V93.635H542.727ZM547.56 97.915C547.56 97.7083 547.53 97.52 547.47 97.35C547.413 97.1767 547.328 97.0283 547.215 96.905C547.105 96.7783 546.97 96.6817 546.81 96.615C546.65 96.545 546.468 96.51 546.265 96.51C545.838 96.51 545.5 96.635 545.25 96.885C545.003 97.1317 544.85 97.475 544.79 97.915H547.56ZM548.28 100.29C548.17 100.423 548.038 100.54 547.885 100.64C547.732 100.737 547.567 100.817 547.39 100.88C547.217 100.943 547.037 100.99 546.85 101.02C546.663 101.053 546.478 101.07 546.295 101.07C545.945 101.07 545.622 101.012 545.325 100.895C545.032 100.775 544.777 100.602 544.56 100.375C544.347 100.145 544.18 99.8617 544.06 99.525C543.94 99.1883 543.88 98.8017 543.88 98.365C543.88 98.0117 543.933 97.6817 544.04 97.375C544.15 97.0683 544.307 96.8033 544.51 96.58C544.713 96.3533 544.962 96.1767 545.255 96.05C545.548 95.92 545.878 95.855 546.245 95.855C546.548 95.855 546.828 95.9067 547.085 96.01C547.345 96.11 547.568 96.2567 547.755 96.45C547.945 96.64 548.093 96.8767 548.2 97.16C548.307 97.44 548.36 97.76 548.36 98.12C548.36 98.26 548.345 98.3533 548.315 98.4C548.285 98.4467 548.228 98.47 548.145 98.47H544.76C544.77 98.79 544.813 99.0683 544.89 99.305C544.97 99.5417 545.08 99.74 545.22 99.9C545.36 100.057 545.527 100.175 545.72 100.255C545.913 100.332 546.13 100.37 546.37 100.37C546.593 100.37 546.785 100.345 546.945 100.295C547.108 100.242 547.248 100.185 547.365 100.125C547.482 100.065 547.578 100.01 547.655 99.96C547.735 99.9067 547.803 99.88 547.86 99.88C547.933 99.88 547.99 99.9083 548.03 99.965L548.28 100.29ZM549.453 101V95.935H549.988C550.115 95.935 550.193 95.9967 550.223 96.12L550.288 96.64C550.475 96.41 550.685 96.2217 550.918 96.075C551.151 95.9283 551.421 95.855 551.728 95.855C552.068 95.855 552.343 95.95 552.553 96.14C552.766 96.33 552.92 96.5867 553.013 96.91C553.086 96.7267 553.18 96.5683 553.293 96.435C553.41 96.3017 553.54 96.1917 553.683 96.105C553.826 96.0183 553.978 95.955 554.138 95.915C554.301 95.875 554.466 95.855 554.633 95.855C554.9 95.855 555.136 95.8983 555.343 95.985C555.553 96.0683 555.73 96.1917 555.873 96.355C556.02 96.5183 556.131 96.72 556.208 96.96C556.285 97.1967 556.323 97.4683 556.323 97.775V101H555.428V97.775C555.428 97.3783 555.341 97.0783 555.168 96.875C554.995 96.6683 554.745 96.565 554.418 96.565C554.271 96.565 554.131 96.5917 553.998 96.645C553.868 96.695 553.753 96.77 553.653 96.87C553.553 96.97 553.473 97.0967 553.413 97.25C553.356 97.4 553.328 97.575 553.328 97.775V101H552.433V97.775C552.433 97.3683 552.351 97.065 552.188 96.865C552.025 96.665 551.786 96.565 551.473 96.565C551.253 96.565 551.05 96.625 550.863 96.745C550.676 96.8617 550.505 97.0217 550.348 97.225V101H549.453ZM561.066 97.915C561.066 97.7083 561.036 97.52 560.976 97.35C560.919 97.1767 560.834 97.0283 560.721 96.905C560.611 96.7783 560.476 96.6817 560.316 96.615C560.156 96.545 559.974 96.51 559.771 96.51C559.344 96.51 559.006 96.635 558.756 96.885C558.509 97.1317 558.356 97.475 558.296 97.915H561.066ZM561.786 100.29C561.676 100.423 561.544 100.54 561.391 100.64C561.237 100.737 561.072 100.817 560.896 100.88C560.722 100.943 560.542 100.99 560.356 101.02C560.169 101.053 559.984 101.07 559.801 101.07C559.451 101.07 559.127 101.012 558.831 100.895C558.537 100.775 558.282 100.602 558.066 100.375C557.852 100.145 557.686 99.8617 557.566 99.525C557.446 99.1883 557.386 98.8017 557.386 98.365C557.386 98.0117 557.439 97.6817 557.546 97.375C557.656 97.0683 557.812 96.8033 558.016 96.58C558.219 96.3533 558.467 96.1767 558.761 96.05C559.054 95.92 559.384 95.855 559.751 95.855C560.054 95.855 560.334 95.9067 560.591 96.01C560.851 96.11 561.074 96.2567 561.261 96.45C561.451 96.64 561.599 96.8767 561.706 97.16C561.812 97.44 561.866 97.76 561.866 98.12C561.866 98.26 561.851 98.3533 561.821 98.4C561.791 98.4467 561.734 98.47 561.651 98.47H558.266C558.276 98.79 558.319 99.0683 558.396 99.305C558.476 99.5417 558.586 99.74 558.726 99.9C558.866 100.057 559.032 100.175 559.226 100.255C559.419 100.332 559.636 100.37 559.876 100.37C560.099 100.37 560.291 100.345 560.451 100.295C560.614 100.242 560.754 100.185 560.871 100.125C560.987 100.065 561.084 100.01 561.161 99.96C561.241 99.9067 561.309 99.88 561.366 99.88C561.439 99.88 561.496 99.9083 561.536 99.965L561.786 100.29ZM563.799 96.67C563.909 96.5467 564.026 96.435 564.149 96.335C564.272 96.235 564.402 96.15 564.539 96.08C564.679 96.0067 564.826 95.9517 564.979 95.915C565.136 95.875 565.304 95.855 565.484 95.855C565.761 95.855 566.004 95.9017 566.214 95.995C566.427 96.085 566.604 96.215 566.744 96.385C566.887 96.5517 566.996 96.7533 567.069 96.99C567.142 97.2267 567.179 97.4883 567.179 97.775V101H566.284V97.775C566.284 97.3917 566.196 97.095 566.019 96.885C565.846 96.6717 565.581 96.565 565.224 96.565C564.961 96.565 564.714 96.6283 564.484 96.755C564.257 96.8817 564.047 97.0533 563.854 97.27V101H562.959V95.935H563.494C563.621 95.935 563.699 95.9967 563.729 96.12L563.799 96.67ZM570.022 101.08C569.622 101.08 569.313 100.968 569.097 100.745C568.883 100.522 568.777 100.2 568.777 99.78V96.68H568.167C568.113 96.68 568.068 96.665 568.032 96.635C567.995 96.6017 567.977 96.5517 567.977 96.485V96.13L568.807 96.025L569.012 94.46C569.022 94.41 569.043 94.37 569.077 94.34C569.113 94.3067 569.16 94.29 569.217 94.29H569.667V96.035H571.132V96.68H569.667V99.72C569.667 99.9333 569.718 100.092 569.822 100.195C569.925 100.298 570.058 100.35 570.222 100.35C570.315 100.35 570.395 100.338 570.462 100.315C570.532 100.288 570.592 100.26 570.642 100.23C570.692 100.2 570.733 100.173 570.767 100.15C570.803 100.123 570.835 100.11 570.862 100.11C570.908 100.11 570.95 100.138 570.987 100.195L571.247 100.62C571.093 100.763 570.908 100.877 570.692 100.96C570.475 101.04 570.252 101.08 570.022 101.08Z" fill="black"/>
<path d="M22.7278 104.625V107.13H25.6728V107.92H22.7278V111H21.7578V103.835H26.1728V104.625H22.7278ZM27.6174 106.95C27.7774 106.603 27.974 106.333 28.2074 106.14C28.4407 105.943 28.7257 105.845 29.0624 105.845C29.169 105.845 29.2707 105.857 29.3674 105.88C29.4674 105.903 29.5557 105.94 29.6324 105.99L29.5674 106.655C29.5474 106.738 29.4974 106.78 29.4174 106.78C29.3707 106.78 29.3024 106.77 29.2124 106.75C29.1224 106.73 29.0207 106.72 28.9074 106.72C28.7474 106.72 28.604 106.743 28.4774 106.79C28.354 106.837 28.2424 106.907 28.1424 107C28.0457 107.09 27.9574 107.203 27.8774 107.34C27.8007 107.473 27.7307 107.627 27.6674 107.8V111H26.7724V105.935H27.2824C27.379 105.935 27.4457 105.953 27.4824 105.99C27.519 106.027 27.544 106.09 27.5574 106.18L27.6174 106.95ZM33.5999 107.915C33.5999 107.708 33.5699 107.52 33.5099 107.35C33.4532 107.177 33.3682 107.028 33.2549 106.905C33.1449 106.778 33.0099 106.682 32.8499 106.615C32.6899 106.545 32.5082 106.51 32.3049 106.51C31.8782 106.51 31.5399 106.635 31.2899 106.885C31.0432 107.132 30.8899 107.475 30.8299 107.915H33.5999ZM34.3199 110.29C34.2099 110.423 34.0782 110.54 33.9249 110.64C33.7715 110.737 33.6065 110.817 33.4299 110.88C33.2565 110.943 33.0765 110.99 32.8899 111.02C32.7032 111.053 32.5182 111.07 32.3349 111.07C31.9849 111.07 31.6615 111.012 31.3649 110.895C31.0715 110.775 30.8165 110.602 30.5999 110.375C30.3865 110.145 30.2199 109.862 30.0999 109.525C29.9799 109.188 29.9199 108.802 29.9199 108.365C29.9199 108.012 29.9732 107.682 30.0799 107.375C30.1899 107.068 30.3465 106.803 30.5499 106.58C30.7532 106.353 31.0015 106.177 31.2949 106.05C31.5882 105.92 31.9182 105.855 32.2849 105.855C32.5882 105.855 32.8682 105.907 33.1249 106.01C33.3849 106.11 33.6082 106.257 33.7949 106.45C33.9849 106.64 34.1332 106.877 34.2399 107.16C34.3465 107.44 34.3999 107.76 34.3999 108.12C34.3999 108.26 34.3849 108.353 34.3549 108.4C34.3249 108.447 34.2682 108.47 34.1849 108.47H30.7999C30.8099 108.79 30.8532 109.068 30.9299 109.305C31.0099 109.542 31.1199 109.74 31.2599 109.9C31.3999 110.057 31.5665 110.175 31.7599 110.255C31.9532 110.332 32.1699 110.37 32.4099 110.37C32.6332 110.37 32.8249 110.345 32.9849 110.295C33.1482 110.242 33.2882 110.185 33.4049 110.125C33.5215 110.065 33.6182 110.01 33.6949 109.96C33.7749 109.907 33.8432 109.88 33.8999 109.88C33.9732 109.88 34.0299 109.908 34.0699 109.965L34.3199 110.29ZM38.8831 107.915C38.8831 107.708 38.8531 107.52 38.7931 107.35C38.7364 107.177 38.6514 107.028 38.5381 106.905C38.4281 106.778 38.2931 106.682 38.1331 106.615C37.9731 106.545 37.7914 106.51 37.5881 106.51C37.1614 106.51 36.8231 106.635 36.5731 106.885C36.3264 107.132 36.1731 107.475 36.1131 107.915H38.8831ZM39.6031 110.29C39.4931 110.423 39.3614 110.54 39.2081 110.64C39.0548 110.737 38.8898 110.817 38.7131 110.88C38.5398 110.943 38.3598 110.99 38.1731 111.02C37.9864 111.053 37.8014 111.07 37.6181 111.07C37.2681 111.07 36.9448 111.012 36.6481 110.895C36.3548 110.775 36.0998 110.602 35.8831 110.375C35.6698 110.145 35.5031 109.862 35.3831 109.525C35.2631 109.188 35.2031 108.802 35.2031 108.365C35.2031 108.012 35.2564 107.682 35.3631 107.375C35.4731 107.068 35.6298 106.803 35.8331 106.58C36.0364 106.353 36.2848 106.177 36.5781 106.05C36.8714 105.92 37.2014 105.855 37.5681 105.855C37.8714 105.855 38.1514 105.907 38.4081 106.01C38.6681 106.11 38.8914 106.257 39.0781 106.45C39.2681 106.64 39.4164 106.877 39.5231 107.16C39.6298 107.44 39.6831 107.76 39.6831 108.12C39.6831 108.26 39.6681 108.353 39.6381 108.4C39.6081 108.447 39.5514 108.47 39.4681 108.47H36.0831C36.0931 108.79 36.1364 109.068 36.2131 109.305C36.2931 109.542 36.4031 109.74 36.5431 109.9C36.6831 110.057 36.8498 110.175 37.0431 110.255C37.2364 110.332 37.4531 110.37 37.6931 110.37C37.9164 110.37 38.1081 110.345 38.2681 110.295C38.4314 110.242 38.5714 110.185 38.6881 110.125C38.8048 110.065 38.9014 110.01 38.9781 109.96C39.0581 109.907 39.1264 109.88 39.1831 109.88C39.2564 109.88 39.3131 109.908 39.3531 109.965L39.6031 110.29ZM46.7249 107.915C46.7249 107.708 46.6949 107.52 46.6349 107.35C46.5782 107.177 46.4932 107.028 46.3799 106.905C46.2699 106.778 46.1349 106.682 45.9749 106.615C45.8149 106.545 45.6332 106.51 45.4299 106.51C45.0032 106.51 44.6649 106.635 44.4149 106.885C44.1682 107.132 44.0149 107.475 43.9549 107.915H46.7249ZM47.4449 110.29C47.3349 110.423 47.2032 110.54 47.0499 110.64C46.8965 110.737 46.7315 110.817 46.5549 110.88C46.3815 110.943 46.2015 110.99 46.0149 111.02C45.8282 111.053 45.6432 111.07 45.4599 111.07C45.1099 111.07 44.7865 111.012 44.4899 110.895C44.1965 110.775 43.9415 110.602 43.7249 110.375C43.5115 110.145 43.3449 109.862 43.2249 109.525C43.1049 109.188 43.0449 108.802 43.0449 108.365C43.0449 108.012 43.0982 107.682 43.2049 107.375C43.3149 107.068 43.4715 106.803 43.6749 106.58C43.8782 106.353 44.1265 106.177 44.4199 106.05C44.7132 105.92 45.0432 105.855 45.4099 105.855C45.7132 105.855 45.9932 105.907 46.2499 106.01C46.5099 106.11 46.7332 106.257 46.9199 106.45C47.1099 106.64 47.2582 106.877 47.3649 107.16C47.4715 107.44 47.5249 107.76 47.5249 108.12C47.5249 108.26 47.5099 108.353 47.4799 108.4C47.4499 108.447 47.3932 108.47 47.3099 108.47H43.9249C43.9349 108.79 43.9782 109.068 44.0549 109.305C44.1349 109.542 44.2449 109.74 44.3849 109.9C44.5249 110.057 44.6915 110.175 44.8849 110.255C45.0782 110.332 45.2949 110.37 45.5349 110.37C45.7582 110.37 45.9499 110.345 46.1099 110.295C46.2732 110.242 46.4132 110.185 46.5299 110.125C46.6465 110.065 46.7432 110.01 46.8199 109.96C46.8999 109.907 46.9682 109.88 47.0249 109.88C47.0982 109.88 47.1549 109.908 47.1949 109.965L47.4449 110.29ZM49.5381 103.635V111H48.6481V103.635H49.5381ZM54.3714 107.915C54.3714 107.708 54.3414 107.52 54.2814 107.35C54.2247 107.177 54.1397 107.028 54.0264 106.905C53.9164 106.778 53.7814 106.682 53.6214 106.615C53.4614 106.545 53.2797 106.51 53.0764 106.51C52.6497 106.51 52.3114 106.635 52.0614 106.885C51.8147 107.132 51.6614 107.475 51.6014 107.915H54.3714ZM55.0914 110.29C54.9814 110.423 54.8497 110.54 54.6964 110.64C54.543 110.737 54.378 110.817 54.2014 110.88C54.028 110.943 53.848 110.99 53.6614 111.02C53.4747 111.053 53.2897 111.07 53.1064 111.07C52.7564 111.07 52.433 111.012 52.1364 110.895C51.843 110.775 51.588 110.602 51.3714 110.375C51.158 110.145 50.9914 109.862 50.8714 109.525C50.7514 109.188 50.6914 108.802 50.6914 108.365C50.6914 108.012 50.7447 107.682 50.8514 107.375C50.9614 107.068 51.118 106.803 51.3214 106.58C51.5247 106.353 51.773 106.177 52.0664 106.05C52.3597 105.92 52.6897 105.855 53.0564 105.855C53.3597 105.855 53.6397 105.907 53.8964 106.01C54.1564 106.11 54.3797 106.257 54.5664 106.45C54.7564 106.64 54.9047 106.877 55.0114 107.16C55.118 107.44 55.1714 107.76 55.1714 108.12C55.1714 108.26 55.1564 108.353 55.1264 108.4C55.0964 108.447 55.0397 108.47 54.9564 108.47H51.5714C51.5814 108.79 51.6247 109.068 51.7014 109.305C51.7814 109.542 51.8914 109.74 52.0314 109.9C52.1714 110.057 52.338 110.175 52.5314 110.255C52.7247 110.332 52.9414 110.37 53.1814 110.37C53.4047 110.37 53.5964 110.345 53.7564 110.295C53.9197 110.242 54.0597 110.185 54.1764 110.125C54.293 110.065 54.3897 110.01 54.4664 109.96C54.5464 109.907 54.6147 109.88 54.6714 109.88C54.7447 109.88 54.8014 109.908 54.8414 109.965L55.0914 110.29ZM56.2646 111V105.935H56.7996C56.9262 105.935 57.0046 105.997 57.0346 106.12L57.0996 106.64C57.2862 106.41 57.4962 106.222 57.7296 106.075C57.9629 105.928 58.2329 105.855 58.5396 105.855C58.8796 105.855 59.1546 105.95 59.3646 106.14C59.5779 106.33 59.7312 106.587 59.8246 106.91C59.8979 106.727 59.9912 106.568 60.1046 106.435C60.2212 106.302 60.3512 106.192 60.4946 106.105C60.6379 106.018 60.7896 105.955 60.9496 105.915C61.1129 105.875 61.2779 105.855 61.4446 105.855C61.7112 105.855 61.9479 105.898 62.1546 105.985C62.3646 106.068 62.5412 106.192 62.6846 106.355C62.8312 106.518 62.9429 106.72 63.0196 106.96C63.0962 107.197 63.1346 107.468 63.1346 107.775V111H62.2396V107.775C62.2396 107.378 62.1529 107.078 61.9796 106.875C61.8062 106.668 61.5562 106.565 61.2296 106.565C61.0829 106.565 60.9429 106.592 60.8096 106.645C60.6796 106.695 60.5646 106.77 60.4646 106.87C60.3646 106.97 60.2846 107.097 60.2246 107.25C60.1679 107.4 60.1396 107.575 60.1396 107.775V111H59.2446V107.775C59.2446 107.368 59.1629 107.065 58.9996 106.865C58.8362 106.665 58.5979 106.565 58.2846 106.565C58.0646 106.565 57.8612 106.625 57.6746 106.745C57.4879 106.862 57.3162 107.022 57.1596 107.225V111H56.2646ZM67.8772 107.915C67.8772 107.708 67.8472 107.52 67.7872 107.35C67.7306 107.177 67.6456 107.028 67.5322 106.905C67.4222 106.778 67.2872 106.682 67.1272 106.615C66.9672 106.545 66.7856 106.51 66.5822 106.51C66.1556 106.51 65.8172 106.635 65.5672 106.885C65.3206 107.132 65.1672 107.475 65.1072 107.915H67.8772ZM68.5972 110.29C68.4872 110.423 68.3556 110.54 68.2022 110.64C68.0489 110.737 67.8839 110.817 67.7072 110.88C67.5339 110.943 67.3539 110.99 67.1672 111.02C66.9806 111.053 66.7956 111.07 66.6122 111.07C66.2622 111.07 65.9389 111.012 65.6422 110.895C65.3489 110.775 65.0939 110.602 64.8772 110.375C64.6639 110.145 64.4972 109.862 64.3772 109.525C64.2572 109.188 64.1972 108.802 64.1972 108.365C64.1972 108.012 64.2506 107.682 64.3572 107.375C64.4672 107.068 64.6239 106.803 64.8272 106.58C65.0306 106.353 65.2789 106.177 65.5722 106.05C65.8656 105.92 66.1956 105.855 66.5622 105.855C66.8656 105.855 67.1456 105.907 67.4022 106.01C67.6622 106.11 67.8856 106.257 68.0722 106.45C68.2622 106.64 68.4106 106.877 68.5172 107.16C68.6239 107.44 68.6772 107.76 68.6772 108.12C68.6772 108.26 68.6622 108.353 68.6322 108.4C68.6022 108.447 68.5456 108.47 68.4622 108.47H65.0772C65.0872 108.79 65.1306 109.068 65.2072 109.305C65.2872 109.542 65.3972 109.74 65.5372 109.9C65.6772 110.057 65.8439 110.175 66.0372 110.255C66.2306 110.332 66.4472 110.37 66.6872 110.37C66.9106 110.37 67.1022 110.345 67.2622 110.295C67.4256 110.242 67.5656 110.185 67.6822 110.125C67.7989 110.065 67.8956 110.01 67.9722 109.96C68.0522 109.907 68.1206 109.88 68.1772 109.88C68.2506 109.88 68.3072 109.908 68.3472 109.965L68.5972 110.29ZM70.6104 106.67C70.7204 106.547 70.8371 106.435 70.9604 106.335C71.0838 106.235 71.2138 106.15 71.3504 106.08C71.4904 106.007 71.6371 105.952 71.7904 105.915C71.9471 105.875 72.1154 105.855 72.2954 105.855C72.5721 105.855 72.8154 105.902 73.0254 105.995C73.2388 106.085 73.4154 106.215 73.5554 106.385C73.6988 106.552 73.8071 106.753 73.8804 106.99C73.9538 107.227 73.9904 107.488 73.9904 107.775V111H73.0954V107.775C73.0954 107.392 73.0071 107.095 72.8304 106.885C72.6571 106.672 72.3921 106.565 72.0354 106.565C71.7721 106.565 71.5254 106.628 71.2954 106.755C71.0688 106.882 70.8588 107.053 70.6654 107.27V111H69.7704V105.935H70.3054C70.4321 105.935 70.5104 105.997 70.5404 106.12L70.6104 106.67ZM76.8332 111.08C76.4332 111.08 76.1249 110.968 75.9082 110.745C75.6949 110.522 75.5882 110.2 75.5882 109.78V106.68H74.9782C74.9249 106.68 74.8799 106.665 74.8432 106.635C74.8066 106.602 74.7882 106.552 74.7882 106.485V106.13L75.6182 106.025L75.8232 104.46C75.8332 104.41 75.8549 104.37 75.8882 104.34C75.9249 104.307 75.9716 104.29 76.0282 104.29H76.4782V106.035H77.9432V106.68H76.4782V109.72C76.4782 109.933 76.5299 110.092 76.6332 110.195C76.7366 110.298 76.8699 110.35 77.0332 110.35C77.1266 110.35 77.2066 110.338 77.2732 110.315C77.3432 110.288 77.4032 110.26 77.4532 110.23C77.5032 110.2 77.5449 110.173 77.5782 110.15C77.6149 110.123 77.6466 110.11 77.6732 110.11C77.7199 110.11 77.7616 110.138 77.7982 110.195L78.0582 110.62C77.9049 110.763 77.7199 110.877 77.5032 110.96C77.2866 111.04 77.0632 111.08 76.8332 111.08Z" fill="black"/>
<line x1="83.1789" y1="110.642" x2="155.501" y2="146.804" stroke="black" stroke-width="0.8"/>
<line x1="486.805" y1="100.334" x2="412.579" y2="132.689" stroke="black" stroke-width="0.8"/>
<circle cx="154.5" cy="146.5" r="2.5" fill="black"/>
<circle cx="412" cy="133" r="3" fill="black"/>
</g>
<defs>
<clipPath id="clip0_41_364">
<rect width="600" height="320" fill="white"/>
</clipPath>
</defs>
</svg>
